<svg xmlns="http://www.w3.org/2000/svg" xmlns:xlink="http://www.w3.org/1999/xlink" width="36.586" height="28.746" viewBox="0 0 36.586 28.746">
  <defs>
    <linearGradient id="linear-gradient" x2="1" y2="1" gradientUnits="objectBoundingBox">
      <stop offset="0" stop-color="#f67f2d"/>
      <stop offset="1" stop-color="#fe4b8d"/>
    </linearGradient>
  </defs>
  <g id="Group_9047" data-name="Group 9047" transform="translate(-4 -10)">
    <g id="front_end" data-name="front end" transform="translate(4 10)">
      <path id="Path_14812" data-name="Path 14812" d="M21.231,32.07a.651.651,0,0,0,.408.143h-4.3L16.16,31.036l2.159-1.3Zm.408.143h0ZM11.8,28.523,8.573,31.213v1h6.916Zm17.68-8.07H26.866v4.573h2.613ZM8.573,29.511V20.453H21.64V30.723l-2.858-2.287a.656.656,0,0,0-.745-.05l-2.829,1.7L12.3,27.178a.654.654,0,0,0-.88-.04Zm5.88-5.138a1.96,1.96,0,1,0,1.96-1.96A1.96,1.96,0,0,0,14.453,24.373Zm26.133-7.84V37.439a1.308,1.308,0,0,1-1.307,1.307H5.307A1.308,1.308,0,0,1,4,37.439V16.533Zm-8.493,3.92a.653.653,0,0,0,.653.653h1.307a.653.653,0,0,0,0-1.307H32.746a.653.653,0,0,0-.653.653ZM25.56,25.68a.653.653,0,0,0,.653.653h3.92a.653.653,0,0,0,.653-.653V19.8a.653.653,0,0,0-.653-.653h-3.92a.653.653,0,0,0-.653.653ZM22.946,19.8a.653.653,0,0,0-.653-.653H7.92a.653.653,0,0,0-.653.653V32.866a.653.653,0,0,0,.653.653H22.293a.653.653,0,0,0,.653-.653Zm14.373,8.493a.653.653,0,0,0-.653-.653H26.213a.653.653,0,0,0-.653.653v4.573a.653.653,0,0,0,.653.653H36.666a.653.653,0,0,0,.653-.653Zm0-2.613a.653.653,0,0,0-.653-.653h-3.92a.653.653,0,0,0,0,1.307h3.92a.653.653,0,0,0,.653-.653Zm0-2.613a.653.653,0,0,0-.653-.653h-3.92a.653.653,0,0,0,0,1.307h3.92a.653.653,0,0,0,.653-.653ZM26.866,32.213h9.146V28.946H26.866ZM4,15.227v-3.92A1.308,1.308,0,0,1,5.307,10H39.279a1.308,1.308,0,0,1,1.307,1.307v3.92Zm32.666-2.613a.653.653,0,1,0,.653-.653A.653.653,0,0,0,36.666,12.613Zm-30.053,0a.653.653,0,0,0,.653.653h7.187a.653.653,0,0,0,0-1.307H7.267a.653.653,0,0,0-.653.653Zm9.8,12.413a.653.653,0,1,0-.653-.653A.653.653,0,0,0,16.413,25.026Z" transform="translate(-4 -10)" fill="url(#linear-gradient)"/>
    </g>
  </g>
</svg>
