<svg xmlns="http://www.w3.org/2000/svg" viewBox="0 0 65.469 65.461" width="65.469" height="65.461"><defs><linearGradient id="a" x2="1" y2="1" gradientUnits="objectBoundingBox"><stop offset="0" stop-color="#f67f2d"/><stop offset="1" stop-color="#fe4b8d"/></linearGradient><clipPath id="b"><path fill="url(#a)" stroke="rgba(0,0,0,0)" d="M0 0h65.469v65.461H0z" data-name="Rectangle 894"/></clipPath></defs><g data-name="Group 544"><g clip-path="url(#b)" data-name="Group 1807" transform="translate(0 .001)"><path fill="url(#a)" stroke="rgba(0,0,0,0)" d="M65.355 46.011c-.836-7.519-7.9-14.552-15.422-15.353a17.941 17.941 0 0 0-1.924-.11h-12v-4.364h-2.184V24a4.364 4.364 0 0 0-4.364-4.364h-5.455a2.182 2.182 0 0 1 0-4.364h17.457a4.364 4.364 0 1 0 0-8.727h-5.455a2.182 2.182 0 0 1-2.183-2.183V0h-2.181v4.364a4.364 4.364 0 0 0 4.364 4.364h5.455a2.182 2.182 0 0 1 0 4.364H24.006a4.364 4.364 0 1 0 0 8.727h5.455A2.182 2.182 0 0 1 31.644 24v2.181h-2.183v4.364h-12a17.969 17.969 0 0 0-1.927.109C8.006 31.465.95 38.5.115 46.016a17.455 17.455 0 0 0 26.533 16.826 10.7 10.7 0 0 1 4.789-1.692 16.786 16.786 0 0 1 2.536-.009 10.754 10.754 0 0 1 4.864 1.711 17.456 17.456 0 0 0 26.519-16.84M25.1 50.186h-5.458v5.455h-4.363v-5.455H9.824v-4.364h5.455v-5.455h4.363v5.455H25.1Zm8.727-19.638h-2.183v-2.181h2.181Zm6.542 20.725A3.273 3.273 0 1 1 43.64 48a3.273 3.273 0 0 1-3.273 3.273M48 57.819a3.273 3.273 0 1 1 3.272-3.273A3.273 3.273 0 0 1 48 57.819m0-13.091a3.273 3.273 0 1 1 3.272-3.273A3.273 3.273 0 0 1 48 44.728m7.636 6.546A3.273 3.273 0 1 1 58.914 48a3.273 3.273 0 0 1-3.273 3.273" data-name="Path 2278"/></g></g></svg>
