<svg xmlns="http://www.w3.org/2000/svg" viewBox="0 0 54.927 55.681" width="54.927" height="55.681"><defs><linearGradient id="a" x2="1" y2="1" gradientUnits="objectBoundingBox"><stop offset="0" stop-color="#f67f2d"/><stop offset="1" stop-color="#fe4b8d"/></linearGradient></defs><path fill="url(#a)" stroke="rgba(0,0,0,0)" d="m37.349 52.658-9.448-5.449a.435.435 0 0 1-.258-.435q.011-7.3.008-14.589c0-.092-.045-.2.044-.277 1.018-.6 2.032-1.2 3.053-1.785q4.869-2.816 9.741-5.626c.082-.048.185-.072.233-.169h.118c.7.477 1.448.867 2.179 1.289q5.4 3.127 10.816 6.24a.2.2 0 0 1 .039.042c.091.079.047.185.047.277q0 7.306.005 14.612a.389.389 0 0 1-.208.4q-6.378 3.67-12.749 7.352a1.779 1.779 0 0 1-.184.08 678.636 678.636 0 0 1-3.436-1.962Zm3.43-13.175h.008l-.008-.006ZM9.709 52.658.261 47.209A.435.435 0 0 1 0 46.774q.011-7.3.008-14.589c0-.092-.045-.2.043-.277 1.018-.6 2.033-1.2 3.054-1.785q4.873-2.816 9.745-5.623c.082-.048.185-.072.233-.169h.117c.7.477 1.448.867 2.179 1.289q5.4 3.127 10.816 6.24a.185.185 0 0 1 .038.042c.091.079.046.185.046.277q0 7.306.005 14.612a.387.387 0 0 1-.208.4Q19.7 50.86 13.327 54.542a1.706 1.706 0 0 1-.183.08c-1.144-.654-2.292-1.306-3.435-1.964Zm3.431-13.175h.008l-.008-.006ZM23.488 28.33l-9.447-5.45a.432.432 0 0 1-.258-.433q.01-7.3.008-14.59c0-.092-.045-.2.044-.278 1.017-.6 2.032-1.2 3.053-1.785q4.87-2.816 9.742-5.626c.08-.047.183-.068.231-.168h.119c.7.476 1.448.867 2.179 1.288q5.4 3.128 10.816 6.24a.236.236 0 0 1 .039.043c.091.079.046.185.046.276q0 7.306.005 14.612a.39.39 0 0 1-.208.4q-6.378 3.671-12.749 7.353a1.745 1.745 0 0 1-.184.08c-1.147-.652-2.294-1.303-3.436-1.962Zm3.43-13.176h.008l-.008-.006Z" data-name="Union 6" transform="translate(.498 .5)"/></svg>
