<svg id="Group_9052" data-name="Group 9052" xmlns="http://www.w3.org/2000/svg" xmlns:xlink="http://www.w3.org/1999/xlink" width="37.071" height="34.754" viewBox="0 0 37.071 34.754">
  <defs>
    <linearGradient id="linear-gradient" x2="1" y2="1" gradientUnits="objectBoundingBox">
      <stop offset="0" stop-color="#f67f2d"/>
      <stop offset="1" stop-color="#fe4b8d"/>
    </linearGradient>
  </defs>
  <path id="Path_14817" data-name="Path 14817" d="M113.807,422.172h-3.562L109.521,420H96.372l-.724,2.172H92.086a1.086,1.086,0,0,0,0,2.172h21.721a1.086,1.086,0,0,0,0-2.172Zm0,0" transform="translate(-84.411 -389.59)" fill="url(#linear-gradient)"/>
  <path id="Path_14818" data-name="Path 14818" d="M392.086,90a1.086,1.086,0,1,0,1.086,1.086A1.087,1.087,0,0,0,392.086,90Zm0,0" transform="translate(-362.69 -83.484)" fill="url(#linear-gradient)"/>
  <path id="Path_14819" data-name="Path 14819" d="M33.74,0H3.258A3.262,3.262,0,0,0,0,3.258V21.721H6.589V18.463a1.086,1.086,0,0,1,1.086-1.086H9.353a9.665,9.665,0,0,1,.386-.93L8.552,15.259a1.086,1.086,0,0,1,0-1.536l3.072-3.072a1.086,1.086,0,0,1,1.536,0l1.188,1.188a9.716,9.716,0,0,1,.93-.387V9.775a1.086,1.086,0,0,1,1.086-1.086h4.344a1.086,1.086,0,0,1,1.086,1.086v1.678a9.744,9.744,0,0,1,.93.387l1.188-1.188a1.086,1.086,0,0,1,1.536,0l3.072,3.072a1.086,1.086,0,0,1,0,1.536l-1.187,1.188a9.7,9.7,0,0,1,.386.93H29.4a1.086,1.086,0,0,1,1.086,1.086v3.258h6.589V3.258A3.325,3.325,0,0,0,33.74,0ZM29.4,10.861A3.258,3.258,0,1,1,32.654,7.6,3.262,3.262,0,0,1,29.4,10.861Zm0,0" transform="translate(0 0)" fill="url(#linear-gradient)"/>
  <path id="Path_14820" data-name="Path 14820" d="M211,243.258a3.237,3.237,0,0,0,.211,1.086h6.095A3.248,3.248,0,1,0,211,243.258Zm0,0" transform="translate(-195.723 -222.623)" fill="url(#linear-gradient)"/>
  <path id="Path_14821" data-name="Path 14821" d="M123.446,157.874a1.087,1.087,0,0,1-1.052.815H121v2.172h4.487a5.433,5.433,0,1,1,10.575,0h4.487v-2.172h-1.393a1.087,1.087,0,0,1-1.052-.815,7.465,7.465,0,0,0-.8-1.936,1.086,1.086,0,0,1,.167-1.319l.988-.988-1.536-1.536-.988.988a1.082,1.082,0,0,1-1.321.167,7.465,7.465,0,0,0-1.935-.8,1.087,1.087,0,0,1-.815-1.052V150h-2.172v1.393a1.087,1.087,0,0,1-.815,1.052,7.465,7.465,0,0,0-1.935.8,1.082,1.082,0,0,1-1.321-.167l-.988-.988-1.536,1.536.988.988a1.086,1.086,0,0,1,.167,1.319A7.465,7.465,0,0,0,123.446,157.874Zm0,0" transform="translate(-112.239 -139.139)" fill="url(#linear-gradient)"/>
  <path id="Path_14822" data-name="Path 14822" d="M0,331.086a3.262,3.262,0,0,0,3.258,3.258H33.74a3.325,3.325,0,0,0,3.331-3.258V330H0Zm0,0" transform="translate(0 -306.107)" fill="url(#linear-gradient)"/>
</svg>
