<svg xmlns="http://www.w3.org/2000/svg" width="512" height="512" viewBox="0 0 189.524 189.524" style="enable-background:new 0 0 512 512" xml:space="preserve"><g xmlns="http://www.w3.org/2000/svg"><path d="M94.762 189.524C42.509 189.524 0 147.011 0 94.762 0 42.509 42.509 0 94.762 0c52.249 0 94.762 42.509 94.762 94.762 0 52.249-42.513 94.762-94.762 94.762zm0-180.048c-47.025 0-85.286 38.261-85.286 85.286 0 47.029 38.261 85.286 85.286 85.286 47.029 0 85.286-38.256 85.286-85.286 0-47.025-38.257-85.286-85.286-85.286z" fill="#32478a" data-original="#000000"/><path clip-rule="evenodd" d="M127.929 71.072a4.738 4.738 0 0 1 .353 6.691L92.148 117.91c-3.631 4.035-9.905 4.2-13.744.361l-16.808-16.809a4.74 4.74 0 0 1 6.701-6.701l13.278 13.278a4.739 4.739 0 0 0 6.872-.181l32.791-36.435a4.738 4.738 0 0 1 6.691-.351z" fill-rule="evenodd" fill="#32478a" data-original="#000000"/></g></svg>