<svg xmlns="http://www.w3.org/2000/svg" width="53.367" height="53.367" viewBox="0 0 53.367 53.367">
  <g id="Group_8981" data-name="Group 8981" transform="translate(-1 -1)">
    <g id="Group_8980" data-name="Group 8980" transform="translate(1 1)">
      <path id="Path_14720" data-name="Path 14720" d="M49.025,43a6.025,6.025,0,1,0,6.025,6.025A6.032,6.032,0,0,0,49.025,43Zm0,10.329a4.3,4.3,0,1,1,4.3-4.3A4.309,4.309,0,0,1,49.025,53.329Z" transform="translate(-6.848 -6.848)" fill="#32478a"/>
      <path id="Path_14721" data-name="Path 14721" d="M49.582,47a2.582,2.582,0,1,0,2.582,2.582A2.585,2.585,0,0,0,49.582,47Zm0,3.443a.861.861,0,1,1,.861-.861A.862.862,0,0,1,49.582,50.443Z" transform="translate(-7.405 -7.405)" fill="#32478a"/>
      <path id="Path_14722" data-name="Path 14722" d="M3.253,24.329h.329V37.24H5.3V22.608H3.253a.532.532,0,0,1-.476-.77l2.911-5.822a.552.552,0,0,1,.951,0l2.911,5.822a.519.519,0,0,1,.057.238.532.532,0,0,1-.532.532H7.025V37.24H8.747V24.329h.329a2.254,2.254,0,0,0,2.016-3.261L8.18,15.246a2.254,2.254,0,0,0-4.032,0L1.238,21.068a2.254,2.254,0,0,0,2.016,3.261Z" transform="translate(-1 -2.81)" fill="#32478a"/>
      <path id="Path_14723" data-name="Path 14723" d="M18.149,24.994a2.254,2.254,0,0,0,4.032,0l2.911-5.822a2.254,2.254,0,0,0-2.016-3.261h-.329V3H21.025V17.633h2.05a.532.532,0,0,1,.476.77l-2.911,5.822a.552.552,0,0,1-.951,0L16.778,18.4a.519.519,0,0,1-.057-.238.532.532,0,0,1,.532-.532H19.3V3H17.582V15.911h-.329a2.254,2.254,0,0,0-2.016,3.261Z" transform="translate(-2.949 -1.278)" fill="#32478a"/>
      <path id="Path_14724" data-name="Path 14724" d="M50.063,1H29.4a4.309,4.309,0,0,0-4.3,4.3V28.581a11.232,11.232,0,0,0-8.565,5.13l-.042,0a8.653,8.653,0,0,0-7.965,5.355,6.025,6.025,0,1,0-1.5,11.86H35.1l.468.468a2.642,2.642,0,0,0,3.065.491.879.879,0,0,1,.752-.033c.111.048.224.095.336.139a.881.881,0,0,1,.513.558,2.642,2.642,0,0,0,2.514,1.821h.857a2.642,2.642,0,0,0,2.514-1.821.882.882,0,0,1,.511-.556c.114-.044.226-.09.338-.139a.883.883,0,0,1,.751.033,2.642,2.642,0,0,0,3.065-.491l.607-.606a2.64,2.64,0,0,0,.491-3.065.885.885,0,0,1-.033-.752c.048-.111.095-.224.139-.336a.881.881,0,0,1,.558-.513,2.644,2.644,0,0,0,1.82-2.515V5.3a4.309,4.309,0,0,0-4.3-4.3ZM29.4,2.722H50.063A2.585,2.585,0,0,1,52.645,5.3V40.275c-.034-.013-.065-.03-.1-.042a.882.882,0,0,1-.556-.511c-.044-.114-.09-.226-.139-.338a.886.886,0,0,1,.033-.751,2.64,2.64,0,0,0-.491-3.065l-.469-.468V6.165A1.723,1.723,0,0,0,49.2,4.443H30.266a1.723,1.723,0,0,0-1.722,1.722V28.851a11.137,11.137,0,0,0-1.722-.273V5.3A2.585,2.585,0,0,1,29.4,2.722ZM35.93,34.662a11.258,11.258,0,0,0-5.664-5.245v-2.6H49.2v7.384a2.639,2.639,0,0,0-1.481.263.882.882,0,0,1-.752.033c-.11-.048-.223-.094-.336-.139a.883.883,0,0,1-.513-.558,2.642,2.642,0,0,0-2.514-1.82h-.857a2.642,2.642,0,0,0-2.514,1.821.88.88,0,0,1-.513.556c-.113.044-.225.09-.337.139a.883.883,0,0,1-.751-.033,2.638,2.638,0,0,0-2.7.192ZM49.2,11.329H30.266V6.165H49.2ZM30.266,13.051H49.2v5.165H30.266Zm0,6.886H49.2V25.1H30.266ZM2.722,44.9a4.3,4.3,0,0,1,6-3.956l.894.383.272-.934a6.883,6.883,0,0,1,12.334-1.9l1.431-.957a8.6,8.6,0,0,0-5.179-3.588,9.463,9.463,0,0,1,16.171,2.017,2.634,2.634,0,0,0-.171,2.67.885.885,0,0,1,.033.752c-.048.111-.095.224-.139.336a.881.881,0,0,1-.558.513,2.644,2.644,0,0,0-1.821,2.515v.857a2.642,2.642,0,0,0,1.821,2.514.882.882,0,0,1,.556.511c.044.114.09.226.139.338a.886.886,0,0,1-.033.751,2.638,2.638,0,0,0-.263,1.481H7.025a4.309,4.309,0,0,1-4.3-4.3Zm49.924-1.293a.924.924,0,0,1-.637.879,2.6,2.6,0,0,0-1.623,1.525c-.036.092-.074.184-.113.274a2.6,2.6,0,0,0,.075,2.214.922.922,0,0,1-.171,1.071l-.607.607a.922.922,0,0,1-1.071.171,2.6,2.6,0,0,0-2.213-.075q-.136.058-.276.114a2.6,2.6,0,0,0-1.524,1.624.923.923,0,0,1-.879.636h-.857a.924.924,0,0,1-.879-.637,2.6,2.6,0,0,0-1.525-1.623c-.092-.036-.184-.074-.274-.113a2.548,2.548,0,0,0-1.021-.213,2.652,2.652,0,0,0-1.193.287.923.923,0,0,1-1.071-.171l-.607-.607a.922.922,0,0,1-.171-1.071,2.6,2.6,0,0,0,.075-2.213q-.058-.136-.114-.276a2.6,2.6,0,0,0-1.624-1.524.921.921,0,0,1-.636-.878v-.857a.924.924,0,0,1,.636-.879,2.6,2.6,0,0,0,1.624-1.525c.036-.092.074-.184.113-.274a2.6,2.6,0,0,0-.075-2.214.924.924,0,0,1,.171-1.072l.606-.606a.919.919,0,0,1,1.072-.171,2.6,2.6,0,0,0,2.213.075c.091-.04.183-.077.275-.113a2.6,2.6,0,0,0,1.525-1.624.923.923,0,0,1,.879-.637h.857a.924.924,0,0,1,.879.637,2.6,2.6,0,0,0,1.524,1.623c.092.036.184.074.275.113a2.6,2.6,0,0,0,2.214-.075.923.923,0,0,1,1.072.171l.606.606a.924.924,0,0,1,.171,1.072,2.6,2.6,0,0,0-.075,2.213q.058.136.114.276a2.6,2.6,0,0,0,1.624,1.524.923.923,0,0,1,.636.879v.857Z" transform="translate(-1 -1)" fill="#32478a"/>
      <path id="Path_14725" data-name="Path 14725" d="M37,9h1.722v1.722H37Z" transform="translate(-6.013 -2.114)" fill="#32478a"/>
      <path id="Path_14726" data-name="Path 14726" d="M41,9h1.722v1.722H41Z" transform="translate(-6.57 -2.114)" fill="#32478a"/>
      <path id="Path_14727" data-name="Path 14727" d="M37,25h1.722v1.722H37Z" transform="translate(-6.013 -4.342)" fill="#32478a"/>
      <path id="Path_14728" data-name="Path 14728" d="M41,25h1.722v1.722H41Z" transform="translate(-6.57 -4.342)" fill="#32478a"/>
      <path id="Path_14729" data-name="Path 14729" d="M53,17h1.722v1.722H53Z" transform="translate(-8.241 -3.228)" fill="#32478a"/>
      <path id="Path_14730" data-name="Path 14730" d="M49,17h1.722v1.722H49Z" transform="translate(-7.684 -3.228)" fill="#32478a"/>
      <path id="Path_14731" data-name="Path 14731" d="M53,33h1.722v1.722H53Z" transform="translate(-8.241 -5.456)" fill="#32478a"/>
      <path id="Path_14732" data-name="Path 14732" d="M49,33h1.722v1.722H49Z" transform="translate(-7.684 -5.456)" fill="#32478a"/>
      <path id="Path_14733" data-name="Path 14733" d="M29.687,37a7.741,7.741,0,0,0-1.937.244l.43,1.667a6.033,6.033,0,0,1,7.343,4.329l1.667-.43A7.744,7.744,0,0,0,29.687,37Z" transform="translate(-4.725 -6.013)" fill="#32478a"/>
      <path id="Path_14734" data-name="Path 14734" d="M18.181,43a5.179,5.179,0,0,0-5.061,4.132l1.687.343a3.452,3.452,0,0,1,3.374-2.754A3.416,3.416,0,0,1,20.937,46.1l1.376-1.034A5.126,5.126,0,0,0,18.181,43Z" transform="translate(-2.688 -6.848)" fill="#32478a"/>
    </g>
  </g>
</svg>
