<svg xmlns="http://www.w3.org/2000/svg" width="56.983" height="56.985" viewBox="0 0 56.983 56.985">
  <g id="Group_8984" data-name="Group 8984" transform="translate(-16 -15.981)">
    <g id="Outline" transform="translate(16 15.981)">
      <g id="Hosting-server-cloud">
        <path id="Path_14740" data-name="Path 14740" d="M176,160h11.4v1.9H176Z" transform="translate(-157.006 -142.903)" fill="#32478a"/>
        <path id="Path_14741" data-name="Path 14741" d="M288,160h1.9v1.9H288Z" transform="translate(-255.71 -142.903)" fill="#32478a"/>
        <path id="Path_14742" data-name="Path 14742" d="M320,160h1.9v1.9H320Z" transform="translate(-283.911 -142.903)" fill="#32478a"/>
        <path id="Path_14743" data-name="Path 14743" d="M176,224h11.4v1.9H176Z" transform="translate(-157.006 -199.305)" fill="#32478a"/>
        <path id="Path_14744" data-name="Path 14744" d="M288,224h1.9v1.9H288Z" transform="translate(-255.71 -199.305)" fill="#32478a"/>
        <path id="Path_14745" data-name="Path 14745" d="M320,224h1.9v1.9H320Z" transform="translate(-283.911 -199.305)" fill="#32478a"/>
        <path id="Path_14746" data-name="Path 14746" d="M176,288h11.4v1.9H176Z" transform="translate(-157.006 -255.707)" fill="#32478a"/>
        <path id="Path_14747" data-name="Path 14747" d="M288,288h1.9v1.9H288Z" transform="translate(-255.71 -255.707)" fill="#32478a"/>
        <path id="Path_14748" data-name="Path 14748" d="M320,288h1.9v1.9H320Z" transform="translate(-283.911 -255.707)" fill="#32478a"/>
        <path id="Path_14749" data-name="Path 14749" d="M69.184,54.922a3.806,3.806,0,0,0-3.679,2.849H54.938v-3.8a2.852,2.852,0,0,0,2.849-2.849V48.274h5.7a9.5,9.5,0,1,0-1.549-18.868A18.048,18.048,0,0,0,28.565,25.54a11.547,11.547,0,0,0-1.168-.059,11.4,11.4,0,0,0,0,22.793h3.8v2.849a2.852,2.852,0,0,0,2.849,2.849v3.8H23.477a3.8,3.8,0,1,0,0,1.9H34.994a.95.95,0,0,0,.95-.95V53.972h1.9v7.6h-7.6a.95.95,0,0,0-.95.95v2.969a3.8,3.8,0,1,0,1.9,0v-2.02h7.6a.95.95,0,0,0,.95-.95V53.972h3.8V63.59a3.8,3.8,0,1,0,1.9,0V53.972h3.8V62.52a.95.95,0,0,0,.95.95h7.6v2.02a3.8,3.8,0,1,0,1.9,0V62.52a.95.95,0,0,0-.95-.95h-7.6v-7.6h1.9v4.749a.95.95,0,0,0,.95.95H65.506a3.8,3.8,0,1,0,3.679-4.749ZM19.8,60.62a1.9,1.9,0,1,1,1.9-1.9A1.9,1.9,0,0,1,19.8,60.62Zm12.346,8.547a1.9,1.9,0,1,1-1.9-1.9,1.9,1.9,0,0,1,1.9,1.9Zm14.246-1.9a1.9,1.9,0,1,1-1.9-1.9A1.9,1.9,0,0,1,46.391,67.268Zm14.246,1.9a1.9,1.9,0,1,1-1.9-1.9A1.9,1.9,0,0,1,60.637,69.168ZM33.095,35.928v-3.8a.951.951,0,0,1,.95-.95H54.938a.951.951,0,0,1,.95.95v3.8a.951.951,0,0,1-.95.95H34.045A.951.951,0,0,1,33.095,35.928Zm0,7.6v-3.8a.951.951,0,0,1,.95-.95H54.938a.951.951,0,0,1,.95.95v3.8a.951.951,0,0,1-.95.95H34.045A.951.951,0,0,1,33.095,43.525ZM17.9,36.877a9.508,9.508,0,0,1,9.5-9.5,9.616,9.616,0,0,1,1.557.127.949.949,0,0,0,1.007-.523A16.149,16.149,0,0,1,60.3,30.725a.95.95,0,0,0,1.182.722,7.6,7.6,0,1,1,2.005,14.927H57.624a2.851,2.851,0,0,0-.564-.95,2.837,2.837,0,0,0,.728-1.9v-3.8a2.837,2.837,0,0,0-.728-1.9,2.837,2.837,0,0,0,.728-1.9v-3.8a2.852,2.852,0,0,0-2.849-2.849H34.045A2.852,2.852,0,0,0,31.2,32.129v3.8a2.837,2.837,0,0,0,.728,1.9,2.837,2.837,0,0,0-.728,1.9v3.8a2.837,2.837,0,0,0,.728,1.9,2.851,2.851,0,0,0-.564.95H27.4a9.508,9.508,0,0,1-9.5-9.5Zm15.2,14.246v-3.8a.951.951,0,0,1,.95-.95H54.938a.951.951,0,0,1,.95.95v3.8a.951.951,0,0,1-.95.95H34.045a.951.951,0,0,1-.95-.95Zm36.089,9.5a1.9,1.9,0,1,1,1.9-1.9A1.9,1.9,0,0,1,69.184,60.62Z" transform="translate(-16 -15.981)" fill="#32478a"/>
      </g>
    </g>
  </g>
</svg>
