<svg id="Group_2405" data-name="Group 2405" xmlns="http://www.w3.org/2000/svg" width="56" height="56" viewBox="0 0 56 56">
  <g id="XMLID_816_">
    <g id="XMLID_1663_">
      <g id="XMLID_709_">
        <path id="XMLID_710_" d="M232.024,364.99a1.094,1.094,0,1,0,.773.32A1.1,1.1,0,0,0,232.024,364.99Z" transform="translate(-205.672 -325.07)" fill="#32478a"/>
        <path id="XMLID_734_" d="M422.864,335.12a1.094,1.094,0,1,0,.773.32A1.1,1.1,0,0,0,422.864,335.12Z" transform="translate(-375.639 -298.467)" fill="#32478a"/>
        <path id="XMLID_735_" d="M127.033,287a1.094,1.094,0,1,0,.773.32A1.1,1.1,0,0,0,127.033,287Z" transform="translate(-112.165 -255.61)" fill="#32478a"/>
        <path id="XMLID_744_" d="M56,11.871a1.094,1.094,0,0,0-1.094-1.094H53.221A11.817,11.817,0,0,0,52.3,8.562l1.191-1.191a1.094,1.094,0,0,0,0-1.547L50.175,2.5a1.094,1.094,0,0,0-1.547,0L47.437,3.7a11.824,11.824,0,0,0-2.215-.917V1.094A1.094,1.094,0,0,0,44.128,0h-4.7a1.094,1.094,0,0,0-1.094,1.094V2.782a11.82,11.82,0,0,0-2.211.918l-1.2-1.2a1.094,1.094,0,0,0-1.547,0l-3.32,3.32a1.092,1.092,0,0,0-.3.957H4.379A4.384,4.384,0,0,0,0,11.16V41.34a4.384,4.384,0,0,0,4.379,4.379H21.758v3.719H19.136A3.946,3.946,0,0,0,15.2,53.378v1.527A1.094,1.094,0,0,0,16.289,56H36.414a1.094,1.094,0,0,0,1.094-1.094V53.378a3.946,3.946,0,0,0-3.941-3.941H30.945V45.718H48.314a4.384,4.384,0,0,0,4.379-4.379V23.415l.8-.8a1.094,1.094,0,0,0,0-1.547l-1.2-1.2a11.824,11.824,0,0,0,.918-2.211h1.688A1.094,1.094,0,0,0,56,16.566ZM35.32,53.378v.434H17.383v-.434a1.756,1.756,0,0,1,1.754-1.754h14.43A1.756,1.756,0,0,1,35.32,53.378Zm-6.562-3.941H23.945V45.718h4.812Zm21.748-8.1a2.194,2.194,0,0,1-2.191,2.191H4.379A2.194,2.194,0,0,1,2.187,41.34v-2.5H42.849a1.094,1.094,0,1,0,0-2.187H2.187V33.578h8.349a1.094,1.094,0,1,0,0-2.187H2.187V11.16A2.194,2.194,0,0,1,4.379,8.969H31.063a11.826,11.826,0,0,0-.709,1.809h-1.7a1.094,1.094,0,0,0-1.094,1.094v4.695a1.094,1.094,0,0,0,1.094,1.094h1.7a11.832,11.832,0,0,0,.913,2.2l-1.2,1.2a1.094,1.094,0,0,0,0,1.547l3.32,3.32a1.094,1.094,0,0,0,1.547,0l1.2-1.2a11.82,11.82,0,0,0,2.2.913v1.7a1.094,1.094,0,0,0,1.094,1.094h4.7a1.094,1.094,0,0,0,1.094-1.094v-1.7a11.82,11.82,0,0,0,2.207-.912l1.2,1.2a1.094,1.094,0,0,0,1.547,0l.33-.33V41.34Zm3.307-25.867H52.373a1.094,1.094,0,0,0-1.068.857,9.663,9.663,0,0,1-1.3,3.126,1.094,1.094,0,0,0,.147,1.364l1.02,1.02L49.4,23.612l-1.023-1.023a1.1,1.1,0,0,0-1.263-.2,1.076,1.076,0,0,0-.1.056,9.663,9.663,0,0,1-3.124,1.292,1.094,1.094,0,0,0-.859,1.068v1.45H40.527V24.8a1.094,1.094,0,0,0-.857-1.068,9.665,9.665,0,0,1-3.119-1.294,1.094,1.094,0,0,0-1.362.149L34.16,23.612l-1.773-1.773,1.028-1.028a1.094,1.094,0,0,0,.148-1.364A9.663,9.663,0,0,1,32.27,16.33a1.094,1.094,0,0,0-1.068-.857H29.75V12.965H31.2a1.094,1.094,0,0,0,1.068-.859,9.662,9.662,0,0,1,1.29-3.121,1.094,1.094,0,0,0-.148-1.364L32.387,6.6,34.16,4.825l1.02,1.02a1.1,1.1,0,0,0,1.38.138,9.659,9.659,0,0,1,3.11-1.288,1.094,1.094,0,0,0,.857-1.068V2.187h2.508V3.624a1.094,1.094,0,0,0,.859,1.068,9.664,9.664,0,0,1,3.131,1.3,1.095,1.095,0,0,0,1.362-.149L49.4,4.825,51.175,6.6,50.16,7.612a1.094,1.094,0,0,0-.147,1.364,9.658,9.658,0,0,1,1.295,3.129,1.094,1.094,0,0,0,1.068.859h1.436v2.508Z" fill="#32478a"/>
        <path id="XMLID_999_" d="M326.781,68a6.781,6.781,0,1,0,6.781,6.781A6.789,6.789,0,0,0,326.781,68Zm0,11.375a4.594,4.594,0,1,1,4.594-4.594A4.6,4.6,0,0,1,326.781,79.375Z" transform="translate(-285 -60.563)" fill="#32478a"/>
        <path id="XMLID_1012_" d="M154.764,187.22a1.094,1.094,0,1,0,.773.32A1.1,1.1,0,0,0,154.764,187.22Z" transform="translate(-136.863 -166.743)" fill="#32478a"/>
        <path id="XMLID_1094_" d="M102.383,124.762a1.093,1.093,0,0,0-.109-.83l-1.847-3.2a1.094,1.094,0,0,0-1.494-.4l-1.052.607a6.917,6.917,0,0,0-1.094-.633v-1.214A1.094,1.094,0,0,0,95.693,118H92a1.094,1.094,0,0,0-1.094,1.094v1.214a6.926,6.926,0,0,0-1.094.633l-1.052-.607a1.094,1.094,0,0,0-1.494.4l-1.847,3.2a1.094,1.094,0,0,0,.4,1.494l1.052.608c-.019.21-.028.421-.028.632s.01.422.028.632l-1.052.608a1.094,1.094,0,0,0-.4,1.494l1.847,3.2a1.094,1.094,0,0,0,1.494.4l1.052-.607a6.916,6.916,0,0,0,1.094.633v1.214A1.094,1.094,0,0,0,92,135.33h3.693a1.094,1.094,0,0,0,1.094-1.094v-1.214a6.924,6.924,0,0,0,1.094-.633l1.052.607a1.094,1.094,0,0,0,1.494-.4l1.847-3.2a1.094,1.094,0,0,0-.4-1.494l-1.053-.607c.019-.21.028-.421.028-.632s-.01-.422-.028-.632l1.053-.608A1.1,1.1,0,0,0,102.383,124.762Zm-3.822.918a4.862,4.862,0,0,1,0,1.971,1.094,1.094,0,0,0,.524,1.17l.748.432-.753,1.3-.749-.432a1.094,1.094,0,0,0-1.276.132,4.781,4.781,0,0,1-1.7.985,1.094,1.094,0,0,0-.752,1.039v.863H93.093v-.863a1.094,1.094,0,0,0-.752-1.039,4.781,4.781,0,0,1-1.7-.985,1.093,1.093,0,0,0-1.276-.132l-.749.432-.753-1.3.747-.432a1.094,1.094,0,0,0,.524-1.17,4.868,4.868,0,0,1,0-1.971,1.094,1.094,0,0,0-.524-1.17l-.747-.432.753-1.3.749.432a1.094,1.094,0,0,0,1.276-.132,4.78,4.78,0,0,1,1.7-.985,1.094,1.094,0,0,0,.752-1.039v-.863H94.6v.863a1.094,1.094,0,0,0,.752,1.039,4.781,4.781,0,0,1,1.7.985,1.094,1.094,0,0,0,1.276.132l.749-.432.753,1.3-.748.432A1.094,1.094,0,0,0,98.561,125.679Z" transform="translate(-75.946 -105.094)" fill="#32478a"/>
      </g>
    </g>
  </g>
</svg>
