<svg id="Group_4637" data-name="Group 4637" xmlns="http://www.w3.org/2000/svg" width="89.385" height="92.7" viewBox="0 0 89.385 92.7">
  <g id="Group_4631" data-name="Group 4631">
    <g id="Group_4615" data-name="Group 4615">
      <g id="Group_4609" data-name="Group 4609">
        <g id="Group_4605" data-name="Group 4605" transform="translate(2.102 1.244)">
          <path id="Path_4930" data-name="Path 4930" d="M16.753,33.913a4.746,4.746,0,0,0-2.143,3.722l.1,42.235c0,1.358.975,1.911,2.157,1.229L72.223,49.143a4.726,4.726,0,0,0,2.143-3.712L74.261,3.2c0-1.369-.966-1.928-2.157-1.24Zm55.471,9.442v3.324l-.017-3.324Z" transform="translate(-14.61 -1.661)" fill="#f7f8fd"/>
          <path id="Path_4931" data-name="Path 4931" d="M15.727,35.049l.1,38.918,55.35-31.951L71.077,3.1Z" transform="translate(-13.581 -0.322)" fill="#373f51"/>
        </g>
        <g id="Group_4607" data-name="Group 4607" transform="translate(4.045 3.648)">
          <g id="Group_4606" data-name="Group 4606">
            <path id="Path_4932" data-name="Path 4932" d="M15.614,35.109v.119l.1,39.289,55.772-32.2V42.2l-.1-39.29Z" transform="translate(-15.614 -2.905)"/>
          </g>
        </g>
        <g id="Group_4608" data-name="Group 4608" transform="translate(0)">
          <path id="Path_4933" data-name="Path 4933" d="M14.994,36.988,15.1,79.23a1.485,1.485,0,0,0,.622,1.365l2.1,1.246a1.5,1.5,0,0,1-.622-1.365l-.106-42.242a4.741,4.741,0,0,1,2.139-3.715L74.593,2.561a1.483,1.483,0,0,1,1.517-.151l-2.1-1.247a1.512,1.512,0,0,0-1.532.152L17.133,33.273A4.7,4.7,0,0,0,14.994,36.988Z" transform="translate(-14.994 -1.018)" fill="#fff"/>
        </g>
      </g>
      <g id="Group_4610" data-name="Group 4610" transform="translate(22.691 65.398)">
        <path id="Path_4934" data-name="Path 4934" d="M33.448,36.447l0,1.113,2.756-1.591,0-1.113Z" transform="translate(-33.448 -34.856)" fill="#fff"/>
      </g>
      <g id="Group_4611" data-name="Group 4611" transform="translate(18.55 67.789)">
        <path id="Path_4935" data-name="Path 4935" d="M35.591,37.684l0,1.113,2.756-1.591,0-1.113Z" transform="translate(-35.591 -36.093)" fill="#fff"/>
      </g>
      <g id="Group_4612" data-name="Group 4612" transform="translate(14.409 70.18)">
        <path id="Path_4936" data-name="Path 4936" d="M37.733,38.921l0,1.113,2.756-1.591,0-1.113Z" transform="translate(-37.733 -37.33)" fill="#fff"/>
      </g>
      <g id="Group_4613" data-name="Group 4613" transform="translate(10.267 72.571)">
        <path id="Path_4937" data-name="Path 4937" d="M39.876,40.158l0,1.113,2.756-1.591,0-1.113Z" transform="translate(-39.876 -38.567)" fill="#fff"/>
      </g>
      <g id="Group_4614" data-name="Group 4614" transform="translate(6.126 74.962)">
        <path id="Path_4938" data-name="Path 4938" d="M42.019,41.4l0,1.113,2.756-1.591,0-1.113Z" transform="translate(-42.019 -39.804)" fill="#fff"/>
      </g>
    </g>
    <g id="Group_4630" data-name="Group 4630" transform="translate(8.63 26.407)">
      <g id="Group_4616" data-name="Group 4616" transform="translate(12.266 15.434)">
        <path id="Path_4939" data-name="Path 4939" d="M36.406,22.667c-.139.223-.281.438-.427.644a37.854,37.854,0,0,1-2.058,3.7l.936,1.241.152.2A17.805,17.805,0,0,0,37.5,23.111a1.108,1.108,0,0,0,.061-.213l-.045-.024Z" transform="translate(-33.921 -22.667)" fill="#e3e7f0"/>
      </g>
      <g id="Group_4629" data-name="Group 4629">
        <g id="Group_4617" data-name="Group 4617" transform="translate(12.848 15.664)">
          <path id="Path_4940" data-name="Path 4940" d="M34.426,28.343l-.152-.2-.353.678,1.012,6.1c1.279-5.666,2-11.728,2.046-12.136a1.108,1.108,0,0,1-.061.213A17.8,17.8,0,0,1,34.426,28.343Z" transform="translate(-33.921 -22.786)" fill="#fff"/>
        </g>
        <g id="Group_4618" data-name="Group 4618" transform="translate(12.304 15.646)">
          <path id="Path_4941" data-name="Path 4941" d="M36.231,22.777c-.064.428-.783,6.489-2.062,12.155a49.3,49.3,0,0,1-1.556,5.579c.188-.391,3.767-7.819,5.777-13.643l-2.033-.1,2.385-2.4A4.68,4.68,0,0,0,36.231,22.777Z" transform="translate(-32.613 -22.777)" fill="#7bb1ff"/>
        </g>
        <g id="Group_4619" data-name="Group 4619" transform="translate(15.861 15.641)">
          <path id="Path_4942" data-name="Path 4942" d="M33.967,22.776h-.047l.047.009Z" transform="translate(-33.919 -22.774)" fill="#fff"/>
        </g>
        <g id="Group_4620" data-name="Group 4620" transform="translate(10.723 19.779)">
          <path id="Path_4943" data-name="Path 4943" d="M36.523,24.915,35.6,27.233l.352.266-.973,7.247a17.262,17.262,0,0,0,1.582,3.77,49.3,49.3,0,0,0,1.556-5.579l-1.012-6.1.353-.678Z" transform="translate(-34.979 -24.915)" fill="#ed5d71"/>
        </g>
        <g id="Group_4621" data-name="Group 4621" transform="translate(10.188 16.078)">
          <path id="Path_4944" data-name="Path 4944" d="M34.739,25.38A7.379,7.379,0,0,0,36.817,26.7,37.854,37.854,0,0,0,38.875,23a6.96,6.96,0,0,1-2.063,2.039A2.691,2.691,0,0,1,34.739,25.38Z" transform="translate(-34.739 -23)" fill="#fff"/>
        </g>
        <g id="Group_4622" data-name="Group 4622" transform="translate(8.628 19.922)">
          <path id="Path_4945" data-name="Path 4945" d="M38.668,27.534c-1.61-.22-2.3-2.134-2.52-2.45a.313.313,0,0,1-.048-.095,71.4,71.4,0,0,0,2.095,9.688l.973-7.247-.352-.266Z" transform="translate(-36.099 -24.989)" fill="#fff"/>
        </g>
        <g id="Group_4623" data-name="Group 4623" transform="translate(8.615 18.309)">
          <path id="Path_4946" data-name="Path 4946" d="M36.956,24.155l-1.134,1.524-.016.021c-.007.009,0,.035.01.068a.313.313,0,0,0,.048.095c.219.316.91,2.23,2.52,2.45l.147-.371.922-2.318A7.379,7.379,0,0,1,37.378,24.3,2.644,2.644,0,0,1,36.956,24.155Z" transform="translate(-35.804 -24.155)" fill="#e3e7f0"/>
        </g>
        <g id="Group_4624" data-name="Group 4624" transform="translate(8.618 19.833)">
          <path id="Path_4947" data-name="Path 4947" d="M37.7,24.943l-.016.019v0Z" transform="translate(-37.684 -24.943)" fill="#fff"/>
        </g>
        <g id="Group_4625" data-name="Group 4625" transform="translate(6.104 19.863)">
          <path id="Path_4948" data-name="Path 4948" d="M38.291,24.959a23.158,23.158,0,0,0-2.507,4.49l2.391-.356-2.026,2.444a34.542,34.542,0,0,0,5.835,6.938,17.262,17.262,0,0,1-1.582-3.77,71.4,71.4,0,0,1-2.095-9.688A.519.519,0,0,1,38.291,24.959Z" transform="translate(-35.784 -24.959)" fill="#7bb1ff"/>
        </g>
        <g id="Group_4626" data-name="Group 4626" transform="translate(0 14.235)">
          <path id="Path_4949" data-name="Path 4949" d="M38.043,27.677l-5.568,5.115A9.216,9.216,0,0,0,29.434,39l.021,7.466c0,1.663,1.186,2.336,2.64,1.5L51.389,36.829a5.777,5.777,0,0,0,2.622-4.535l-.021-7.466c-.006-2.03-1.246-3.119-3.066-2.687l-5.568,1.317a4.68,4.68,0,0,1,2.511,1.589l-2.385,2.4,2.033.1c-2.01,5.824-5.589,13.252-5.777,13.643A34.542,34.542,0,0,1,35.9,34.253l2.026-2.444-2.391.356A23.19,23.19,0,0,1,38.043,27.677Z" transform="translate(-29.434 -22.047)" fill="#5793fb"/>
        </g>
        <g id="Group_4627" data-name="Group 4627" transform="translate(7.445 7.353)">
          <path id="Path_4950" data-name="Path 4950" d="M33.66,22.08a18.91,18.91,0,0,1-.25,4.565,4.981,4.981,0,0,0,2.322,2.8,2.644,2.644,0,0,0,.421.149,2.691,2.691,0,0,0,2.073-.341,6.96,6.96,0,0,0,2.063-2.039c.146-.206.288-.421.427-.644a20.554,20.554,0,0,0,2.045-4.576,16.847,16.847,0,0,1,.1-3.505,23.576,23.576,0,0,1-3.8,2.833C35.149,23.573,33.735,22.154,33.66,22.08Z" transform="translate(-33.411 -18.486)" fill="#f9d5b4"/>
        </g>
        <g id="Group_4628" data-name="Group 4628" transform="translate(6.745)">
          <path id="Path_4951" data-name="Path 4951" d="M33.084,22.928a.542.542,0,0,0-.317.087c-1.161.67-1.122,6.169-.194,7.165a18.238,18.238,0,0,0,.262-4.551c.074.075,1.489,1.494,5.394-.761a23.576,23.576,0,0,0,3.8-2.833,16.847,16.847,0,0,0-.1,3.505c0,.018,0,.037,0,.055a8.133,8.133,0,0,0,.95-4.166c.1-.188,2.1-3.768,2.09-6.748-1.972,1.744-2.6,2.254-4.956,2.515C37.11,17.516,33.863,19.8,33.084,22.928Z" transform="translate(-31.885 -14.681)" fill="#373f51"/>
        </g>
      </g>
    </g>
  </g>
  <g id="Group_4634" data-name="Group 4634" transform="translate(36.656 12.734)">
    <g id="Group_4633" data-name="Group 4633">
      <path id="Path_4952" data-name="Path 4952" d="M17.232,19.218v.036l.036,2.512,20.1-11.611v-.036L37.33,7.607Z" transform="translate(-17.232 -7.607)" fill="#96d696"/>
      <path id="Path_4953" data-name="Path 4953" d="M37.33,10.624l-20.1,11.611v.036l.036,2.512,20.1-11.611v-.036Z" transform="translate(-17.232 -4.792)" fill="#96d696"/>
      <g id="Group_4632" data-name="Group 4632" transform="translate(0 11.647)">
        <path id="Path_4954" data-name="Path 4954" d="M26.563,19.668l-9.332,5.384v.036l.054,2.512L26.6,22.217v-.036Z" transform="translate(-6.464 -8.004)" fill="#e3e7f0"/>
        <path id="Path_4955" data-name="Path 4955" d="M37.33,13.633l-20.1,11.61V25.3l.036,2.512L37.366,16.2v-.053Z" transform="translate(-17.232 -13.633)" fill="#e3e7f0"/>
        <path id="Path_4956" data-name="Path 4956" d="M37.33,16.651l-20.1,11.61V28.3l.036,2.513L37.366,19.2v-.036Z" transform="translate(-17.232 -10.818)" fill="#e3e7f0"/>
      </g>
    </g>
  </g>
  <g id="Group_4636" data-name="Group 4636" transform="translate(46.723 16.432)">
    <g id="Group_4635" data-name="Group 4635" transform="translate(0 6.075)">
      <path id="Path_4957" data-name="Path 4957" d="M3.438,49.236c0-11.372,6.8-15.281,6.8-15.281l3.187-2.293a27.257,27.257,0,0,1,6.715-3.531l5-1.795a14.954,14.954,0,0,1,19.693,11.2,86.78,86.78,0,0,1,1.19,10.653,11.905,11.905,0,0,1-2.549,8.215c-3.63,4.5-10.991,10.632-22.422,13.491-10.7,2.675-14.9-.4-16.543-3.084A7.846,7.846,0,0,1,3.44,62.828C3.315,54.518,3.438,49.236,3.438,49.236Z" transform="translate(-3.384 -0.733)" fill="#32478a"/>
      <path id="Path_4958" data-name="Path 4958" d="M13.928,25.145c.415,2.13-.861,5.081-1.426,6.645l11.2-3.174-.764-6.261Z" transform="translate(1.34 -3.625)" fill="#f7c9a4"/>
      <path id="Path_4959" data-name="Path 4959" d="M12.353,28.229a24.22,24.22,0,0,0,6.338-1.266,30.9,30.9,0,0,0,6.333-3.01c.231.924.472,2,.714,2.916A33.67,33.67,0,0,1,18.7,30.064a29.235,29.235,0,0,1-7.432,1.167A7.136,7.136,0,0,0,12.353,28.229Z" transform="translate(1.695 -2.133)" fill="#ff2e2e"/>
      <path id="Path_4960" data-name="Path 4960" d="M11.635,13.964S6.21,45.754,23.048,35.525c14.107-8.57,6.176-21.2-1.53-22.465S11.635,13.964,11.635,13.964Z" transform="translate(-2.498 -12.663)" fill="#f9d5b4"/>
    </g>
    <path id="Path_4961" data-name="Path 4961" d="M11.4,9.52s1.5,2.353,8,1.189c9.047-1.622,15.371,1.868,15.966,9s-2.633,15.711-5.69,17.749-6.98,2.633-9.053-1.444-5.639-7.388-5.894-2.038V35.6H13.343s1.186-5.281.077-7.883-1.837-3.444-.536-6.812C12.884,20.9,4.713,16.045,11.4,9.52Z" transform="translate(-3.182 -9.52)" fill="#885e4b"/>
  </g>
</svg>
