<svg xmlns="http://www.w3.org/2000/svg" width="48" height="48" viewBox="0 0 48 48">
  <path id="Path_15831" data-name="Path 15831" d="M30,6A24,24,0,1,0,54,30,24.006,24.006,0,0,0,30,6ZM47.321,43.693A28.651,28.651,0,0,0,40.3,40.885,46.588,46.588,0,0,0,41.51,30.96H52.059A22.085,22.085,0,0,1,47.321,43.693Zm-34.641,0A22.086,22.086,0,0,1,7.941,30.96H18.49A46.588,46.588,0,0,0,19.7,40.885,28.636,28.636,0,0,0,12.679,43.693Zm0-27.386A28.651,28.651,0,0,0,19.7,19.115,46.58,46.58,0,0,0,18.49,29.04H7.941a22.086,22.086,0,0,1,4.738-12.733Zm18.281,23.3V30.96h8.63a44.6,44.6,0,0,1-1.158,9.486,41.469,41.469,0,0,0-7.472-.834Zm-9.392.834A44.592,44.592,0,0,1,20.41,30.96h8.63v8.652A41.4,41.4,0,0,0,21.568,40.446ZM29.04,20.388V29.04H20.41a44.591,44.591,0,0,1,1.158-9.486A41.337,41.337,0,0,0,29.04,20.388Zm1.92,8.652V20.388a41.4,41.4,0,0,0,7.472-.834A44.592,44.592,0,0,1,39.59,29.04Zm0-10.572V8.042c2.062.515,4.074,2.661,5.634,6.067A27.819,27.819,0,0,1,37.932,17.7,39.5,39.5,0,0,1,30.96,18.468ZM29.04,8.042V18.468a39.5,39.5,0,0,1-6.972-.769,27.819,27.819,0,0,1,1.338-3.591C24.966,10.7,26.978,8.556,29.04,8.042Zm0,33.49V51.958c-2.062-.515-4.074-2.661-5.634-6.067A27.819,27.819,0,0,1,22.068,42.3a39.515,39.515,0,0,1,6.972-.769Zm1.92,10.426V41.532a39.335,39.335,0,0,1,6.972.769,27.8,27.8,0,0,1-1.338,3.591C35.034,49.3,33.022,51.444,30.96,51.958ZM41.51,29.04A46.586,46.586,0,0,0,40.3,19.115a28.7,28.7,0,0,0,7.022-2.808A22.085,22.085,0,0,1,52.059,29.04Zm4.528-14.214A26.907,26.907,0,0,1,39.8,17.264a21.9,21.9,0,0,0-4.543-8.707A22.061,22.061,0,0,1,46.038,14.826Zm-21.3-6.27A21.9,21.9,0,0,0,20.2,17.264a26.919,26.919,0,0,1-6.234-2.437,22.062,22.062,0,0,1,10.777-6.27ZM13.962,45.174A26.817,26.817,0,0,1,20.2,42.736a21.9,21.9,0,0,0,4.543,8.707,22.06,22.06,0,0,1-10.777-6.27Zm21.3,6.27A21.9,21.9,0,0,0,39.8,42.736a26.944,26.944,0,0,1,6.234,2.437A22.062,22.062,0,0,1,35.261,51.444Z" transform="translate(-6 -6)" fill="#32478a"/>
</svg>