<svg id="Group_8729" data-name="Group 8729" xmlns="http://www.w3.org/2000/svg" width="48" height="48" viewBox="0 0 55.511 55.511">
  <g id="Group_8720" data-name="Group 8720" transform="translate(0 9.252)">
    <g id="Group_8719" data-name="Group 8719">
      <path id="Path_14502" data-name="Path 14502" d="M52.582,93.285a7.4,7.4,0,1,0-9.352-.332H38.316L32.11,86.747a.924.924,0,0,0-1.308,0l-3.7,3.7a.924.924,0,0,0,0,1.308l8.327,8.327a.921.921,0,0,0,.654.271h7.4v6.476H27.633l4.593-6.888-1.54-1.026L25.41,106.83H23.13V102.2a.924.924,0,0,0-.925-.925H14.8v-3.7a4.626,4.626,0,0,0-2.929-4.294,7.4,7.4,0,1,0-8.945,0A4.626,4.626,0,0,0,0,97.579v12.953a4.631,4.631,0,0,0,4.626,4.626v11.1h1.85v-11.1h6.476v10.177a.924.924,0,0,0,.925.925h6.476a.924.924,0,0,0,.925-.925V111.456a4.6,4.6,0,0,0-.927-2.776H26.83v15.728h-3.7v1.85h9.252v-1.85h-3.7V108.681h6.5a4.578,4.578,0,0,0-.949,2.776v13.878a.924.924,0,0,0,.925.925h6.476a.924.924,0,0,0,.925-.925V115.157h6.476v11.1h1.85v-11.1a4.631,4.631,0,0,0,4.626-4.626V97.579A4.626,4.626,0,0,0,52.582,93.285ZM1.85,87.4A5.551,5.551,0,1,1,7.4,92.953,5.557,5.557,0,0,1,1.85,87.4ZM21.279,106.83H9.252v-7.4H7.4v8.327a.924.924,0,0,0,.925.925h8.327a2.779,2.779,0,0,1,2.776,2.776v12.953H14.8V114.232a.924.924,0,0,0-.925-.925H4.626a2.779,2.779,0,0,1-2.776-2.776V97.579A2.779,2.779,0,0,1,4.626,94.8h5.551a2.779,2.779,0,0,1,2.776,2.776V102.2a.924.924,0,0,0,.925.925h7.4ZM42.559,87.4a5.551,5.551,0,1,1,5.551,5.551A5.557,5.557,0,0,1,42.559,87.4Zm11.1,23.13a2.779,2.779,0,0,1-2.776,2.776H41.633a.924.924,0,0,0-.925.925v10.177H36.082V111.456a2.779,2.779,0,0,1,2.776-2.776h5.551a.924.924,0,0,0,.925-.925V99.429a.924.924,0,0,0-.925-.925H36.465l-7.4-7.4,2.393-2.393,5.822,5.822a.921.921,0,0,0,.654.271H50.885a2.779,2.779,0,0,1,2.776,2.776Z" transform="translate(0 -80)" fill="#32478a"/>
    </g>
  </g>
  <g id="Group_8722" data-name="Group 8722" transform="translate(15.728)">
    <g id="Group_8721" data-name="Group 8721">
      <path id="Path_14503" data-name="Path 14503" d="M157.279,0h-18.5A2.779,2.779,0,0,0,136,2.776v7.4a2.779,2.779,0,0,0,2.776,2.776h.925V18.5a.924.924,0,0,0,.571.855.914.914,0,0,0,.354.07.926.926,0,0,0,.654-.271l6.205-6.205h9.794a2.779,2.779,0,0,0,2.776-2.776v-7.4A2.779,2.779,0,0,0,157.279,0Zm.925,10.177a.926.926,0,0,1-.925.925H147.1a.921.921,0,0,0-.654.271l-4.9,4.9V12.027a.924.924,0,0,0-.925-.925h-1.85a.926.926,0,0,1-.925-.925v-7.4a.926.926,0,0,1,.925-.925h18.5a.926.926,0,0,1,.925.925Z" transform="translate(-136)" fill="#32478a"/>
    </g>
  </g>
  <g id="Group_8724" data-name="Group 8724" transform="translate(18.988 3.401)">
    <g id="Group_8723" data-name="Group 8723" transform="translate(0 0)">
      <rect id="Rectangle_3232" data-name="Rectangle 3232" width="5.845" height="1.948" fill="#32478a"/>
    </g>
  </g>
  <g id="Group_8726" data-name="Group 8726" transform="translate(18.988 7.298)">
    <g id="Group_8725" data-name="Group 8725" transform="translate(0 0)">
      <rect id="Rectangle_3233" data-name="Rectangle 3233" width="17.535" height="1.948" fill="#32478a"/>
    </g>
  </g>
  <g id="Group_8728" data-name="Group 8728" transform="translate(26.782 3.401)">
    <g id="Group_8727" data-name="Group 8727" transform="translate(0 0)">
      <rect id="Rectangle_3234" data-name="Rectangle 3234" width="9.742" height="1.948" fill="#32478a"/>
    </g>
  </g>
</svg>
