<svg xmlns="http://www.w3.org/2000/svg" width="60.22" height="60.225" viewBox="0 0 60.22 60.225">
  <g id="Group_3957" data-name="Group 3957" transform="translate(-0.019)">
    <g id="Group_3896" data-name="Group 3896" transform="translate(36.833 55.52)">
      <g id="Group_3895" data-name="Group 3895">
        <path id="Path_4656" data-name="Path 4656" d="M335.226,472H314.172a1.176,1.176,0,0,0,0,2.352h21.054a1.176,1.176,0,0,0,0-2.352Z" transform="translate(-312.996 -472.003)" fill="#32478a"/>
      </g>
    </g>
    <g id="Group_3898" data-name="Group 3898" transform="translate(0.019 55.52)">
      <g id="Group_3897" data-name="Group 3897">
        <path id="Path_4657" data-name="Path 4657" d="M22.132,472H1.2a1.176,1.176,0,0,0,0,2.352H22.132a1.176,1.176,0,0,0,0-2.352Z" transform="translate(-0.02 -472.003)" fill="#32478a"/>
      </g>
    </g>
    <g id="Group_3900" data-name="Group 3900" transform="translate(20.303 24.061)">
      <g id="Group_3899" data-name="Group 3899">
        <path id="Path_4658" data-name="Path 4658" d="M182.753,204.555h-9.115a1.176,1.176,0,0,0,0,2.352h9.115a1.176,1.176,0,1,0,0-2.352Z" transform="translate(-172.462 -204.555)" fill="#32478a"/>
      </g>
    </g>
    <g id="Group_3902" data-name="Group 3902" transform="translate(37.741 24.061)">
      <g id="Group_3901" data-name="Group 3901">
        <path id="Path_4659" data-name="Path 4659" d="M322.723,204.9a1.175,1.175,0,1,0,.345.831A1.185,1.185,0,0,0,322.723,204.9Z" transform="translate(-320.715 -204.553)" fill="#32478a"/>
      </g>
    </g>
    <g id="Group_3904" data-name="Group 3904" transform="translate(33.632 24.061)">
      <g id="Group_3903" data-name="Group 3903">
        <path id="Path_4660" data-name="Path 4660" d="M287.786,204.9a1.178,1.178,0,1,0,.344.831A1.188,1.188,0,0,0,287.786,204.9Z" transform="translate(-285.777 -204.553)" fill="#32478a"/>
      </g>
    </g>
    <g id="Group_3906" data-name="Group 3906" transform="translate(20.303 33.471)">
      <g id="Group_3905" data-name="Group 3905">
        <path id="Path_4661" data-name="Path 4661" d="M182.753,284.549h-9.115a1.176,1.176,0,1,0,0,2.352h9.115a1.176,1.176,0,1,0,0-2.352Z" transform="translate(-172.462 -284.549)" fill="#32478a"/>
      </g>
    </g>
    <g id="Group_3908" data-name="Group 3908" transform="translate(37.741 33.47)">
      <g id="Group_3907" data-name="Group 3907">
        <path id="Path_4662" data-name="Path 4662" d="M322.723,284.892a1.175,1.175,0,1,0,.345.832A1.186,1.186,0,0,0,322.723,284.892Z" transform="translate(-320.715 -284.547)" fill="#32478a"/>
      </g>
    </g>
    <g id="Group_3910" data-name="Group 3910" transform="translate(33.632 33.47)">
      <g id="Group_3909" data-name="Group 3909">
        <path id="Path_4663" data-name="Path 4663" d="M287.786,284.892a1.178,1.178,0,1,0,.344.832A1.188,1.188,0,0,0,287.786,284.892Z" transform="translate(-285.777 -284.547)" fill="#32478a"/>
      </g>
    </g>
    <g id="Group_3912" data-name="Group 3912" transform="translate(20.303 42.88)">
      <g id="Group_3911" data-name="Group 3911">
        <path id="Path_4664" data-name="Path 4664" d="M182.753,364.543h-9.115a1.176,1.176,0,1,0,0,2.352h9.115a1.176,1.176,0,1,0,0-2.352Z" transform="translate(-172.462 -364.543)" fill="#32478a"/>
      </g>
    </g>
    <g id="Group_3914" data-name="Group 3914" transform="translate(37.741 42.88)">
      <g id="Group_3913" data-name="Group 3913">
        <path id="Path_4665" data-name="Path 4665" d="M322.723,364.886a1.176,1.176,0,1,0,.345.832A1.187,1.187,0,0,0,322.723,364.886Z" transform="translate(-320.715 -364.541)" fill="#32478a"/>
      </g>
    </g>
    <g id="Group_3916" data-name="Group 3916" transform="translate(33.632 42.88)">
      <g id="Group_3915" data-name="Group 3915">
        <path id="Path_4666" data-name="Path 4666" d="M287.785,364.886a1.175,1.175,0,1,0,.345.832A1.183,1.183,0,0,0,287.785,364.886Z" transform="translate(-285.777 -364.541)" fill="#32478a"/>
      </g>
    </g>
    <g id="Group_3918" data-name="Group 3918" transform="translate(14.854 19.524)">
      <g id="Group_3917" data-name="Group 3917">
        <path id="Path_4667" data-name="Path 4667" d="M156.718,181.277a5.875,5.875,0,0,0-2.356-4.7,5.879,5.879,0,0,0-3.524-10.586H132.018a5.879,5.879,0,0,0-3.524,10.586,5.875,5.875,0,0,0,0,9.409,5.879,5.879,0,0,0,3.524,10.586h8.218v3.265a3.529,3.529,0,1,0,2.352,0v-3.265h8.248a5.879,5.879,0,0,0,3.524-10.586A5.876,5.876,0,0,0,156.718,181.277Zm-28.228-9.409a3.533,3.533,0,0,1,3.529-3.529h18.819a3.529,3.529,0,0,1,0,7.057H132.018A3.533,3.533,0,0,1,128.489,171.868Zm12.923,32.467a1.176,1.176,0,1,1,1.176-1.176A1.177,1.177,0,0,1,141.412,204.335Zm12.953-13.648a3.533,3.533,0,0,1-3.529,3.529H132.018a3.529,3.529,0,1,1,0-7.057h18.819A3.533,3.533,0,0,1,154.365,190.687Zm-3.529-5.881H132.018a3.529,3.529,0,0,1,0-7.057h18.819a3.529,3.529,0,0,1,0,7.057Z" transform="translate(-126.137 -165.987)" fill="#32478a"/>
      </g>
    </g>
    <g id="Group_3920" data-name="Group 3920" transform="translate(0.019)">
      <g id="Group_3919" data-name="Group 3919">
        <path id="Path_4668" data-name="Path 4668" d="M57.714,18.213a14.337,14.337,0,0,0-5.988-4.981A20.353,20.353,0,0,0,12.68,16.477q-.274-.012-.546-.012a12.116,12.116,0,0,0-1.879,24.084,1.19,1.19,0,0,0,.183.014,1.176,1.176,0,0,0,.18-2.338,9.763,9.763,0,0,1,1.517-19.408,9.878,9.878,0,0,1,1.366.1,1.176,1.176,0,0,0,1.328-1.007A18,18,0,0,1,49.68,14.5a1.176,1.176,0,0,0,.674.709A12,12,0,0,1,48.309,38.1a1.176,1.176,0,0,0,.472,2.3,14.353,14.353,0,0,0,8.934-22.189Z" transform="translate(-0.019)" fill="#32478a"/>
      </g>
    </g>
  </g>
</svg>
