<svg id="code_1_" data-name="code (1)" xmlns="http://www.w3.org/2000/svg" width="42.222" height="37.252" viewBox="0 0 42.222 37.252">
  <path id="Path_2335" data-name="Path 2335" d="M120.207,190.065a.694.694,0,0,1-.451-.166l-4.511-3.841a.7.7,0,0,1,0-1.062l4.511-3.841a.7.7,0,1,1,.9,1.061l-3.887,3.31,3.887,3.31a.7.7,0,0,1-.452,1.228Zm0,0" transform="translate(-103.548 -162.966)" fill="#32478a"/>
  <path id="Path_2336" data-name="Path 2336" d="M250.4,190.065a.7.7,0,0,1-.452-1.228l3.887-3.31-3.887-3.31a.7.7,0,0,1,.9-1.061L255.367,185a.7.7,0,0,1,0,1.062l-4.511,3.841A.694.694,0,0,1,250.4,190.065Zm0,0" transform="translate(-224.841 -162.966)" fill="#32478a"/>
  <path id="Path_2337" data-name="Path 2337" d="M189.652,167.766a.709.709,0,0,1-.145-.015.7.7,0,0,1-.538-.826l2.811-13.347a.7.7,0,1,1,1.364.287l-2.811,13.347A.7.7,0,0,1,189.652,167.766Zm0,0" transform="translate(-170.138 -137.786)" fill="#32478a"/>
  <path id="Path_2338" data-name="Path 2338" d="M37.542,37.252H4.68A4.686,4.686,0,0,1,0,32.572V4.68A4.686,4.686,0,0,1,4.68,0H37.542a4.686,4.686,0,0,1,4.68,4.68V32.572A4.686,4.686,0,0,1,37.542,37.252ZM4.68,1.394A3.29,3.29,0,0,0,1.394,4.68V32.572A3.29,3.29,0,0,0,4.68,35.858H37.542a3.29,3.29,0,0,0,3.286-3.286V4.68a3.29,3.29,0,0,0-3.286-3.286Zm0,0" fill="#32478a"/>
  <path id="Path_2339" data-name="Path 2339" d="M41.525,99.484H.7a.7.7,0,0,1,0-1.394H41.525a.7.7,0,1,1,0,1.394Zm0,0" transform="translate(0 -88.322)" fill="#32478a"/>
  <path id="Path_2340" data-name="Path 2340" d="M99.655,38.7a2.206,2.206,0,1,1,2.206-2.206A2.209,2.209,0,0,1,99.655,38.7Zm0-3.018a.812.812,0,1,0,.812.812A.813.813,0,0,0,99.655,35.683Zm0,0" transform="translate(-87.745 -30.875)" fill="#32478a"/>
  <path id="Path_2341" data-name="Path 2341" d="M31.593,38.486A2.206,2.206,0,1,1,33.8,36.28,2.208,2.208,0,0,1,31.593,38.486Zm0-3.018a.812.812,0,1,0,.812.812A.813.813,0,0,0,31.593,35.468Zm0,0" transform="translate(-26.46 -30.681)" fill="#32478a"/>
  <path id="Path_2342" data-name="Path 2342" d="M167.721,38.915a2.206,2.206,0,1,1,2.206-2.206A2.208,2.208,0,0,1,167.721,38.915Zm0-3.018a.812.812,0,1,0,.812.812A.813.813,0,0,0,167.721,35.9Zm0,0" transform="translate(-149.033 -31.068)" fill="#32478a"/>
</svg>
