<svg xmlns="http://www.w3.org/2000/svg" width="53.345" height="49.821" viewBox="0 0 53.345 49.821">
  <g id="computer" transform="translate(96.236 -0.825)">
    <g id="layer1" transform="translate(-95.986 1.075)">
      <path id="rect3559" d="M3.174,281.142a2.656,2.656,0,0,0-2.646,2.639v33.47a2.658,2.658,0,0,0,2.646,2.641H20.54l-1.321,5.286H16.386a1.777,1.777,0,0,0-1.762,1.762V328.7a1.777,1.777,0,0,0,1.762,1.762H37.522a1.779,1.779,0,0,0,1.763-1.762v-1.762a1.779,1.779,0,0,0-1.763-1.762H34.684l-1.318-5.286H50.733a2.625,2.625,0,0,0,2.641-2.641v-33.47a2.652,2.652,0,0,0-2.641-2.639Zm0,1.762H50.733a.855.855,0,0,1,.877.877v29.07H2.29v-29.07a.86.86,0,0,1,.884-.877ZM2.29,314.612h49.32v2.639a.855.855,0,0,1-.877.877c-15.869-.007-31.691,0-47.559,0a.86.86,0,0,1-.884-.877Zm20.066,5.279h9.195l1.323,5.286H21.035Zm-5.971,7.048c7.052.02,14.147,0,21.136,0V328.7H16.386Z" transform="translate(-0.529 -281.142)" fill="#32478a" stroke="#32478a" stroke-width="0.5"/>
      <g id="cart" transform="translate(12.005 -13.543)">
        <g id="Group_2396" data-name="Group 2396" transform="translate(8.185 37.627)">
          <g id="Group_2395" data-name="Group 2395">
            <path id="Path_2693" data-name="Path 2693" d="M171.828,402.828A2.172,2.172,0,1,0,174,405,2.175,2.175,0,0,0,171.828,402.828Zm0,3.132a.959.959,0,1,1,.959-.959A.961.961,0,0,1,171.828,405.96Z" transform="translate(-169.656 -402.828)" fill="#32478a" stroke="#32478a" stroke-width="0.3"/>
          </g>
        </g>
        <g id="Group_2398" data-name="Group 2398" transform="translate(15.805 37.627)">
          <g id="Group_2397" data-name="Group 2397">
            <path id="Path_2694" data-name="Path 2694" d="M329.773,402.828A2.172,2.172,0,1,0,331.946,405,2.175,2.175,0,0,0,329.773,402.828Zm0,3.132a.959.959,0,1,1,.959-.959A.961.961,0,0,1,329.773,405.96Z" transform="translate(-327.601 -402.828)" fill="#32478a" stroke="#32478a" stroke-width="0.3"/>
          </g>
        </g>
        <g id="Group_2400" data-name="Group 2400" transform="translate(9.214 26.189)">
          <g id="Group_2399" data-name="Group 2399">
            <path id="Path_2695" data-name="Path 2695" d="M200.294,165.755H191.6a.606.606,0,1,0,0,1.213h8.691a.606.606,0,1,0,0-1.213Z" transform="translate(-190.996 -165.755)" fill="#32478a" stroke="#32478a" stroke-width="0.3"/>
          </g>
        </g>
        <g id="Group_2402" data-name="Group 2402" transform="translate(9.687 29.338)">
          <g id="Group_2401" data-name="Group 2401">
            <path id="Path_2696" data-name="Path 2696" d="M209.154,231.035h-7.745a.606.606,0,1,0,0,1.213h7.745a.606.606,0,0,0,0-1.213Z" transform="translate(-200.802 -231.035)" fill="#32478a" stroke="#32478a" stroke-width="0.3"/>
          </g>
        </g>
        <g id="Group_2404" data-name="Group 2404" transform="translate(0 19.114)">
          <g id="Group_2403" data-name="Group 2403" transform="translate(0 0)">
            <path id="Path_2697" data-name="Path 2697" d="M24.428,23.487a1.208,1.208,0,0,0-.94-.447H4.6l-.382-1.852a1.214,1.214,0,0,0-.705-.868L.848,19.164a.606.606,0,0,0-.483,1.113l2.662,1.156L5.961,35.678a1.218,1.218,0,0,0,1.188.968h14.53a.607.607,0,0,0,0-1.213H7.149L6.793,33.7h15a1.217,1.217,0,0,0,1.188-.968l1.7-8.234A1.208,1.208,0,0,0,24.428,23.487Zm-2.637,9H6.543l-1.7-8.234H23.488Z" transform="translate(0 -19.114)" fill="#32478a" stroke="#32478a" stroke-width="0.3"/>
          </g>
        </g>
      </g>
    </g>
  </g>
</svg>
