<svg xmlns="http://www.w3.org/2000/svg" width="192.462" height="90" viewBox="0 0 192.462 90"><defs><clipPath id="a"><path fill="#fff" d="M0 0h192.462v90H0z" data-name="Rectangle 3102"/></clipPath></defs><g fill="#fff" clip-path="url(#a)" data-name="Group 8220"><path d="M186.245 4.836c-6.656-2.952-13.912-3.605-21.015-4.774-.547-.094-1.313-.18-1.473.535-.193.862.549 1.109 1.233 1.314 5.031 1.509 10.065 3.009 15.087 4.551A19.071 19.071 0 0 1 186.3 9.6c1.921 1.5 2.06 3.178.586 5.036-2.431 3.067-5.766 4.888-9.188 6.571a174.146 174.146 0 0 1-17.277 7.08c-1.888.692-3.62 1.632-2.75 3.958.791 2.121 2.572 1.811 4.436 1.234 9.174-2.849 17.875-6.634 25.566-12.5l2.091-2.114c4.5-6.161 3.414-10.953-3.516-14.027" data-name="Path 7251"/><path d="M166.051 14.917a2.188 2.188 0 0 0 1.512-2.7 2.321 2.321 0 0 0-.052-.245 2.1 2.1 0 0 0-2.583-1.466c-8.973 1.164-18.093 1.33-26.8 4.313-10.292 3.523-18.8 9.854-26.729 16.971C98.2 43.627 86.93 57.25 75.819 71.007c-3.536 4.37-6.953 8.873-11.527 12.643-1.545-3.938-1.9-7.931-2.8-11.782A117.831 117.831 0 0 0 54.3 49.986c-5.084-11.253-12.23-12.663-20.938-4-4.634 4.61-8.974 9.515-13.575 14.16-1.538 1.554-3.381 4.045-5.459 3.371-2.214-.718-1.627-3.87-1.972-5.984-.956-5.866-1.511-11.809-3.956-17.328-1.3-2.935-3.091-5.416-6.217-6.642-.765-.3-1.559-.472-2.007.441a1.321 1.321 0 0 0 .483 1.805c4.944 2.962 5.69 8.143 6.762 13.055.769 3.516 1.051 7.139 1.584 10.708a30.68 30.68 0 0 0 .811 4.3c1.089 3.639 3.718 4.882 7.262 3.414 4.16-1.718 7.247-4.88 10.372-7.969 3.681-3.635 6.986-7.641 10.933-11.015 4.447-3.8 7.118-3.488 9.989 1.645 3.989 7.131 6 14.976 7.7 22.9.857 4 1.508 8.054 2.566 12C60.16 90.5 64.4 91.6 68.746 87.661 75 81.994 80.02 75.234 85.43 68.823c11.213-13.289 22.4-26.567 36.509-37.03A81.427 81.427 0 0 1 156.2 16.909c3.158-.58 6.309-1.246 9.455-1.919a2.15 2.15 0 0 0 .4-.073" data-name="Path 7252"/></g></svg>
