<svg xmlns="http://www.w3.org/2000/svg" xmlns:xlink="http://www.w3.org/1999/xlink" width="39.183" height="52.278" viewBox="0 0 39.183 52.278">
  <defs>
    <linearGradient id="linear-gradient" x2="1" y2="1" gradientUnits="objectBoundingBox">
      <stop offset="0" stop-color="#f67f2d"/>
      <stop offset="1" stop-color="#fe4b8d"/>
    </linearGradient>
  </defs>
  <g id="icon" transform="translate(-668.5 -3909.496)">
    <path id="Subtraction_5" data-name="Subtraction 5" d="M0,51.234V0A25.291,25.291,0,0,1,9.8,2.123a25.46,25.46,0,0,1,7.987,5.511,25.537,25.537,0,0,1,5.378,8.1,25.539,25.539,0,0,1,1.97,9.884,25.538,25.538,0,0,1-1.97,9.884,25.538,25.538,0,0,1-5.378,8.1A25.461,25.461,0,0,1,9.8,49.111,25.292,25.292,0,0,1,0,51.234Z" transform="translate(682.049 3910.004)" stroke="rgba(0,0,0,0)" stroke-width="1" opacity="0.8" fill="#32478a"/>
    <circle id="Ellipse_25" data-name="Ellipse 25" cx="13.437" cy="13.437" r="13.437" transform="translate(668.5 3922.183)" fill="#32478a"/>
  </g>
</svg>
