<svg xmlns="http://www.w3.org/2000/svg" xmlns:xlink="http://www.w3.org/1999/xlink" width="40.663" height="26.52" viewBox="0 0 40.663 26.52">
  <defs>
    <linearGradient id="linear-gradient" x2="1" y2="1" gradientUnits="objectBoundingBox">
      <stop offset="0" stop-color="#f67f2d"/>
      <stop offset="1" stop-color="#fe4b8d"/>
    </linearGradient>
  </defs>
  <g id="Group_9032" data-name="Group 9032" transform="translate(0 -0.461)">
    <path id="Path_14799" data-name="Path 14799" d="M27.22,26.98H5.361A5.651,5.651,0,0,1,0,21.091a5.861,5.861,0,0,1,3.6-5.559.919.919,0,0,0,.568-1.014,1.486,1.486,0,0,1-.008-.23c0-3.872,2.872-7.023,6.4-7.023a5.989,5.989,0,0,1,3.493,1.146c.086.062.168.127.251.193q.157.126.308.261c.081.073.162.148.24.226.106.106.208.218.308.333.059.067.12.133.177.2a6.816,6.816,0,0,1,.438.606.885.885,0,0,0,.571.395h0a.835.835,0,0,0,.251,0,.776.776,0,0,0,.095,0,.873.873,0,0,0,.324-.143,4.971,4.971,0,0,1,2.909-.948,4.876,4.876,0,0,1,1.879.38h0c.056.023.107.06.162.086a5.6,5.6,0,0,1,2.486,2.317,6.1,6.1,0,0,1,.767,2.213.92.92,0,0,0,.37.622.85.85,0,0,0,.633.143c.021,0,.042,0,.064,0a4.271,4.271,0,0,1,.923-.092,5.523,5.523,0,0,1,5.251,4.7,6.431,6.431,0,0,1,.109,1.185A5.651,5.651,0,0,1,27.22,26.98Zm8.084-6.8h-1c-.016-.143-.042-.281-.065-.422-.013-.083-.022-.167-.038-.249-.041-.211-.092-.419-.148-.623-.008-.029-.013-.06-.022-.089q-.1-.351-.233-.687c-.023-.06-.052-.117-.077-.176-.067-.161-.136-.321-.213-.476-.038-.077-.082-.15-.122-.225-.071-.132-.142-.264-.22-.391-.049-.08-.1-.155-.153-.232-.078-.118-.156-.235-.24-.347-.057-.076-.117-.149-.176-.223-.086-.107-.173-.212-.263-.314-.064-.072-.13-.14-.2-.209-.094-.1-.189-.191-.287-.283-.07-.065-.142-.128-.214-.19q-.153-.13-.311-.252c-.075-.058-.151-.114-.228-.168-.11-.077-.222-.15-.336-.221-.079-.049-.159-.1-.24-.144-.118-.067-.239-.128-.361-.188-.082-.04-.163-.082-.247-.119-.127-.056-.257-.106-.388-.154-.083-.031-.165-.064-.249-.091-.138-.045-.28-.081-.421-.117-.081-.021-.16-.045-.241-.062-.158-.034-.319-.057-.48-.08-.069-.009-.136-.024-.2-.032a6.64,6.64,0,0,0-.7-.039h0c-.139,0-.275,0-.408.012A7.978,7.978,0,0,0,26,11.4,7.385,7.385,0,0,0,22.465,8.22,6.547,6.547,0,0,0,19.937,7.7h0a6.641,6.641,0,0,0-3.181.811,8.4,8.4,0,0,0-1.131-1.168c-.037-.032-.07-.068-.108-.1a5.532,5.532,0,0,1,5.212-4.518,4.969,4.969,0,0,1,2.911.948.863.863,0,0,0,.671.147.884.884,0,0,0,.571-.394A6.226,6.226,0,0,1,30.1.461c3.529,0,6.4,3.151,6.4,7.023a1.483,1.483,0,0,1-.008.234.919.919,0,0,0,.569,1.011,5.861,5.861,0,0,1,3.6,5.559A5.65,5.65,0,0,1,35.3,20.177Zm0,0" fill="#32478a"/>
  </g>
</svg>