<svg xmlns="http://www.w3.org/2000/svg" xmlns:xlink="http://www.w3.org/1999/xlink" width="34.865" height="30.471" viewBox="0 0 34.865 30.471">
  <defs>
    <linearGradient id="linear-gradient" x1="-0.109" y1="1.342" x2="1.171" y2="-1" gradientUnits="objectBoundingBox">
      <stop offset="0" stop-color="#f67f2d"/>
      <stop offset="1" stop-color="#fe4b8d"/>
    </linearGradient>
  </defs>
  <g id="Group_9061" data-name="Group 9061" transform="translate(0 2.082)">
    <path id="Path_18468" data-name="Path 18468" d="M15.292,40.8h0a.718.718,0,0,0,0,1.435h0a.718.718,0,0,0,0-1.435ZM0,65.324a2.909,2.909,0,0,0,2.905,2.905H31.96a2.909,2.909,0,0,0,2.905-2.905V46.395H0ZM20.969,53.546a.616.616,0,1,1,.8-.939L25.756,56a.617.617,0,0,1,0,.939l-3.988,3.4a.616.616,0,1,1-.8-.938l3.436-2.927Zm-5.552,8.742,2.486-11.8a.616.616,0,1,1,1.206.254l-2.485,11.8a.616.616,0,1,1-1.206-.254ZM9.109,56l3.988-3.4a.616.616,0,1,1,.8.938L10.46,56.473,13.9,59.4a.616.616,0,0,1-.8.938l-3.988-3.4a.617.617,0,0,1,0-.939ZM9.3,40.777h0a.718.718,0,0,0,0,1.435h0a.718.718,0,0,0,0-1.435Zm0,0" transform="translate(0 -39.84)" fill="#32478a"/>
    <path id="Path_18469" data-name="Path 18469" d="M31.96-2.082H2.905A2.909,2.909,0,0,0,0,.823v4.5H34.865V.823A2.909,2.909,0,0,0,31.96-2.082ZM3.3,3.586H3.3a1.953,1.953,0,1,1,.006,0Zm7.943-1.926A1.953,1.953,0,0,1,9.3,3.605H9.291A1.95,1.95,0,0,1,9.3-.295H9.3a1.952,1.952,0,0,1,1.944,1.956Zm5.992.019a1.95,1.95,0,0,1-1.95,1.944h-.006a1.95,1.95,0,0,1,.006-3.9H15.3A1.952,1.952,0,0,1,17.241,1.68Zm0,0" fill="#32478a"/>
    <path id="Path_18470" data-name="Path 18470" d="M37.65,40.515h0a.718.718,0,0,0,0,1.435h0a.718.718,0,0,0,0-1.435Zm0,0" transform="translate(-34.343 -39.597)" fill="#32478a"/>
  </g>
</svg>
