<svg xmlns="http://www.w3.org/2000/svg" xmlns:xlink="http://www.w3.org/1999/xlink" id="Group_9036" data-name="Group 9036" width="40" height="35.156" viewBox="0 0 40 35.156">
  <defs>
    <linearGradient id="linear-gradient" x2="1" y2="1" gradientUnits="objectBoundingBox">
      <stop offset="0" stop-color="#f67f2d"/>
      <stop offset="1" stop-color="#fe4b8d"/>
    </linearGradient>
  </defs>
  <g id="Group_9035" data-name="Group 9035">
    <path id="Path_14801" data-name="Path 14801" d="M134.277,95.357l1.379-1.895a12.895,12.895,0,0,0-15.156,0l1.379,1.895a10.551,10.551,0,0,1,12.4,0Z" transform="translate(-111.086 -86.313)" fill="#32478a"/>
    <path id="Path_14802" data-name="Path 14802" d="M85.229,34.357l1.379,1.9a15.241,15.241,0,0,1,17.909,0l1.379-1.9a17.584,17.584,0,0,0-20.667,0Z" transform="translate(-78.57 -31)" fill="#32478a"/>
    <path id="Path_14803" data-name="Path 14803" d="M121.879,365.233l-1.379,1.895a12.895,12.895,0,0,0,15.156,0l-1.379-1.895a10.551,10.551,0,0,1-12.4,0Z" transform="translate(-111.086 -339.121)" fill="#32478a"/>
    <path id="Path_14804" data-name="Path 14804" d="M95.564,416.686a15.119,15.119,0,0,1-8.954-2.908l-1.379,1.895a17.584,17.584,0,0,0,20.667,0l-1.379-1.895A15.12,15.12,0,0,1,95.564,416.686Z" transform="translate(-78.571 -383.873)" fill="#32478a"/>
    <path id="Path_14805" data-name="Path 14805" d="M357.071,135.5v5.379h3.362v13.449h5.379V140.879h3.362V135.5Z" transform="translate(-329.175 -127.336)" fill="#32478a"/>
    <path id="Path_14806" data-name="Path 14806" d="M0,135.5H5.379v18.828H0Z" transform="translate(0 -127.336)" fill="#32478a"/>
    <path id="Path_14807" data-name="Path 14807" d="M122.283,168.852a8.069,8.069,0,1,0-8.069-8.069A8.069,8.069,0,0,0,122.283,168.852Zm0-10.759a2.69,2.69,0,1,1-2.69,2.69A2.69,2.69,0,0,1,122.283,158.093Z" transform="translate(-105.291 -143.205)" fill="#32478a"/>
  </g>
</svg>