<svg xmlns="http://www.w3.org/2000/svg" width="60" height="39.4" viewBox="0 0 67.173 44.118"><defs><linearGradient id="a" x2="1" y2="1" gradientUnits="objectBoundingBox"><stop offset="0" stop-color="#f67f2d"/><stop offset="1" stop-color="#fe4b8d"/></linearGradient><clipPath id="b"><path fill="url(#a)" stroke="rgba(0,0,0,0)" d="M0 0h67.173v44.118H0z" data-name="Rectangle 205"/></clipPath></defs><g fill="#32478a" stroke="rgba(0,0,0,0)" clip-path="url(#b)" data-name="Group 536"><path d="M66.188 37.524H.576c-.492-.017-.676.183-.527.683a7.724 7.724 0 0 0 2.688 4.079 9.892 9.892 0 0 0 6.421 1.832h48.82a14.257 14.257 0 0 0 2.351-.147 8.016 8.016 0 0 0 5.885-3.716c.406-.648.6-1.383.959-2.057v-.391c-.242-.389-.631-.285-.985-.285M38.576 41.56c.026.363-.13.423-.458.423q-4.55-.013-9.1 0c-.337 0-.467-.086-.449-.432.043-.6-.181-1.383.121-1.772.277-.372 1.1-.1 1.677-.112 1.072-.017 2.143-.009 3.215-.009 1.5 0 3.007.017 4.52-.009.363 0 .5.086.475.467a13.4 13.4 0 0 0 0 1.443" data-name="Path 253"/><path d="M33.601 0H59.38c1.494 0 1.911.415 1.911 1.9v31.292c0 1.485-.429 1.922-1.9 1.922H7.765c-1.478 0-1.911-.434-1.911-1.91V1.913C5.854.417 6.267 0 7.752 0h25.849" data-name="Path 254"/></g></svg>