<svg xmlns="http://www.w3.org/2000/svg" width="50" height="49.994" viewBox="0 0 50 49.994">
  <path id="Path_15814" data-name="Path 15814" d="M48.125,34.746A1.877,1.877,0,0,0,50,32.871v-1a11.1,11.1,0,0,0-5.231-9.516,20.252,20.252,0,0,0-11.2-3.094q-.2,0-.4,0l.412-3.024a1.929,1.929,0,0,0,1.844-1.924V12.638A1.932,1.932,0,0,0,33.5,10.707H20.643V6.215L26.468,4.7a2.374,2.374,0,0,0-1.2-4.593l-7.6,1.98a2.346,2.346,0,0,0-1.774,2.3v6.324H1.928A1.932,1.932,0,0,0,0,12.638v1.678A1.929,1.929,0,0,0,1.844,16.24L6.127,47.676a2.53,2.53,0,0,0,2.441,2.349H46.9a3.108,3.108,0,0,0,3.1-3.1V45.067a1.254,1.254,0,0,0-1.254-1.251H47.363v-2a2.956,2.956,0,0,0,.026-5.688,5.254,5.254,0,0,0,.342-1.381h.394ZM17.363,4.382a.887.887,0,0,1,.679-.879l7.593-1.98A.909.909,0,0,1,26.1,3.282L19.726,4.94a.732.732,0,0,0-.548.709v5.058H17.363V4.382ZM3.323,16.244H16.611a.732.732,0,0,0,0-1.465H1.928a.47.47,0,0,1-.463-.463V12.638a.471.471,0,0,1,.463-.466H33.5a.471.471,0,0,1,.463.466v1.678a.47.47,0,0,1-.463.463H20.091a.732.732,0,0,0,0,1.465H32.1l-.421,3.089a19.49,19.49,0,0,0-9.32,3.021,12.119,12.119,0,0,0-3.7,3.8L5.284,30.641ZM5.417,31.616a.128.128,0,0,1,.006.042Zm.068.5,12.3-4.126a11.326,11.326,0,0,0-.66,3.879v1a1.877,1.877,0,0,0,1.875,1.875H19.4a5.255,5.255,0,0,0,.342,1.381,2.954,2.954,0,0,0-2.047,3.563l-10.674,3.7ZM17.6,48.559H8.567a1.107,1.107,0,0,1-.989-1.081l-.356-2.61,11.189-3.876a2.957,2.957,0,0,0,1.356.823v2H18.385a1.254,1.254,0,0,0-1.254,1.251V46.92A3.085,3.085,0,0,0,17.6,48.559ZM48.535,45.28v1.64a1.641,1.641,0,0,1-1.639,1.64H20.235a1.641,1.641,0,0,1-1.64-1.64V45.28H32.912a.732.732,0,0,0,0-1.465H21.233V41.924H45.9v1.891H36.359a.732.732,0,0,0,0,1.465Zm-.474-6.314a1.493,1.493,0,0,1-1.49,1.493H20.559a1.492,1.492,0,0,1,0-2.983h.06a3.719,3.719,0,0,0,1.124.776,4.2,4.2,0,0,0,4.179-.492,3.746,3.746,0,0,0,5.1.015,3.749,3.749,0,0,0,5.08,0,3.75,3.75,0,0,0,5.1-.016,4.194,4.194,0,0,0,4.176.492,3.722,3.722,0,0,0,1.126-.777h.061a1.491,1.491,0,0,1,1.49,1.49Zm-27.185-4.22H46.255a2.637,2.637,0,0,1-1.466,2.169,2.744,2.744,0,0,1-2.871-.467.974.974,0,0,0-1.5.042,2.326,2.326,0,0,1-3.539,0l-.039-.038a.965.965,0,0,0-1.5.035,2.426,2.426,0,0,1-1.771.816,2.454,2.454,0,0,1-1.766-.814.969.969,0,0,0-1.506-.04c-.015.013-.029.027-.042.041a2.323,2.323,0,0,1-3.538,0,.972.972,0,0,0-1.5-.035,2.744,2.744,0,0,1-2.868.463,2.636,2.636,0,0,1-1.465-2.169Zm-1.871-1.465a.41.41,0,0,1-.41-.41v-1a9.748,9.748,0,0,1,4.583-8.3,18.783,18.783,0,0,1,10.387-2.845A18.783,18.783,0,0,1,43.952,23.57a9.748,9.748,0,0,1,4.583,8.3v1a.41.41,0,0,1-.41.41H19.005Z" transform="translate(0 -0.03)" fill="#32478a"/>
</svg>