<svg xmlns="http://www.w3.org/2000/svg" viewBox="0 0 29.719 39.516" width="29.719" height="39.516" data-name="Group 550"><defs><linearGradient id="a" x2="1" y2="1" gradientUnits="objectBoundingBox"><stop offset="0" stop-color="#32478a"/><stop offset="1" stop-color="#32478a"/></linearGradient><clipPath id="b"><path fill="url(#a)" stroke="rgba(0,0,0,0)" d="M0 0h29.719v39.516H0z" data-name="Rectangle 210"/></clipPath></defs><g clip-path="url(#b)" data-name="Group 549"><path fill="url(#a)" stroke="rgba(0,0,0,0)" d="m2164.52-2354.226-1.352-1.149a52.142 52.142 0 0 1-5.927-6.009 34.618 34.618 0 0 1-5.976-9.663 17.826 17.826 0 0 1-1.318-8.078 14.577 14.577 0 0 1 2.68-7.308 14.762 14.762 0 0 1 6.178-5.04 13.99 13.99 0 0 1 4.44-1.166 13.653 13.653 0 0 1 5.527.469 14.7 14.7 0 0 1 8.013 5.616 14.541 14.541 0 0 1 2.693 6.741 17.848 17.848 0 0 1-1.467 9.323 33.956 33.956 0 0 1-4.891 8.048 52.189 52.189 0 0 1-7.87 7.983c-.094.077-.186.156-.28.235Zm.226-28.788a5.083 5.083 0 0 0-3.618 1.508 5.114 5.114 0 0 0-1.509 3.643 5.148 5.148 0 0 0 5.106 5.131h.024a5.139 5.139 0 0 0 5.123-5.128 5.111 5.111 0 0 0-1.507-3.644 5.086 5.086 0 0 0-3.618-1.51Z" data-name="Union 8" transform="translate(-2149.893 2392.742)"/></g></svg>