<svg xmlns="http://www.w3.org/2000/svg" width="52.198" height="53.442" viewBox="0 0 52.198 53.442">
  <g id="Group_5324" data-name="Group 5324" transform="translate(-4.163 0)">
    <g id="Group_5281" data-name="Group 5281" transform="translate(4.163 0)">
      <g id="Group_5280" data-name="Group 5280" transform="translate(0)">
        <path id="Path_5371" data-name="Path 5371" d="M122.581,89.423a3.291,3.291,0,0,0-3.288-3.288H102.3a1.121,1.121,0,0,0-1.121,1.121v5.295a1.121,1.121,0,0,0,1.609,1.009,3.6,3.6,0,0,1,1.579-.359,3.635,3.635,0,1,1,0,7.27,3.6,3.6,0,0,1-1.579-.36,1.121,1.121,0,0,0-1.609,1.009V105.3H98.525a5.877,5.877,0,1,0-11.6,0H83.143a1.121,1.121,0,0,0-1.121,1.121v16.992A3.291,3.291,0,0,0,85.31,126.7h33.984a3.291,3.291,0,0,0,3.287-3.288ZM84.264,123.414V107.542h4.174a1.121,1.121,0,0,0,1.01-1.609,3.6,3.6,0,0,1-.36-1.579A3.635,3.635,0,1,1,96,105.934a1.121,1.121,0,0,0,1.01,1.609h4.172V110.2a5.952,5.952,0,0,0-.944-.075h0a5.877,5.877,0,0,0,0,11.754h0a5.953,5.953,0,0,0,.944-.075v2.656H85.31A1.047,1.047,0,0,1,84.264,123.414Zm36.075,0a1.046,1.046,0,0,1-1.045,1.045h-15.87v-4.174a1.122,1.122,0,0,0-1.611-1.01,3.6,3.6,0,0,1-1.578.36,3.635,3.635,0,1,1,1.578-6.91,1.122,1.122,0,0,0,1.611-1.01v-4.174h2.654a5.932,5.932,0,0,0-.074.939v.006a5.877,5.877,0,1,0,11.754,0v-.006a5.931,5.931,0,0,0-.074-.939h2.655Zm0-18.12h-4.174a1.126,1.126,0,0,0-1.01,1.615,3.6,3.6,0,0,1,.36,1.579,3.635,3.635,0,0,1-7.27,0,3.6,3.6,0,0,1,.359-1.576,1.124,1.124,0,0,0-1.009-1.615h-4.174v-2.656a5.877,5.877,0,1,0,0-11.6V88.377h15.871a1.047,1.047,0,0,1,1.045,1.045v15.872Z" transform="translate(-70.383 -73.259)" fill="#32478a "/>
        <g id="Group_5279" data-name="Group 5279">
          <path id="Path_5372" data-name="Path 5372" d="M13.2,27.993a1.121,1.121,0,0,1-1-.614L4.519,12.221A3.288,3.288,0,0,1,5.966,7.8L21.123.121A1.122,1.122,0,0,1,22.63.614l1.707,3.369a5.96,5.96,0,0,1,.809-.494,5.875,5.875,0,0,1,7.9,2.586,5.885,5.885,0,0,1-3.463,8.26L31.291,17.7a1.121,1.121,0,0,1-.493,1.507L26.075,21.6a1.121,1.121,0,0,1-1.628-.978A3.635,3.635,0,1,0,18.6,23.587a1.121,1.121,0,0,1-.173,1.891l-4.723,2.394A1.12,1.12,0,0,1,13.2,27.993ZM21.137,2.628,6.979,9.8a1.046,1.046,0,0,0-.46,1.405l7.175,14.158,2.37-1.2a5.975,5.975,0,0,1-.494-.809,5.877,5.877,0,0,1,2.586-7.9,5.885,5.885,0,0,1,8.26,3.463l2.369-1.2L26.9,14a1.121,1.121,0,0,1,.979-1.628,3.6,3.6,0,0,0,1.571-.393A3.636,3.636,0,0,0,27.8,5.1a3.644,3.644,0,0,0-2.885,1.428,1.121,1.121,0,0,1-1.891-.173Z" transform="translate(-4.163 0)" fill="#32478a "/>
        </g>
      </g>
    </g>
  </g>
</svg>