<svg xmlns="http://www.w3.org/2000/svg" width="34.506" height="34.506" viewBox="0 0 34.506 34.506"><defs><linearGradient id="a" x2="1" y2="1" gradientUnits="objectBoundingBox"><stop offset="0" stop-color="#32478a"/><stop offset="1" stop-color="#32478a"/></linearGradient><clipPath id="b"><path data-name="Rectangle 879" stroke="rgba(0,0,0,0)" fill="url(#a)" d="M0 0h32.058v32.196H0z"/></clipPath></defs><g data-name="Group 1787"><g data-name="Group 1786" clip-path="url(#b)" stroke="rgba(0,0,0,0)" fill="url(#a)"><path data-name="Path 2231" d="M32.055 8.708c0-.6 0-.605-.6-.606h-6.439c-.73 0-1.059-.331-1.066-1.051V.581c0-.579 0-.579-.589-.579Q16.833 0 10.299 0a2.535 2.535 0 0 0-1.047.16 2.82 2.82 0 0 0-1.815 2.731c-.022 3.35-.008 6.7-.008 10.051v.188c.024.291.082.346.37.33a10.412 10.412 0 0 1 3.388.355 10.07 10.07 0 0 1 4.771 2.894 1.4 1.4 0 0 0 1.132.513c3.088-.018 6.177-.009 9.266-.009a2.468 2.468 0 0 1 .438.018.834.834 0 0 1 .024 1.649 2.193 2.193 0 0 1-.469.025h-6.5c-.6 0-1.193-.008-1.79 0-.385.007-.445.091-.295.43a11.581 11.581 0 0 1 .9 3.13c.046.339.107.38.447.4.115.005.23 0 .345 0h6.879a3.15 3.15 0 0 1 .408.012.837.837 0 0 1 .011 1.668 3.2 3.2 0 0 1-.439.013h-6.973c-.615 0-.622 0-.713.6a10.074 10.074 0 0 1-1.14 3.439 10.2 10.2 0 0 1-2.845 3.306c-.1.071-.218.137-.21.29h15.143a3.207 3.207 0 0 0 .964-.234 2.756 2.756 0 0 0 1.519-2.555q-.008-10.35 0-20.7m-4.5 4.055a.923.923 0 0 1-.916.586H12.956a.944.944 0 0 1-.96-1.283.964.964 0 0 1 .971-.6h13.654a.94.94 0 0 1 .936 1.3"/><path data-name="Path 2232" d="M16.828 22.308A8.476 8.476 0 1 0 6.48 31.957a5.6 5.6 0 0 1 1.047.239h1.759a3.562 3.562 0 0 1 .807-.156 8.478 8.478 0 0 0 6.735-9.732m-4.653.418-4.328 4.323a.928.928 0 0 1-1.393 0q-.918-.9-1.819-1.819a.943.943 0 1 1 1.342-1.322c.322.313.651.622.949.957.182.2.28.17.457-.01q1.718-1.743 3.458-3.463a.933.933 0 0 1 1.613.39 1.986 1.986 0 0 1 .038.211 1.042 1.042 0 0 1-.316.731"/><path data-name="Path 2233" d="m25.751.657 5.648 5.647c-.021.054-.107.006-.168.006-1.746 0-3.493 0-5.239.005-.171 0-.255-.01-.254-.226.01-1.778.006-3.556.006-5.334 0-.037.005-.074.007-.1"/></g></g></svg>