<svg xmlns="http://www.w3.org/2000/svg" width="36.751" height="42.04" viewBox="0 0 36.751 42.04">
  <g id="Group_4521" data-name="Group 4521" transform="translate(-26.48)">
    <g id="Group_4520" data-name="Group 4520" transform="translate(26.48)">
      <g id="Group_4519" data-name="Group 4519" transform="translate(0)">
        <path id="Path_4905" data-name="Path 4905" d="M59.236,14.381a14.381,14.381,0,0,0-28.762,0,4.338,4.338,0,0,0-3.995,4.714V26.6A4.459,4.459,0,0,0,31.274,31.4h2.317a.8.8,0,0,0,.8-.8V15.132a.8.8,0,0,0-.8-.8H32.073a12.783,12.783,0,1,1,25.566,0H56.121a.8.8,0,0,0-.8.8V30.575a.8.8,0,0,0,.8.8h1.518c-.224,5.489-2.86,6.775-8.125,7.007v-.535a1.6,1.6,0,0,0-1.6-1.6H42.89a1.6,1.6,0,0,0-1.6,1.6v2.6a1.6,1.6,0,0,0,1.6,1.6h5.041a1.6,1.6,0,0,0,1.6-1.6v-.463c5.065-.232,9.443-1.278,9.707-8.652a4.338,4.338,0,0,0,3.995-4.714V19.1A4.331,4.331,0,0,0,59.236,14.381ZM32.792,15.875v13.9H31.234a2.9,2.9,0,0,1-3.2-3.2v-7.51a2.9,2.9,0,0,1,3.2-3.2Zm15.14,23.361V40.45H42.89v-2.6h5.041ZM61.633,26.6a2.9,2.9,0,0,1-3.2,3.2H56.919V15.931h1.558a2.9,2.9,0,0,1,3.2,3.2Z" transform="translate(-26.48)" fill="#32478a"/>
      </g>
    </g>
  </g>
</svg>
