<svg xmlns="http://www.w3.org/2000/svg" width="59.981" height="44.033" viewBox="0 0 59.981 44.033">
  <g id="Group_10524" data-name="Group 10524" transform="translate(0 -68.066)">
    <g id="Group_10511" data-name="Group 10511" transform="translate(46.011 86.855)">
      <g id="Group_10510" data-name="Group 10510">
        <path id="Path_16326" data-name="Path 16326" d="M399.659,229.481c-2.041-1.02-5.868-1.032-6.03-1.032a.879.879,0,0,0,0,1.757,15.172,15.172,0,0,1,5.244.847.879.879,0,1,0,.786-1.572Z" transform="translate(-392.751 -228.449)" fill="#32478a"/>
      </g>
    </g>
    <g id="Group_10513" data-name="Group 10513" transform="translate(0 68.066)">
      <g id="Group_10512" data-name="Group 10512">
        <path id="Path_16327" data-name="Path 16327" d="M57.3,100.4,53.671,99.36a.368.368,0,0,1-.266-.353V97.8a6.6,6.6,0,0,0,.84-.689,6.464,6.464,0,0,0,1.978-4.676V90.759l.351-.7a5.605,5.605,0,0,0,.589-2.494V83.036a.879.879,0,0,0-.879-.879H47.829a5.582,5.582,0,0,0-5.576,5.576v.052a4.66,4.66,0,0,0,.489,2.073l.45.9v1.435a6.856,6.856,0,0,0,2.818,5.543v1.269c0,.2,0,.277-.726.484L43.515,100l-5.122-1.862a.878.878,0,0,0-.239-.673l-1.637-1.72V92.856c.173-.143.344-.289.509-.444a10.312,10.312,0,0,0,3.249-7.5V82.61a10.156,10.156,0,0,0,.939-4.271V68.945a.879.879,0,0,0-.879-.879H27.183a8.4,8.4,0,0,0-8.394,8.394v1.879a10.156,10.156,0,0,0,.939,4.271v1.983a10.736,10.736,0,0,0,3.758,8.194v2.955l-1.637,1.72a.878.878,0,0,0-.239.673L16.2,100.1a4.608,4.608,0,0,0-1.086.569l-.849-.424a6.711,6.711,0,0,0,3.366-2.724.878.878,0,0,0,0-.786c-.633-1.267-.71-3.589-.772-5.455-.021-.621-.04-1.208-.077-1.73a7.643,7.643,0,0,0-7.453-7.393A7.643,7.643,0,0,0,1.881,89.55c-.037.523-.057,1.109-.077,1.731-.062,1.866-.138,4.187-.772,5.454a.878.878,0,0,0,0,.786A6.71,6.71,0,0,0,4.4,100.243l-2.358,1.179A3.678,3.678,0,0,0,0,104.729v6.491a.879.879,0,1,0,1.757,0v-6.491a1.929,1.929,0,0,1,1.072-1.735l2.936-1.468,1.021.971a3.7,3.7,0,0,0,5.093,0l1.021-.97.957.479a4.627,4.627,0,0,0-.707,2.453v6.762a.879.879,0,1,0,1.757,0v-6.762a2.888,2.888,0,0,1,1.9-2.706l5.7-2.073,2.373,3.559a1.811,1.811,0,0,0,1.334.8q.091.009.181.009a1.811,1.811,0,0,0,1.284-.533l1.448-1.448v9.152a.879.879,0,1,0,1.757,0v-9.152l1.448,1.448a1.81,1.81,0,0,0,1.284.533q.09,0,.181-.009a1.811,1.811,0,0,0,1.334-.8L37.5,99.679l5.7,2.073a2.888,2.888,0,0,1,1.9,2.706v6.762a.879.879,0,1,0,1.757,0v-6.762a4.645,4.645,0,0,0-1.3-3.215l.217-.062a4.819,4.819,0,0,0,.818-.3l2.243,2.243v8.091a.879.879,0,1,0,1.757,0v-8.091l2.228-2.228a2.089,2.089,0,0,0,.374.148l3.629,1.037a1.948,1.948,0,0,1,1.407,1.865v7.268a.879.879,0,1,0,1.757,0v-7.268A3.713,3.713,0,0,0,57.3,100.4ZM5.637,98.845a6.316,6.316,0,0,1-2.82-1.81,9.685,9.685,0,0,0,.5-2.1,6.552,6.552,0,0,0,2.319,2.861Zm5.033,2.378a1.939,1.939,0,0,1-2.673,0l-.817-.776a1.818,1.818,0,0,0,.214-.858v-.937a6.534,6.534,0,0,0,3.879,0v.936a1.818,1.818,0,0,0,.214.858ZM9.334,97.189a4.763,4.763,0,0,1-4.758-4.758.873.873,0,0,0-1.023-.866c0-.076.005-.151.008-.226.02-.6.038-1.175.073-1.664a6.523,6.523,0,0,1,1.776-4.1,5.459,5.459,0,0,1,7.847,0,6.523,6.523,0,0,1,1.776,4.1c.035.489.054,1.06.074,1.664l.005.157a7.9,7.9,0,0,0-4.34-3.171,11.027,11.027,0,0,0-3.342-.53.879.879,0,0,0-.608.268L5.237,89.707A.879.879,0,1,0,6.5,90.927l1.319-1.368c1.136.056,4.791.481,6.212,3.61A4.747,4.747,0,0,1,9.334,97.189Zm3.7,1.658V97.8a6.5,6.5,0,0,0,2.32-2.864,9.673,9.673,0,0,0,.5,2.1A6.347,6.347,0,0,1,13.031,98.848Zm8.455-14.254v-2.18a.879.879,0,0,0-.087-.382,8.428,8.428,0,0,1-.852-3.692V76.46a6.644,6.644,0,0,1,6.637-6.637H39.457v8.516a8.428,8.428,0,0,1-.852,3.692.879.879,0,0,0-.087.382v2.5a8.435,8.435,0,0,1-2.693,6.214,8.747,8.747,0,0,1-.675.571l-.015.011a8.448,8.448,0,0,1-5.7,1.7A8.7,8.7,0,0,1,21.486,84.593Zm4.947,17.679a.055.055,0,0,1-.049.017.056.056,0,0,1-.045-.027l-2.733-4.1.879-.924,4.145,2.834ZM30,98.882,25.244,95.63V93.99a9.893,9.893,0,0,0,4.076,1.177q.347.022.691.022a10.177,10.177,0,0,0,4.749-1.164v1.6Zm3.662,3.382a.056.056,0,0,1-.045.027.054.054,0,0,1-.049-.017l-2.2-2.2,4.145-2.834.879.924Zm16.044-.741-1.994-1.994a2.41,2.41,0,0,0,.054-.522v-.371a6.161,6.161,0,0,0,1.74.307c.068,0,.135,0,.2,0a6.526,6.526,0,0,0,1.937-.293v.354a2.1,2.1,0,0,0,.063.512Zm3.313-5.676a4.722,4.722,0,0,1-3.46,1.341,4.918,4.918,0,0,1-4.611-4.992V90.552a.878.878,0,0,0-.093-.393l-.543-1.086a2.894,2.894,0,0,1-.3-1.288v-.052a3.823,3.823,0,0,1,3.819-3.819h7.576v3.649a3.839,3.839,0,0,1-.4,1.708l-.444.887a.878.878,0,0,0-.093.393v1.879A4.721,4.721,0,0,1,53.021,95.846Z" transform="translate(0 -68.066)" fill="#32478a"/>
      </g>
    </g>
    <g id="Group_10515" data-name="Group 10515" transform="translate(54.466 104.704)">
      <g id="Group_10514" data-name="Group 10514">
        <path id="Path_16328" data-name="Path 16328" d="M465.8,380.814a.879.879,0,0,0-.879.879v5.637a.879.879,0,1,0,1.757,0v-5.637A.879.879,0,0,0,465.8,380.814Z" transform="translate(-464.923 -380.814)" fill="#32478a"/>
      </g>
    </g>
    <g id="Group_10517" data-name="Group 10517" transform="translate(3.758 105.866)">
      <g id="Group_10516" data-name="Group 10516">
        <path id="Path_16329" data-name="Path 16329" d="M32.956,390.728a.879.879,0,0,0-.879.879v4.475a.879.879,0,1,0,1.757,0v-4.475A.879.879,0,0,0,32.956,390.728Z" transform="translate(-32.077 -390.728)" fill="#32478a"/>
      </g>
    </g>
    <g id="Group_10519" data-name="Group 10519" transform="translate(22.547 76.048)">
      <g id="Group_10518" data-name="Group 10518" transform="translate(0 0)">
        <path id="Path_16330" data-name="Path 16330" d="M207.112,138.812c-3.323-3.323-10.276-2.688-13.111-2.26a1.8,1.8,0,0,0-1.541,1.8v2.024a.879.879,0,0,0,1.757,0v-2.024a.058.058,0,0,1,.046-.059,27.76,27.76,0,0,1,5.708-.279c2.74.182,4.724.87,5.9,2.044a.879.879,0,1,0,1.242-1.242Z" transform="translate(-192.46 -136.203)" fill="#32478a"/>
      </g>
    </g>
    <g id="Group_10521" data-name="Group 10521" transform="translate(18.789 106.583)">
      <g id="Group_10520" data-name="Group 10520">
        <path id="Path_16331" data-name="Path 16331" d="M161.263,396.853a.879.879,0,0,0-.879.879v3.758a.879.879,0,1,0,1.757,0v-3.758A.879.879,0,0,0,161.263,396.853Z" transform="translate(-160.384 -396.853)" fill="#32478a"/>
      </g>
    </g>
    <g id="Group_10523" data-name="Group 10523" transform="translate(39.457 106.583)">
      <g id="Group_10522" data-name="Group 10522">
        <path id="Path_16332" data-name="Path 16332" d="M337.685,396.853a.879.879,0,0,0-.879.879v3.758a.879.879,0,1,0,1.757,0v-3.758A.879.879,0,0,0,337.685,396.853Z" transform="translate(-336.806 -396.853)" fill="#32478a"/>
      </g>
    </g>
  </g>
</svg>