<svg xmlns="http://www.w3.org/2000/svg" id="Group_10006" data-name="Group 10006" width="48" height="34.065" viewBox="0 0 48 34.065">
  <path id="Path_15833" data-name="Path 15833" d="M45.8,64.471a5.183,5.183,0,1,1,5.23-5.183A5.213,5.213,0,0,1,45.8,64.471Zm0-8.911a3.728,3.728,0,1,0,3.776,3.728A3.757,3.757,0,0,0,45.8,55.56Zm0,0" transform="translate(-36.882 -48.717)" fill="#32478a"/>
  <path id="Path_15834" data-name="Path 15834" d="M11.024,194.967H1.9A1.9,1.9,0,0,1,0,193.078V190.7a8.937,8.937,0,0,1,14.243-7.087.727.727,0,0,1-.864,1.171A7.482,7.482,0,0,0,1.455,190.7v2.379a.441.441,0,0,0,.446.434h9.123a.727.727,0,1,1,0,1.455Zm0,0" transform="translate(0 -163.269)" fill="#32478a"/>
  <path id="Path_15835" data-name="Path 15835" d="M345.8,188.916H336.68a.727.727,0,0,1,0-1.455H345.8a.441.441,0,0,0,.446-.434v-2.379a7.43,7.43,0,0,0-7.465-7.378,7.532,7.532,0,0,0-4.726,1.667.727.727,0,1,1-.915-1.131,8.992,8.992,0,0,1,5.641-1.991,8.886,8.886,0,0,1,8.919,8.832v2.379A1.9,1.9,0,0,1,345.8,188.916Zm0,0" transform="translate(-299.704 -157.769)" fill="#32478a"/>
  <path id="Path_15836" data-name="Path 15836" d="M345.582,60.518a5.183,5.183,0,1,1,5.231-5.183A5.213,5.213,0,0,1,345.582,60.518Zm0-8.911a3.728,3.728,0,1,0,3.777,3.728A3.757,3.757,0,0,0,345.582,51.607Zm0,0" transform="translate(-306.501 -45.593)" fill="#32478a"/>
  <path id="Path_15837" data-name="Path 15837" d="M138.008,173.665H115.922a2.527,2.527,0,0,1-2.661-2.361v-3.346c0-6.687,6.147-12.127,13.7-12.127s13.7,5.44,13.7,12.127V171.3A2.527,2.527,0,0,1,138.008,173.665Zm-11.043-16.379c-6.659,0-12.076,4.788-12.076,10.672v3.346a.977.977,0,0,0,1.033.906h22.085a.977.977,0,0,0,1.033-.906v-3.346C139.041,162.075,133.624,157.287,126.965,157.287Zm0,0" transform="translate(-102.965 -139.601)" fill="#32478a"/>
  <path id="Path_15838" data-name="Path 15838" d="M178,13.317a6.7,6.7,0,0,1-6.722-6.659,6.722,6.722,0,0,1,13.444,0A6.7,6.7,0,0,1,178,13.317Zm0-11.862a5.242,5.242,0,0,0-5.267,5.2,5.268,5.268,0,0,0,10.534,0A5.242,5.242,0,0,0,178,1.455Zm0,0" transform="translate(-154.279)" fill="#32478a"/>
</svg>