<svg id="briefcase" xmlns="http://www.w3.org/2000/svg" width="44" height="44" viewBox="0 0 49.385 49.385"><path id="Vector" d="M11.833,32.923H28.3c8.272,0,9.753-3.313,10.186-7.346L40.024,9.116C40.579,4.095,39.139,0,30.353,0H9.776C.989,0-.451,4.095.1,9.116L1.648,25.577C2.08,29.61,3.561,32.923,11.833,32.923Z" transform="translate(4.628 12.346)" fill="none" stroke="#fff" stroke-linecap="round" stroke-linejoin="round" stroke-width="2.5"></path><path id="Vector-2" data-name="Vector" d="M0,8.231V6.585C0,2.943,0,0,6.585,0H9.877c6.585,0,6.585,2.943,6.585,6.585V8.231" transform="translate(16.462 4.115)" fill="none" stroke="#fff" stroke-linecap="round" stroke-linejoin="round" stroke-width="2.5"></path><path id="Vector-3" data-name="Vector" d="M8.231,2.058v2.1c0,2.243-.021,4.074-4.115,4.074C.041,8.231,0,6.42,0,4.177V2.058C0,0,0,0,2.058,0H6.173C8.231,0,8.231,0,8.231,2.058Z" transform="translate(20.577 24.692)" fill="none" stroke="#fff" stroke-linecap="round" stroke-linejoin="round" stroke-width="2.5"></path><path id="Vector-4" data-name="Vector" d="M15.741,0A33.92,33.92,0,0,1,0,6.214" transform="translate(28.808 22.635)" fill="none" stroke="#fff" stroke-linecap="round" stroke-linejoin="round" stroke-width="2.5"></path><path id="Vector-5" data-name="Vector" d="M0,0A33.505,33.505,0,0,0,15.186,5.679" transform="translate(5.391 23.19)" fill="none" stroke="#fff" stroke-linecap="round" stroke-linejoin="round" stroke-width="2.5"></path><path id="Vector-6" data-name="Vector" d="M0,0H49.385V49.385H0Z" transform="translate(49.385 49.385) rotate(180)" fill="none" opacity="0"></path>
                            </svg>