<svg xmlns="http://www.w3.org/2000/svg" width="44" height="44" viewBox="0 0 47.015 45.398"><g id="Group_8239" data-name="Group 8239" transform="translate(-3.728 -3.173)"><g id="Group_8308" data-name="Group 8308" transform="translate(3.728 -5.327)"><g id="Group_8307" data-name="Group 8307" transform="translate(0.5 9)">
                        <path id="Path_7304" data-name="Path 7304" d="M5.915,39.517H5.728A5.228,5.228,0,0,1,.5,34.288V30.226A5.228,5.228,0,0,1,5.728,25H7.555v-.045a15.953,15.953,0,0,1,31.905,0V25h1.827a5.228,5.228,0,0,1,5.228,5.228v4.062a5.228,5.228,0,0,1-5.228,5.228H38.754a.912.912,0,0,1-.912-.912V24.953a14.335,14.335,0,1,0-28.67,0V38.605a.911.911,0,0,1-.911.912H7.533a9.329,9.329,0,0,0,9.329,9.252h1.565a3.82,3.82,0,0,1,3.733-3.011h2.7a3.82,3.82,0,1,1,0,7.639h-2.7a3.821,3.821,0,0,1-3.734-3.011H16.861A10.946,10.946,0,0,1,5.915,39.517ZM27.058,49.578a2.2,2.2,0,0,0-2.2-2.2h-2.7a2.2,2.2,0,1,0,0,4.4h2.7A2.2,2.2,0,0,0,27.058,49.578ZM7.555,26.615H5.728a3.611,3.611,0,0,0-3.611,3.611v4.062A3.611,3.611,0,0,0,5.728,37.9H7.555Zm31.905,0V37.9h1.827A3.611,3.611,0,0,0,44.9,34.288V30.226a3.611,3.611,0,0,0-3.611-3.611Z" transform="translate(-0.5 -9)" fill="#32478a" stroke="#32478a" stroke-width="1.5"></path></g></g></g>
                    </svg>