<svg xmlns="http://www.w3.org/2000/svg" width="44" height="44" viewBox="0 0 15.2 15.2"><g id="call" transform="translate(-108.9 -189.9)">
                        <path id="Vector" d="M14,11.431a1.779,1.779,0,0,1-.175.763,2.888,2.888,0,0,1-.477.714,3.16,3.16,0,0,1-1.15.826A3.525,3.525,0,0,1,10.831,14a5.85,5.85,0,0,1-2.285-.511A12.318,12.318,0,0,1,6.134,12.1a20.147,20.147,0,0,1-2.3-1.96A19.9,19.9,0,0,1,1.879,7.854,12.475,12.475,0,0,1,.5,5.467,5.888,5.888,0,0,1,0,3.178,3.616,3.616,0,0,1,.252,1.827,3.222,3.222,0,0,1,1.059.658,2.055,2.055,0,0,1,2.517,0a1.319,1.319,0,0,1,.568.126,1.142,1.142,0,0,1,.47.392L5.181,2.807a2.4,2.4,0,0,1,.28.49,1.105,1.105,0,0,1,.1.427.949.949,0,0,1-.147.5,2.381,2.381,0,0,1-.393.5l-.533.553a.374.374,0,0,0-.112.28.635.635,0,0,0,.021.161c.021.056.042.1.056.14a5.809,5.809,0,0,0,.652.9c.315.364.652.735,1.017,1.106s.743.714,1.115,1.029a5.38,5.38,0,0,0,.9.644c.035.014.077.035.126.056a.485.485,0,0,0,.175.028.386.386,0,0,0,.287-.119l.533-.525a2.151,2.151,0,0,1,.5-.392.935.935,0,0,1,.5-.147,1.12,1.12,0,0,1,.428.091,2.712,2.712,0,0,1,.491.273l2.32,1.645a1.062,1.062,0,0,1,.386.448A1.434,1.434,0,0,1,14,11.431Z" transform="translate(109.5 190.5)" fill="none" stroke="#32478a" stroke-width="1.2"></path></g>
                    </svg>