<svg xmlns="http://www.w3.org/2000/svg" width="44" height="44" viewBox="0 0 14.201 14.201"><g data-name="Group 8306"><g data-name="Group 8303"><g data-name="Group 8302"><path data-name="Path 7302" d="M13.541 8.467A6.583 6.583 0 0 0 5.736.661 3.683 3.683 0 0 0 .66 5.736a6.583 6.583 0 0 0 7.805 7.806 3.688 3.688 0 0 0 1.954.56q.149 0 .3-.012a3.683 3.683 0 0 0 2.822-5.623Zm-1.127 3.948a2.814 2.814 0 0 1-3.616.315.43.43 0 0 0-.349-.066 5.724 5.724 0 0 1-6.91-6.911.431.431 0 0 0-.066-.352 2.822 2.822 0 0 1 3.928-3.928.43.43 0 0 0 .349.066 5.724 5.724 0 0 1 6.911 6.91.431.431 0 0 0 .066.349 2.814 2.814 0 0 1-.313 3.617Z" fill="#32478a" stroke="#32478a" stroke-width=".2"></path></g></g><g data-name="Group 8305"><g data-name="Group 8304"><path data-name="Path 7303" d="M7.186 6.604c-.941-.318-2.007-.679-2.007-1.212 0-.68.88-1.255 1.921-1.255s1.921.575 1.921 1.255a.456.456 0 0 0 .911 0 1.947 1.947 0 0 0-.886-1.579 3.523 3.523 0 0 0-3.893 0 1.947 1.947 0 0 0-.886 1.579 1.616 1.616 0 0 0 .945 1.389 9.431 9.431 0 0 0 1.68.686c1.046.354 2.128.72 2.128 1.346 0 .68-.88 1.255-1.921 1.255s-1.921-.575-1.921-1.255a.456.456 0 1 0-.911 0 1.947 1.947 0 0 0 .886 1.579 3.523 3.523 0 0 0 3.893 0 1.947 1.947 0 0 0 .886-1.579c.001-1.28-1.458-1.774-2.746-2.209Z" fill="#32478a" stroke="#32478a" stroke-width=".2"></path></g></g></g></svg>