<svg xmlns="http://www.w3.org/2000/svg" width="50.339" height="47.98" viewBox="0 0 50.339 47.98">
  <g id="frontend_1_" data-name="frontend (1)" transform="translate(0 -11.996)">
    <path id="Path_2684" data-name="Path 2684" d="M63.059,55.271A3.325,3.325,0,1,0,66.388,58.6,3.329,3.329,0,0,0,63.059,55.271Zm0,4.667A1.342,1.342,0,1,1,64.405,58.6,1.344,1.344,0,0,1,63.059,59.938Z" transform="translate(-53.86 -39.02)" fill="#32478a"/>
    <path id="Path_2685" data-name="Path 2685" d="M278.224,55.271h-8.793a3.325,3.325,0,1,0,0,6.65h8.793a3.325,3.325,0,1,0,0-6.65Zm0,4.667h-8.793a1.342,1.342,0,1,1,0-2.684h8.793a1.342,1.342,0,1,1,0,2.684Z" transform="translate(-239.942 -39.02)" fill="#32478a"/>
    <path id="Path_2686" data-name="Path 2686" d="M150.731,55.271A3.325,3.325,0,1,0,154.06,58.6,3.329,3.329,0,0,0,150.731,55.271Zm0,4.667a1.342,1.342,0,1,1,1.346-1.342A1.344,1.344,0,0,1,150.731,59.938Z" transform="translate(-132.912 -39.02)" fill="#32478a"/>
    <path id="Path_2687" data-name="Path 2687" d="M135.545,222.192a.991.991,0,0,0-1.195.734l-1.967,8.231a.991.991,0,1,0,1.929.461l1.967-8.231A.991.991,0,0,0,135.545,222.192Z" transform="translate(-119.343 -189.505)" fill="#32478a"/>
    <path id="Path_2688" data-name="Path 2688" d="M198.769,238.205a.992.992,0,0,0,1.4-.081L202.95,235a1.376,1.376,0,0,0,0-1.818l-2.783-3.124a.992.992,0,1,0-1.481,1.319l2.416,2.713-2.416,2.713A.992.992,0,0,0,198.769,238.205Z" transform="translate(-178.927 -196.326)" fill="#32478a"/>
    <path id="Path_2689" data-name="Path 2689" d="M61.58,229.981a.992.992,0,0,0-1.4.081l-2.78,3.121a1.375,1.375,0,0,0,0,1.818l2.783,3.124a.992.992,0,1,0,1.481-1.319l-2.416-2.712,2.416-2.713A.992.992,0,0,0,61.58,229.981Z" transform="translate(-51.445 -196.327)" fill="#32478a"/>
    <path id="Path_2690" data-name="Path 2690" d="M48.116,44.2h-.368A10.439,10.439,0,0,0,47,42.4l.263-.264a2.221,2.221,0,0,0,0-3.142l-.512-.512V17.359C46.754,14.4,44.667,12,42.1,12H4.652C2.087,12,0,14.4,0,17.359V45.071c0,2.957,2.087,5.363,4.652,5.363h5.817a.991.991,0,1,0,0-1.983H4.652c-1.447,0-2.669-1.548-2.669-3.38V27.083H44.771V37.1a2.255,2.255,0,0,0-.344-.029h0a2.2,2.2,0,0,0-1.565.648l-.268.267a10.467,10.467,0,0,0-1.833-.757v-.353a2.225,2.225,0,0,0-2.223-2.222H36.741a2.224,2.224,0,0,0-2.22,2.222v.377a10.524,10.524,0,0,0-1.79.75l-.257-.256a2.2,2.2,0,0,0-1.568-.651h0a2.207,2.207,0,0,0-1.571.649l-1.268,1.267a2.221,2.221,0,0,0,0,3.139l.274.275a10.47,10.47,0,0,0-.73,1.771H27.23a2.222,2.222,0,0,0-2.22,2.219v1.8a2.235,2.235,0,0,0,.013.236H19.253a.991.991,0,0,0,0,1.983H27.61a10.408,10.408,0,0,0,.742,1.785l-.268.267a2.225,2.225,0,0,0,0,3.138l1.268,1.268a2.2,2.2,0,0,0,1.568.651h0a2.207,2.207,0,0,0,1.571-.649l.266-.265a10.476,10.476,0,0,0,1.792.743v.384a2.224,2.224,0,0,0,2.22,2.222h1.8a2.224,2.224,0,0,0,2.22-2.222v-.381a10.449,10.449,0,0,0,1.8-.745l.264.263a2.2,2.2,0,0,0,1.568.652h0A2.208,2.208,0,0,0,46,56.892l1.265-1.267a2.221,2.221,0,0,0,0-3.142L47,52.218a10.468,10.468,0,0,0,.741-1.785h.375a2.224,2.224,0,0,0,2.223-2.219v-1.8A2.223,2.223,0,0,0,48.116,44.2ZM1.983,25.1V17.359c0-1.832,1.222-3.38,2.669-3.38H42.1c1.447,0,2.669,1.548,2.669,3.38V25.1H1.983ZM48.356,48.214a.244.244,0,0,1-.24.236H46.982a.991.991,0,0,0-.966.77,8.511,8.511,0,0,1-1.093,2.634.991.991,0,0,0,.139,1.229l.8.8a.238.238,0,0,1,.069.169.23.23,0,0,1-.07.167L44.6,55.49a.239.239,0,0,1-.17.069h0a.231.231,0,0,1-.168-.07l-.805-.8a.992.992,0,0,0-1.228-.137,8.5,8.5,0,0,1-2.645,1.095.992.992,0,0,0-.771.967v1.142a.244.244,0,0,1-.237.239h-1.8a.244.244,0,0,1-.237-.239V56.61a.992.992,0,0,0-.773-.967,8.507,8.507,0,0,1-2.64-1.093.991.991,0,0,0-1.227.139l-.8.8a.239.239,0,0,1-.17.069h0a.23.23,0,0,1-.167-.069l-1.27-1.27a.244.244,0,0,1,0-.334l.805-.8a.991.991,0,0,0,.139-1.232,8.451,8.451,0,0,1-1.095-2.632.992.992,0,0,0-.967-.77H27.23a.24.24,0,0,1-.237-.236v-1.8a.24.24,0,0,1,.237-.236h1.137a.992.992,0,0,0,.967-.771,8.505,8.505,0,0,1,1.081-2.622.991.991,0,0,0-.139-1.225l-.811-.813a.228.228,0,0,1-.067-.164.237.237,0,0,1,.069-.169l1.268-1.267a.239.239,0,0,1,.169-.069h0a.232.232,0,0,1,.168.07l.8.8a.991.991,0,0,0,1.231.135,8.553,8.553,0,0,1,2.637-1.106.991.991,0,0,0,.765-.965V36.879a.241.241,0,0,1,.237-.239h1.794a.243.243,0,0,1,.24.239V38a.991.991,0,0,0,.776.968,8.5,8.5,0,0,1,2.675,1.1.992.992,0,0,0,1.227-.137l.808-.805a.229.229,0,0,1,.165-.067h0a.238.238,0,0,1,.169.069l1.268,1.267a.238.238,0,0,1,.069.169.231.231,0,0,1-.07.167l-.8.8a.991.991,0,0,0-.136,1.229,8.487,8.487,0,0,1,1.1,2.649.992.992,0,0,0,.967.771h1.128a.245.245,0,0,1,.24.236Z" transform="translate(0)" fill="#32478a"/>
    <path id="Path_2691" data-name="Path 2691" d="M327.618,309.652a6.055,6.055,0,1,0,6.056,6.057A6.065,6.065,0,0,0,327.618,309.652Zm0,10.127a4.072,4.072,0,1,1,4.073-4.071A4.078,4.078,0,0,1,327.618,319.779Z" transform="translate(-289.944 -268.391)" fill="#32478a"/>
    <path id="Path_2692" data-name="Path 2692" d="M142.183,382.778h-.019a.991.991,0,1,0,0,1.983h.019a.991.991,0,1,0,0-1.983Z" transform="translate(-127.292 -334.327)" fill="#32478a"/>
  </g>
</svg>
