<svg xmlns="http://www.w3.org/2000/svg" width="70.971" height="65.727" viewBox="0 0 70.971 65.727">
  <g id="Group_3985" data-name="Group 3985" transform="translate(0 -1.774)">
    <path id="Path_4695" data-name="Path 4695" d="M38.594,34.721,28.259,28.753a1.109,1.109,0,0,0-1.109,0L16.814,34.721a1.107,1.107,0,0,0-.554.96v11.9a1.11,1.11,0,0,0,.554.961L27.15,54.511a1.1,1.1,0,0,0,1.109,0l10.335-5.966a1.11,1.11,0,0,0,.554-.961V35.68a1.107,1.107,0,0,0-.555-.96ZM27.7,30.995l8.117,4.686L27.7,40.367,19.587,35.68ZM18.478,37.6,26.6,42.288v9.343l-8.117-4.687ZM36.93,46.944l-8.117,4.687V42.288L36.93,37.6Z" transform="translate(7.781 12.84)" fill="#fe4e4e"/>
    <path id="Path_4696" data-name="Path 4696" d="M13.819,24.908a1.091,1.091,0,0,0,.553-.148l4.709-2.718,9.769,5.645a1.1,1.1,0,0,0,1.109,0l9.769-5.639,4.709,2.718a1.091,1.091,0,0,0,.553.148,1.109,1.109,0,0,0,.556-2.07l-4.7-2.716V8.849a1.11,1.11,0,0,0-.554-.961L29.959,1.922a1.109,1.109,0,0,0-1.109,0L18.515,7.888a1.11,1.11,0,0,0-.554.961V20.128l-4.7,2.712a1.109,1.109,0,0,0,.556,2.07Zm21.587-7.927A1.11,1.11,0,0,0,34.3,18.9l3.217,1.859-7,4.038V15.455l5.749-3.318,2.366-1.369v8.077Zm-6-12.819,8.117,4.687L29.4,13.535,21.287,8.849Zm-9.226,6.606,2.366,1.369,5.749,3.318V24.8l-7-4.039L24.513,18.9A1.11,1.11,0,1,0,23.4,16.98l-3.226,1.866Z" transform="translate(6.081 0)" fill="#fe4e4e"/>
    <path id="Path_4697" data-name="Path 4697" d="M25.995,38.091a1.091,1.091,0,0,0,.553.148,1.109,1.109,0,0,0,.556-2.07l-4.215-2.431V22.491a1.11,1.11,0,0,0-.554-.961L12,15.562a1.109,1.109,0,0,0-1.109,0L.554,21.522A1.11,1.11,0,0,0,0,22.491v11.9a1.107,1.107,0,0,0,.555.96L10.89,41.322a1.1,1.1,0,0,0,1.109,0l9.788-5.651ZM11.444,17.8l8.117,4.687-8.117,4.686L3.327,22.491ZM2.218,24.4l2.366,1.368,5.752,3.319v9.342L2.218,33.745ZM12.553,38.432V29.091L18.3,25.772,20.667,24.4v8.054l-3.784-2.184A1.11,1.11,0,0,0,15.775,32.2l3.791,2.188Z" transform="translate(0 6.528)" fill="#fe4e4e"/>
    <path id="Path_4698" data-name="Path 4698" d="M56.4,21.525,46.06,15.557a1.109,1.109,0,0,0-1.109,0L34.624,21.525a1.11,1.11,0,0,0-.554.961V33.74l-4.215,2.434a1.109,1.109,0,0,0,.556,2.07,1.091,1.091,0,0,0,.553-.148l4.208-2.428,9.788,5.651a1.1,1.1,0,0,0,1.109,0L56.4,35.352a1.107,1.107,0,0,0,.547-.963v-11.9a1.11,1.11,0,0,0-.554-.968ZM45.506,17.8l8.117,4.687-8.117,4.686-8.117-4.678ZM41.573,30.681a1.107,1.107,0,0,0-1.514-.405L36.28,32.46V24.406l2.366,1.368,5.749,3.319v9.342l-7.016-4.05L41.169,32.2A1.109,1.109,0,0,0,41.573,30.681Zm5.037,7.754V29.093l5.756-3.319,2.366-1.368v9.342Z" transform="translate(14.021 6.525)" fill="#fe4e4e"/>
  </g>
</svg>
