<svg xmlns="http://www.w3.org/2000/svg" width="47.035" height="47.035" viewBox="0 0 47.035 47.035">
  <g id="frontend" transform="translate(-2 -2)">
    <g id="website-web-browser-imange-design" transform="translate(2 2)">
      <path id="Path_2666" data-name="Path 2666" d="M47.784,17.568h5.487a.784.784,0,1,0,0-1.568H47.784a.784.784,0,0,0,0,1.568Z" transform="translate(-11.724 -5.025)" fill="#fe4e4e"/>
      <path id="Path_2667" data-name="Path 2667" d="M42.784,21.568h9.407a.784.784,0,1,0,0-1.568H42.784a.784.784,0,0,0,0,1.568Z" transform="translate(-10.644 -5.89)" fill="#fe4e4e"/>
      <path id="Path_2668" data-name="Path 2668" d="M42.784,25.568h9.407a.784.784,0,1,0,0-1.568H42.784a.784.784,0,0,0,0,1.568Z" transform="translate(-10.644 -6.754)" fill="#fe4e4e"/>
      <path id="Path_2669" data-name="Path 2669" d="M42.784,29.568h9.407a.784.784,0,1,0,0-1.568H42.784a.784.784,0,0,0,0,1.568Z" transform="translate(-10.644 -7.618)" fill="#fe4e4e"/>
      <path id="Path_2670" data-name="Path 2670" d="M42.784,33.568h9.407a.784.784,0,1,0,0-1.568H42.784a.784.784,0,0,0,0,1.568Z" transform="translate(-10.644 -8.483)" fill="#fe4e4e"/>
      <path id="Path_2671" data-name="Path 2671" d="M42.784,37.568h5.487a.784.784,0,1,0,0-1.568H42.784a.784.784,0,0,0,0,1.568Z" transform="translate(-10.644 -9.347)" fill="#fe4e4e"/>
      <path id="Path_2672" data-name="Path 2672" d="M46.683,2H4.352A2.359,2.359,0,0,0,2,4.352V46.683a2.359,2.359,0,0,0,2.352,2.352H46.683a2.359,2.359,0,0,0,2.352-2.352V4.352A2.359,2.359,0,0,0,46.683,2Zm.784,44.683a.784.784,0,0,1-.784.784H4.352a.784.784,0,0,1-.784-.784V9.839h43.9Zm0-38.412H3.568V4.352a.784.784,0,0,1,.784-.784H46.683a.784.784,0,0,1,.784.784Z" transform="translate(-2 -2)" fill="#fe4e4e"/>
      <path id="Path_2673" data-name="Path 2673" d="M7.568,6H6.784a.784.784,0,1,0,0,1.568h.784A.784.784,0,0,0,7.568,6Z" transform="translate(-2.864 -2.864)" fill="#fe4e4e"/>
      <path id="Path_2674" data-name="Path 2674" d="M12.568,6h-.784a.784.784,0,0,0,0,1.568h.784a.784.784,0,1,0,0-1.568Z" transform="translate(-3.945 -2.864)" fill="#fe4e4e"/>
      <path id="Path_2675" data-name="Path 2675" d="M17.568,6h-.784a.784.784,0,0,0,0,1.568h.784a.784.784,0,0,0,0-1.568Z" transform="translate(-5.025 -2.864)" fill="#fe4e4e"/>
      <path id="Path_2676" data-name="Path 2676" d="M56.568,6h-.784a.784.784,0,1,0,0,1.568h.784a.784.784,0,0,0,0-1.568Z" transform="translate(-13.453 -2.864)" fill="#fe4e4e"/>
      <path id="Path_2677" data-name="Path 2677" d="M42.784,17.568h.784a.784.784,0,0,0,0-1.568h-.784a.784.784,0,0,0,0,1.568Z" transform="translate(-10.644 -5.025)" fill="#fe4e4e"/>
      <path id="Path_2678" data-name="Path 2678" d="M54.568,36h-.784a.784.784,0,0,0,0,1.568h.784a.784.784,0,1,0,0-1.568Z" transform="translate(-13.021 -9.347)" fill="#fe4e4e"/>
      <path id="Path_2679" data-name="Path 2679" d="M46.6,6H27.784a.784.784,0,1,0,0,1.568H46.6A.784.784,0,0,0,46.6,6Z" transform="translate(-7.402 -2.864)" fill="#fe4e4e"/>
      <path id="Path_2680" data-name="Path 2680" d="M8.784,33.246H31.517a.784.784,0,0,0,.784-.784V16.784A.784.784,0,0,0,31.517,16H8.784A.784.784,0,0,0,8,16.784V32.462A.784.784,0,0,0,8.784,33.246Zm10.362-4.6.009-.015L23.678,21.4l6.428,10.279H17.25ZM15.4,31.678H10.248l4.807-7.212,2.509,3.763Zm15.329-14.11V29.729L24.343,19.5a.814.814,0,0,0-1.333,0l-4.539,7.264L15.7,22.62a.814.814,0,0,0-1.3,0L9.568,29.875V17.568Z" transform="translate(-3.297 -5.025)" fill="#fe4e4e"/>
      <path id="Path_2681" data-name="Path 2681" d="M35.191,52.975H25.784A.784.784,0,0,1,25,52.191V42.784A.784.784,0,0,1,25.784,42h9.407a.784.784,0,0,1,.784.784v9.407A.784.784,0,0,1,35.191,52.975Zm-8.623-1.568h7.839V43.568H26.568Z" transform="translate(-6.97 -10.644)" fill="#fe4e4e"/>
      <path id="Path_2682" data-name="Path 2682" d="M52.191,52.975H42.784A.784.784,0,0,1,42,52.191V42.784A.784.784,0,0,1,42.784,42h9.407a.784.784,0,0,1,.784.784v9.407A.784.784,0,0,1,52.191,52.975Zm-8.623-1.568h7.839V43.568H43.568Z" transform="translate(-10.644 -10.644)" fill="#fe4e4e"/>
      <path id="Path_2683" data-name="Path 2683" d="M18.191,52.975H8.784A.784.784,0,0,1,8,52.191V42.784A.784.784,0,0,1,8.784,42h9.407a.784.784,0,0,1,.784.784v9.407A.784.784,0,0,1,18.191,52.975ZM9.568,51.407h7.839V43.568H9.568Z" transform="translate(-3.297 -10.644)" fill="#fe4e4e"/>
    </g>
  </g>
</svg>
