<svg id="Group_1958" data-name="Group 1958" xmlns="http://www.w3.org/2000/svg" xmlns:xlink="http://www.w3.org/1999/xlink" width="92.856" height="37.059" viewBox="0 0 92.856 37.059">
  <defs>
    <clipPath id="clip-path">
      <rect id="Rectangle_924" data-name="Rectangle 924" width="92.856" height="37.059" fill="none" stroke="#32478a" stroke-width="1.5"/>
    </clipPath>
  </defs>
  <g id="Group_1957" data-name="Group 1957" transform="translate(0 0)" clip-path="url(#clip-path)">
    <path id="Path_2347" data-name="Path 2347" d="M283.65,14.057c-.573,1.736-1.12,3.382-1.66,5.03-.652,1.988-1.3,3.979-1.949,5.967-.853,2.6-1.717,5.2-2.558,7.8-.112.346-.238.5-.639.5-2.634-.022-5.268-.015-7.9,0a.568.568,0,0,1-.576-.328q-2.045-3.544-4.121-7.071a.922.922,0,0,1-.117-.836c.762-2.3,1.5-4.607,2.243-6.911q1.008-3.108,2.023-6.214c.017-.051.036-.1.095-.262l4.936,9.774c.234-.694.445-1.3.645-1.918q1.8-5.519,3.594-11.039c.883-2.712,1.775-5.421,2.641-8.138a.491.491,0,0,1,.576-.4q3.023.019,6.046,0c.313,0,.41.117.491.386.756,2.526,1.525,5.049,2.289,7.573q1.284,4.242,2.567,8.484c.5,1.644,1.005,3.286,1.544,5.045.306-.7.573-1.3.831-1.9q1.739-4.075,3.474-8.153,1.729-4.056,3.461-8.11c.433-1.016.869-2.03,1.293-3.05A.388.388,0,0,1,303.3,0q4.124.01,8.248,0c.33,0,.35.08.236.363q-3.156,7.8-6.3,15.6-2.64,6.541-5.281,13.081c-.537,1.329-1.078,2.657-1.6,3.994a.42.42,0,0,1-.475.309q-4.038-.011-8.076,0A.424.424,0,0,1,289.57,33q-2.007-6.466-4.029-12.927c-.619-1.983-1.246-3.963-1.892-6.013" transform="translate(-239.034 1.482)" fill="none" stroke="#32478a" stroke-width="1.5"/>
    <path id="Path_2348" data-name="Path 2348" d="M23.657,4.636a9.6,9.6,0,0,0-3.546-3.2A13.339,13.339,0,0,0,13.849.075C9.415.059,4.981.075.548.06.129.059,0,.135,0,.589.018,5.958.012,11.326.012,16.7q0,8.1-.008,16.193c0,.372.062.512.482.508q3.757-.034,7.514,0c.4,0,.471-.115.469-.484-.014-3.5,0-7-.018-10.493,0-.411.124-.492.506-.49,2.044.011,4.089.012,6.133-.022a13.5,13.5,0,0,0,2.9-.416.635.635,0,0,0,.524-.478c.678-2.135,1.373-4.265,2.066-6.4Q22.135,9.824,23.7,5.032a.4.4,0,0,0-.044-.4m-7.7,9.411a3.666,3.666,0,0,1-2.215,1.229,19.065,19.065,0,0,1-3.869.206c-.359,0-.72-.015-1.078.005-.273.016-.339-.091-.336-.349.011-1.381.005-2.761.005-4.141s0-2.732,0-4.1c0-.192-.029-.37.271-.361,1.465.042,2.936-.092,4.4.094A3.984,3.984,0,0,1,16.4,8.648a5.488,5.488,0,0,1-.442,5.4" transform="translate(2.224 1.428)" fill="none" stroke="#32478a" stroke-width="1.5"/>
    <path id="Path_2349" data-name="Path 2349" d="M765.16.355c.367.966.709,1.862,1.047,2.76q1.611,4.273,3.221,8.547,1.73,4.6,3.457,9.194,1.58,4.193,3.167,8.383.776,2.055,1.553,4.111c.08.211.068.31-.2.309q-4.341-.01-8.681,0a.33.33,0,0,1-.368-.266c-.619-1.761-1.259-3.515-1.872-5.278a.571.571,0,0,0-.647-.449c-3.685.015-7.371.006-11.056.016-.336,0-.435-.047-.293-.4.765-1.89,1.521-3.784,2.255-5.686a.522.522,0,0,1,.6-.38c2.174.013,4.348,0,6.521.014.34,0,.41-.052.287-.391-1.089-3.012-2.159-6.03-3.245-9.043a.95.95,0,0,1,0-.738q1.773-4.442,3.521-8.893c.23-.582.467-1.162.729-1.813" transform="translate(-687.016 1.158)" fill="none" stroke="#32478a" stroke-width="1.5"/>
  </g>
</svg>
