<svg xmlns="http://www.w3.org/2000/svg" width="48" height="48" viewBox="0 0 128 128" style="enable-background:new 0 0 512 512" xml:space="preserve"><g xmlns="http://www.w3.org/2000/svg"><path d="M117.62 15.278H72.972a5.831 5.831 0 0 0-5.823 5.822v64.253h-6.3V21.1a5.831 5.831 0 0 0-5.823-5.824H10.38A5.83 5.83 0 0 0 4.557 21.1v85.8a5.83 5.83 0 0 0 5.823 5.824h44.648a5.831 5.831 0 0 0 5.823-5.824V88.853h6.3V106.9a5.831 5.831 0 0 0 5.823 5.824h44.646a5.83 5.83 0 0 0 5.823-5.824V21.1a5.83 5.83 0 0 0-5.823-5.822zm-75.12 3.5-1.281 4.457a1.515 1.515 0 0 1-1.449 1.09H25.635a1.515 1.515 0 0 1-1.449-1.09l-1.281-4.457zm12.525 90.444H10.38a2.326 2.326 0 0 1-2.323-2.322v-3.223h49.294v3.223a2.326 2.326 0 0 1-2.323 2.322zm2.323-9.047H8.057V21.1a2.326 2.326 0 0 1 2.323-2.324h8.884l1.559 5.424a5.028 5.028 0 0 0 4.812 3.623h14.138a5.028 5.028 0 0 0 4.812-3.623l1.56-5.424h8.883a2.326 2.326 0 0 1 2.323 2.324v64.253H39.877a7.39 7.39 0 1 0 0 3.5h17.474zM36.6 87.1a3.891 3.891 0 1 1-3.9-3.888 3.895 3.895 0 0 1 3.9 3.888zm68.5-68.325-1.282 4.457a1.513 1.513 0 0 1-1.448 1.09H88.227a1.515 1.515 0 0 1-1.449-1.09L85.5 18.778zM91.238 93.98a1.749 1.749 0 0 0 2.475 0l5.64-5.64a1.749 1.749 0 0 0 0-2.475l-5.64-5.64a1.75 1.75 0 1 0-2.475 2.475l2.654 2.654H70.649V21.1a2.326 2.326 0 0 1 2.323-2.324h8.883l1.56 5.424a5.028 5.028 0 0 0 4.812 3.623h14.138a5.029 5.029 0 0 0 4.812-3.623l1.559-5.424h8.884a2.326 2.326 0 0 1 2.323 2.324v79.073H70.649v-11.32h23.243l-2.654 2.653a1.75 1.75 0 0 0 0 2.474zm26.382 15.242H72.972a2.326 2.326 0 0 1-2.323-2.324v-3.223h49.294v3.225a2.326 2.326 0 0 1-2.323 2.322z" fill="#fe4e4e" data-original="#000000"/><path d="M15.488 49.749h34.431A1.749 1.749 0 0 0 51.669 48V35.257a1.749 1.749 0 0 0-1.75-1.75H15.488a1.749 1.749 0 0 0-1.75 1.75V48a1.749 1.749 0 0 0 1.75 1.749zm1.75-12.742h30.931v9.242H17.238zM114.262 70.371V35.257a1.75 1.75 0 0 0-1.75-1.75H78.081a1.749 1.749 0 0 0-1.75 1.75v35.114a1.749 1.749 0 0 0 1.75 1.75h34.431a1.75 1.75 0 0 0 1.75-1.75zm-3.5-1.75H79.831V37.007h30.931zM51.669 70.371a1.749 1.749 0 0 0-1.75-1.75H15.488a1.75 1.75 0 0 0 0 3.5h34.431a1.749 1.749 0 0 0 1.75-1.75zM15.488 60.935h34.431a1.75 1.75 0 0 0 0-3.5H15.488a1.75 1.75 0 0 0 0 3.5z" fill="#fe4e4e" data-original="#000000"/></g></svg>