<svg xmlns="http://www.w3.org/2000/svg" width="32" height="18.565" viewBox="0 0 32 18.565"><path fill="currentColor" d="M32,24.8a2.04,2.04,0,0,1-2.53-.957l-4.594-6.356-.664-.88-5.365,7.257a1.955,1.955,0,0,1-2.4.944l6.87-9.222-6.4-8.33a2.125,2.125,0,0,1,2.535.88l4.765,6.435,4.8-6.4a1.906,1.906,0,0,1,2.38-.883l-2.48,3.288-3.36,4.375a.906.906,0,0,0,.023,1.325ZM.008,15.427.57,12.663C2.1,7.193,8.37,4.92,12.694,8.3c2.527,1.988,3.155,4.8,3.03,7.95H1.48c-.214,5.67,3.867,9.092,9.07,7.346a5.394,5.394,0,0,0,3.438-3.83c.273-.9.725-1.036,1.567-.78a7.187,7.187,0,0,1-3.45,5.273A8.358,8.358,0,0,1,2.37,23.011,8.655,8.655,0,0,1,.18,17.9c-.04-.316-.12-.617-.18-.92q.008-.776.008-1.552Zm1.5-.38H14.378c-.084-4.1-2.637-7.012-6.126-7.037-3.83-.03-6.58,2.813-6.746,7.037Z" transform="translate(0 -6.711)"></path></svg>