<svg data-name="Group 986" xmlns="http://www.w3.org/2000/svg" width="23.001" height="25.921" viewBox="0 0 23.001 25.921"><g data-name="Group 985" fill="currentcolor"><path data-name="Path 962" d="M23 7.728a2.215 2.215 0 0 0-1.213-2.114c-1.927-1.1-3.828-2.237-5.758-3.329A44.188 44.188 0 0 0 11.929 0h-.864a5.547 5.547 0 0 0-.733.214Q5.817 2.863 1.28 5.472A2.272 2.272 0 0 0 0 7.092v11.763a3.448 3.448 0 0 0 1.98 1.9c.471.247.927.524 1.389.79a6.3 6.3 0 0 0 1.141.51c2.256.757 4-.462 4.029-2.83.014-1.009 0-2.018 0-3.027 0-2.508-.006-5.016.006-7.524 0-.41-.134-.59-.552-.555a4.456 4.456 0 0 1-.734 0c-.393-.032-.532.126-.528.524.016 1.758.007 3.517.007 5.275v5.232A1.251 1.251 0 0 1 5.2 20.445a2.706 2.706 0 0 1-.92-.357c-.722-.419-1.439-.847-2.171-1.249a.645.645 0 0 1-.377-.65q.016-5.232 0-10.464a.653.653 0 0 1 .368-.651q4.514-2.59 9.012-5.207a.651.651 0 0 1 .75-.008q4.517 2.627 9.049 5.228a.623.623 0 0 1 .352.62q-.013 5.254 0 10.507a.591.591 0 0 1-.325.591q-4.563 2.634-9.113 5.29a.573.573 0 0 1-.673-.011c-.634-.4-1.29-.76-1.919-1.166a.686.686 0 0 0-.858-.03 6.627 6.627 0 0 1-.942.422c-.123.055-.325.039-.331.217-.006.161.177.21.3.282.964.576 1.937 1.136 2.893 1.725a2.279 2.279 0 0 0 2.524.011q4.516-2.629 9.04-5.245A2.111 2.111 0 0 0 23 18.322c-.01-3.531-.015-7.063 0-10.594"></path><path data-name="Path 963" d="M16.875 16.145a1.522 1.522 0 0 1-.527.285 7.214 7.214 0 0 1-3.962-.02 1.579 1.579 0 0 1-1.046-1.016c-.107-.271.023-.679-.31-.8a3.039 3.039 0 0 0-.9-.05h-.173c-.488.007-.558.079-.538.553a3.076 3.076 0 0 0 2.229 2.878 7.07 7.07 0 0 0 2.721.358c.345 0 .693.027 1.035-.005a4.967 4.967 0 0 0 2.661-.905 2.914 2.914 0 0 0 1.087-2.883 2.337 2.337 0 0 0-1.844-1.948 13.977 13.977 0 0 0-2.408-.487 13.832 13.832 0 0 1-2.626-.489.93.93 0 0 1-.3-1.613 1.357 1.357 0 0 1 .564-.309 6.161 6.161 0 0 1 3.282.021 1.3 1.3 0 0 1 1.007.928c.157.807.651.895 1.308.806a2.4 2.4 0 0 1 .3 0c.275 0 .391-.144.363-.413A3.091 3.091 0 0 0 16.78 8.22a7.806 7.806 0 0 0-3.532-.382 4.74 4.74 0 0 0-2.28.721 2.7 2.7 0 0 0-1.2 2.729 2.336 2.336 0 0 0 1.719 2.012 6.765 6.765 0 0 0 .661.2 17.579 17.579 0 0 0 2.3.345 8.6 8.6 0 0 1 2.152.437 1.076 1.076 0 0 1 .266 1.87"></path></g></svg>