<svg xmlns="http://www.w3.org/2000/svg" width="87.878" height="29.126" viewBox="0 0 87.878 29.126"><g id="Group_12483" data-name="Group 12483" transform="translate(-11000 -3936)"><g id="Group_12482" data-name="Group 12482" transform="translate(11000 3936)"><g fill="currentColor" id="Group_12481" data-name="Group 12481" transform="translate(0 0)"><g id="nodejs-1-logo-svgrepo-com"><path id="Path_19222" data-name="Path 19222" d="M16.431,15.45a.868.868,0,0,0-.443-.75l-7.23-4.161a1.05,1.05,0,0,0-.392-.12H8.3a.81.81,0,0,0-.392.12L.674,14.7a.867.867,0,0,0-.443.75L.248,26.636a.424.424,0,0,0,.222.375.387.387,0,0,0,.426,0l4.3-2.456a.868.868,0,0,0,.443-.75V18.57a.867.867,0,0,1,.443-.75L7.9,16.763a.826.826,0,0,1,.443-.12.733.733,0,0,1,.426.12L10.6,17.82a.867.867,0,0,1,.443.75v5.235a.868.868,0,0,0,.443.75l4.3,2.456a.416.416,0,0,0,.443,0,.424.424,0,0,0,.222-.375L16.431,15.45ZM51.184.051a.469.469,0,0,0-.426,0,.444.444,0,0,0-.222.375V11.51a.307.307,0,0,1-.46.273l-1.808-1.04a.879.879,0,0,0-.87,0l-7.23,4.178a.868.868,0,0,0-.443.75V24.01a.868.868,0,0,0,.443.75l7.23,4.178a.879.879,0,0,0,.87,0L55.5,24.76a.868.868,0,0,0,.443-.75V3.223a.875.875,0,0,0-.443-.767L51.185.051Zm-.665,21.214a.2.2,0,0,1-.1.188l-2.473,1.432a.253.253,0,0,1-.222,0L45.25,21.452a.214.214,0,0,1-.1-.188V18.4a.2.2,0,0,1,.1-.188l2.473-1.433a.253.253,0,0,1,.222,0l2.473,1.433a.214.214,0,0,1,.1.188v2.865Zm24.726-2.933a.852.852,0,0,0,.426-.75V15.552a.888.888,0,0,0-.426-.75l-7.179-4.161a.879.879,0,0,0-.87,0l-7.23,4.178a.867.867,0,0,0-.443.75v8.339a.867.867,0,0,0,.443.75l7.179,4.093a.847.847,0,0,0,.853,0l4.348-2.421a.428.428,0,0,0,0-.75L65.082,21.4a.444.444,0,0,1-.222-.375V18.417a.424.424,0,0,1,.222-.375l2.268-1.3a.416.416,0,0,1,.443,0l2.268,1.3a.444.444,0,0,1,.222.375v2.046a.424.424,0,0,0,.222.375.416.416,0,0,0,.443,0l4.3-2.507Z" transform="translate(-0.231 0)"></path><path id="Path_19223" data-name="Path 19223" d="M447.82,121.438a.155.155,0,0,1,.17,0l1.381.8a.179.179,0,0,1,.085.153V124a.179.179,0,0,1-.085.153l-1.381.8a.155.155,0,0,1-.17,0l-1.381-.8a.179.179,0,0,1-.085-.153v-1.6a.178.178,0,0,1,.085-.153Z" transform="translate(-380.53 -103.499)"></path><g id="Group_12480" data-name="Group 12480" transform="translate(19.747 9.157)"><path id="Path_19224" data-name="Path 19224" d="M8.937,1.185a.879.879,0,0,0-.87,0L.888,5.329a.851.851,0,0,0-.426.75v8.3a.888.888,0,0,0,.426.75l7.179,4.144a.879.879,0,0,0,.87,0l7.179-4.144a.852.852,0,0,0,.426-.75v-8.3a.889.889,0,0,0-.426-.75Z" transform="translate(-0.394 0.333)"></path><g id="Group_12478" data-name="Group 12478" transform="translate(0 1.4)"><path id="Path_19225" data-name="Path 19225" d="M7.657,1.169.46,5.312A.884.884,0,0,0,0,6.063v8.3a.821.821,0,0,0,.222.546L8.3,1.066a.974.974,0,0,0-.648.1Zm.7,18.178a1.048,1.048,0,0,0,.2-.085l7.2-4.144a.867.867,0,0,0,.443-.75v-8.3a.869.869,0,0,0-.256-.6L8.356,19.347Z" transform="translate(0 -1.051)" fill="none"></path><path id="Path_19226" data-name="Path 19226" d="M17.02,5.5,9.807,1.357a1.184,1.184,0,0,0-.222-.085L1.5,15.119a.9.9,0,0,0,.239.2l7.213,4.144a.831.831,0,0,0,.665.085L17.208,5.672A.9.9,0,0,0,17.02,5.5Z" transform="translate(-1.28 -1.239)"></path></g><g id="Group_12479" data-name="Group 12479" transform="translate(0 0)"><path id="Path_19227" data-name="Path 19227" d="M16.2,14.458v-8.3a.884.884,0,0,0-.46-.75L8.526,1.259a.753.753,0,0,0-.273-.1l7.9,13.489a.344.344,0,0,0,.051-.188ZM.46,5.4a.885.885,0,0,0-.46.75v8.3a.922.922,0,0,0,.46.75l7.213,4.144a.8.8,0,0,0,.563.1L.512,5.386.46,5.4Z" transform="translate(0 0.259)" fill="none"></path><path id="Path_19228" data-name="Path 19228" d="M49.8.809,49.7.86h.136Z" transform="translate(-42.365 -0.809)" fill-rule="evenodd"></path><path id="Path_19229" data-name="Path 19229" d="M18.613,24.364a.97.97,0,0,0,.426-.546L11.127,10.312a.866.866,0,0,0-.614.1L3.351,14.541l7.725,14.085a1.189,1.189,0,0,0,.324-.1l7.213-4.161Z" transform="translate(-2.857 -8.897)" fill-rule="evenodd"></path><path id="Path_19230" data-name="Path 19230" d="M111,104.219l-.051-.085v.119l.051-.034Z" transform="translate(-94.582 -88.889)" fill-rule="evenodd"></path><path id="Path_19231" data-name="Path 19231" d="M63.343,102.385l-7.2,4.144a1.029,1.029,0,0,1-.324.1l.136.256,7.981-4.621v-.1l-.2-.341A.792.792,0,0,1,63.343,102.385Z" transform="translate(-47.587 -86.918)" fill-rule="evenodd"></path><path id="Path_19232" data-name="Path 19232" d="M63.343,102.385l-7.2,4.144a1.029,1.029,0,0,1-.324.1l.136.256,7.981-4.621v-.1l-.2-.341A.792.792,0,0,1,63.343,102.385Z" transform="translate(-47.587 -86.918)" fill-rule="evenodd"></path></g></g></g><path id="Path_19233" data-name="Path 19233" d="M201.976,197.855a.851.851,0,0,1-.408-.107l-1.291-.767c-.194-.107-.1-.146-.039-.165a2.354,2.354,0,0,0,.582-.262.089.089,0,0,1,.1.01l.99.592a.123.123,0,0,0,.116,0l3.872-2.242a.112.112,0,0,0,.058-.107v-4.474a.112.112,0,0,0-.058-.107l-3.872-2.232a.123.123,0,0,0-.116,0l-3.872,2.232a.122.122,0,0,0-.058.107v4.474a.122.122,0,0,0,.058.107l1.058.611c.573.291.932-.049.932-.388v-4.416a.118.118,0,0,1,.116-.116h.495a.118.118,0,0,1,.117.116v4.416a1.076,1.076,0,0,1-1.145,1.213,1.665,1.665,0,0,1-.893-.243l-1.019-.582a.819.819,0,0,1-.408-.708v-4.474a.819.819,0,0,1,.408-.708l3.872-2.242a.866.866,0,0,1,.815,0l3.872,2.242a.819.819,0,0,1,.408.708v4.474a.819.819,0,0,1-.408.708l-3.872,2.242a.993.993,0,0,1-.408.087Zm1.194-3.077c-1.7,0-2.048-.776-2.048-1.436a.118.118,0,0,1,.116-.116h.5a.1.1,0,0,1,.107.1c.078.514.3.767,1.33.767.815,0,1.165-.184,1.165-.621,0-.252-.1-.437-1.369-.563-1.058-.107-1.718-.34-1.718-1.184,0-.786.66-1.252,1.766-1.252,1.242,0,1.854.427,1.931,1.359a.156.156,0,0,1-.029.087.12.12,0,0,1-.078.039h-.5a.114.114,0,0,1-.107-.087c-.116-.534-.417-.708-1.213-.708-.893,0-1,.311-1,.543,0,.281.126.369,1.33.524s1.757.379,1.757,1.213C205.1,194.293,204.4,194.778,203.169,194.778Z" transform="translate(-118.785 -179.736)"></path></g></g></g></svg>