<svg xmlns="http://www.w3.org/2000/svg" version="1.1" width="24" height="24" x="0" y="0" viewBox="0 0 360 360"><g><path xmlns="http://www.w3.org/2000/svg" d="m66.295 249.494c2.033-2.033 4.828-3.218 7.792-3.218h268.828c4.912 0 7.369 5.929 3.896 9.401l-53.105 53.105c-2.033 2.033-4.828 3.218-7.792 3.218h-268.828c-4.912 0-7.369-5.929-3.896-9.401z" fill="currentcolor"></path><path xmlns="http://www.w3.org/2000/svg" d="m66.294 51.218c2.118-2.032 4.913-3.218 7.793-3.218h268.828c4.912 0 7.369 5.929 3.896 9.401l-53.105 53.105c-2.033 2.033-4.828 3.218-7.792 3.218h-268.828c-4.912 0-7.369-5.929-3.896-9.401z" fill="currentcolor"></path><path xmlns="http://www.w3.org/2000/svg" d="m293.706 149.721c-2.033-2.033-4.828-3.218-7.792-3.218h-268.828c-4.912 0-7.369 5.929-3.896 9.401l53.105 53.105c2.033 2.033 4.828 3.218 7.792 3.218h268.828c4.912 0 7.369-5.929 3.896-9.401z" fill="currentcolor"></path><path xmlns="http://www.w3.org/2000/svg" d="m274 348h-188c-3.314 0-6-2.686-6-6 0-3.314 2.686-6 6-6h188c3.314 0 6 2.686 6 6 0 3.314-2.686 6-6 6z" fill="currentcolor"></path></g></svg>