<svg width="30" height="30" viewBox="0 0 46 46" fill="none" xmlns="http://www.w3.org/2000/svg"><path d="M42.5659 23.0677C42.5659 21.0397 42.2523 19.0766 41.6838 17.2373L32.9434 39.9201C38.7007 36.5137 42.5658 30.2438 42.5658 23.0677H42.5659Z" fill="currentColor"></path><path d="M16.822 41.6238C18.7678 42.2774 20.8506 42.6286 23.0198 42.6286C25.2864 42.6286 27.4575 42.245 29.4815 41.5354L23.5101 26.0542L16.8221 41.6238H16.822Z" fill="currentColor"></path><path d="M4.24318 17.5347C3.72654 19.2876 3.44434 21.1431 3.44434 23.0645C3.44434 30.3951 7.48007 36.7825 13.4453 40.1292L4.30305 17.6575L4.24318 17.5347Z" fill="currentColor"></path><path d="M14.2145 16.2754L13.3741 16.2379C11.5409 16.2074 11.7439 18.1106 11.7439 18.1106L18.2482 34.4241L22.621 23.9794L20.1798 17.7644C19.2024 16.1211 16.8171 16.1384 16.8171 16.1384V15.2726H30.4936L30.4733 16.2328L29.0502 16.3211C27.278 16.3211 27.6363 18.007 27.6363 18.007L33.5712 33.8608L35.2723 29.4708C38.29 22.6296 36.4284 17.5666 36.4284 17.5666C33.4066 11.3496 37.2252 10.4574 37.2252 10.4574C37.4667 10.4229 37.6931 10.4036 37.9154 10.3934C34.3272 6.177 28.9821 3.50244 23.0148 3.50244C14.9463 3.50244 8.01575 8.39183 5.02637 15.3682L14.1819 15.2738L14.2144 16.2756L14.2145 16.2754Z" fill="currentColor"></path><path d="M44.9869 23.0016C44.9869 35.125 35.1219 44.9911 23.0015 44.9911C10.8749 44.9911 1.00987 35.125 1.00987 23.0016C1.00987 10.875 10.8749 1.01305 23.0015 1.01305C35.1219 1.01404 44.9869 10.8751 44.9869 23.0016ZM23.0015 0C10.3197 0 0 10.3198 0 23.0026C0 35.6854 10.3198 46 23.0015 46C35.6812 46 45.9939 35.6853 45.9939 23.0026C45.9939 10.3198 35.6813 0 23.0015 0Z" fill="currentColor"></path></svg>