<svg width="481" height="126" viewBox="0 0 481 126" fill="none" xmlns="http://www.w3.org/2000/svg">
<mask id="mask0_427_4522" style="mask-type:alpha" maskUnits="userSpaceOnUse" x="0" y="0" width="481" height="126">
<rect width="481" height="126" fill="white"/>
</mask>
<g mask="url(#mask0_427_4522)">
<path d="M457.437 80.0393C453.52 80.0393 449.95 79.2812 446.729 77.765C443.507 76.1856 440.948 74.0693 439.053 71.4159C437.158 68.6994 436.21 65.667 436.21 62.3188V49.7155C436.21 46.1777 437.189 42.9874 439.148 40.1445C441.106 37.3017 443.696 35.059 446.918 33.4164C450.203 31.7739 453.741 30.9526 457.531 30.9526C461.259 30.9526 464.67 31.7423 467.766 33.3217C470.924 34.8379 473.42 36.9858 475.252 39.7655C477.084 42.482 478 45.6091 478 49.1469V54.4536C478 55.8434 477.463 57.0121 476.389 57.9598C475.378 58.9074 474.083 59.3812 472.504 59.3812H447.676V61.4659C447.676 64.1824 448.497 66.3936 450.14 68.0993C451.782 69.805 454.246 70.6578 457.531 70.6578C460.69 70.6578 463.028 69.9629 464.544 68.5731C466.123 67.1832 466.913 65.3828 466.913 63.1717C468.05 63.0453 468.84 62.9821 469.282 62.9821C471.619 62.9821 473.451 63.5191 474.778 64.5931C476.105 65.6039 476.768 67.0569 476.768 68.9521C476.768 70.7842 475.915 72.5531 474.209 74.2588C472.504 75.9645 470.166 77.3543 467.197 78.4283C464.228 79.5023 460.974 80.0393 457.437 80.0393ZM467.292 50.9474V49.1469C467.292 46.4936 466.376 44.3456 464.544 42.7031C462.712 41.0606 460.343 40.2393 457.437 40.2393C454.531 40.2393 452.162 41.0606 450.329 42.7031C448.561 44.2825 447.676 46.4304 447.676 49.1469V50.9474H467.292Z" fill="#32478A"/>
<path d="M383.197 40.0498C383.197 37.1437 384.113 34.901 385.945 33.3217C387.841 31.7423 390.683 30.9526 394.474 30.9526V36.6383C393.716 37.5228 392.958 38.5336 392.2 39.6707L392.768 40.0498C394.663 37.2069 397.096 34.9958 400.065 33.4164C403.034 31.7739 406.319 30.9526 409.92 30.9526C413.142 30.9526 415.985 31.6791 418.449 33.1322C420.912 34.5852 422.808 36.5752 424.134 39.1022C425.524 41.6291 426.219 44.472 426.219 47.6307V72.8374C426.219 75.3643 425.24 77.1964 423.282 78.3335C421.323 79.4707 418.354 80.0393 414.374 80.0393V49.3364C414.374 46.9358 413.647 44.9774 412.194 43.4612C410.805 41.945 408.751 41.1869 406.035 41.1869C402.813 41.1869 400.16 42.1977 398.075 44.2193C395.99 46.1777 394.948 48.6415 394.948 51.6107V72.8374C394.948 75.3643 394 77.1964 392.105 78.3335C390.21 79.4707 387.24 80.0393 383.197 80.0393V40.0498Z" fill="#32478A"/>
<path d="M364.133 26.4986C361.859 26.4986 359.964 25.8352 358.447 24.5086C356.994 23.1187 356.268 21.3498 356.268 19.2019C356.268 17.1171 356.994 15.4114 358.447 14.0848C359.964 12.6949 361.859 12 364.133 12C366.407 12 368.271 12.6949 369.724 14.0848C371.24 15.4114 371.998 17.1171 371.998 19.2019C371.998 21.3498 371.24 23.1187 369.724 24.5086C368.271 25.8352 366.407 26.4986 364.133 26.4986ZM358.163 38.1543C358.163 35.5641 359.142 33.732 361.101 32.6581C363.059 31.5209 366.028 30.9524 370.008 30.9524V72.8371C370.008 75.3641 369.029 77.1961 367.071 78.3333C365.112 79.4704 362.143 80.039 358.163 80.039V38.1543Z" fill="#32478A"/>
<path d="M302.687 40.0498C302.687 37.1437 303.603 34.901 305.435 33.3217C307.33 31.7423 310.173 30.9526 313.963 30.9526V36.6383C313.205 37.5228 312.447 38.5336 311.689 39.6707L312.258 40.0498C314.153 37.2069 316.585 34.9958 319.554 33.4164C322.523 31.7739 325.809 30.9526 329.409 30.9526C332.631 30.9526 335.474 31.6791 337.938 33.1322C340.402 34.5852 342.297 36.5752 343.624 39.1022C345.014 41.6291 345.709 44.472 345.709 47.6307V72.8374C345.709 75.3643 344.729 77.1964 342.771 78.3335C340.812 79.4707 337.843 80.0393 333.863 80.0393V49.3364C333.863 46.9358 333.137 44.9774 331.684 43.4612C330.294 41.945 328.241 41.1869 325.524 41.1869C322.302 41.1869 319.649 42.1977 317.564 44.2193C315.479 46.1777 314.437 48.6415 314.437 51.6107V72.8374C314.437 75.3643 313.489 77.1964 311.594 78.3335C309.699 79.4707 306.73 80.0393 302.687 80.0393V40.0498Z" fill="#32478A"/>
<path d="M249.106 40.0498C249.106 37.1437 250.022 34.901 251.854 33.3217C253.749 31.7423 256.592 30.9526 260.383 30.9526V36.6383C259.625 37.5228 258.866 38.5336 258.108 39.6707L258.677 40.0498C260.572 37.2069 263.004 34.9958 265.974 33.4164C268.943 31.7739 272.228 30.9526 275.829 30.9526C279.051 30.9526 281.894 31.6791 284.357 33.1322C286.821 34.5852 288.716 36.5752 290.043 39.1022C291.433 41.6291 292.128 44.472 292.128 47.6307V72.8374C292.128 75.3643 291.149 77.1964 289.19 78.3335C287.232 79.4707 284.263 80.0393 280.283 80.0393V49.3364C280.283 46.9358 279.556 44.9774 278.103 43.4612C276.713 41.945 274.66 41.1869 271.944 41.1869C268.722 41.1869 266.068 42.1977 263.984 44.2193C261.899 46.1777 260.856 48.6415 260.856 51.6107V72.8374C260.856 75.3643 259.909 77.1964 258.014 78.3335C256.118 79.4707 253.149 80.0393 249.106 80.0393V40.0498Z" fill="#32478A"/>
<path d="M219.421 80.0393C215.504 80.0393 211.935 79.2812 208.713 77.765C205.491 76.1856 202.933 74.0693 201.037 71.4159C199.142 68.6994 198.195 65.667 198.195 62.3188V49.7155C198.195 46.1777 199.174 42.9874 201.132 40.1445C203.091 37.3017 205.681 35.059 208.903 33.4164C212.188 31.7739 215.726 30.9526 219.516 30.9526C223.243 30.9526 226.655 31.7423 229.75 33.3217C232.909 34.8379 235.404 36.9858 237.236 39.7655C239.069 42.482 239.985 45.6091 239.985 49.1469V54.4536C239.985 55.8434 239.448 57.0121 238.374 57.9598C237.363 58.9074 236.068 59.3812 234.488 59.3812H209.661V61.4659C209.661 64.1824 210.482 66.3936 212.125 68.0993C213.767 69.805 216.231 70.6578 219.516 70.6578C222.675 70.6578 225.012 69.9629 226.528 68.5731C228.108 67.1832 228.897 65.3828 228.897 63.1717C230.035 63.0453 230.824 62.9821 231.266 62.9821C233.604 62.9821 235.436 63.5191 236.763 64.5931C238.089 65.6039 238.753 67.0569 238.753 68.9521C238.753 70.7842 237.9 72.5531 236.194 74.2588C234.488 75.9645 232.151 77.3543 229.182 78.4283C226.212 79.5023 222.959 80.0393 219.421 80.0393ZM229.276 50.9474V49.1469C229.276 46.4936 228.36 44.3456 226.528 42.7031C224.696 41.0606 222.327 40.2393 219.421 40.2393C216.515 40.2393 214.146 41.0606 212.314 42.7031C210.545 44.2825 209.661 46.4304 209.661 49.1469V50.9474H229.276Z" fill="#32478A"/>
<path d="M140 18.6325C140 16.99 140.6 15.6317 141.8 14.5578C143.001 13.4206 144.517 12.8521 146.349 12.8521H172.693C177.241 12.8521 181.253 13.7681 184.728 15.6001C188.265 17.369 190.982 19.9276 192.877 23.2759C194.836 26.5609 195.815 30.383 195.815 34.742C195.815 39.1643 194.867 43.0495 192.972 46.3977C191.077 49.6828 188.392 52.2414 184.917 54.0734C181.443 55.8423 177.368 56.7268 172.693 56.7268H152.698V70.6568C152.698 73.6891 151.593 76.0266 149.381 77.6691C147.233 79.2485 144.106 80.0382 140 80.0382V18.6325ZM172.693 45.7344C176.041 45.7344 178.631 44.7552 180.463 42.7968C182.295 40.8384 183.211 38.1219 183.211 34.6473C183.211 31.2358 182.264 28.5825 180.369 26.6873C178.536 24.792 175.978 23.8444 172.693 23.8444H152.698V45.7344H172.693Z" fill="#32478A"/>
<path d="M464.116 113.282C462.568 113.282 461.218 113.075 460.066 112.661C458.932 112.229 458.068 111.653 457.474 110.933C456.88 110.213 456.583 109.412 456.583 108.53C456.583 107.864 456.781 107.342 457.177 106.964C457.573 106.568 458.194 106.37 459.04 106.37C459.058 107.846 459.517 108.971 460.417 109.745C461.317 110.519 462.577 110.906 464.197 110.906C465.673 110.906 466.807 110.654 467.599 110.15C468.409 109.646 468.814 108.917 468.814 107.963C468.814 107.369 468.661 106.883 468.355 106.505C468.067 106.127 467.554 105.794 466.816 105.506C466.096 105.2 465.07 104.903 463.738 104.615C462.046 104.237 460.705 103.805 459.715 103.319C458.725 102.833 458.005 102.248 457.555 101.564C457.105 100.862 456.88 99.998 456.88 98.972C456.88 97.964 457.168 97.082 457.744 96.326C458.338 95.552 459.166 94.958 460.228 94.544C461.29 94.112 462.523 93.896 463.927 93.896C465.259 93.896 466.447 94.085 467.491 94.463C468.553 94.823 469.381 95.336 469.975 96.002C470.587 96.668 470.893 97.433 470.893 98.297C470.893 98.837 470.704 99.269 470.326 99.593C469.948 99.917 469.354 100.088 468.544 100.106C468.382 98.774 467.932 97.802 467.194 97.19C466.456 96.578 465.367 96.272 463.927 96.272C462.595 96.272 461.569 96.506 460.849 96.974C460.129 97.424 459.769 98.072 459.769 98.918C459.769 99.512 459.904 99.998 460.174 100.376C460.444 100.754 460.894 101.087 461.524 101.375C462.172 101.645 463.09 101.906 464.278 102.158C466.114 102.554 467.563 103.004 468.625 103.508C469.687 104.012 470.452 104.615 470.92 105.317C471.406 106.019 471.649 106.892 471.649 107.936C471.649 109.592 470.965 110.897 469.597 111.851C468.247 112.805 466.42 113.282 464.116 113.282Z" fill="#0E1957"/>
<path d="M423.128 113.039C422.732 113.039 422.381 112.904 422.075 112.634C421.787 112.364 421.643 112.049 421.643 111.689V95.4892C421.643 95.1112 421.787 94.7962 422.075 94.5442C422.363 94.2742 422.714 94.1392 423.128 94.1392H430.553C432.173 94.1392 433.46 94.6162 434.414 95.5702C435.386 96.5062 435.872 97.7752 435.872 99.3772C435.872 100.187 435.647 100.961 435.197 101.699C434.765 102.419 434.198 102.959 433.496 103.319V103.373C434.486 103.697 435.26 104.237 435.818 104.993C436.376 105.731 436.655 106.604 436.655 107.612C436.655 108.674 436.421 109.619 435.953 110.447C435.503 111.257 434.855 111.896 434.009 112.364C433.181 112.814 432.236 113.039 431.174 113.039H423.128ZM430.499 102.347C431.183 102.347 431.768 102.068 432.254 101.51C432.758 100.934 433.01 100.25 433.01 99.4582C433.01 98.5762 432.785 97.8832 432.335 97.3792C431.903 96.8752 431.291 96.6232 430.499 96.6232H424.505V102.347H430.499ZM431.039 110.555C431.885 110.555 432.551 110.303 433.037 109.799C433.541 109.277 433.793 108.557 433.793 107.639C433.793 106.757 433.55 106.064 433.064 105.56C432.578 105.056 431.903 104.804 431.039 104.804H424.505V110.555H431.039Z" fill="#0E1957"/>
<path d="M387.039 113.282C386.409 113.192 385.923 112.949 385.581 112.553C385.239 112.157 385.068 111.68 385.068 111.122C385.068 110.708 385.158 110.294 385.338 109.88L391.71 94.841C391.98 94.211 392.457 93.896 393.141 93.896C393.807 93.896 394.266 94.211 394.518 94.841L400.89 109.88C401.07 110.294 401.16 110.708 401.16 111.122C401.16 111.68 400.989 112.157 400.647 112.553C400.305 112.949 399.819 113.192 399.189 113.282L396.894 107.801H389.361L387.039 113.282ZM396.003 105.317L392.682 96.974L392.439 97.082L392.979 98.459L390.225 105.317H396.003Z" fill="#0E1957"/>
<path d="M354.648 113.039C354.234 113.039 353.874 112.895 353.568 112.607C353.28 112.301 353.136 111.941 353.136 111.527V96.191C353.136 94.661 354.108 93.896 356.052 93.896V110.501H363.99C364.692 110.501 365.232 110.717 365.61 111.149C365.988 111.581 366.177 112.211 366.177 113.039H354.648Z" fill="#0E1957"/>
<path d="M324.787 113.282C323.293 113.282 321.943 112.994 320.737 112.418C319.549 111.824 318.613 111.014 317.929 109.988C317.263 108.962 316.93 107.828 316.93 106.586V100.538C316.93 99.296 317.263 98.171 317.929 97.163C318.613 96.155 319.549 95.363 320.737 94.787C321.943 94.193 323.293 93.896 324.787 93.896C326.281 93.896 327.622 94.193 328.81 94.787C330.016 95.363 330.961 96.155 331.645 97.163C332.329 98.171 332.671 99.296 332.671 100.538V106.586C332.671 107.828 332.329 108.962 331.645 109.988C330.961 111.014 330.016 111.824 328.81 112.418C327.622 112.994 326.281 113.282 324.787 113.282ZM324.787 110.744C326.353 110.744 327.577 110.366 328.459 109.61C329.359 108.854 329.809 107.837 329.809 106.559V100.592C329.809 99.314 329.359 98.297 328.459 97.541C327.577 96.785 326.353 96.407 324.787 96.407C323.221 96.407 321.988 96.785 321.088 97.541C320.206 98.297 319.765 99.314 319.765 100.592V106.559C319.765 107.837 320.206 108.854 321.088 109.61C321.988 110.366 323.221 110.744 324.787 110.744Z" fill="#0E1957"/>
<path d="M281.518 96.299C281.518 95.561 281.761 94.976 282.247 94.544C282.733 94.112 283.39 93.896 284.218 93.896L294.262 109.259L294.478 109.097L293.587 107.612V93.896C294.523 93.896 295.234 94.094 295.72 94.49C296.206 94.868 296.449 95.435 296.449 96.191V111.122C296.449 111.734 296.215 112.247 295.747 112.661C295.297 113.075 294.739 113.282 294.073 113.282L283.705 97.406L283.489 97.595L284.38 99.08V110.987C284.38 112.517 283.426 113.282 281.518 113.282V96.299Z" fill="#0E1957"/>
<path d="M245.51 96.191C245.51 95.453 245.763 94.886 246.267 94.49C246.771 94.094 247.49 93.896 248.426 93.896V102.239H257.499V96.191C257.499 95.435 257.742 94.868 258.228 94.49C258.732 94.094 259.452 93.896 260.388 93.896V110.987C260.388 111.725 260.136 112.292 259.632 112.688C259.146 113.084 258.435 113.282 257.499 113.282V104.777H248.426V110.987C248.426 111.725 248.175 112.292 247.671 112.688C247.167 113.084 246.446 113.282 245.51 113.282V96.191Z" fill="#0E1957"/>
<path d="M217.091 113.282C215.543 113.282 214.166 112.994 212.96 112.418C211.754 111.824 210.818 111.005 210.152 109.961C209.486 108.917 209.153 107.729 209.153 106.397V100.727C209.153 99.395 209.486 98.216 210.152 97.19C210.818 96.146 211.745 95.336 212.933 94.76C214.121 94.184 215.48 93.896 217.01 93.896C218.54 93.896 219.899 94.139 221.087 94.625C222.293 95.093 223.229 95.75 223.895 96.596C224.561 97.442 224.894 98.414 224.894 99.512C224.894 100.088 224.705 100.547 224.327 100.889C223.949 101.213 223.445 101.375 222.815 101.375C222.581 101.375 222.311 101.348 222.005 101.294C222.041 101.006 222.059 100.637 222.059 100.187C222.059 99.449 221.843 98.801 221.411 98.243C220.979 97.667 220.376 97.226 219.602 96.92C218.846 96.596 217.982 96.434 217.01 96.434C216.056 96.434 215.201 96.614 214.445 96.974C213.689 97.334 213.095 97.847 212.663 98.513C212.249 99.161 212.042 99.899 212.042 100.727V106.397C212.042 107.243 212.258 107.999 212.69 108.665C213.122 109.313 213.716 109.826 214.472 110.204C215.246 110.564 216.119 110.744 217.091 110.744C218.603 110.744 219.827 110.402 220.763 109.718C221.717 109.016 222.194 108.107 222.194 106.991C222.194 106.649 222.176 106.28 222.14 105.884C222.392 105.83 222.635 105.803 222.869 105.803C223.517 105.803 224.039 105.983 224.435 106.343C224.831 106.703 225.029 107.189 225.029 107.801C225.029 108.863 224.696 109.817 224.03 110.663C223.364 111.491 222.428 112.139 221.222 112.607C220.016 113.057 218.639 113.282 217.091 113.282Z" fill="#0E1957"/>
<path d="M176.212 95.4892C176.212 95.1112 176.356 94.7962 176.644 94.5442C176.932 94.2742 177.283 94.1392 177.697 94.1392H189.685C189.685 95.0032 189.514 95.6422 189.172 96.0562C188.848 96.4522 188.335 96.6502 187.633 96.6502H179.128V102.239H186.553C186.553 103.103 186.391 103.742 186.067 104.156C185.743 104.552 185.23 104.75 184.528 104.75H179.128V110.528H188.2C188.884 110.528 189.388 110.735 189.712 111.149C190.054 111.545 190.225 112.175 190.225 113.039H177.697C177.283 113.039 176.932 112.913 176.644 112.661C176.356 112.391 176.212 112.067 176.212 111.689V95.4892Z" fill="#0E1957"/>
<path d="M146.561 96.6772H140C140 94.9852 140.783 94.1392 142.349 94.1392H155.984C155.984 94.9672 155.786 95.5972 155.39 96.0292C154.994 96.4612 154.409 96.6772 153.635 96.6772H149.45V110.987C149.45 111.725 149.198 112.292 148.694 112.688C148.208 113.084 147.497 113.282 146.561 113.282V96.6772Z" fill="#0E1957"/>
<rect x="3" y="3" width="110" height="120" rx="16" fill="white"/>
<path fill-rule="evenodd" clip-rule="evenodd" d="M19 3C10.1634 3 3 10.1634 3 19V107C3 115.837 10.1634 123 19 123H97C105.837 123 113 115.837 113 107V19C113 10.1634 105.837 3 97 3H19ZM24.328 25.2584C21.0337 28.4866 19.1362 32.8776 19.0427 37.4889V90.3683C19.1362 94.9796 21.0337 99.3706 24.328 102.599C27.6223 105.827 32.0508 107.635 36.6631 107.635C41.2754 107.635 45.7039 105.827 48.9982 102.599C52.2925 99.3706 54.19 94.9796 54.2835 90.3683V37.4889C54.19 32.8776 52.2925 28.4866 48.9982 25.2584C45.7039 22.0303 41.2754 20.2222 36.6631 20.2222C32.0508 20.2222 27.6223 22.0303 24.328 25.2584ZM64.0696 36.5113C63.9542 34.2547 64.2991 31.9982 65.0832 29.8791C65.8673 27.76 67.0742 25.8225 68.6306 24.1845C70.187 22.5465 72.0604 21.2422 74.1367 20.3509C76.213 19.4596 78.4489 19 80.7085 19C82.968 19 85.2039 19.4596 87.2802 20.3509C89.3566 21.2422 91.2299 22.5465 92.7863 24.1845C94.3427 25.8225 95.5497 27.76 96.3338 29.8791C97.1179 31.9982 97.4627 34.2547 97.3473 36.5113V64.8923H86.5759C83.6197 64.8923 80.6925 64.3099 77.9614 63.1784C75.2304 62.0469 72.749 60.3884 70.659 58.2978C68.569 56.2071 66.9113 53.7252 65.7807 50.9937C64.6501 48.2623 64.0686 45.3349 64.0696 42.3787V36.5113ZM80.7304 74.6787H64.0698V91.3393C64.0698 95.758 65.8251 99.9957 68.9496 103.12C72.0741 106.245 76.3118 108 80.7304 108C85.1491 108 89.3868 106.245 92.5113 103.12C95.6357 99.9957 97.391 95.758 97.391 91.3393C97.391 86.9207 95.6357 82.683 92.5113 79.5585C89.3868 76.434 85.1491 74.6787 80.7304 74.6787Z" fill="url(#paint0_linear_427_4522)"/>
</g>
<defs>
<linearGradient id="paint0_linear_427_4522" x1="107.5" y1="2.99999" x2="5" y2="127.5" gradientUnits="userSpaceOnUse">
<stop stop-color="#32478A"/>
<stop offset="0.9999" stop-color="#0E1957"/>
<stop offset="1" stop-color="#0E1957"/>
</linearGradient>
</defs>
</svg>
