<svg xmlns="http://www.w3.org/2000/svg" width="512" height="512" viewBox="0 0 91 91" style="enable-background:new 0 0 512 512" xml:space="preserve"><g xmlns="http://www.w3.org/2000/svg"><path d="M23.75 68.62A1.72 1.72 0 0 0 25 68.1a1.75 1.75 0 0 0 0-2.47 28.56 28.56 0 0 1 9-46.47 1.75 1.75 0 1 0-1.37-3.22A32.05 32.05 0 0 0 22.51 68.1a1.73 1.73 0 0 0 1.24.52zM90.35 74.61l-8.13-8.14A1.75 1.75 0 0 0 79.74 69l5 5H68.43a1.75 1.75 0 0 0 0 3.5H85l-5.25 5.25a1.76 1.76 0 0 0 1.24 3 1.78 1.78 0 0 0 1.24-.52l8.13-8.13a1.75 1.75 0 0 0-.01-2.49z" fill="#fe4e4e" data-original="#000000"/><path d="M76 54.1a10.77 10.77 0 0 0 9.33-8.18 1.75 1.75 0 0 0-3.4-.83 7.34 7.34 0 1 1-1.83-6.77l-3.93 3.92-1-1.47a1.75 1.75 0 0 0-2.85 2L74.53 46a1.75 1.75 0 0 0 1.28.73H76a1.76 1.76 0 0 0 1.23-.51l10.49-10.53a1.75 1.75 0 0 0-2.48-2.48l-2.64 2.64a10.88 10.88 0 0 0-7.76-3.3h-.34a31.94 31.94 0 0 0-29.18-19.14l5.15-5.15A1.75 1.75 0 1 0 48 5.78l-8.13 8.14a1.73 1.73 0 0 0 0 2.47L48 24.52a1.76 1.76 0 0 0 1.24.52 1.76 1.76 0 0 0 1.23-3l-5.13-5.14A28.43 28.43 0 0 1 71 33.27a10.8 10.8 0 0 0 1.45 20.62A28.52 28.52 0 0 1 45.17 74H17.88v-5.12a1.75 1.75 0 0 0-1.75-1.75H2.41a1.75 1.75 0 0 0-1.75 1.75V82.6a1.75 1.75 0 0 0 1.75 1.75h13.72a1.75 1.75 0 0 0 1.75-1.75v-5.11h27.29A32 32 0 0 0 76 54.1zM14.38 80.85H4.16V70.63h10.22z" fill="#fe4e4e" data-original="#000000"/></g></svg>