<svg xmlns="http://www.w3.org/2000/svg" width="51.609" height="51.532" viewBox="0 0 51.609 51.532">
  <g id="Group_5265" data-name="Group 5265" transform="translate(-17.218 -17.283)">
    <path id="Path_5360" data-name="Path 5360" d="M68.08,25.725c-1.488-.441-5.952-1.819-5.952-1.819s-1.378-4.464-1.819-5.952a.958.958,0,0,0-1.6-.386c-1.268,1.323-5.181,5.181-5.181,5.181a.934.934,0,0,0-.22.992l1.378,4.409-.882.661a22.466,22.466,0,1,0,3.472,3.472l.661-.882s3.307,1.047,4.409,1.378a.959.959,0,0,0,.992-.22c1.268-1.268,3.968-3.913,5.236-5.181A1.033,1.033,0,0,0,68.08,25.725ZM48.238,40.992,44.986,37.74l13.062-9.866C58.1,27.93,49.341,39.559,48.238,40.992ZM47.026,42.48l-.937.937a2.436,2.436,0,1,1-3.417-3.472l.937-.937C43.609,39.118,47.246,42.7,47.026,42.48ZM39.7,51.574a5.269,5.269,0,1,1,.331-10.527,4.173,4.173,0,0,0,.606,2.921l-1.653,1.653A.974.974,0,0,0,40.357,47l1.653-1.653a4.114,4.114,0,0,0,2.921.606C45.427,47.992,43.333,51.574,39.7,51.574Zm3.142-14.606-1.6,1.6a2.652,2.652,0,0,0-.5.606,6.753,6.753,0,0,0-1.047-.11,7.22,7.22,0,0,0,0,14.44,7.158,7.158,0,0,0,7.11-8.267,5.857,5.857,0,0,0,.606-.5l1.709-1.709c.331-.386,2.425-3.2,2.425-3.2a13.587,13.587,0,1,1-5.4-5.346c-.055.055-3.2,2.37-3.307,2.48Zm16.094-16.92,1.213,3.913L56.23,26.882l-.992-3.2Zm1.323,26.235a20.555,20.555,0,1,1-8.047-16.314l-4.354,3.252A15.587,15.587,0,0,0,39.7,30.906,15.4,15.4,0,1,0,55.073,46.338a15.233,15.233,0,0,0-2.315-8.157l3.252-4.354a20.151,20.151,0,0,1,4.244,12.456ZM62.348,30.74l-3.2-.992c.055-.055,3.142-4.134,2.921-3.913l3.913,1.213Z" fill="#32478a"/>
  </g>
</svg>