
<svg xmlns="http://www.w3.org/2000/svg" width="49.745" height="21.628" viewBox="0 0 49.745 21.628">
  <g id="Group_2690" data-name="Group 2690" transform="translate(0 -0.332)">
    <path id="Path_1837" data-name="Path 1837" d="M39.354,21.96a9.985,9.985,0,0,1-6.086-2.094,1.027,1.027,0,0,1-.3-.208l-4.536-4.5a1.082,1.082,0,1,1,1.527-1.533l4.351,4.321c.032.022.065.043.1.067A7.858,7.858,0,0,0,39.354,19.8a8.455,8.455,0,0,0,8.227-8.651A8.457,8.457,0,0,0,39.354,2.5a7.878,7.878,0,0,0-4.946,1.784,1.153,1.153,0,0,1-.162.108L16.723,19.707a1.045,1.045,0,0,1-.259.169A9.982,9.982,0,0,1,10.39,21.96,10.62,10.62,0,0,1,0,11.146,10.62,10.62,0,0,1,10.39.332a9.984,9.984,0,0,1,6.086,2.094,1.029,1.029,0,0,1,.3.208l4.536,4.5A1.082,1.082,0,0,1,19.783,8.67L15.432,4.347c-.032-.022-.065-.044-.1-.067A7.868,7.868,0,0,0,10.39,2.5a8.457,8.457,0,0,0-8.227,8.651A8.457,8.457,0,0,0,10.39,19.8a7.877,7.877,0,0,0,4.946-1.784,1.18,1.18,0,0,1,.162-.108L33.022,2.586a1.045,1.045,0,0,1,.259-.169A9.981,9.981,0,0,1,39.354.332a10.621,10.621,0,0,1,10.39,10.814A10.621,10.621,0,0,1,39.354,21.96Zm0,0" fill="#fe4e4e"/>
    <path id="Path_1838" data-name="Path 1838" d="M135.57,8.984h-6.488a1.082,1.082,0,1,1,0-2.163h5.407V1.414a1.081,1.081,0,1,1,2.163,0V7.9A1.082,1.082,0,0,1,135.57,8.984Zm0,0" transform="translate(-115.023)" fill="#fe4e4e"/>
    <path id="Path_1839" data-name="Path 1839" d="M278.414,136.984a1.082,1.082,0,0,1-1.082-1.082v-6.488a1.082,1.082,0,0,1,1.082-1.082H284.9a1.082,1.082,0,0,1,0,2.163H279.5V135.9A1.082,1.082,0,0,1,278.414,136.984Zm0,0" transform="translate(-249.216 -115.023)" fill="#fe4e4e"/>
  </g>
</svg>
