<svg xmlns="http://www.w3.org/2000/svg" width="56.076" height="55.07" viewBox="0 0 56.076 55.07">
  <g id="Group_1" data-name="Group 1" transform="translate(-2.999 -3.52)">
    <path id="Path_1" data-name="Path 1" d="M29.012,4.74,27.572,7.468a.356.356,0,0,1-.254.185l-3.04.528a2.291,2.291,0,0,0-1.252,3.852l2.149,2.214a.356.356,0,0,1,.1.3L24.835,17.6a2.288,2.288,0,0,0,3.277,2.381l2.769-1.36a.361.361,0,0,1,.315,0l2.769,1.36A2.29,2.29,0,0,0,37.241,17.6L36.8,14.545a.356.356,0,0,1,.1-.3l2.149-2.214A2.292,2.292,0,0,0,37.8,8.18l-3.04-.528a.356.356,0,0,1-.254-.185L33.063,4.74a2.291,2.291,0,0,0-4.051,0Zm1.71.9a.356.356,0,0,1,.63,0l1.442,2.727a2.287,2.287,0,0,0,1.633,1.187l3.04.528a.355.355,0,0,1,.2.6L35.513,12.9a2.289,2.289,0,0,0-.624,1.921l.437,3.053a.356.356,0,0,1-.51.371l-2.769-1.36a2.291,2.291,0,0,0-2.019,0l-2.769,1.36a.356.356,0,0,1-.51-.371l.437-3.053a2.289,2.289,0,0,0-.624-1.921l-2.149-2.213a.358.358,0,0,1,.2-.6l3.04-.528a2.287,2.287,0,0,0,1.633-1.187Zm24.156,8.133-2.948.91a.358.358,0,0,1-.31-.048L49.1,12.861A2.291,2.291,0,0,0,45.489,14.7l-.045,3.085a.355.355,0,0,1-.143.279l-2.468,1.851a2.289,2.289,0,0,0,.633,4l2.92,1a.358.358,0,0,1,.222.222l1,2.92a2.291,2.291,0,0,0,4,.633l1.851-2.468a.355.355,0,0,1,.28-.143l3.084-.045a2.291,2.291,0,0,0,1.839-3.609L56.882,19.9a.357.357,0,0,1-.049-.311l.91-2.947a2.289,2.289,0,0,0-2.864-2.865Zm.57,1.848a.356.356,0,0,1,.446.447l-.91,2.947a2.288,2.288,0,0,0,.316,1.995l1.776,2.522a.357.357,0,0,1-.287.562l-3.084.045a2.289,2.289,0,0,0-1.8.918l-1.85,2.468a.357.357,0,0,1-.624-.1l-1-2.92a2.292,2.292,0,0,0-1.428-1.428l-2.92-1a.358.358,0,0,1-.1-.624l2.469-1.85a2.291,2.291,0,0,0,.917-1.8l.045-3.084a.357.357,0,0,1,.562-.286l2.522,1.776a2.29,2.29,0,0,0,1.995.315ZM4.333,16.641l.91,2.947a.357.357,0,0,1-.049.311L3.418,22.421A2.289,2.289,0,0,0,5.257,26.03l3.084.045a.355.355,0,0,1,.28.143l1.851,2.468a2.291,2.291,0,0,0,4-.633l1-2.92a.358.358,0,0,1,.222-.222l2.92-1a2.289,2.289,0,0,0,.633-4l-2.468-1.85a.358.358,0,0,1-.143-.28L16.587,14.7a2.291,2.291,0,0,0-3.609-1.839l-2.522,1.776a.355.355,0,0,1-.31.049L7.2,13.776a2.289,2.289,0,0,0-2.864,2.865Zm1.848-.57a.358.358,0,0,1,.446-.447l2.948.91a2.29,2.29,0,0,0,1.995-.315l2.522-1.776a.357.357,0,0,1,.562.286l.045,3.084a2.291,2.291,0,0,0,.917,1.8l2.469,1.85a.358.358,0,0,1-.1.624l-2.92,1a2.292,2.292,0,0,0-1.428,1.428l-1,2.92a.358.358,0,0,1-.624.1l-1.85-2.468a2.289,2.289,0,0,0-1.8-.918L5.286,24.1A.357.357,0,0,1,5,23.534l1.776-2.522a2.287,2.287,0,0,0,.316-1.995ZM31.038,22.5A18.047,18.047,0,1,0,49.085,40.544,18.055,18.055,0,0,0,31.038,22.5Zm0,1.934A16.113,16.113,0,1,1,14.925,40.544,16.121,16.121,0,0,1,31.038,24.431Z" fill="#32478a "/>
    <path id="Path_2" data-name="Path 2" d="M38.611,43.171c-3.592,0-10.312,0-13.9.025a2.873,2.873,0,0,0-2.653,3.971,10.384,10.384,0,0,0,19.238.011,2.9,2.9,0,0,0-2.683-4.007Zm0,1.934a.967.967,0,0,1,.894,1.335,8.45,8.45,0,0,1-15.66,0l0-.006a.943.943,0,0,1,.871-1.3h.007C28.309,45.1,35.023,45.1,38.611,45.1ZM23.169,37.946a1.489,1.489,0,0,1,.725-.927,2.75,2.75,0,0,1,.688-.306,2.822,2.822,0,0,1,1.1-.148,2.814,2.814,0,0,1,.922.092,3.038,3.038,0,0,1,.6.2,1.61,1.61,0,0,1,.994,1.086.487.487,0,1,0,.974,0,2.738,2.738,0,0,0-1.058-2.391,3.872,3.872,0,0,0-1.637-.829,3.808,3.808,0,0,0-.795-.095,4,4,0,0,0-1.052.16,3.755,3.755,0,0,0-1.386.752,2.736,2.736,0,0,0-1.051,2.4.487.487,0,0,0,.974,0Zm11.956,0a1.49,1.49,0,0,1,.726-.927,2.743,2.743,0,0,1,.687-.306,4.392,4.392,0,0,1,2.025-.056,3.016,3.016,0,0,1,.6.2,1.607,1.607,0,0,1,.994,1.086.487.487,0,0,0,.974,0,2.736,2.736,0,0,0-1.058-2.391,3.872,3.872,0,0,0-1.637-.829,3.8,3.8,0,0,0-.795-.095,4.007,4.007,0,0,0-1.052.16,3.755,3.755,0,0,0-1.386.752,2.738,2.738,0,0,0-1.051,2.4.487.487,0,0,0,.974,0Z" transform="translate(-0.625 -1.032)" fill="#32478a "/>
    <path id="Path_3" data-name="Path 3" d="M25.794,51.239a.967.967,0,0,0,.371,1.171,10.364,10.364,0,0,0,11.254,0,.967.967,0,0,0,.372-1.172,6.372,6.372,0,0,0-6-3.732A6.372,6.372,0,0,0,25.794,51.239Zm2.2-.007a4.935,4.935,0,0,1,7.606,0,8.439,8.439,0,0,1-7.606,0Z" transform="translate(-0.754 -1.459)" fill="#32478a "/>
  </g>
</svg>