<svg xmlns="http://www.w3.org/2000/svg" id="Group_5276" data-name="Group 5276" width="53.57" height="53.57" viewBox="0 0 53.57 53.57">
  <g id="Group_5266" data-name="Group 5266" transform="translate(11.16 11.16)">
    <path id="Path_5361" data-name="Path 5361" d="M23.973,47.41h-6.7c-1.562,0-3.348-1.339-3.348-4.018V38.7a7.751,7.751,0,0,0-2.9-5.8A15.429,15.429,0,0,1,5,20.4,15.885,15.885,0,0,1,20.4,5a15.687,15.687,0,0,1,11.16,4.464,15.89,15.89,0,0,1,4.687,11.16,15.011,15.011,0,0,1-5.8,12.053,8.15,8.15,0,0,0-3.125,6.25v5.134a3.433,3.433,0,0,1-3.348,3.348ZM20.625,7.232A13.69,13.69,0,0,0,7.232,20.4a13.12,13.12,0,0,0,5.134,10.714A9.727,9.727,0,0,1,16.16,38.7v4.687c0,.446,0,1.786,1.116,1.786h6.7a1.054,1.054,0,0,0,1.116-1.116V38.928a10.847,10.847,0,0,1,4.018-8.036,13.016,13.016,0,0,0,4.911-10.268A13.343,13.343,0,0,0,30,11.027a13.157,13.157,0,0,0-9.375-3.795Z" transform="translate(-5 -5)" fill="#32478a "/>
  </g>
  <g id="Group_5267" data-name="Group 5267" transform="translate(20.089 44.642)">
    <path id="Path_5362" data-name="Path 5362" d="M21.277,22.232H10.116a1.116,1.116,0,0,1,0-2.232h11.16a1.116,1.116,0,0,1,0,2.232Z" transform="translate(-9 -20)" fill="#32478a "/>
  </g>
  <g id="Group_5268" data-name="Group 5268" transform="translate(25.669)">
    <path id="Path_5363" data-name="Path 5363" d="M12.616,6.7A1.054,1.054,0,0,1,11.5,5.58V1.116A1.054,1.054,0,0,1,12.616,0a1.054,1.054,0,0,1,1.116,1.116V5.58A1.054,1.054,0,0,1,12.616,6.7Z" transform="translate(-11.5)" fill="#32478a "/>
  </g>
  <g id="Group_5269" data-name="Group 5269" transform="translate(40.513 7.701)">
    <path id="Path_5364" data-name="Path 5364" d="M19.378,8.7a1.342,1.342,0,0,1-.893-.223,1.079,1.079,0,0,1,0-1.562L21.61,3.785a1.1,1.1,0,1,1,1.562,1.562L20.047,8.472a2.248,2.248,0,0,1-.67.223Z" transform="translate(-18.15 -3.45)" fill="#32478a "/>
  </g>
  <g id="Group_5270" data-name="Group 5270" transform="translate(46.874 25.669)">
    <path id="Path_5365" data-name="Path 5365" d="M26.58,13.732H22.116A1.054,1.054,0,0,1,21,12.616,1.054,1.054,0,0,1,22.116,11.5H26.58A1.054,1.054,0,0,1,27.7,12.616,1.054,1.054,0,0,1,26.58,13.732Z" transform="translate(-21 -11.5)" fill="#32478a "/>
  </g>
  <g id="Group_5271" data-name="Group 5271" transform="translate(40.513 40.736)">
    <path id="Path_5366" data-name="Path 5366" d="M22.5,23.5a1.342,1.342,0,0,1-.893-.223l-3.125-3.125a1.1,1.1,0,0,1,1.562-1.562l3.125,3.125a1.079,1.079,0,0,1,0,1.562c0,.223-.223.223-.67.223Z" transform="translate(-18.15 -18.25)" fill="#32478a "/>
  </g>
  <g id="Group_5272" data-name="Group 5272" transform="translate(7.478 40.736)">
    <path id="Path_5367" data-name="Path 5367" d="M4.578,23.5a1.342,1.342,0,0,1-.893-.223,1.079,1.079,0,0,1,0-1.562L6.81,18.585a1.1,1.1,0,0,1,1.562,1.562L5.247,23.272A.82.82,0,0,1,4.578,23.5Z" transform="translate(-3.35 -18.25)" fill="#32478a "/>
  </g>
  <g id="Group_5273" data-name="Group 5273" transform="translate(0 25.669)">
    <path id="Path_5368" data-name="Path 5368" d="M5.58,13.732H1.116A1.054,1.054,0,0,1,0,12.616,1.054,1.054,0,0,1,1.116,11.5H5.58A1.054,1.054,0,0,1,6.7,12.616,1.054,1.054,0,0,1,5.58,13.732Z" transform="translate(0 -11.5)" fill="#32478a "/>
  </g>
  <g id="Group_5274" data-name="Group 5274" transform="translate(7.478 7.478)">
    <path id="Path_5369" data-name="Path 5369" d="M7.7,8.819A1.342,1.342,0,0,1,6.81,8.6L3.685,5.247A1.1,1.1,0,0,1,5.247,3.685L8.372,6.81a1.079,1.079,0,0,1,0,1.562c-.223.223-.446.446-.67.446Z" transform="translate(-3.35 -3.35)" fill="#32478a "/>
  </g>
  <g id="Group_5275" data-name="Group 5275" transform="translate(25.669 16.741)">
    <path id="Path_5370" data-name="Path 5370" d="M21.544,18.66a1.054,1.054,0,0,1-1.116-1.116,7.909,7.909,0,0,0-7.812-7.812A1.054,1.054,0,0,1,11.5,8.616,1.054,1.054,0,0,1,12.616,7.5,10,10,0,0,1,22.66,17.544,1.054,1.054,0,0,1,21.544,18.66Z" transform="translate(-11.5 -7.5)" fill="#32478a "/>
  </g>
</svg>