<svg xmlns="http://www.w3.org/2000/svg" width="50.001" height="50.001" viewBox="0 0 50.001 50.001">
  <g id="Group_5287" data-name="Group 5287" transform="translate(-0.002 0)">
    <g id="Group_5286" data-name="Group 5286" transform="translate(0.002 0)">
      <g id="Group_5285" data-name="Group 5285" transform="translate(0 0)">
        <g id="Group_5284" data-name="Group 5284">
          <path id="Path_5373" data-name="Path 5373" d="M290.22,200.812a.834.834,0,0,0,1.122.364,71.443,71.443,0,0,1,7.374-3.281.834.834,0,0,0-.5-1.59,71.478,71.478,0,0,0-7.627,3.386A.834.834,0,0,0,290.22,200.812Z" transform="translate(-261.797 -177.099)" fill="#32478a "/>
          <path id="Path_5374" data-name="Path 5374" d="M290.965,98.868a.832.832,0,0,0,.378-.091,71.445,71.445,0,0,1,7.374-3.281.834.834,0,0,0-.5-1.59,71.478,71.478,0,0,0-7.627,3.386.833.833,0,0,0,.379,1.576Z" transform="translate(-261.797 -84.7)" fill="#32478a "/>
          <path id="Path_5375" data-name="Path 5375" d="M49.17,12.5a.833.833,0,0,0-.833.833v32.5a2.5,2.5,0,0,1-2.5,2.5h-20V46.417A24.558,24.558,0,0,1,33.336,45a42.984,42.984,0,0,1,12.238,1.624.833.833,0,0,0,1.1-.791V9.167a.832.832,0,0,0-.653-.813s-.653-.146-1.77-.351a.833.833,0,0,0-.3,1.639c.426.078.783.147,1.058.2V44.727a47.063,47.063,0,0,0-11.667-1.393,26.18,26.18,0,0,0-8.3,1.6,19.522,19.522,0,0,0-7.533-1.6A56.158,56.158,0,0,0,5,44.762V9.812A54.853,54.853,0,0,1,17.5,8.334a18.068,18.068,0,0,1,6.667,1.373V42.5a.833.833,0,0,0,1.263.714A95.408,95.408,0,0,1,41.1,35.792a.833.833,0,0,0,.57-.791V.834A.835.835,0,0,0,40.543.053,88.649,88.649,0,0,0,27.061,6.794a.833.833,0,0,0,.883,1.413A89.07,89.07,0,0,1,40,2.052V34.4a93.391,93.391,0,0,0-14.167,6.649V9.167a.834.834,0,0,0-.461-.746A19.3,19.3,0,0,0,17.5,6.667a54.087,54.087,0,0,0-13.563,1.7.833.833,0,0,0-.6.8V45.835a.833.833,0,0,0,.833.833.821.821,0,0,0,.228-.033A53.532,53.532,0,0,1,17.5,45a18.028,18.028,0,0,1,6.667,1.374v1.959h-20a2.5,2.5,0,0,1-2.5-2.5v-32.5a.833.833,0,1,0-1.667,0v32.5A4.172,4.172,0,0,0,4.169,50H45.836A4.172,4.172,0,0,0,50,45.835v-32.5A.833.833,0,0,0,49.17,12.5Z" transform="translate(-0.002 0)" fill="#32478a "/>
          <path id="Path_5376" data-name="Path 5376" d="M290.22,149.612a.834.834,0,0,0,1.122.364,71.447,71.447,0,0,1,7.374-3.281.834.834,0,0,0-.5-1.59,71.48,71.48,0,0,0-7.627,3.386A.834.834,0,0,0,290.22,149.612Z" transform="translate(-261.797 -130.899)" fill="#32478a "/>
          <path id="Path_5377" data-name="Path 5377" d="M290.22,252.012a.834.834,0,0,0,1.122.364,71.446,71.446,0,0,1,7.374-3.281.834.834,0,0,0-.5-1.59,71.48,71.48,0,0,0-7.627,3.386A.834.834,0,0,0,290.22,252.012Z" transform="translate(-261.797 -223.299)" fill="#32478a "/>
          <path id="Path_5378" data-name="Path 5378" d="M97.19,154.106c-5.146-1.208-10.994.331-11.239.4a.833.833,0,0,0,.215,1.638.848.848,0,0,0,.217-.028c.056-.016,5.686-1.5,10.428-.384a.833.833,0,1,0,.38-1.622Z" transform="translate(-77 -138.64)" fill="#32478a "/>
          <path id="Path_5379" data-name="Path 5379" d="M97.19,205.309c-5.146-1.207-10.994.331-11.239.4a.833.833,0,0,0,.215,1.638.847.847,0,0,0,.217-.028c.056-.016,5.686-1.5,10.428-.384a.833.833,0,1,0,.38-1.622Z" transform="translate(-77 -184.843)" fill="#32478a "/>
          <path id="Path_5380" data-name="Path 5380" d="M290.22,303.212a.834.834,0,0,0,1.122.364,71.449,71.449,0,0,1,7.374-3.281.834.834,0,0,0-.5-1.59,71.479,71.479,0,0,0-7.627,3.386A.834.834,0,0,0,290.22,303.212Z" transform="translate(-261.797 -269.499)" fill="#32478a "/>
          <path id="Path_5381" data-name="Path 5381" d="M97.19,256.508c-5.146-1.207-10.994.33-11.239.4a.834.834,0,0,0,.215,1.639.844.844,0,0,0,.217-.029c.056-.016,5.686-1.5,10.428-.384a.833.833,0,1,0,.38-1.622Z" transform="translate(-77 -231.042)" fill="#32478a "/>
          <path id="Path_5382" data-name="Path 5382" d="M97.19,358.906c-5.146-1.208-10.994.331-11.239.4a.834.834,0,0,0,.215,1.639.845.845,0,0,0,.217-.029c.056-.016,5.686-1.5,10.428-.384a.833.833,0,1,0,.38-1.622Z" transform="translate(-77 -323.439)" fill="#32478a "/>
          <path id="Path_5383" data-name="Path 5383" d="M97.19,307.7c-5.146-1.208-10.994.33-11.239.4a.834.834,0,0,0,.215,1.639.844.844,0,0,0,.217-.029c.056-.016,5.686-1.5,10.428-.384a.833.833,0,1,0,.38-1.622Z" transform="translate(-77 -277.238)" fill="#32478a "/>
        </g>
      </g>
    </g>
  </g>
</svg>