<svg xmlns="http://www.w3.org/2000/svg" width="49.58" height="46.504" viewBox="0 0 49.58 46.504">
  <g id="Group_4512" data-name="Group 4512" transform="translate(0 -15.635)">
    <g id="Group_4495" data-name="Group 4495" transform="translate(0 15.635)">
      <g id="Group_4494" data-name="Group 4494" transform="translate(0 0)">
        <path id="Path_4890" data-name="Path 4890" d="M13.195,24.352a5.273,5.273,0,0,0-4-8.717,5.273,5.273,0,0,0-4,8.717C1.759,25.791,0,28.27,0,31.549a3.785,3.785,0,0,0,1.04,3.039c1.2,1.04,3.759.56,4.638.4a22.976,22.976,0,0,1,3.519-.32,22.963,22.963,0,0,1,3.519.32c1.919.32,3.519.56,4.638-.4a3.679,3.679,0,0,0,1.04-3.039C18.393,28.27,16.633,25.791,13.195,24.352Zm-4-7.037a3.679,3.679,0,1,1-3.679,3.679A3.721,3.721,0,0,1,9.2,17.314Zm7.117,16.074c-.56.48-1.839.24-3.359,0a25.813,25.813,0,0,0-3.759-.4,18.061,18.061,0,0,0-3.759.4c-1.519.32-2.8.48-3.359,0a2.31,2.31,0,0,1-.48-1.759c0-2.959,1.679-4.878,5.038-6a5.437,5.437,0,0,0,5.118,0q5.038,1.679,5.038,6A2.311,2.311,0,0,1,16.314,33.388Z" transform="translate(0 -15.635)" fill="#fe4e4e"/>
      </g>
    </g>
    <g id="Group_4497" data-name="Group 4497" transform="translate(31.188 15.715)">
      <g id="Group_4496" data-name="Group 4496" transform="translate(0 0)">
        <path id="Path_4891" data-name="Path 4891" d="M330.148,25.165a5.278,5.278,0,1,0-8,0c-3.439,1.439-5.2,3.918-5.2,7.2a3.785,3.785,0,0,0,1.04,3.039c1.2,1.04,3.759.56,4.638.4a23.961,23.961,0,0,1,3.519-.32,22.963,22.963,0,0,1,3.519.32c1.919.32,3.519.56,4.638-.4a3.679,3.679,0,0,0,1.04-3.039C335.346,29.083,333.586,26.6,330.148,25.165Zm-4-7.117a3.679,3.679,0,1,1-3.679,3.679A3.721,3.721,0,0,1,326.149,18.047Zm7.117,16.074c-.56.48-1.839.24-3.359,0a25.813,25.813,0,0,0-3.759-.4,18.061,18.061,0,0,0-3.759.4c-1.519.24-2.8.4-3.359,0a2.31,2.31,0,0,1-.48-1.759c0-2.959,1.679-4.878,5.038-6a5.437,5.437,0,0,0,5.118,0q5.038,1.679,5.038,6A2.31,2.31,0,0,1,333.266,34.121Z" transform="translate(-316.953 -16.448)" fill="#fe4e4e"/>
      </g>
    </g>
    <g id="Group_4499" data-name="Group 4499" transform="translate(15.594 42.504)">
      <g id="Group_4498" data-name="Group 4498">
        <path id="Path_4892" data-name="Path 4892" d="M171.671,297.419a5.278,5.278,0,1,0-8,0c-3.439,1.439-5.2,3.918-5.2,7.2a3.785,3.785,0,0,0,1.04,3.039c1.2,1.04,3.759.56,4.638.4a23.964,23.964,0,0,1,3.519-.32,22.962,22.962,0,0,1,3.519.32c1.919.32,3.519.56,4.638-.4a3.679,3.679,0,0,0,1.04-3.039C176.869,301.337,175.109,298.858,171.671,297.419Zm-4-7.117a3.679,3.679,0,1,1-3.679,3.679A3.721,3.721,0,0,1,167.672,290.3Zm7.117,16.154c-.56.48-1.839.24-3.359,0a25.81,25.81,0,0,0-3.759-.4,18.052,18.052,0,0,0-3.759.4c-1.519.24-2.8.4-3.359,0a2.31,2.31,0,0,1-.48-1.759c0-2.959,1.679-4.878,5.038-6a5.437,5.437,0,0,0,5.118,0q5.038,1.679,5.038,6A2.438,2.438,0,0,1,174.79,306.455Z" transform="translate(-158.476 -288.702)" fill="#fe4e4e"/>
      </g>
    </g>
    <g id="Group_4501" data-name="Group 4501" transform="translate(33.187 36.507)">
      <g id="Group_4500" data-name="Group 4500">
        <path id="Path_4893" data-name="Path 4893" d="M346.466,227.749a17.567,17.567,0,0,1-9.2,14.634l.8,1.439a19.281,19.281,0,0,0,10-15.994Z" transform="translate(-337.27 -227.749)" fill="#fe4e4e"/>
      </g>
    </g>
    <g id="Group_4503" data-name="Group 4503" transform="translate(15.674 16.515)">
      <g id="Group_4502" data-name="Group 4502" transform="translate(0 0)">
        <path id="Path_4894" data-name="Path 4894" d="M168.485,24.574a19.38,19.38,0,0,0-9.2,2.319l.8,1.439a16.539,16.539,0,0,1,8.317-2.159,17.054,17.054,0,0,1,8.4,2.159l.8-1.439A19.069,19.069,0,0,0,168.485,24.574Z" transform="translate(-159.289 -24.574)" fill="#fe4e4e"/>
      </g>
    </g>
    <g id="Group_4505" data-name="Group 4505" transform="translate(5.598 36.507)">
      <g id="Group_4504" data-name="Group 4504">
        <path id="Path_4895" data-name="Path 4895" d="M58.488,227.749l-1.6.08a19.393,19.393,0,0,0,10.8,16.473l.72-1.519A17.547,17.547,0,0,1,58.488,227.749Z" transform="translate(-56.889 -227.749)" fill="#fe4e4e"/>
      </g>
    </g>
    <g id="Group_4507" data-name="Group 4507" transform="translate(23.99 33.308)">
      <g id="Group_4506" data-name="Group 4506">
        <rect id="Rectangle_1784" data-name="Rectangle 1784" width="1.599" height="1.599" fill="#fe4e4e"/>
      </g>
    </g>
    <g id="Group_4509" data-name="Group 4509" transform="translate(27.189 33.308)">
      <g id="Group_4508" data-name="Group 4508">
        <rect id="Rectangle_1785" data-name="Rectangle 1785" width="1.599" height="1.599" fill="#fe4e4e"/>
      </g>
    </g>
    <g id="Group_4511" data-name="Group 4511" transform="translate(20.792 33.308)">
      <g id="Group_4510" data-name="Group 4510">
        <rect id="Rectangle_1786" data-name="Rectangle 1786" width="1.599" height="1.599" fill="#fe4e4e"/>
      </g>
    </g>
  </g>
</svg>
