<svg xmlns="http://www.w3.org/2000/svg" width="41.202" height="54.902" viewBox="0 0 41.202 54.902">
  <g id="Group_5291" data-name="Group 5291" transform="translate(-55.96)">
    <g id="Group_5290" data-name="Group 5290" transform="translate(55.96)">
      <g id="Group_5289" data-name="Group 5289">
        <g id="Group_5288" data-name="Group 5288">
          <path id="Path_5384" data-name="Path 5384" d="M172.626,114.717l-4.365-.634-1.952-3.957a1.085,1.085,0,0,0-1.945,0l-1.952,3.957-4.367.634a1.085,1.085,0,0,0-.6,1.85l3.159,3.079-.746,4.348a1.079,1.079,0,0,0,1.574,1.139l3.9-2.049,3.9,2.049a1.085,1.085,0,0,0,1.578-1.139l-.746-4.348,3.159-3.079a1.085,1.085,0,0,0-.6-1.85Zm-4.481,3.765a1.085,1.085,0,0,0-.312.964l.47,2.744-2.465-1.3a1.084,1.084,0,0,0-1.01.008l-2.465,1.3.471-2.744a1.085,1.085,0,0,0-.312-.964l-1.993-1.944,2.755-.4a1.085,1.085,0,0,0,.817-.593l1.232-2.5,1.232,2.5a1.085,1.085,0,0,0,.817.593l2.756.393Z" transform="translate(-144.733 -96.115)" fill="#32478a "/>
          <path id="Path_5385" data-name="Path 5385" d="M123.059,60.465A14.115,14.115,0,1,0,137.175,74.58,14.116,14.116,0,0,0,123.059,60.465Zm0,26.062A11.946,11.946,0,1,1,135.006,74.58,11.946,11.946,0,0,1,123.059,86.527Z" transform="translate(-102.459 -53.064)" fill="#32478a "/>
          <path id="Path_5386" data-name="Path 5386" d="M96.428,24.442l-2.03.768a5.456,5.456,0,0,1,.574,2.29c-.152.468-1.071,1.067-1.884,1.6a10.2,10.2,0,0,0-2.814,2.379,10.408,10.408,0,0,0-1.414,3.441,5.441,5.441,0,0,1-.922,2.257,5.344,5.344,0,0,1-2.41.175,10.315,10.315,0,0,0-3.729.287,10.049,10.049,0,0,0-3.094,1.92c-.761.615-1.623,1.311-2.143,1.311s-1.382-.7-2.144-1.314a10.027,10.027,0,0,0-3.093-1.919,7.724,7.724,0,0,0-2.425-.327c-.447,0-.885.02-1.306.041a5.424,5.424,0,0,1-2.4-.175,5.567,5.567,0,0,1-.923-2.26,10.291,10.291,0,0,0-1.413-3.441,10.123,10.123,0,0,0-2.815-2.379c-.811-.529-1.731-1.128-1.883-1.6a5.474,5.474,0,0,1,.575-2.29,10.523,10.523,0,0,0,.891-3.69,10.527,10.527,0,0,0-.892-3.69,5.485,5.485,0,0,1-.575-2.29c.152-.468,1.071-1.067,1.884-1.6a10.237,10.237,0,0,0,2.814-2.378,10.371,10.371,0,0,0,1.414-3.441,5.441,5.441,0,0,1,.922-2.257,5.325,5.325,0,0,1,2.4-.175A10.364,10.364,0,0,0,71.331,5.4a10.063,10.063,0,0,0,3.094-1.92c.755-.617,1.617-1.313,2.137-1.313s1.382.7,2.143,1.312A10.047,10.047,0,0,0,81.8,5.4a10.459,10.459,0,0,0,3.736.287,5.458,5.458,0,0,1,2.4.175,5.547,5.547,0,0,1,.917,2.257,10.29,10.29,0,0,0,1.413,3.441,10.1,10.1,0,0,0,2.815,2.379c.811.529,1.731,1.128,1.884,1.6a5.466,5.466,0,0,1-.575,2.29,10.53,10.53,0,0,0-.892,3.69,10.533,10.533,0,0,0,.892,3.69l1.015-.383,1.015-.383a8.646,8.646,0,0,1-.752-2.924,8.589,8.589,0,0,1,.751-2.924c.5-1.326.979-2.588.609-3.726-.389-1.2-1.6-1.983-2.762-2.743a8.567,8.567,0,0,1-2.245-1.838,8.672,8.672,0,0,1-1.074-2.733c-.38-1.4-.738-2.714-1.739-3.442s-2.345-.656-3.782-.588a8.678,8.678,0,0,1-2.959-.183,8.333,8.333,0,0,1-2.4-1.544C78.971.912,77.848,0,76.561,0s-2.41.912-3.507,1.8a8.326,8.326,0,0,1-2.4,1.543,8.571,8.571,0,0,1-2.959.183c-1.437-.067-2.794-.131-3.783.588s-1.359,2.049-1.739,3.443A8.586,8.586,0,0,1,61.1,10.287a8.377,8.377,0,0,1-2.245,1.838c-1.167.76-2.373,1.546-2.762,2.743-.37,1.139.106,2.4.609,3.728a8.672,8.672,0,0,1,.751,2.923,8.6,8.6,0,0,1-.751,2.924c-.5,1.326-.979,2.589-.609,3.726.389,1.2,1.6,1.984,2.762,2.744A8.541,8.541,0,0,1,61.1,32.75a8.7,8.7,0,0,1,1.074,2.733A11.1,11.1,0,0,0,63,37.84L58.6,49.078a1.085,1.085,0,0,0,1.139,1.472l6.147-.735L69.9,54.521a1.085,1.085,0,0,0,1.837-.315L76.121,43A2.681,2.681,0,0,0,77,43l4.38,11.208a1.085,1.085,0,0,0,1.836.309l4.015-4.708,6.147.735a1.085,1.085,0,0,0,1.14-1.466l-4.4-11.24a11.175,11.175,0,0,0,.826-2.356,8.53,8.53,0,0,1,1.074-2.733,8.4,8.4,0,0,1,2.245-1.838c1.167-.76,2.374-1.546,2.762-2.743C97.4,27.028,96.925,25.772,96.428,24.442ZM70.375,51.735,67.16,47.964a1.085,1.085,0,0,0-.955-.372l-4.922.589,3.458-8.844a8.7,8.7,0,0,0,2.953.176c.4-.019.809-.039,1.205-.039a5.669,5.669,0,0,1,1.755.221,8.324,8.324,0,0,1,2.4,1.544c.362.29.723.583,1.094.844Zm21.464-3.554-4.921-.589a1.085,1.085,0,0,0-.955.374l-3.216,3.771-3.776-9.651c.371-.263.735-.556,1.094-.844a8.326,8.326,0,0,1,2.4-1.543,8.57,8.57,0,0,1,2.96-.183,8.707,8.707,0,0,0,2.953-.176Z" transform="translate(-55.96)" fill="#32478a "/>
        </g>
      </g>
    </g>
  </g>
</svg>