<svg xmlns="http://www.w3.org/2000/svg" width="77.364" height="77.344" viewBox="0 0 77.364 77.344">
  <g id="flexi" transform="translate(0 -0.067)">
    <path id="Path_22623" data-name="Path 22623" d="M192.493,14.588,179.931.446a1.128,1.128,0,0,0-1.688,0L165.682,14.588a1.134,1.134,0,0,0,.844,1.887H173.6v59.8a1.132,1.132,0,0,0,1.13,1.133h8.714a1.132,1.132,0,0,0,1.13-1.133v-59.8h7.074a1.134,1.134,0,0,0,.844-1.887Z" transform="translate(-140.404)" fill="#cc2939"/>
    <path id="Path_22624" data-name="Path 22624" d="M220.824,210.979h8.714a1.132,1.132,0,0,0,1.13-1.133V157.41a41.31,41.31,0,0,0-6.459,4.966,28.276,28.276,0,0,0-4.515,5.072v42.4A1.132,1.132,0,0,0,220.824,210.979Z" transform="translate(-186.498 -133.568)" fill="#b7253a"/>
    <path id="Path_22625" data-name="Path 22625" d="M263.461,125.4l-14.29-12.43a1.13,1.13,0,0,0-1.871.856V120.3l-5.716,0h-.026a21.347,21.347,0,0,0-15.433,6.02,20.914,20.914,0,0,0-6.445,15.152v30.414a1.132,1.132,0,0,0,1.13,1.133h8.714a1.132,1.132,0,0,0,1.13-1.133V141.471a10.151,10.151,0,0,1,3.13-7.353,10.393,10.393,0,0,1,7.51-2.933h.024l5.982,0v7.5a1.13,1.13,0,0,0,1.871.856l14.29-12.43a1.135,1.135,0,0,0,0-1.712Z" transform="translate(-186.486 -95.607)" fill="#e7343f"/>
    <path id="Path_22626" data-name="Path 22626" d="M220.807,298.37h8.714a1.132,1.132,0,0,0,1.13-1.133V269.584a60.491,60.491,0,0,0-4.515-5.265,22.466,22.466,0,0,0-5.45-3.963,21.059,21.059,0,0,0-1.01,6.467v30.414A1.132,1.132,0,0,0,220.807,298.37Z" transform="translate(-186.483 -220.959)" fill="#cc2939"/>
    <path id="Path_22627" data-name="Path 22627" d="M37.726,222.624A21.349,21.349,0,0,0,22.3,216.6h-.027l-5.718,0V210.13a1.13,1.13,0,0,0-1.871-.856L.39,221.7a1.135,1.135,0,0,0,0,1.712l14.291,12.43a1.13,1.13,0,0,0,1.871-.856v-7.5l5.982,0h.024a10.408,10.408,0,0,1,7.51,2.933,10.15,10.15,0,0,1,3.129,7.353v15.862a1.132,1.132,0,0,0,1.13,1.133H43.04a1.132,1.132,0,0,0,1.13-1.133V237.776A20.912,20.912,0,0,0,37.726,222.624Z" transform="translate(0 -177.36)" fill="#ff4a4a"/>
  </g>
</svg>
