<svg xmlns="http://www.w3.org/2000/svg" xmlns:xlink="http://www.w3.org/1999/xlink" width="47.652" height="107.517" viewBox="0 0 47.652 107.517">
  <defs>
    <linearGradient id="linear-gradient" x1="0.5" x2="0.5" y2="1" gradientUnits="objectBoundingBox">
      <stop offset="0" stop-color="#fe4e4e"/>
      <stop offset="0.846" stop-color="#533030"/>
      <stop offset="1" stop-color="#4d2f2f"/>
    </linearGradient>
  </defs>
  <g id="Group_4933" data-name="Group 4933" transform="translate(-194.649 0.001)">
    <path id="Path_5132" data-name="Path 5132" d="M243.583,123.622c-.383-22.753-1.4-25.608-5.517-28.089-12.416-9.658-27.007-11.823-30.112-12.186-.1-.02-.2-.045-.309-.057a1.553,1.553,0,0,0-.245,0l-.046,0a2.425,2.425,0,0,0-.715.13c-1.912.48-5.643,2.5-6.5,9.3-.383,3.047-2.257,13.844-2.655,24.016-.456,11.656-1.52,20.2-1.52,20.2,0,2.106,3.593,4.212,6.059,4.031.1,2.022.17,3.234.17,3.234.6,2.765,16.355,11.179,31.336,6.816a35.147,35.147,0,0,0,.53,5.919s3.69,3.471,9.545-1.022C243.6,155.914,243.644,127.275,243.583,123.622Z" transform="translate(-1.316 -50.699)" fill="url(#linear-gradient)"/>
    <path id="Path_5134" data-name="Path 5134" d="M209.384,143.017c.117-7.032-.312-14-.6-18.644l.11,41.577a4.75,4.75,0,0,0,.932.027C209.6,161.195,209.238,151.845,209.384,143.017Z" transform="translate(-9.122 -75.713)" fill="#492c2a"/>
    <path id="Path_5135" data-name="Path 5135" d="M239.544,68.431s-.88,6.651-1.3,10.305c-.311,2.7,4.466,4.446,8.117,3.3a9.173,9.173,0,0,0,5.126-3.848c-1.722-5.8-1.61-14.206-1.61-14.206Z" transform="translate(-27.044 -38.947)" fill="#ffb657"/>
    <path id="Path_5136" data-name="Path 5136" d="M237.712,109.112l-5.066-1.094,1.05,4.159-4.95,23.73,3.305,7.423,5.172-4.863-1.237-25.894Z" transform="translate(-21.271 -65.756)" fill="#492c2a"/>
    <path id="Path_5137" data-name="Path 5137" d="M238.714,108.018l1.05,4.159,2.291.4,1.725-3.461Z" transform="translate(-27.339 -65.756)" fill="#492c2a"/>
    <g id="Group_4934" data-name="Group 4934" transform="translate(209.254 35.98)">
      <path id="Path_5138" data-name="Path 5138" d="M256.817,93.437a1.094,1.094,0,0,1-.255,1.033,21.871,21.871,0,0,1-8.819,4.39l1.961,6.5s8.79-6.591,8.644-9.583a5.443,5.443,0,0,0-1.823-3.81Z" transform="translate(-242.089 -91.963)" fill="#492c2a"/>
      <path id="Path_5139" data-name="Path 5139" d="M235.55,95.058a12.342,12.342,0,0,0-2.046,4.176c-.823,2.743,1.023,6.583,1.023,6.583l2.659-5.495s-1.713-1.284-1.83-2.108A19.144,19.144,0,0,1,235.55,95.058Z" transform="translate(-233.293 -93.847)" fill="#492c2a"/>
    </g>
    <path id="Path_5140" data-name="Path 5140" d="M219.261,19.543s.833,12.494,3.837,14.725,12.419.092,17.656-8.823c4.369-7.437,2.546-22.025-6.845-23.572C222.94.066,218.6,8.362,219.261,19.543Z" transform="translate(-15.457 -0.99)" fill="#fec377"/>
    <path id="Path_5141" data-name="Path 5141" d="M289.851,176.775a206.375,206.375,0,0,0-.631-24.978v0l-.749,41.292q.686-.164,1.371-.364C289.7,189.388,289.646,184.33,289.851,176.775Z" transform="translate(-57.628 -92.405)" fill="#492c2a"/>
    <path id="Path_5142" data-name="Path 5142" d="M259.687,147.795l7.243,3.353s.251,7.974-.331,8.352c-2.666,1.731-6.536-.527-6.971-2.219C259.355,156.218,259.687,147.795,259.687,147.795Z" transform="translate(-40.005 -89.97)" fill="#492c2a"/>
    <path id="Path_5143" data-name="Path 5143" d="M245.387,10.894c-.418-2.994-2.82-5.888-5.843-5.931a8.471,8.471,0,0,0-6.9-4.892,13.737,13.737,0,0,0-8.461,2.106,12.6,12.6,0,0,0-5.666,6.274c-.972,2.706-.448,6.058,1.749,7.913a8.024,8.024,0,0,0,6.233,1.49,33.069,33.069,0,0,0,5.052-.646,4.882,4.882,0,0,1-3.4,2.351c2.07.368,5.394-1.222,7.244-2.194a58.253,58.253,0,0,0,.351,8.794c.413-2.951,1.238-6.98,2.684-8.794.73,2.667-1.065,8.287-1.2,11.537a81.8,81.8,0,0,0,6.089-9.326C244.69,16.883,245.8,13.889,245.387,10.894Z" transform="translate(-14.759 0)" fill="#3e3d43"/>
    <path id="Path_5144" data-name="Path 5144" d="M264.993,49.715s.98-6.889,3.022-6.981c1.439-.064,2.066,2.909,1.008,5.2s-4.029,4.418-4.029,4.418Z" transform="translate(-43.336 -26.014)" fill="#fec377"/>
  </g>
</svg>
