<svg id="Group_8933" data-name="Group 8933" xmlns="http://www.w3.org/2000/svg" width="39.246" height="39.246" viewBox="0 0 39.246 39.246">
  <g id="file_sharing" data-name="file sharing">
    <path id="Path_14648" data-name="Path 14648" d="M13.491,22.076H3.679A3.683,3.683,0,0,1,0,18.4V3.679A3.683,3.683,0,0,1,3.679,0h8.636a1.226,1.226,0,0,1,.873.365l3.629,3.679a1.227,1.227,0,0,1,.353.861V18.4a3.683,3.683,0,0,1-3.679,3.679ZM3.679,2.453A1.228,1.228,0,0,0,2.453,3.679V18.4a1.228,1.228,0,0,0,1.226,1.226h9.812A1.228,1.228,0,0,0,14.717,18.4V5.409L11.8,2.453Z" fill="#fefcfc"/>
    <path id="Path_14649" data-name="Path 14649" d="M13.906,6.132H10.226A1.226,1.226,0,0,1,9,4.906V1.226a1.226,1.226,0,0,1,2.453,0V3.679h2.453a1.226,1.226,0,0,1,0,2.453Z" transform="translate(2.038)" fill="#fefcfc"/>
    <path id="Path_14650" data-name="Path 14650" d="M10.132,9.453H5.226A1.226,1.226,0,0,1,5.226,7h4.906a1.226,1.226,0,0,1,0,2.453Z" transform="translate(0.906 1.585)" fill="#fefcfc"/>
    <path id="Path_14651" data-name="Path 14651" d="M10.132,13.453H5.226a1.226,1.226,0,0,1,0-2.453h4.906a1.226,1.226,0,0,1,0,2.453Z" transform="translate(0.906 2.491)" fill="#fefcfc"/>
    <path id="Path_14652" data-name="Path 14652" d="M31.491,36.076H21.679A3.683,3.683,0,0,1,18,32.4V17.679A3.683,3.683,0,0,1,21.679,14h8.636a1.226,1.226,0,0,1,.873.365l3.629,3.679a1.227,1.227,0,0,1,.353.861V32.4a3.683,3.683,0,0,1-3.679,3.679ZM21.679,16.453a1.228,1.228,0,0,0-1.226,1.226V32.4a1.228,1.228,0,0,0,1.226,1.226h9.812A1.228,1.228,0,0,0,32.717,32.4V19.409L29.8,16.453Z" transform="translate(4.076 3.17)" fill="#fefcfc"/>
    <path id="Path_14653" data-name="Path 14653" d="M31.906,20.132H28.226A1.226,1.226,0,0,1,27,18.906V15.226a1.226,1.226,0,0,1,2.453,0v2.453h2.453a1.226,1.226,0,0,1,0,2.453Z" transform="translate(6.114 3.17)" fill="#fefcfc"/>
    <path id="Path_14654" data-name="Path 14654" d="M28.132,23.453H23.226a1.226,1.226,0,0,1,0-2.453h4.906a1.226,1.226,0,0,1,0,2.453Z" transform="translate(4.982 4.755)" fill="#fefcfc"/>
    <path id="Path_14655" data-name="Path 14655" d="M28.132,27.453H23.226a1.226,1.226,0,0,1,0-2.453h4.906a1.226,1.226,0,0,1,0,2.453Z" transform="translate(4.982 5.661)" fill="#fefcfc"/>
    <path id="Path_14656" data-name="Path 14656" d="M27.038,12.812a1.226,1.226,0,0,1-1.226-1.226V6.679a1.228,1.228,0,0,0-1.226-1.226H17.226a1.226,1.226,0,0,1,0-2.453h7.359a3.683,3.683,0,0,1,3.679,3.679v4.906A1.226,1.226,0,0,1,27.038,12.812Z" transform="translate(3.623 0.679)" fill="#fefcfc"/>
    <path id="Path_14657" data-name="Path 14657" d="M25.679,12.906a1.222,1.222,0,0,1-.867-.359l-2.453-2.453a1.226,1.226,0,1,1,1.734-1.734l1.586,1.586,1.586-1.586A1.226,1.226,0,1,1,29,10.094l-2.453,2.453a1.222,1.222,0,0,1-.867.359Z" transform="translate(4.982 1.812)" fill="#fefcfc"/>
    <path id="Path_14658" data-name="Path 14658" d="M17.038,30.812H9.679A3.683,3.683,0,0,1,6,27.132V22.226a1.226,1.226,0,0,1,2.453,0v4.906a1.228,1.228,0,0,0,1.226,1.226h7.359a1.226,1.226,0,0,1,0,2.453Z" transform="translate(1.359 4.755)" fill="#fefcfc"/>
    <path id="Path_14659" data-name="Path 14659" d="M10.132,24.906a1.222,1.222,0,0,1-.867-.359L7.679,22.961,6.094,24.546a1.226,1.226,0,1,1-1.734-1.734l2.453-2.453a1.226,1.226,0,0,1,1.734,0L11,22.812a1.226,1.226,0,0,1-.867,2.094Z" transform="translate(0.906 4.529)" fill="#fefcfc"/>
  </g>
</svg>
