<svg xmlns="http://www.w3.org/2000/svg" width="35" height="35" viewBox="0 0 35 35">
  <g id="Group_8645" data-name="Group 8645" transform="translate(0 -0.002)">
    <g id="Group_8643" data-name="Group 8643" transform="translate(0 0.002)">
      <path id="Path_14387" data-name="Path 14387" d="M.337,5.422a1.025,1.025,0,0,1,1.722-.485L5.836,8.717h2.9v-2.9L4.966,2.045A1.026,1.026,0,0,1,5.446.324a7.319,7.319,0,0,1,6.916,1.865,7.177,7.177,0,0,1,1.667,7.468L25.572,21.2a7.177,7.177,0,0,1,7.468,1.667,7.432,7.432,0,0,1,1.874,6.919,1.025,1.025,0,0,1-1.722.485l-3.777-3.78h-2.9v2.9l3.771,3.769a1.026,1.026,0,0,1-.481,1.721,7.318,7.318,0,0,1-6.915-1.865,7.177,7.177,0,0,1-1.667-7.468L9.678,14.008a7.177,7.177,0,0,1-7.468-1.667A7.432,7.432,0,0,1,.337,5.422Z" transform="translate(-0.127 -0.103)" fill="#feffff"/>
      <g id="Group_8642" data-name="Group 8642" transform="translate(0 0)">
        <path id="Path_14388" data-name="Path 14388" d="M18.386,263.62l-9.192,9.191a5.4,5.4,0,0,1-6.78.685l8.3-8.3a1.078,1.078,0,0,0-1.524-1.524l-8.3,8.3a5.394,5.394,0,0,1,.685-6.78L10.767,256Z" transform="translate(0 -239.387)" fill="#feffff"/>
        <path id="Path_14389" data-name="Path 14389" d="M313.625,3.085l-3.048,6.095a1.077,1.077,0,0,1-.812.585l-4.977.71-4.867,4.867L298.4,13.819l4.866-4.866.711-4.978a1.077,1.077,0,0,1,.585-.812L310.656.115a1.078,1.078,0,0,1,1.243.2l1.524,1.524a1.078,1.078,0,0,1,.2,1.243Z" transform="translate(-278.739 -0.002)" fill="#feffff"/>
      </g>
    </g>
  </g>
</svg>
