<svg xmlns="http://www.w3.org/2000/svg" width="512" height="512" viewBox="0 0 53.736 53.74">
  <g id="Group_8917" data-name="Group 8917" transform="translate(-0.499 0)">
    <path id="Path_14632" data-name="Path 14632" d="M207.55,348.1a1.05,1.05,0,1,0-1.05-1.05A1.05,1.05,0,0,0,207.55,348.1Zm0,0" transform="translate(-184.379 -309.683)" fill="#32478a"/>
    <path id="Path_14633" data-name="Path 14633" d="M.807,40.837l12.6,12.6a1.049,1.049,0,0,0,1.484,0l6.927-6.927a1.049,1.049,0,0,0,0-1.484l-.308-.308h15.13a5.237,5.237,0,0,0,3.575-1.406L52.945,31.374a4.052,4.052,0,0,0-4.905-6.406l-2.827,1.855a17.649,17.649,0,0,0-8.191-14.488A3.154,3.154,0,0,0,35.63,7.27c-.052-.017-.1-.032-.155-.048l2.7-4.854A1.05,1.05,0,0,0,37.553.849a21.521,21.521,0,0,0-11.97,0,1.049,1.049,0,0,0-.624,1.519l2.7,4.854L27.5,7.27a3.149,3.149,0,0,0-1.386,5.064A17.65,17.65,0,0,0,17.923,26.87c0,.154,0,.305.009.456a12.9,12.9,0,0,0-5.1,2.734l-3.19,2.791-.426-.426a1.049,1.049,0,0,0-1.484,0L.807,39.353a1.049,1.049,0,0,0,0,1.484Zm26.65-38.3a19.466,19.466,0,0,1,8.223,0L33.34,6.74a12.8,12.8,0,0,0-3.544,0Zm.7,6.726a10.861,10.861,0,0,1,6.816,0,1.05,1.05,0,0,1-.262,2.046,10.268,10.268,0,0,0-6.288,0h0a1.049,1.049,0,0,1-.264-2.043Zm.581,4.151a8.19,8.19,0,0,1,5.53-.044c4.877,1.677,8.844,7.732,8.844,13.5a10.1,10.1,0,0,1-.091,1.39l-5.045,3.31a4.174,4.174,0,0,0-3.26-1.551h-2.1v-1.23a3.149,3.149,0,0,0-1.05-6.117,1.05,1.05,0,1,1,0-2.1,1.686,1.686,0,0,1,1.135.549,1.049,1.049,0,1,0,1.46-1.508,4.05,4.05,0,0,0-1.545-.966V17.424a1.05,1.05,0,0,0-2.1,0v1.23a3.149,3.149,0,0,0,1.05,6.117,1.05,1.05,0,1,1,0,2.1,1.9,1.9,0,0,1-1.363-.794A1.05,1.05,0,0,0,28.6,27.427a4.351,4.351,0,0,0,1.92,1.367v1.225h-.349c-.516,0-.747-.336-1.111-.571a12.876,12.876,0,0,0-9.035-2.511c0-.022,0-.044,0-.066,0-5.686,3.911-11.721,8.717-13.454ZM14.216,31.64A10.793,10.793,0,0,1,27.8,31.127a3.722,3.722,0,0,0,2.371.991h4.548a2.1,2.1,0,1,1,0,4.2H27.369a1.05,1.05,0,1,0,0,2.1h7.347a4.195,4.195,0,0,0,4.137-4.91l10.307-6.763a1.953,1.953,0,0,1,2.352,3.1L38.779,41.773a3.14,3.14,0,0,1-2.143.842H19.407l-8.275-8.276Zm-5.74,3.012L19.587,45.763l-5.443,5.443L3.033,40.1Zm0,0" transform="translate(0)" fill="#32478a"/>
  </g>
</svg>