<svg xmlns="http://www.w3.org/2000/svg" width="48.599" height="30.703" viewBox="0 0 48.599 30.703">
  <g id="_3586359_device_mobile_phone_smartphone_icon" data-name="3586359_device_mobile_phone_smartphone_icon" transform="translate(39.054 1.594)">
    <g id="Group_1955" data-name="Group 1955" transform="translate(-39.054 -1.594)">
      <g id="Subtraction_25" data-name="Subtraction 25" fill="none">
        <path d="M35.973,25.393H0V0H43.026V7.053H38.973a3,3,0,0,0-3,3V25.392Z" stroke="none"/>
        <path d="M 34.47299957275391 23.89259910583496 L 34.47299957275391 10.05389976501465 C 34.47299957275391 7.572259426116943 36.49156188964844 5.553299427032471 38.97270202636719 5.553299427032471 L 41.52630233764648 5.553299427032471 L 41.52630233764648 1.499999523162842 L 1.500001192092896 1.499999523162842 L 1.500001192092896 23.89259910583496 L 34.47299957275391 23.89259910583496 M 35.97299957275391 25.39259910583496 L 1.168823246189277e-06 25.39259910583496 L 1.168823246189277e-06 -4.470825274438539e-07 L 43.02630233764648 -4.470825274438539e-07 L 43.02630233764648 7.053299427032471 L 38.97270202636719 7.053299427032471 C 37.31866073608398 7.053299427032471 35.97299957275391 8.399359703063965 35.97299957275391 10.05389976501465 L 35.97299957275391 25.39259910583496 Z" stroke="none" fill="#fafcfd"/>
      </g>
      <rect id="Rectangle_922" data-name="Rectangle 922" width="11.286" height="1.058" transform="translate(16.223 26.803)" fill="#fff"/>
      <g id="Icon" transform="translate(-634.505 -3505.65)">
        <path id="Subtraction_24" data-name="Subtraction 24" d="M11.669,25.132H3a3,3,0,0,1-3-3V3A3,3,0,0,1,3,0h8.67a3,3,0,0,1,3,3V22.133A3,3,0,0,1,11.669,25.132ZM7.34,19.512A1.668,1.668,0,1,0,8.975,21.18,1.653,1.653,0,0,0,7.34,19.512ZM4.973,2.693a.9.9,0,0,0,0,1.8H9.7a.9.9,0,1,0,0-1.8Z" transform="translate(668.435 3511.22)" fill="#fff"/>
      </g>
    </g>
  </g>
</svg>
