<svg xmlns="http://www.w3.org/2000/svg" width="512" height="445.94" viewBox="0 0 62.575 54.102">
  <g id="Group_9288" data-name="Group 9288" transform="translate(-25.5 -56.812)">
    <path id="Path_15063" data-name="Path 15063" d="M79.949,87.638l7.7-16.5a4.54,4.54,0,0,0-4.114-6.46H39.668l-.425-1.73a8.044,8.044,0,0,0-7.829-6.139h-4.9a1.018,1.018,0,1,0,0,2.036h4.9a6.012,6.012,0,0,1,5.852,4.588l.615,2.505,6.282,25.574.615,2.505a8.047,8.047,0,0,0,2.474,4.107c-.056,0-.111,0-.167,0a6.395,6.395,0,1,0,4.619,1.984,8.157,8.157,0,0,0,.9.052H72.461a6.38,6.38,0,1,0,4.761-2.034l-.047,0H52.607a6.014,6.014,0,0,1-5.852-4.588l-.306-1.245H72.644A8.09,8.09,0,0,0,79.949,87.638ZM47.085,108.853a4.347,4.347,0,1,1,4.347-4.347,4.347,4.347,0,0,1-4.347,4.347Zm34.392-4.347a4.347,4.347,0,1,1-4.347-4.347,4.347,4.347,0,0,1,4.347,4.347ZM40.168,66.717H83.535A2.5,2.5,0,0,1,85.8,70.28l-7.7,16.5a6.047,6.047,0,0,1-5.46,3.477H45.95Z" transform="translate(0)" fill="#32478a"/>
    <path id="Path_15064" data-name="Path 15064" d="M217.111,187.164a1.018,1.018,0,0,0-1.018-1.018H186.681a1.018,1.018,0,0,0,0,2.036h29.412A1.018,1.018,0,0,0,217.111,187.164Z" transform="translate(-138.422 -111.778)" fill="#32478a"/>
    <path id="Path_15065" data-name="Path 15065" d="M241.954,232.826a1.018,1.018,0,0,0-1.018-1.018H220.783a1.018,1.018,0,1,0,0,2.036h20.153A1.018,1.018,0,0,0,241.954,232.826Z" transform="translate(-167.894 -151.241)" fill="#32478a"/>
  </g>
</svg>