<svg xmlns="http://www.w3.org/2000/svg" width="512" height="322.37" viewBox="0 0 81.72 51.648">
  <g id="_3586359_device_mobile_phone_smartphone_icon" data-name="3586359_device_mobile_phone_smartphone_icon" transform="translate(39.054 2.018)">
    <g id="Group_1955" data-name="Group 1955" transform="translate(-39.054 -1.594)">
      <g id="Subtraction_25" data-name="Subtraction 25" transform="translate(0 -0.424)" fill="none">
        <path d="M58.525,41H0V0H70V11.389H61.525a3,3,0,0,0-3,3V41Z" stroke="none"/>
        <path d="M 56.52519989013672 39.00040054321289 L 56.52519989013672 14.38920021057129 C 56.52519989013672 11.63185596466064 58.7680549621582 9.38860034942627 61.52489852905273 9.38860034942627 L 68.00019836425781 9.38860034942627 L 68.00019836425781 2.000000238418579 L 1.999999165534973 2.000000238418579 L 1.999999165534973 39.00040054321289 L 56.52519989013672 39.00040054321289 M 58.52519989013672 41.00040054321289 L -8.178710686479462e-07 41.00040054321289 L -8.178710686479462e-07 2.716064386731887e-07 L 70.00019836425781 2.716064386731887e-07 L 70.00019836425781 11.38860034942627 L 61.52489852905273 11.38860034942627 C 59.87086486816406 11.38860034942627 58.52519989013672 12.73465538024902 58.52519989013672 14.38920021057129 L 58.52519989013672 41.00040054321289 Z" stroke="none" fill="#32478a"/>
      </g>
      <rect id="Rectangle_922" data-name="Rectangle 922" width="18.383" height="2" transform="translate(26.426 43.66)" fill="#32478a"/>
    </g>
    <g id="Group_1956" data-name="Group 1956" transform="translate(18.221 8.16)">
      <path id="Path_2205" data-name="Path 2205" d="M38.419,8.6H22.126c-2.091,0-3.826,2.063-3.826,4.606V44.965c0,2.543,1.7,4.606,3.826,4.606H38.419c2.091,0,3.826-2.063,3.826-4.606V13.206C42.245,10.663,40.549,8.6,38.419,8.6Zm2.643,36.365a2.924,2.924,0,0,1-2.643,3.166H22.126a2.954,2.954,0,0,1-2.643-3.166V13.206a2.924,2.924,0,0,1,2.643-3.166H38.419a2.954,2.954,0,0,1,2.643,3.166Z" transform="translate(-18.3 -8.6)" fill="#32478a" stroke="#32478a" stroke-width="1"/>
      <rect id="Rectangle_3305" data-name="Rectangle 3305" width="13.687" height="2" rx="1" transform="translate(4.847 4.465)" fill="#32478a"/>
      <path id="Path_2207" data-name="Path 2207" d="M46.012,75.4A2.419,2.419,0,0,0,43.6,77.812a2.263,2.263,0,0,0,.724,1.688,2.41,2.41,0,0,0,1.688.675h0a2.419,2.419,0,0,0,2.412-2.412A2.378,2.378,0,0,0,46.012,75.4Zm.048,3.377h0a.989.989,0,0,1-.965-.965.968.968,0,0,1,.965-.965h0a.965.965,0,0,1,0,1.93Z" transform="translate(-34.308 -43.204)" fill="#32478a"/>
    </g>
  </g>
</svg>