<svg xmlns="http://www.w3.org/2000/svg" width="35.661" height="35.627" viewBox="0 0 35.661 35.627">
  <g id="Group_9003" data-name="Group 9003" transform="translate(0 -0.231)">
    <g id="Group_9004" data-name="Group 9004" transform="translate(0 0.231)">
      <g id="Group_9003-2" data-name="Group 9003" transform="translate(0 0)">
        <path id="Path_14730" data-name="Path 14730" d="M34.738,15.828l-4.194-4.194C28.82,9.91,29.873,8.09,31.753,7.979c3.1-.192,4.835-3.493,2.307-6.243-2.749-2.521-6.036-.789-6.228,2.3-.118,1.879-1.953,2.941-3.67,1.223L20.056,1.154a3.154,3.154,0,0,0-4.459,0L11.44,5.311c-1.725,1.725-3.552.656-3.67-1.223C7.578.992,4.262-.77,1.513,1.758-1.023,4.515.739,7.832,3.834,8.023c1.879.118,2.948,1.953,1.231,3.678L.923,15.836a3.154,3.154,0,0,0,0,4.459L5.028,24.4c1.725,1.717.7,3.508-1.179,3.626-3.1.192-4.828,3.486-2.3,6.235,2.749,2.528,6.029.8,6.22-2.292.118-1.879,1.916-2.911,3.641-1.194l4.142,4.142a3.236,3.236,0,0,0,4.555.007l2.9-2.9,1.246-1.246c1.629-1.7.575-3.494-1.282-3.611-3.1-.192-4.85-3.508-2.322-6.257,2.749-2.528,6.066-.767,6.257,2.329.118,1.857,1.9,2.9,3.6,1.275l1.128-1.128,3.037-3.037.015-.015.044-.044A3.154,3.154,0,0,0,34.738,15.828Z" transform="translate(0 -0.231)" fill="#fffcfc"/>
      </g>
    </g>
  </g>
</svg>
