<svg xmlns="http://www.w3.org/2000/svg" width="512" height="512" viewBox="0 0 57.021 57.006">
  <g id="Group_9575" data-name="Group 9575" transform="translate(0 0)">
    <g id="_9._puzzle_pieces" data-name="9. puzzle pieces" transform="translate(0 0)">
      <path id="Path_15514" data-name="Path 15514" d="M5.961,30.842c-3.416,0-3.819,2.372-5.23,1.72-1-.439-.7.154-.7-19.51a1.186,1.186,0,0,1,1.186-1.186H17.442a8.3,8.3,0,0,1,2-9.785c6.677-5.93,16.841,1.684,12.987,9.785h11.48A1.186,1.186,0,0,1,45.1,13.052V29.276a8.3,8.3,0,0,1,9.784,2c5.93,6.736-1.708,16.829-9.784,13.046V55.748a1.186,1.186,0,0,1-1.186,1.186H30.227a1.186,1.186,0,0,1-.878-1.981,5.93,5.93,0,1,0-10.342-4.815c-.557,3.961,2.372,4.59,1.66,6.1-.439,1,.154.7-19.51.7A1.186,1.186,0,0,1-.028,55.748V42.061a1.186,1.186,0,0,1,1.981-.878A5.93,5.93,0,1,0,5.961,30.842Zm6.226.439C18.118,38.017,10.48,48.11,2.4,44.327V54.562H17.442c-3.854-8.1,6.262-15.715,12.987-9.785a8.3,8.3,0,0,1,2,9.785H42.727v-12.5a1.186,1.186,0,0,1,1.981-.878,5.93,5.93,0,1,0,3.949-10.342c-3.416,0-3.819,2.372-5.23,1.72-.984-.439-.7.083-.7-18.324-13.141,0-13.153.285-13.58-.7-.664-1.494,2.218-2.076,1.66-6.1a5.93,5.93,0,1,0-10.283,4.815,1.186,1.186,0,0,1-.878,1.981H2.4V29.276a8.3,8.3,0,0,1,9.784,2Z" transform="translate(0.028 0.031)" fill="#32478a"/>
    </g>
  </g>
</svg>