<svg xmlns="http://www.w3.org/2000/svg" width="40.951" height="44.363" viewBox="0 0 40.951 44.363">
  <g id="Group_9292" data-name="Group 9292" transform="translate(-1)">
    <g id="Group_9291" data-name="Group 9291" transform="translate(1 0)">
      <g id="Group_9290" data-name="Group 9290" transform="translate(0 18.769)">
        <path id="Path_15066" data-name="Path 15066" d="M15.072,13.268a4.532,4.532,0,0,0-.616.038V19.2c.13.007.285.007.411.007h0a2.489,2.489,0,0,0,1.955-.747,3.449,3.449,0,0,0,.729-2.38C17.553,14.266,16.672,13.268,15.072,13.268Z" transform="translate(8.504 -9.398)" fill="#fff"/>
        <path id="Path_15067" data-name="Path 15067" d="M31.713,11H2.706A1.709,1.709,0,0,0,1,12.706V22.944A1.709,1.709,0,0,0,2.706,24.65H31.713a1.709,1.709,0,0,0,1.706-1.706V12.706A1.709,1.709,0,0,0,31.713,11ZM10.269,18.429a4.065,4.065,0,0,1-3.01,1.1c-.148,0-.28-.005-.4-.015v3.17a.271.271,0,0,1-.271.271H4.65a.271.271,0,0,1-.27-.271V13.112a.27.27,0,0,1,.22-.264,15.037,15.037,0,0,1,2.7-.206,4.091,4.091,0,0,1,2.829.848,3.2,3.2,0,0,1,1.015,2.447A3.506,3.506,0,0,1,10.269,18.429ZM15.524,23.1a5.42,5.42,0,0,1-2.6-.647.266.266,0,0,1-.119-.287l.4-1.8a.272.272,0,0,1,.155-.189.266.266,0,0,1,.246.015,4.314,4.314,0,0,0,2.037.565c.413,0,1.1-.1,1.1-.778,0-.392-.2-.686-1.278-1.1-1.7-.677-2.565-1.732-2.565-3.129a3.231,3.231,0,0,1,3.549-3.179,4.948,4.948,0,0,1,2.336.522.269.269,0,0,1,.137.3l-.437,1.756a.265.265,0,0,1-.155.183.274.274,0,0,1-.239-.012,3.481,3.481,0,0,0-1.67-.427c-.6,0-.99.259-.99.665s.283.633,1.444,1.118c1.638.679,2.4,1.677,2.4,3.145C19.279,21.338,18.295,23.1,15.524,23.1Zm12.632-1.372a6.055,6.055,0,0,1-4.2,1.327,15.3,15.3,0,0,1-2.264-.148.272.272,0,0,1-.232-.266V13.131a.272.272,0,0,1,.224-.266,15.7,15.7,0,0,1,2.684-.222,5.456,5.456,0,0,1,3.733,1.1,4.824,4.824,0,0,1,1.563,3.865A5.456,5.456,0,0,1,28.155,21.733Z" transform="translate(-1 -11)" fill="#fff"/>
        <path id="Path_15068" data-name="Path 15068" d="M4.962,13.259a4.155,4.155,0,0,0-.527.026V15.7a3.444,3.444,0,0,0,.386.015,1.237,1.237,0,0,0,1.413-1.3C6.233,13.459,5.542,13.259,4.962,13.259Z" transform="translate(1.426 -9.405)" fill="#fff"/>
      </g>
      <path id="Path_15069" data-name="Path 15069" d="M34.461,7.178c-.416-.41-.843-.826-1.263-1.249s-.839-.846-1.249-1.263C29.028,1.686,27.289,0,25.475,0H11.825A6.834,6.834,0,0,0,5,6.825V19.11H8.413V6.825a3.414,3.414,0,0,1,3.413-3.413l12.437-.007c1.23.314,1.213,1.826,1.213,3.339v5.2a1.709,1.709,0,0,0,1.706,1.706H32.3c1.7,0,3.413.009,3.413,1.706V37.538A3.414,3.414,0,0,1,32.3,40.951H11.825a3.414,3.414,0,0,1-3.413-3.413v-5.46H5v5.46a6.834,6.834,0,0,0,6.825,6.825H32.3a6.834,6.834,0,0,0,6.825-6.825V13.65C39.126,11.838,37.44,10.1,34.461,7.178Z" transform="translate(1.825 0)" fill="#fff"/>
    </g>
  </g>
</svg>
