<svg xmlns="http://www.w3.org/2000/svg" xml:space="preserve" width="512" height="512" style="enable-background:new 0 0 512 512"><path d="M123.806 105h234.55c21.146 0 38.349 17.271 38.349 38.5v102.556c0 4.143 3.358 7.5 7.5 7.5s7.5-3.357 7.5-7.5V143.5c0-29.5-23.932-53.5-53.349-53.5h-234.55c-4.142 0-7.5 3.357-7.5 7.5s3.358 7.5 7.5 7.5zM306.358 336.556H164.927a7.499 7.499 0 0 0-5.716 2.645l-42.497 50.021L74.218 339.2a7.499 7.499 0 0 0-5.716-2.645H53.349c-21.146 0-38.349-17.271-38.349-38.5V143.5c0-21.229 17.203-38.5 38.349-38.5h35.679c4.142 0 7.5-3.357 7.5-7.5s-3.358-7.5-7.5-7.5H53.349C23.932 90 0 114 0 143.5v154.556c0 29.5 23.932 53.5 53.349 53.5h11.684l45.966 54.105a7.499 7.499 0 0 0 11.432 0l45.966-54.105h137.961c4.142 0 7.5-3.357 7.5-7.5s-3.358-7.5-7.5-7.5zM221.328 447.329h-68.184c-4.142 0-7.5 3.357-7.5 7.5s3.358 7.5 7.5 7.5h68.184c9.528 0 17.28 7.776 17.28 17.335S230.856 497 221.328 497H32.28C22.752 497 15 489.223 15 479.664s7.752-17.335 17.28-17.335h6.635a7.5 7.5 0 0 0 6.076-3.103l13.033-18.009 13.033 18.009a7.502 7.502 0 0 0 6.076 3.103h41.332c4.142 0 7.5-3.357 7.5-7.5s-3.358-7.5-7.5-7.5H80.963L64.1 424.027a7.502 7.502 0 0 0-12.152 0l-16.863 23.302H32.28C14.481 447.329 0 461.835 0 479.664 0 497.494 14.481 512 32.28 512h189.048c17.799 0 32.28-14.506 32.28-32.336 0-17.829-14.481-32.335-32.28-32.335zM290.659 64.671h28.213c4.142 0 7.5-3.357 7.5-7.5s-3.358-7.5-7.5-7.5h-28.213c-9.528 0-17.28-7.776-17.28-17.335S281.131 15 290.659 15h189.048c9.528 0 17.28 7.776 17.28 17.335s-7.752 17.336-17.28 17.336h-6.635a7.5 7.5 0 0 0-6.076 3.103l-13.033 18.009-13.033-18.01a7.502 7.502 0 0 0-6.076-3.103h-81.302c-4.142 0-7.5 3.357-7.5 7.5s3.358 7.5 7.5 7.5h77.472l16.863 23.302a7.502 7.502 0 0 0 12.152 0l16.863-23.302h2.805c17.799 0 32.28-14.506 32.28-32.336C511.987 14.506 497.506 0 479.707 0H290.659c-17.799 0-32.28 14.506-32.28 32.336 0 17.829 14.481 32.335 32.28 32.335z" fill="#32478a" data-original="#000000"/><path d="M109.855 253.936c-4.142 0-7.5 3.357-7.5 7.5s3.358 7.5 7.5 7.5h39.999a7.5 7.5 0 0 0 7.5-7.5v-40a7.5 7.5 0 0 0-7.5-7.5h-32.499v-25h32.499c4.142 0 7.5-3.357 7.5-7.5s-3.358-7.5-7.5-7.5h-39.999a7.5 7.5 0 0 0-7.5 7.5v40a7.5 7.5 0 0 0 7.5 7.5h32.499v25zM224.852 188.936c4.142 0 7.5-3.357 7.5-7.5s-3.358-7.5-7.5-7.5h-39.999a7.5 7.5 0 0 0-7.5 7.5v80a7.5 7.5 0 0 0 7.5 7.5h39.999c4.142 0 7.5-3.357 7.5-7.5s-3.358-7.5-7.5-7.5h-32.499v-25h32.499c4.142 0 7.5-3.357 7.5-7.5s-3.358-7.5-7.5-7.5h-32.499v-25zM259.852 173.936a7.5 7.5 0 0 0-7.5 7.5v80a7.5 7.5 0 0 0 7.5 7.5h39.999a7.5 7.5 0 0 0 7.5-7.5v-80a7.5 7.5 0 0 0-7.5-7.5zm32.499 80h-24.999v-65h24.999zM511.987 345.242a7.498 7.498 0 0 0-6.325-7.404l-10.348-1.642-4.939-11.919 6.154-8.489a7.5 7.5 0 0 0-.77-9.706l-21.182-21.18a7.498 7.498 0 0 0-9.713-.763l-8.471 6.158-11.914-4.934-1.647-10.352a7.499 7.499 0 0 0-7.407-6.321h-.003l-29.945.012a7.5 7.5 0 0 0-7.405 6.328l-1.639 10.357-11.903 4.939-8.479-6.154a7.497 7.497 0 0 0-9.712.77l-21.167 21.195a7.5 7.5 0 0 0-.762 9.706l6.157 8.48-4.933 11.929-10.341 1.648a7.5 7.5 0 0 0-6.32 7.409l.012 29.965a7.499 7.499 0 0 0 6.326 7.404l10.347 1.641 4.939 11.919-6.154 8.489a7.501 7.501 0 0 0 .769 9.706l21.181 21.181a7.5 7.5 0 0 0 9.713.763l8.471-6.158 11.913 4.934 1.647 10.352a7.5 7.5 0 0 0 7.407 6.321h.003l29.945-.013a7.5 7.5 0 0 0 7.404-6.327l1.64-10.358 11.904-4.939 8.479 6.155a7.498 7.498 0 0 0 9.712-.77l21.167-21.195a7.5 7.5 0 0 0 .763-9.706l-6.157-8.481 4.933-11.929 10.341-1.647a7.5 7.5 0 0 0 6.32-7.409zm-23.154 24.869a7.5 7.5 0 0 0-5.751 4.54l-8.141 19.686a7.501 7.501 0 0 0 .861 7.272l4.863 6.698-12.118 12.135-6.694-4.859a7.501 7.501 0 0 0-7.28-.858l-19.661 8.158a7.501 7.501 0 0 0-4.533 5.755l-1.295 8.18-17.138.007-1.301-8.173a7.501 7.501 0 0 0-4.538-5.751l-19.672-8.146a7.498 7.498 0 0 0-7.28.864l-6.686 4.86-12.125-12.125 4.861-6.706a7.5 7.5 0 0 0 .856-7.273L357.91 374.7a7.5 7.5 0 0 0-5.754-4.536l-8.171-1.296-.007-17.16 8.165-1.302a7.497 7.497 0 0 0 5.75-4.54l8.141-19.686a7.496 7.496 0 0 0-.862-7.272l-4.863-6.698 12.118-12.134 6.694 4.858a7.497 7.497 0 0 0 7.28.858l19.661-8.158a7.502 7.502 0 0 0 4.533-5.756l1.294-8.179 17.138-.006 1.3 8.173a7.501 7.501 0 0 0 4.538 5.751l19.673 8.146a7.502 7.502 0 0 0 7.279-.863l6.686-4.86 12.126 12.125-4.861 6.705a7.5 7.5 0 0 0-.856 7.273l8.153 19.674a7.5 7.5 0 0 0 5.754 4.536l8.172 1.296.007 17.161z" fill="#32478a" data-original="#000000"/><path d="M452.329 352.759a7.5 7.5 0 0 0-7.5 7.5c0 13.423-10.92 24.343-24.342 24.343s-24.342-10.92-24.342-24.343 10.92-24.343 24.342-24.343c3.515 0 6.904.731 10.071 2.173a7.499 7.499 0 0 0 9.934-3.719 7.5 7.5 0 0 0-3.719-9.934 39.042 39.042 0 0 0-16.286-3.521c-21.693 0-39.342 17.649-39.342 39.343s17.649 39.343 39.342 39.343 39.342-17.649 39.342-39.343a7.5 7.5 0 0 0-7.5-7.499z" fill="#32478a" data-original="#000000"/></svg>