<svg xmlns="http://www.w3.org/2000/svg" id="Group_9154" data-name="Group 9154" width="512" height="512" viewBox="0 0 57.253 57.253">
  <g id="Group_9137" data-name="Group 9137" transform="translate(20.348 55.016)">
    <g id="Group_9136" data-name="Group 9136">
      <path id="Path_14870" data-name="Path 14870" d="M183.115,492h-.03a1.118,1.118,0,0,0,0,2.236h.03a1.118,1.118,0,1,0,0-2.236Z" transform="translate(-181.967 -492.002)" fill="#32478a"/>
    </g>
  </g>
  <g id="Group_9139" data-name="Group 9139">
    <g id="Group_9138" data-name="Group 9138">
      <path id="Path_14871" data-name="Path 14871" d="M41.6,0H13.642a3.358,3.358,0,0,0-3.355,3.355V25.943H3.355A3.358,3.358,0,0,0,0,29.3V42.716a3.358,3.358,0,0,0,3.355,3.355h6.933V53.9a3.358,3.358,0,0,0,3.355,3.355H17a1.118,1.118,0,1,0,0-2.236H13.642A1.119,1.119,0,0,1,12.524,53.9V46.071H36.9a3.358,3.358,0,0,0,3.355-3.355V29.3A3.358,3.358,0,0,0,36.9,25.943H33.547a1.118,1.118,0,1,0,0,2.236H36.9A1.119,1.119,0,0,1,38.019,29.3V42.716A1.119,1.119,0,0,1,36.9,43.834H3.355a1.119,1.119,0,0,1-1.118-1.118V29.3a1.119,1.119,0,0,1,1.118-1.118h22.48a1.118,1.118,0,0,0,0-2.236H12.524V3.355a1.119,1.119,0,0,1,1.118-1.118H41.6a2.239,2.239,0,0,1,2.236,2.236v5.591a3.358,3.358,0,0,0,3.355,3.355H52.78a2.239,2.239,0,0,1,2.236,2.236V53.9A1.119,1.119,0,0,1,53.9,55.016H24.709a1.118,1.118,0,1,0,0,2.236H53.9A3.358,3.358,0,0,0,57.253,53.9V15.655A15.673,15.673,0,0,0,41.6,0ZM52.78,11.182H47.189a1.119,1.119,0,0,1-1.118-1.118V4.473a4.449,4.449,0,0,0-.284-1.566,13.481,13.481,0,0,1,8.559,8.559A4.448,4.448,0,0,0,52.78,11.182Z" fill="#32478a"/>
    </g>
  </g>
  <g id="Group_9141" data-name="Group 9141" transform="translate(16.764 11.182)">
    <g id="Group_9140" data-name="Group 9140">
      <path id="Path_14872" data-name="Path 14872" d="M157.928,100h-6.9a1.118,1.118,0,0,0,0,2.236h6.9a1.118,1.118,0,1,0,0-2.236Z" transform="translate(-149.914 -100)" fill="#32478a"/>
    </g>
  </g>
  <g id="Group_9143" data-name="Group 9143" transform="translate(16.764 15.655)">
    <g id="Group_9142" data-name="Group 9142">
      <path id="Path_14873" data-name="Path 14873" d="M164.824,140H151.032a1.118,1.118,0,1,0,0,2.236h13.792a1.118,1.118,0,1,0,0-2.236Z" transform="translate(-149.914 -140)" fill="#32478a"/>
    </g>
  </g>
  <g id="Group_9145" data-name="Group 9145" transform="translate(16.764 20.128)">
    <g id="Group_9144" data-name="Group 9144">
      <path id="Path_14874" data-name="Path 14874" d="M157.928,180h-6.9a1.118,1.118,0,0,0,0,2.236h6.9a1.118,1.118,0,1,0,0-2.236Z" transform="translate(-149.914 -180)" fill="#32478a"/>
    </g>
  </g>
  <g id="Group_9147" data-name="Group 9147" transform="translate(27.929 25.943)">
    <g id="Group_9146" data-name="Group 9146">
      <path id="Path_14875" data-name="Path 14875" d="M250.913,232h-.03a1.118,1.118,0,0,0,0,2.236h.03a1.118,1.118,0,0,0,0-2.236Z" transform="translate(-249.765 -232.002)" fill="#32478a"/>
    </g>
  </g>
  <g id="Group_9149" data-name="Group 9149" transform="translate(17.811 30.415)">
    <g id="Group_9148" data-name="Group 9148">
      <path id="Path_14876" data-name="Path 14876" d="M163.085,272.037a1.118,1.118,0,0,0-1.37.791l-2.4,8.946a1.118,1.118,0,1,0,2.16.579l2.4-8.946A1.118,1.118,0,0,0,163.085,272.037Z" transform="translate(-159.28 -271.999)" fill="#32478a"/>
    </g>
  </g>
  <g id="Group_9151" data-name="Group 9151" transform="translate(5.819 31.295)">
    <g id="Group_9150" data-name="Group 9150">
      <path id="Path_14877" data-name="Path 14877" d="M59.938,287.2l-4.547-2.625,4.547-2.625a1.118,1.118,0,1,0-1.118-1.937L52.6,283.6a1.118,1.118,0,0,0,0,1.937l6.225,3.594a1.118,1.118,0,1,0,1.118-1.937Z" transform="translate(-52.036 -279.861)" fill="#32478a"/>
    </g>
  </g>
  <g id="Group_9153" data-name="Group 9153" transform="translate(25.976 31.295)">
    <g id="Group_9152" data-name="Group 9152">
      <path id="Path_14878" data-name="Path 14878" d="M240.2,283.606l-6.225-3.594a1.118,1.118,0,1,0-1.118,1.937l4.547,2.625-4.547,2.625a1.118,1.118,0,1,0,1.118,1.937l6.225-3.594a1.118,1.118,0,0,0,0-1.937Z" transform="translate(-232.296 -279.862)" fill="#32478a"/>
    </g>
  </g>
</svg>