<svg xmlns="http://www.w3.org/2000/svg" width="36.582" height="36.582" viewBox="0 0 36.582 36.582">
  <g id="Group_9244" data-name="Group 9244" transform="translate(-2.5 -2.5)">
    <g id="_x38_7" transform="translate(2.5 2.5)">
      <path id="Path_14960" data-name="Path 14960" d="M6.864,43.412h3.37v2.076H6.864Z" transform="translate(-3.538 -12.232)" fill="#fff"/>
      <path id="Path_14961" data-name="Path 14961" d="M13.467,43.412H25.258v2.076H13.467Z" transform="translate(-5.109 -12.232)" fill="#fff"/>
      <path id="Path_14962" data-name="Path 14962" d="M23.688,15.982H6.865v15.5H23.688v-15.5Zm-9.254,8.76a.831.831,0,0,1-1.663,0V22.725a.831.831,0,0,1,1.663,0Zm3.348,0a.831.831,0,0,1-1.663,0V22.725a.831.831,0,0,1,1.663,0Z" transform="translate(-3.538 -5.707)" fill="#fff"/>
      <path id="Path_14963" data-name="Path 14963" d="M36.24,22.452h7.542v3.266H36.24Z" transform="translate(-10.526 -7.246)" fill="#fff"/>
      <path id="Path_14964" data-name="Path 14964" d="M36.24,28.918h7.542v3.266H36.24Z" transform="translate(-10.526 -8.784)" fill="#fff"/>
      <path id="Path_14965" data-name="Path 14965" d="M36.24,35.385h7.542v3.266H36.24Z" transform="translate(-10.526 -10.322)" fill="#fff"/>
      <path id="Path_14966" data-name="Path 14966" d="M36.588,2.5H4.994A2.5,2.5,0,0,0,2.5,4.994v2.8H39.082v-2.8A2.5,2.5,0,0,0,36.588,2.5ZM7.171,5.976H6.841a.831.831,0,0,1,0-1.663h.329a.831.831,0,0,1,0,1.663Zm3.251,0h-.329a.831.831,0,1,1,0-1.663h.329a.831.831,0,1,1,0,1.663Zm3.252,0h-.329a.831.831,0,0,1,0-1.663h.329a.831.831,0,1,1,0,1.663Z" transform="translate(-2.5 -2.5)" fill="#fff"/>
      <path id="Path_14967" data-name="Path 14967" d="M36.24,41.852h7.542v3.266H36.24Z" transform="translate(-10.526 -11.861)" fill="#fff"/>
      <path id="Path_14968" data-name="Path 14968" d="M36.24,15.986h7.542v3.265H36.24Z" transform="translate(-10.526 -5.708)" fill="#fff"/>
      <path id="Path_14969" data-name="Path 14969" d="M2.5,38.758a2.5,2.5,0,0,0,2.494,2.494H36.588a2.5,2.5,0,0,0,2.494-2.494V11.622H2.5ZM26.551,14.116a.831.831,0,0,1,.831-.831h9.205a.831.831,0,0,1,.831.831V38.758a.831.831,0,0,1-.831.831H27.383a.831.831,0,0,1-.831-.831V14.116Zm-22.388,0A.831.831,0,0,1,5,13.282H23.481a.831.831,0,0,1,.831.831V31.279a.831.831,0,0,1-.831.831H5a.831.831,0,0,1-.831-.831Zm0,20.905a.831.831,0,0,1,.831-.831H23.481a.831.831,0,0,1,.831.831v3.739a.831.831,0,0,1-.831.831H4.994a.831.831,0,0,1-.831-.831Z" transform="translate(-2.5 -4.67)" fill="#fff"/>
    </g>
  </g>
</svg>
