<svg id="Layer_2" xmlns="http://www.w3.org/2000/svg" width="317.45" height="72" viewBox="0 0 194.196 44">
  <g id="Group_9281" data-name="Group 9281">
    <path id="Path_15043" data-name="Path 15043" d="M271.136,48.227h-7.645v.811c2.391,0,2.776.512,2.776,3.545v5.467c0,3.032-.384,3.587-2.776,3.587-1.836-.256-3.075-1.239-4.783-3.118l-1.964-2.135c2.648-.47,4.057-2.135,4.057-4.015,0-2.348-2.007-4.142-5.765-4.142H247.52v.811c2.391,0,2.776.512,2.776,3.545v5.467c0,3.032-.384,3.587-2.776,3.587v.811h8.5v-.811c-2.391,0-2.776-.555-2.776-3.587V56.512h.726l4.741,5.936h12.427c6.107,0,8.755-3.245,8.755-7.132S277.244,48.227,271.136,48.227Zm-17.893,6.96V49.508h1.751a2.84,2.84,0,0,1,0,5.68h-1.751Zm18.022,5.937h-.3c-1.537,0-1.751-.384-1.751-2.349V49.508h2.05c4.441,0,5.252,3.245,5.252,5.765C276.517,57.878,275.706,61.124,271.265,61.124Z" transform="translate(-158.506 -30.92)" fill="#fff"/>
    <path id="Path_15044" data-name="Path 15044" d="M146.853,49.163l2.947-8.713c.854-2.52.47-3.245-2.263-3.245v-.854h8.029v.854c-2.69,0-3.331.64-4.4,3.758L146.3,55.569h-.555L141.387,42.2l-4.441,13.367h-.555l-4.74-14.605c-1.025-3.118-1.708-3.758-4.185-3.758v-.854h9.481v.854c-2.52,0-3.2.6-2.306,3.245l2.861,8.713,4.313-12.812h.812Z" transform="translate(-81.626 -23.311)" fill="#fff"/>
    <path id="Path_15045" data-name="Path 15045" d="M206.543,62.013c-4.7,0-8.541-3.459-8.541-7.687,0-4.185,3.844-7.645,8.541-7.645s8.541,3.46,8.541,7.645C215.084,58.554,211.241,62.013,206.543,62.013Zm0-14.007c-3.929,0-5.3,3.544-5.3,6.32,0,2.819,1.367,6.321,5.3,6.321,3.972,0,5.339-3.5,5.339-6.321C211.882,51.55,210.515,48.006,206.543,48.006Z" transform="translate(-126.796 -29.93)" fill="#fff"/>
    <path id="Path_15046" data-name="Path 15046" d="M349.45,53.988v.854h-9.78v-.854c2.862,0,3.374-.726,3.374-5V42.159c0-4.271-.512-4.954-3.374-4.954V36.35h8.84c4.4,0,6.834,2.263,6.834,5.3,0,2.947-2.435,5.253-6.834,5.253h-2.434v2.092C346.076,53.262,346.588,53.988,349.45,53.988Zm-.94-16.1h-2.434v7.431h2.434a3.337,3.337,0,0,0,3.5-3.672C352.012,39.6,350.9,37.887,348.51,37.887Z" transform="translate(-217.517 -23.309)" fill="#fff"/>
    <path id="Path_15047" data-name="Path 15047" d="M414.34,58.434l-.214.769c-.384,1.409-.854,1.922-3.886,1.922h-.6c-2.22,0-2.6-.512-2.6-3.544V55.615c3.331,0,3.588.3,3.588,2.52h.811V51.771h-.811c0,2.221-.256,2.52-3.588,2.52V49.508h2.348c3.033,0,3.5.512,3.886,1.922l.214.811h.683l-.3-4.014H401.314v.811c2.391,0,2.776.512,2.776,3.545v5.467c0,2.774-.327,3.473-2.212,3.572-1.792-.274-3.022-1.251-4.706-3.1l-1.965-2.135c2.648-.47,4.057-2.135,4.057-4.015,0-2.348-2.007-4.142-5.765-4.142h-7.516v.811c2.391,0,2.776.512,2.776,3.545v5.467c0,3.032-.384,3.587-2.776,3.587v.811h8.5v-.811c-2.391,0-2.776-.555-2.776-3.587V56.512h.726l4.74,5.936h17.552l.256-4.014h-.641Zm-22.634-3.246V49.508h1.751a2.84,2.84,0,0,1,0,5.68h-1.751Z" transform="translate(-247.175 -30.92)" fill="#fff"/>
    <path id="Path_15048" data-name="Path 15048" d="M479.433,62.013a6.313,6.313,0,0,1-3.844-1.452,3.068,3.068,0,0,0-.683,1.452H474.1V56.121h.854a4.739,4.739,0,0,0,4.826,4.484,2.2,2.2,0,0,0,2.477-2.049c0-1.11-.982-1.965-2.733-2.776l-2.434-1.153a4.647,4.647,0,0,1-2.99-4.1c0-2.05,1.922-3.8,4.57-3.8A5.348,5.348,0,0,1,482,47.836a2.414,2.414,0,0,0,.555-1.154h.811v5.04h-.9c-.3-2.007-1.409-3.673-3.672-3.673-1.2,0-2.307.683-2.307,1.751,0,1.11.9,1.708,2.947,2.648l2.348,1.153a4.456,4.456,0,0,1,2.861,3.844C484.643,60.135,482.294,62.013,479.433,62.013Z" transform="translate(-303.6 -29.93)" fill="#fff"/>
    <path id="Path_15049" data-name="Path 15049" d="M516.008,62.013a6.312,6.312,0,0,1-3.844-1.452,3.068,3.068,0,0,0-.683,1.452h-.812V56.121h.854a4.739,4.739,0,0,0,4.826,4.484,2.2,2.2,0,0,0,2.477-2.049c0-1.11-.982-1.965-2.734-2.776l-2.434-1.153a4.648,4.648,0,0,1-2.99-4.1c0-2.05,1.922-3.8,4.57-3.8a5.348,5.348,0,0,1,3.331,1.11,2.407,2.407,0,0,0,.555-1.154h.812v5.04h-.9c-.3-2.007-1.409-3.673-3.672-3.673-1.2,0-2.307.683-2.307,1.751,0,1.11.9,1.708,2.947,2.648l2.348,1.153a4.456,4.456,0,0,1,2.861,3.844C521.217,60.135,518.868,62.013,516.008,62.013Z" transform="translate(-327.021 -29.93)" fill="#fff"/>
    <g id="Group_9280" data-name="Group 9280">
      <path id="Path_15050" data-name="Path 15050" d="M8.708,47.564A18.9,18.9,0,0,0,19.36,64.573l-9.015-24.7A18.828,18.828,0,0,0,8.708,47.564Z" transform="translate(-5.576 -25.595)" fill="#fff"/>
      <path id="Path_15051" data-name="Path 15051" d="M45.9,26.653a9.951,9.951,0,0,0-1.559-5.212c-.958-1.557-1.856-2.875-1.856-4.432a3.273,3.273,0,0,1,3.174-3.355c.084,0,.163.01.245.015a18.9,18.9,0,0,0-28.554,3.557c.443.013.861.023,1.216.023,1.977,0,5.037-.24,5.037-.24a.781.781,0,0,1,.121,1.557s-1.024.12-2.163.18l6.882,20.472,4.136-12.4-2.945-8.068c-1.018-.06-1.982-.18-1.982-.18a.781.781,0,0,1,.119-1.557s3.121.24,4.978.24c1.976,0,5.037-.24,5.037-.24a.781.781,0,0,1,.121,1.557s-1.026.12-2.163.18l6.83,20.317,1.885-6.3C45.28,30.149,45.9,28.271,45.9,26.653Z" transform="translate(-11.112 -5.576)" fill="#fff"/>
      <path id="Path_15052" data-name="Path 15052" d="M52.087,65.857,46.416,82.335a18.909,18.909,0,0,0,11.615-.3,1.659,1.659,0,0,1-.134-.26Z" transform="translate(-29.724 -42.235)" fill="#fff"/>
      <path id="Path_15053" data-name="Path 15053" d="M94.764,36.046a14.5,14.5,0,0,1,.127,1.943,17.828,17.828,0,0,1-1.437,6.77L87.681,61.45a18.9,18.9,0,0,0,7.083-25.4Z" transform="translate(-56.149 -23.145)" fill="#fff"/>
      <path id="Path_15054" data-name="Path 15054" d="M22.031,0A22,22,0,1,0,44.063,22,22.04,22.04,0,0,0,22.031,0Zm0,42.992A20.991,20.991,0,1,1,43.051,22,21.031,21.031,0,0,1,22.031,42.992Z" fill="#fff"/>
    </g>
  </g>
</svg>
