<svg xmlns="http://www.w3.org/2000/svg" width="38.015" height="38" viewBox="0 0 38.015 38"><defs><linearGradient id="a" x1=".5" x2=".5" y2="1" gradientUnits="objectBoundingBox"><stop offset="0" stop-color="#f67f2d"/><stop offset="1" stop-color="#32478a"/></linearGradient><clipPath id="b"><path fill="url(#a)" stroke="rgba(0,0,0,0)" d="M0 0h38.015v38H0z" data-name="Rectangle 880"/></clipPath></defs><g data-name="103571_globe_icon"><path fill="none" d="M.015 0h38v38h-38z" data-name="Rectangle 876"/><g data-name="Group 1789"><g fill="#32478a" stroke="rgba(0,0,0,0)" clip-path="url(#b)" data-name="Group 1788"><path d="M19.97 26.673a.507.507 0 0 1-.021-.575c.349-.68.657-1.38 1-2.063.117-.231.115-.356-.164-.394a2.678 2.678 0 0 1-1.725-1.044c-.126-.152-.29-.272-.414-.425a1.027 1.027 0 0 0-.633-.338c-.845-.182-1.685-.387-2.532-.563a.471.471 0 0 1-.373-.3c-.282-.61-.576-1.214-.866-1.819a3.081 3.081 0 0 0-.055.884c.024.275-.106.3-.325.291-.188 0-.247-.144-.332-.258-.795-1.072-1.582-2.151-2.382-3.22a.789.789 0 0 1-.162-.511c.009-.828 0-1.658.008-2.488a.857.857 0 0 0-.14-.484c-.542-.869-1.1-1.732-1.6-2.626a.6.6 0 0 0-.763-.32 22.736 22.736 0 0 1-4.035.519 3.058 3.058 0 0 1-1.832-.746l1.341-1.069c-.452.1-.809.182-1.167.261a.392.392 0 0 0-.279.211 18.98 18.98 0 0 0-2.381 7.267 1.622 1.622 0 0 1-.138.74v.444a.169.169 0 0 1 0 .223v2.229a1.455 1.455 0 0 1 .135.736 18.194 18.194 0 0 0 4.252 9.9 18.618 18.618 0 0 0 16.745 6.762c.246-.023.29-.111.252-.316a2.153 2.153 0 0 1-.033-.3 6.764 6.764 0 0 1 .062-2.606c.259-.8.413-1.626.616-2.441a.7.7 0 0 0 .011-.366 15.6 15.6 0 0 0-1.693-4.517c-.143-.215-.237-.461-.376-.68" data-name="Path 2234"/><path d="M8.896 5.872a5.2 5.2 0 0 0 2.746-.865.76.76 0 0 1 .758-.091 6.076 6.076 0 0 0 1.547.379c.743-.03 1.5-.076 2.26-.106a.555.555 0 0 0 .531-.3c.2-.364.44-.7.652-1.047a.283.283 0 0 1 .349-.152 6.427 6.427 0 0 0 1.426.167c.925-.091 1.851-.182 2.776-.258a.792.792 0 0 0 .652-.349 6.02 6.02 0 0 1 1.441-1.259 1.47 1.47 0 0 1 1.2-.258 3.345 3.345 0 0 0 1.775.091c-.046-.03-.061-.061-.091-.076a19.375 19.375 0 0 0-5.1-1.532A7.217 7.217 0 0 1 20.425 0h-.672.008-1.422.006-.818c-.03.121-.137.061-.212.076-.485.061-.971.106-1.441.182a18.877 18.877 0 0 0-8.495 3.718 18.237 18.237 0 0 0-3 2.928c.167-.046.288-.076.41-.121a20.119 20.119 0 0 1 4.111-.91M21.608.9a.251.251 0 0 1 .3.015c.349.2.7.41 1.092.637-.607.455-1.153.925-1.76 1.32-.334.2-.789.076-1.168.167a1.435 1.435 0 0 1-1.331-.459c.925-.637 1.911-1.138 2.867-1.684M14.039 2.11c.061-.076.137-.03.2.015a1.445 1.445 0 0 0 1.5.015c.228-.091.364-.061.47.167.121.273.288.516.44.789-.834.228-1.653.44-2.473.667a.284.284 0 0 1-.243-.061q-.523-.3-1.092-.637a9.464 9.464 0 0 0 1.2-.956" data-name="Path 2235"/><path d="M37.436 14.333a18.627 18.627 0 0 0-2.465-5.637c-.067-.1-.094-.285-.288-.221a7.7 7.7 0 0 1-2.418.291 1.64 1.64 0 0 0-1.652 1.054c-.217.457-.526.484-.945.173a2.162 2.162 0 0 1-.165-.147c-.607-.548-1.2-1.106-1.823-1.638a1.444 1.444 0 0 1-.5-.79 4.482 4.482 0 0 0-1.844-2.923c-.082-.055-.143-.137-.221-.2a.625.625 0 0 0-.218-.129c-.5-.106-.994-.2-1.491-.3-.089-.017-.211-.059-.217.1-.008.347-.079.67.256.974a17.554 17.554 0 0 1 2.142 2.21c.067.088.244.168.014.3a1.39 1.39 0 0 1-1.5.2 6.4 6.4 0 0 0-.651-.261c-.582-.24-.595-.243-.564-.89a.36.36 0 0 0-.276-.431 7.64 7.64 0 0 1-.992-.405c-.24-.118-.3-.03-.347.19a13.3 13.3 0 0 0-.3 1.374c-.047.479-.29.642-.719.7-.314.044-.734.021-.9.246-.182.247.049.637.047.969v.038a.225.225 0 0 0 .221.24c.537.091 1.074.188 1.6.306.2.047.247-.018.276-.2.077-.5.173-1 .264-1.5.018-.1-.014-.267.158-.234a5.2 5.2 0 0 1 1.628.3 2.643 2.643 0 0 0 1.649.379.376.376 0 0 1 .443.284 6.62 6.62 0 0 0 1.855 2.592c.249.22.451.5.71.705a.865.865 0 0 1 .314 1.031c-.065.228-.153.306-.375.253-.071-.017-.147-.018-.22-.035a2.771 2.771 0 0 0-2.356.358 6.447 6.447 0 0 1-1.216.654 3.543 3.543 0 0 0-1.514 1.2c-.376.505-.789.984-1.212 1.453a2.378 2.378 0 0 0-.581 1.129c-.132.622-.3.717-.928.587a1.113 1.113 0 0 1-.24-.1c-.37-.168-.74-.337-1.109-.51a.362.362 0 0 0-.347-.018c-.373.188-.755.361-1.135.54-.1.049-.194.083-.15.243.118.447.215.9.332 1.4a1.6 1.6 0 0 0 .182-.2 1.092 1.092 0 0 1 1.188-.565.686.686 0 0 0 .185 0c.194-.032.231.061.215.231-.029.308-.035.619-.068.925-.021.182.039.287.215.306a1.684 1.684 0 0 1 1.253.822.706.706 0 0 0 .962.288 2.727 2.727 0 0 1 1.291-.24c1.1.155 2.165.579 3.254.683a3.106 3.106 0 0 1 2.281 1.461 4.45 4.45 0 0 0 1.446 1.186c.746.411 1.464.872 2.207 1.288.234.13.237.228.118.446q-.942 1.763-1.854 3.543a.8.8 0 0 1-.416.387c-.563.252-1.116.523-1.681.772a.671.671 0 0 0-.407.432c-.2.584-.434 1.154-.631 1.738a.922.922 0 0 1-.4.5c-.919.6-1.831 1.218-2.746 1.829-.111.074-.234.135-.273.285-.089.353-.187.705-.287 1.075a.849.849 0 0 0 .168 0 18.843 18.843 0 0 0 9.247-5.473 18.6 18.6 0 0 0 4.921-10.338 18.925 18.925 0 0 0-.4-7.286" data-name="Path 2236"/></g></g></g></svg>