<svg xmlns="http://www.w3.org/2000/svg" width="45.853" height="45.723" viewBox="0 0 45.853 45.723"><defs><clipPath id="b"><path fill="url(#a)" stroke="rgba(0,0,0,0)" d="M0 0h38.518v25.732H0z" data-name="Rectangle 877"/></clipPath><clipPath id="c"><path fill="url(#a)" stroke="rgba(0,0,0,0)" d="M0 0h15.327v20.581H0z" data-name="Rectangle 878"/></clipPath><linearGradient id="a" x2="1" y2="1" gradientUnits="objectBoundingBox"><stop offset="0" stop-color="#32478a"/><stop offset="1" stop-color="#32478a"/></linearGradient></defs><g clip-path="url(#b)" data-name="Group 1783" transform="translate(5.445 19.991)"><path fill="url(#a)" stroke="rgba(0,0,0,0)" d="M38.518 24.412a1.359 1.359 0 0 1-.907 1.32H.9a1.017 1.017 0 0 1-.9-.9v-5.644c.072-.029.064-.1.079-.156A3.006 3.006 0 0 1 3.1 16.707q4.285-.008 8.572.005c.287 0 .371-.061.368-.361-.018-1.441-.011-2.882-.007-4.324a3.008 3.008 0 0 1 3.143-3.143q4.267-.008 8.535.006c.3 0 .366-.075.363-.366-.014-1.829-.008-3.66-.006-5.489A2.974 2.974 0 0 1 26.221 0h10.163a2.97 2.97 0 0 1 2.127 2.943q.008 10.735.006 21.468" data-name="Path 2228"/></g><g fill="url(#a)" stroke="rgba(0,0,0,0)" clip-path="url(#c)" data-name="Group 1785" transform="translate(0 13.096)"><path d="m7.566 12.934-.394 1.628c-.056.232-.128.462-.165.7a1.949 1.949 0 0 1-2.3 1.487c-1.251-.253-2.508-.481-3.762-.721A1.2 1.2 0 0 1 0 14.868a.963.963 0 0 1 1.153-.794c1.2.236 2.4.474 3.6.724.184.038.235.012.273-.178q.722-3.7 1.463-7.4c.006-.028 0-.058.009-.121-.339.13-.66.251-.981.375-.181.07-.356.157-.542.209-.163.046-.192.136-.19.289.008.688.007 1.376 0 2.064a.948.948 0 0 1-1.353.906.829.829 0 0 1-.555-.8c-.017-.874-.052-1.751.015-2.624A1.548 1.548 0 0 1 4 6.117c1.208-.471 2.382-1.027 3.589-1.5a1.993 1.993 0 0 1 2.712.835c.35.546.68 1.106 1.024 1.657a4.429 4.429 0 0 0 2.69 1.876c.186.054.379.084.565.141a.97.97 0 0 1 .508 1.572.906.906 0 0 1-.932.293 7.327 7.327 0 0 1-3.989-2.162c-.03-.031-.063-.059-.113-.106-.187.929-.368 1.833-.552 2.737a.223.223 0 0 0 .089.231c.446.41.878.836 1.333 1.236a1.539 1.539 0 0 1 .556 1.182c.014.935.009 1.87.01 2.8 0 .913.005 1.825 0 2.738a.934.934 0 0 1-.79.923.949.949 0 0 1-1.077-.673 1.315 1.315 0 0 1-.037-.4v-4.443a.452.452 0 0 0-.16-.366c-.568-.531-1.129-1.07-1.693-1.606-.047-.045-.1-.086-.166-.148" data-name="Path 2229"/><path d="M8.146 1.9a1.913 1.913 0 1 1 1.892 1.926A1.906 1.906 0 0 1 8.146 1.9" data-name="Path 2230"/></g><g data-name="Group 1128"><g data-name="Group 1127"><path fill="url(#a)" d="M231.372 280.54H229.9a.179.179 0 0 0-.179.179v1.474a.179.179 0 0 0 .179.179h1.467a.179.179 0 0 0 .179-.179v-1.474a.179.179 0 0 0-.174-.179Z" data-name="Path 1009" transform="translate(-193.674 -272.047)"/></g></g><g data-name="Group 1130"><g data-name="Group 1129"><path fill="url(#a)" d="M15.035 38.411h-3.027v-1.267a1.207 1.207 0 0 0-1.212-1.2H6.981a1.207 1.207 0 0 0-1.212 1.2v1.266H2.743A2.746 2.746 0 0 0 0 41.153V42.8a1.41 1.41 0 0 0 .955 1.062l5.977 1.458v-.7a1.225 1.225 0 0 1 1.223-1.223h1.467a1.225 1.225 0 0 1 1.223 1.223v.7l5.977-1.461a1.41 1.41 0 0 0 .955-1.062v-1.644a2.746 2.746 0 0 0-2.742-2.742Zm-4.071 0h-4.15v-1.267a.158.158 0 0 1 .167-.155H10.8a.158.158 0 0 1 .167.155v1.266Z" data-name="Path 1010" transform="translate(28.076 -35.944)"/></g></g><g data-name="Group 1132"><g data-name="Group 1131"><path fill="url(#a)" d="m17.117 283.96-.03.008L10.8 285.5a1.225 1.225 0 0 1-1.182.907H8.155a1.225 1.225 0 0 1-1.182-.907l-6.282-1.531-.03-.008a2.477 2.477 0 0 1-.66-.317v4.441a2.243 2.243 0 0 0 2.24 2.24h13.3a2.243 2.243 0 0 0 2.24-2.24v-4.441a2.477 2.477 0 0 1-.664.316Z" data-name="Path 1011" transform="translate(28.076 -275.043)"/></g></g></svg>