<svg xmlns="http://www.w3.org/2000/svg" width="29.214" height="29.165" viewBox="0 0 29.214 29.165"><path data-name="Path 961" d="M29.214 13.49v-.29a.129.129 0 0 1-.044-.082 11.743 11.743 0 0 0-1.354-5.009 14.478 14.478 0 0 0-6.388-6.549A11.967 11.967 0 0 0 16.114.052a.469.469 0 0 1 0-.052h-2.62c-.57.107-1.156.044-1.723.165a14.545 14.545 0 0 0-8.63 5.282A13.269 13.269 0 0 0 .078 13.11a15.979 15.979 0 0 0 .079 3.869c1.182 6.071 4.782 9.987 10.684 11.8a15.759 15.759 0 0 0 4.57.385 12.627 12.627 0 0 0 5.689-1.386c.6-.295.622-.39.21-.931-1.143-1.507-2.263-3.032-3.387-4.555-2.066-2.8-3.931-5.734-5.894-8.6a21.39 21.39 0 0 0-.738-1.022c-.068-.088-.158-.179-.286-.145s-.14.165-.156.274a4.344 4.344 0 0 0-.016.582v7.034c0 .588-.14.759-.611.8-.7.065-.874-.09-.874-.792V10.089a2.958 2.958 0 0 1 .012-.339.4.4 0 0 1 .323-.373 1.235 1.235 0 0 1 1.5.546l.243.362q5.31 8.034 10.615 16.07c.4.6.486.626 1.069.217a14.266 14.266 0 0 0 2.65-2.4 15.28 15.28 0 0 0 2.931-5.315 14.318 14.318 0 0 0 .521-2.841V13.49ZM19.8 19.307c-.49-.756-.974-1.516-1.474-2.266a1.063 1.063 0 0 1-.2-.625q.016-3.41.013-6.819c0-.336.016-.661.414-.773a1.156 1.156 0 0 1 1.351.388.618.618 0 0 1 .026.1 5.444 5.444 0 0 1 .051 1.386 921.7 921.7 0 0 1-.013 8.314c0 .092.173.369-.17.3" fill="currentcolor"></path></svg>