<svg xmlns="http://www.w3.org/2000/svg" viewBox="0 0 36 56" width="36" height="56"><defs><linearGradient id="a" x2="1" y2="1" gradientUnits="objectBoundingBox"><stop offset="0" stop-color="#f67f2d"/><stop offset="1" stop-color="#fe4b8d"/></linearGradient></defs><path fill="#32478a" d="M7969-8463.012h-20a8.009 8.009 0 0 1-8-8v-40a8.009 8.009 0 0 1 8-8h20a8.009 8.009 0 0 1 8 8v40a8.009 8.009 0 0 1-8 8Zm-10-15a4 4 0 0 0-4 4 4 4 0 0 0 4 4 4 4 0 0 0 4-4 4 4 0 0 0-4-4Zm-6-35a2 2 0 0 0-2 2 2 2 0 0 0 2 2h12a2 2 0 0 0 2-2 2 2 0 0 0-2-2Z" data-name="Subtraction 24" transform="translate(-7941 8519.011)"/></svg>