<svg xmlns="http://www.w3.org/2000/svg" width="34.993" height="32.752" viewBox="0 0 34.993 32.752"><defs><linearGradient id="b" x2="1" y2="1" gradientUnits="objectBoundingBox"><stop offset="0" stop-color="#32478a"/><stop offset="1" stop-color="#32478a"/></linearGradient><clipPath id="a"><path fill="none" d="M0 0h34.993v32.752H0z" data-name="Rectangle 14"/></clipPath></defs><g clip-path="url(#a)" data-name="Group 27"><path fill="url(#b)" d="M1869-2198.678h-19v-23l18.478-6.321.522 29.32Zm-9.9-6.046h-2.674a1.279 1.279 0 0 0-.923.35 1.061 1.061 0 0 0-.3.777 1.124 1.124 0 0 0 1.219 1.1h5.35a1.283 1.283 0 0 0 .924-.354 1.059 1.059 0 0 0 .3-.775 1.122 1.122 0 0 0-1.219-1.1Zm-1.785-4.454h-.892a1.281 1.281 0 0 0-.922.352 1.06 1.06 0 0 0-.3.776 1.123 1.123 0 0 0 1.22 1.1h5.349a1.277 1.277 0 0 0 .922-.353 1.059 1.059 0 0 0 .3-.776 1.125 1.125 0 0 0-1.22-1.1h-4.458Zm1.784-2.226h2.674a1.123 1.123 0 0 0 1.219-1.1 1.058 1.058 0 0 0-.3-.776 1.279 1.279 0 0 0-.923-.353h-5.349a1.123 1.123 0 0 0-1.219 1.1 1.061 1.061 0 0 0 .3.777 1.279 1.279 0 0 0 .922.353h2.675Zm-.186-6.682h-2.515a1.24 1.24 0 0 0-.89.344 1.067 1.067 0 0 0-.307.775 1.131 1.131 0 0 0 1.21 1.107h5.414a1.117 1.117 0 0 0 1.163-1.119 1.122 1.122 0 0 0-1.176-1.105l-2.895-.001Z" data-name="Subtraction 16" transform="translate(-1846 2229.679)"/><path fill="#32478a" stroke="rgba(0,0,0,0)" d="M32.795 31.02H22.732V12.551h8.119l1.943 18.465Zm-6.863-2.723a1.115 1.115 0 0 0-1.114 1.114 1.115 1.115 0 0 0 1.114 1.114h1.93a1.115 1.115 0 0 0 1.114-1.114 1.115 1.115 0 0 0-1.114-1.114Zm0-4.453a1.115 1.115 0 0 0-1.114 1.113 1.117 1.117 0 0 0 1.114 1.116h1.931a1.116 1.116 0 0 0 1.112-1.116 1.114 1.114 0 0 0-1.112-1.113Zm0-4.455a1.116 1.116 0 0 0-1.115 1.114 1.117 1.117 0 0 0 1.115 1.116h1.931a1.116 1.116 0 0 0 1.112-1.116 1.114 1.114 0 0 0-1.112-1.114Zm0-4.451a1.116 1.116 0 0 0-1.115 1.114 1.116 1.116 0 0 0 1.115 1.113h1.931a1.116 1.116 0 0 0 1.115-1.113 1.116 1.116 0 0 0-1.115-1.114Z" data-name="Subtraction 20"/><path fill="url(#b)" stroke="rgba(0,0,0,0)" d="M32.637 30.452a.483.483 0 0 1-.054-.286q.008-8.557 0-17.114a2.413 2.413 0 0 0-2.565-2.57c-1.995 0-3.989-.009-5.984.009-.321 0-.366-.094-.366-.382.012-2.528.009-5.056.006-7.583A2.408 2.408 0 0 0 20.241.218Q12.226 3.512 4.215 6.813a2.43 2.43 0 0 0-1.691 2.515v20.766a1.3 1.3 0 0 0 0 .208.238.238 0 0 1-.012.149H0v2.3h34.993v-2.3Zm-8.958-8.862c0-2.851.006-5.7-.007-8.555 0-.282.083-.333.343-.331q2.956.015 5.912 0c.328 0 .44.083.439.427q-.014 8.538 0 17.076a.4.4 0 0 1-.05.247h-6.584a.413.413 0 0 1-.061-.272c.013-2.864.007-5.727.007-8.591M4.745 30.2q.011-10.417 0-20.834a.459.459 0 0 1 .338-.508q7.953-3.257 15.9-6.537c.437-.18.472-.157.472.313v13.777q0 6.886.006 13.774a.419.419 0 0 1-.056.267H4.794a.411.411 0 0 1-.049-.249" data-name="Path 20"/></g></svg>