<svg xmlns="http://www.w3.org/2000/svg" width="46.14" height="30.103" viewBox="0 0 46.14 30.103"><defs><linearGradient id="a" x1=".5" x2=".5" y2="1" gradientUnits="objectBoundingBox"><stop offset="0" stop-color="#f67f2d"/><stop offset="1" stop-color="#fe4b8d"/></linearGradient><clipPath id="b"><path fill="url(#a)" stroke="rgba(0,0,0,0)" d="M0 0h46.14v30.103H0z" data-name="Rectangle 367" transform="translate(.318 .292)"/></clipPath></defs><g data-name="Group 565"><g clip-path="url(#b)" data-name="Group 564" transform="translate(-.318 -.292)"><g fill="url(#a)" stroke="rgba(0,0,0,0)" data-name="Group 574" transform="translate(2.318 1.291)"><path d="M42.139 26.827a1.2 1.2 0 0 1-1.236.664c-2.069-.023-4.138-.009-6.211-.009a10.623 10.623 0 0 0-.424-4.7 13.482 13.482 0 0 0-2.073-4.255 7.421 7.421 0 0 1 3.193-.074 8.228 8.228 0 0 1 6.677 7.088c.007.055.011.108.074.129Z" data-name="Path 361"/><path d="M21.068 27.483H10.329c-.863 0-1.2-.344-1.17-1.2a11.91 11.91 0 0 1 23.61-1.92 14.32 14.32 0 0 1 .208 2 .956.956 0 0 1-1.087 1.119H21.069" data-name="Path 362"/><path d="M21.093 0a6.415 6.415 0 1 1-6.441 6.376A6.422 6.422 0 0 1 21.093 0" data-name="Path 363"/><path d="M12.944 11.923a4.578 4.578 0 1 1-4.549-4.6 4.558 4.558 0 0 1 4.549 4.6" data-name="Path 364"/><path d="M38.467 11.969a4.578 4.578 0 1 1-4.461-4.639 4.555 4.555 0 0 1 4.461 4.639" data-name="Path 365"/><path d="M7.4 27.482c-2.14 0-4.334.009-6.528-.007A.887.887 0 0 1 0 26.44a8.1 8.1 0 0 1 4.778-7.342 7.692 7.692 0 0 1 4.726-.661c.134.021.266.057.422.092a13.376 13.376 0 0 0-2.53 8.954" data-name="Path 366"/></g></g></g></svg>
