<svg xmlns="http://www.w3.org/2000/svg" xmlns:xlink="http://www.w3.org/1999/xlink" width="32.977" height="33.006" viewBox="0 0 32.977 33.006" data-name="Group 572"><defs><linearGradient id="a" x2="1" y2="1" gradientUnits="objectBoundingBox"><stop offset="0" stop-color="#f67f2d"/><stop offset="1" stop-color="#fe4b8d"/></linearGradient><linearGradient xlink:href="#a" id="c" x1="-.067" y1="-.058" y2="1.023"/><clipPath id="b"><path fill="url(#a)" stroke="rgba(0,0,0,0)" d="M0 0h32.977v33.006H0z" data-name="Rectangle 373"/></clipPath></defs><g clip-path="url(#b)" data-name="Group 570"><path fill="url(#c)" stroke="rgba(0,0,0,0)" d="M32.953 15.377a14.416 14.416 0 0 0-1.18-5.173 16.459 16.459 0 0 0-3.93-5.7 17.178 17.178 0 0 0-4.8-3.176A16.592 16.592 0 0 0 14.74.071 15.531 15.531 0 0 0 8.185 2.2a16.3 16.3 0 0 0-5.34 4.934 16.474 16.474 0 0 0-2.5 5.64A17.227 17.227 0 0 0 0 15.179v2.704c.059.3.035.615.075.92a15.811 15.811 0 0 0 1.073 4A16.611 16.611 0 0 0 13.6 32.84c.506.091 1.018.088 1.524.166H17.7c.358-.059.722-.032 1.08-.079a16.119 16.119 0 0 0 5.953-2.046 16.264 16.264 0 0 0 5.275-4.818 16.407 16.407 0 0 0 2.771-6.62 19.986 19.986 0 0 0 .176-4.067m-10.4-4.325A2.354 2.354 0 1 1 20.2 13.4a2.357 2.357 0 0 1 2.35-2.346m-12.164 0A2.354 2.354 0 1 1 8.04 13.4a2.355 2.355 0 0 1 2.347-2.35m15.22 10.52a1.5 1.5 0 0 1-.3.766 10.75 10.75 0 0 1-17.666-.01A1.422 1.422 0 0 1 7.9 20.3a1.4 1.4 0 0 1 2.02.29 8.712 8.712 0 0 0 2.689 2.444 7.9 7.9 0 0 0 9.665-1.534c.3-.318.548-.686.838-1.015a1.414 1.414 0 0 1 1.64-.359 1.441 1.441 0 0 1 .855 1.449" data-name="Path 382"/></g></svg>
