<svg xmlns="http://www.w3.org/2000/svg" version="1.1" xmlns:xlink="http://www.w3.org/1999/xlink" xmlns:svgjs="http://svgjs.com/svgjs" width="512" height="512" x="0" y="0" viewBox="0 0 763 763.752" style="enable-background:new 0 0 512 512" xml:space="preserve" class=""><g><path d="M487.266 676.363h-74.907V239.41a12.485 12.485 0 0 0-19.703-10.187l-47.984 33.976-6.543-20.144 111.398-80.934a12.497 12.497 0 0 0 4.536-13.96 12.49 12.49 0 0 0-11.875-8.626H304.48L261.937 8.585A12.483 12.483 0 0 0 250.078 0a12.5 12.5 0 0 0-11.867 8.586l-42.563 130.95H57.941c-5.41 0-10.199 3.48-11.875 8.624a12.497 12.497 0 0 0 4.536 13.961L162 243.055l-42.543 130.941a12.498 12.498 0 0 0 4.52 13.984 12.487 12.487 0 0 0 14.691-.011l111.394-80.934 16.231 11.774L93.035 441.457a12.487 12.487 0 0 0-5.27 10.188v224.718H12.86c-6.89 0-12.484 5.586-12.484 12.485v62.422c0 6.89 5.594 12.484 12.484 12.484h474.407c6.894 0 12.484-5.594 12.484-12.484v-62.422c0-6.899-5.59-12.485-12.484-12.485Zm-237.204-397.25c-2.636 0-5.203.828-7.34 2.383l-87.636 63.672 33.473-103.04a12.483 12.483 0 0 0-4.536-13.952l-87.656-63.672h108.344c5.406 0 10.2-3.48 11.867-8.625l33.484-103.035 33.489 103.035a12.472 12.472 0 0 0 11.863 8.625h108.348l-87.653 63.672a12.467 12.467 0 0 0-4.539 13.953l33.477 103.039-87.645-63.672a12.435 12.435 0 0 0-7.34-2.383ZM112.734 458.098l174.88-123.805 73.847 53.676a12.494 12.494 0 0 0 14.68.011 12.506 12.506 0 0 0 4.535-13.964l-27.926-85.922 34.64-24.555v412.824H112.735Zm362.047 280.687H25.344v-37.453H474.78Zm0 0" style="stroke:none;fill-rule:nonzero;fill-opacity:1;" fill="#fe4e4e" data-original="#fe4e4e" class=""></path></g></svg>