<svg xmlns="http://www.w3.org/2000/svg" version="1.1" xmlns:xlink="http://www.w3.org/1999/xlink" xmlns:svgjs="http://svgjs.com/svgjs" width="512" height="512" x="0" y="0" viewBox="0 0 682.667 682.667" style="enable-background:new 0 0 512 512" xml:space="preserve" class=""><g><defs><clipPath id="a" clipPathUnits="userSpaceOnUse"><path d="M0 512h512V0H0Z" fill="#32478a" data-original="#32478a"></path></clipPath></defs><path d="m0 0-50-106-50 106" style="stroke-width:20;stroke-linecap:round;stroke-linejoin:round;stroke-miterlimit:10;stroke-dasharray:none;stroke-opacity:1" transform="matrix(1.33333 0 0 -1.33333 408 66.667)" fill="none" stroke="#32478a" stroke-width="20" stroke-linecap="round" stroke-linejoin="round" stroke-miterlimit="10" stroke-dasharray="none" stroke-opacity="" data-original="#32478a" class=""></path><g clip-path="url(#a)" transform="matrix(1.33333 0 0 -1.33333 0 682.667)"><path d="M0 0c-38.66-26.667-101.34-26.667-140 0" style="stroke-width:20;stroke-linecap:round;stroke-linejoin:round;stroke-miterlimit:10;stroke-dasharray:none;stroke-opacity:1" transform="translate(326 476)" fill="none" stroke="#32478a" stroke-width="20" stroke-linecap="round" stroke-linejoin="round" stroke-miterlimit="10" stroke-dasharray="none" stroke-opacity="" data-original="#32478a" class=""></path><path d="m0 0-50-106-50 106" style="stroke-width:20;stroke-linecap:round;stroke-linejoin:round;stroke-miterlimit:10;stroke-dasharray:none;stroke-opacity:1" transform="translate(166 462)" fill="none" stroke="#32478a" stroke-width="20" stroke-linecap="round" stroke-linejoin="round" stroke-miterlimit="10" stroke-dasharray="none" stroke-opacity="" data-original="#32478a" class=""></path><path d="M0 0c-38.66-26.667-101.34-26.667-140 0" style="stroke-width:20;stroke-linecap:round;stroke-linejoin:round;stroke-miterlimit:10;stroke-dasharray:none;stroke-opacity:1" transform="translate(186 476)" fill="none" stroke="#32478a" stroke-width="20" stroke-linecap="round" stroke-linejoin="round" stroke-miterlimit="10" stroke-dasharray="none" stroke-opacity="" data-original="#32478a" class=""></path><path d="m0 0-50-106-50 106" style="stroke-width:20;stroke-linecap:round;stroke-linejoin:round;stroke-miterlimit:10;stroke-dasharray:none;stroke-opacity:1" transform="translate(446 462)" fill="none" stroke="#32478a" stroke-width="20" stroke-linecap="round" stroke-linejoin="round" stroke-miterlimit="10" stroke-dasharray="none" stroke-opacity="" data-original="#32478a" class=""></path><path d="M0 0c-38.66-26.667-101.34-26.667-140 0" style="stroke-width:20;stroke-linecap:round;stroke-linejoin:round;stroke-miterlimit:10;stroke-dasharray:none;stroke-opacity:1" transform="translate(466 476)" fill="none" stroke="#32478a" stroke-width="20" stroke-linecap="round" stroke-linejoin="round" stroke-miterlimit="10" stroke-dasharray="none" stroke-opacity="" data-original="#32478a" class=""></path><path d="M0 0v-120" style="stroke-width:20;stroke-linecap:round;stroke-linejoin:round;stroke-miterlimit:10;stroke-dasharray:none;stroke-opacity:1" transform="translate(186 476)" fill="none" stroke="#32478a" stroke-width="20" stroke-linecap="round" stroke-linejoin="round" stroke-miterlimit="10" stroke-dasharray="none" stroke-opacity="" data-original="#32478a" class=""></path><path d="m0 0 18.541-39.502L60-45.836 30-76.584 37.082-120 0-99.502-37.082-120-30-76.584l-30 30.748 41.459 6.334z" style="stroke-width:20;stroke-linecap:round;stroke-linejoin:round;stroke-miterlimit:10;stroke-dasharray:none;stroke-opacity:1" transform="translate(186 356)" fill="none" stroke="#32478a" stroke-width="20" stroke-linecap="round" stroke-linejoin="round" stroke-miterlimit="10" stroke-dasharray="none" stroke-opacity="" data-original="#32478a" class=""></path><path d="M0 0v-160" style="stroke-width:20;stroke-linecap:round;stroke-linejoin:round;stroke-miterlimit:10;stroke-dasharray:none;stroke-opacity:1" transform="translate(326 476)" fill="none" stroke="#32478a" stroke-width="20" stroke-linecap="round" stroke-linejoin="round" stroke-miterlimit="10" stroke-dasharray="none" stroke-opacity="" data-original="#32478a" class=""></path><path d="m0 0 18.541-39.502L60-45.836 30-76.584 37.082-120 0-99.502-37.082-120-30-76.584l-30 30.748 41.459 6.334z" style="stroke-width:20;stroke-linecap:round;stroke-linejoin:round;stroke-miterlimit:10;stroke-dasharray:none;stroke-opacity:1" transform="translate(326 316)" fill="none" stroke="#32478a" stroke-width="20" stroke-linecap="round" stroke-linejoin="round" stroke-miterlimit="10" stroke-dasharray="none" stroke-opacity="" data-original="#32478a" class=""></path><path d="m0 0-20-20L0-40l-20-20L0-80l-20-20 20-20" style="stroke-width:20;stroke-linecap:round;stroke-linejoin:round;stroke-miterlimit:10;stroke-dasharray:none;stroke-opacity:1" transform="translate(30 396)" fill="none" stroke="#32478a" stroke-width="20" stroke-linecap="round" stroke-linejoin="round" stroke-miterlimit="10" stroke-dasharray="none" stroke-opacity="" data-original="#32478a" class=""></path><path d="m0 0 20-20L0-40l20-20L0-80l20-20-20-20" style="stroke-width:20;stroke-linecap:round;stroke-linejoin:round;stroke-miterlimit:10;stroke-dasharray:none;stroke-opacity:1" transform="translate(482 254)" fill="none" stroke="#32478a" stroke-width="20" stroke-linecap="round" stroke-linejoin="round" stroke-miterlimit="10" stroke-dasharray="none" stroke-opacity="" data-original="#32478a" class=""></path><path d="M0 0h-220" style="stroke-width:20;stroke-linecap:round;stroke-linejoin:round;stroke-miterlimit:10;stroke-dasharray:none;stroke-opacity:1" transform="translate(366 116)" fill="none" stroke="#32478a" stroke-width="20" stroke-linecap="round" stroke-linejoin="round" stroke-miterlimit="10" stroke-dasharray="none" stroke-opacity="" data-original="#32478a" class=""></path><path d="M0 0h80L50 40l30 40H0V-40h-220V80h-80l30-40-30-40h80" style="stroke-width:20;stroke-linecap:round;stroke-linejoin:round;stroke-miterlimit:10;stroke-dasharray:none;stroke-opacity:1" transform="translate(366 76)" fill="none" stroke="#32478a" stroke-width="20" stroke-linecap="round" stroke-linejoin="round" stroke-miterlimit="10" stroke-dasharray="none" stroke-opacity="" data-original="#32478a" class=""></path><path d="M0 0c0-22.092-17.909-40-40-40 22.091 0 40-17.908 40-40 0 22.092 17.909 40 40 40C17.909-40 0-22.092 0 0" style="fill-opacity:1;fill-rule:nonzero;stroke:none" transform="translate(76 276)" fill="#32478a" data-original="#32478a"></path><path d="M0 0c0-22.092-17.909-40-40-40M0 0c0-22.092 17.909-40 40-40" style="stroke-width:20;stroke-linecap:round;stroke-linejoin:round;stroke-miterlimit:10;stroke-dasharray:none;stroke-opacity:1" transform="translate(76 276)" fill="none" stroke="#32478a" stroke-width="20" stroke-linecap="round" stroke-linejoin="round" stroke-miterlimit="10" stroke-dasharray="none" stroke-opacity="" data-original="#32478a" class=""></path><path d="M0 0c0 22.092 17.909 40 40 40M0 0c0 22.092-17.909 40-40 40" style="stroke-width:20;stroke-linecap:round;stroke-linejoin:round;stroke-miterlimit:10;stroke-dasharray:none;stroke-opacity:1" transform="translate(76 196)" fill="none" stroke="#32478a" stroke-width="20" stroke-linecap="round" stroke-linejoin="round" stroke-miterlimit="10" stroke-dasharray="none" stroke-opacity="" data-original="#32478a" class=""></path><path d="M0 0c0-22.092-17.908-40-40-40 22.092 0 40-17.908 40-40 0 22.092 17.908 40 40 40C17.908-40 0-22.092 0 0" style="fill-opacity:1;fill-rule:nonzero;stroke:none" transform="translate(446 346)" fill="#32478a" data-original="#32478a"></path><path d="M0 0c0-22.092-17.908-40-40-40M0 0c0-22.092 17.908-40 40-40" style="stroke-width:20;stroke-linecap:round;stroke-linejoin:round;stroke-miterlimit:10;stroke-dasharray:none;stroke-opacity:1" transform="translate(446 346)" fill="none" stroke="#32478a" stroke-width="20" stroke-linecap="round" stroke-linejoin="round" stroke-miterlimit="10" stroke-dasharray="none" stroke-opacity="" data-original="#32478a" class=""></path><path d="M0 0c0 22.092 17.908 40 40 40M0 0c0 22.092-17.908 40-40 40" style="stroke-width:20;stroke-linecap:round;stroke-linejoin:round;stroke-miterlimit:10;stroke-dasharray:none;stroke-opacity:1" transform="translate(446 266)" fill="none" stroke="#32478a" stroke-width="20" stroke-linecap="round" stroke-linejoin="round" stroke-miterlimit="10" stroke-dasharray="none" stroke-opacity="" data-original="#32478a" class=""></path></g></g></svg>