
<svg xmlns="http://www.w3.org/2000/svg" xml:space="preserve" width="512" height="512" style="enable-background:new 0 0 512 512" viewBox="0 0 66 66"><path d="M32.29 15.31c2.63 0 4.78-2.14 4.78-4.78 0-2.63-2.14-4.77-4.78-4.77s-4.78 2.14-4.78 4.77c0 2.64 2.15 4.78 4.78 4.78zm0-7.62c1.57 0 2.85 1.28 2.85 2.85s-1.28 2.85-2.85 2.85-2.85-1.28-2.85-2.85c0-1.58 1.28-2.85 2.85-2.85zM15.13 41.92c-2.63 0-4.78 2.14-4.78 4.77s2.14 4.78 4.78 4.78 4.78-2.14 4.78-4.78a4.79 4.79 0 0 0-4.78-4.77zm0 7.62c-1.57 0-2.85-1.28-2.85-2.85s1.28-2.85 2.85-2.85 2.85 1.28 2.85 2.85-1.28 2.85-2.85 2.85zm35.74 1.93c2.63 0 4.78-2.14 4.78-4.78 0-2.63-2.14-4.77-4.78-4.77s-4.78 2.14-4.78 4.77c.01 2.63 2.15 4.78 4.78 4.78zm0-7.63c1.57 0 2.85 1.28 2.85 2.85s-1.28 2.85-2.85 2.85-2.85-1.28-2.85-2.85 1.28-2.85 2.85-2.85z" fill="#32478a" data-original="#32478a"/><path d="M64.74 51.08c0-7.65-6.22-13.87-13.87-13.87-3.39 0-6.49 1.22-8.9 3.25l-8.72-5.55v-6.17c3.41-.24 6.48-1.69 8.77-3.95.01-.01.02-.02.04-.03 2.53-2.51 4.1-5.99 4.1-9.83 0-7.65-6.22-13.87-13.86-13.87-7.65 0-13.87 6.22-13.87 13.87 0 3.83 1.56 7.3 4.08 9.81.02.03.05.05.08.07a13.84 13.84 0 0 0 8.75 3.94v6.3L25 41.36c-2.52-2.56-6.01-4.15-9.88-4.15-7.65 0-13.87 6.22-13.87 13.87 0 3.83 1.56 7.3 4.07 9.81.03.03.05.05.08.07 2.5 2.46 5.93 3.98 9.71 3.98 3.79 0 7.22-1.53 9.73-4 .01-.01.03-.02.04-.04 2.53-2.51 4.1-5.99 4.1-9.83 0-3.09-1.03-5.93-2.74-8.24l6.17-6.17 8.14 5.18C38.35 44.3 37 47.53 37 51.08c0 3.83 1.56 7.29 4.07 9.81l.08.08c2.5 2.46 5.93 3.98 9.71 3.98 3.79 0 7.22-1.53 9.73-4l.04-.04c2.54-2.52 4.11-5.99 4.11-9.83zm-57.55 8.9c1.41-3.09 4.51-5.13 7.93-5.13s6.52 2.05 7.93 5.14c-2.11 1.88-4.88 3.04-7.93 3.04-3.04-.01-5.81-1.17-7.93-3.05zm17.29-1.5c-1.85-3.38-5.43-5.56-9.35-5.56s-7.51 2.18-9.36 5.55c-1.61-2.04-2.59-4.6-2.59-7.4 0-6.58 5.36-11.94 11.94-11.94s11.94 5.36 11.94 11.94c.01 2.81-.96 5.37-2.58 7.41zm-.12-34.66c1.41-3.09 4.51-5.13 7.93-5.13s6.52 2.05 7.93 5.14c-2.11 1.88-4.88 3.04-7.93 3.04a11.89 11.89 0 0 1-7.93-3.05zm7.93-20.84c6.58 0 11.94 5.36 11.94 11.94 0 2.8-.97 5.37-2.59 7.4-1.85-3.38-5.43-5.56-9.35-5.56s-7.51 2.18-9.36 5.55c-1.61-2.04-2.59-4.6-2.59-7.4.01-6.57 5.37-11.93 11.95-11.93zm18.58 36.16c6.58 0 11.94 5.36 11.94 11.94 0 2.8-.97 5.37-2.59 7.4-1.85-3.38-5.43-5.56-9.35-5.56s-7.51 2.18-9.36 5.55c-1.61-2.04-2.58-4.6-2.58-7.4 0-6.58 5.36-11.93 11.94-11.93zm-7.93 20.84c1.41-3.09 4.51-5.13 7.93-5.13s6.52 2.05 7.93 5.14c-2.11 1.88-4.88 3.04-7.93 3.04a11.96 11.96 0 0 1-7.93-3.05z" fill="#32478a" data-original="#32478a"/></svg>