<svg width="48" height="48" viewBox="0 0 48 48" fill="none" xmlns="http://www.w3.org/2000/svg"><path d="M0 24.3553L0.0413294 24.4327C3.12103 30.1572 10.0003 33.0203 19.2327 30.7998L19.9403 30.6296L20.3791 30.5238C24.293 29.3753 28.314 27.1587 31.0586 25.1181L31.3482 24.8968L31.5955 25.1734C37.8336 32.2592 37.7241 39.4404 32.9833 44.3174L32.785 44.5137L32.4195 44.6957C32.3127 44.7464 32.1912 44.8026 32.0557 44.8637C31.37 45.1725 30.5862 45.4821 29.7188 45.7715C24.7357 47.4338 19.5118 47.7019 14.6522 45.7062C14.2824 45.5543 13.9164 45.3896 13.5544 45.2117C5.26726 41.6546 0.165557 32.7229 0.00506933 24.7549L0 24.3553ZM36.9157 4.73172L37.2209 4.77911L37.0972 4.69655C38.3164 5.47992 40.0772 6.93821 41.8454 9.034C44.7293 12.4523 46.5766 16.4347 46.8795 20.9538L46.9339 21.466C47.7792 30.5107 42.5874 39.277 35.7734 43.1462L35.568 43.2584L35.5853 43.2312C38.9256 37.6891 38.264 31.9538 34.3912 26.5361L34.0229 26.0355C30.8792 21.8803 25.9074 18.1588 21.4607 16.1911L20.9896 15.9892L21.0695 15.7357C23.6382 7.81652 28.8774 3.56343 36.9157 4.73172ZM33.9718 2.56553L34.2814 2.73806L34.1275 2.73207C27.6767 2.5953 21.813 7.12165 19.1361 16.172L18.9294 16.8711L18.8139 17.2195C17.7897 21.1364 17.735 25.2262 18.0827 28.7036L18.1424 29.2403L17.8807 29.2997C9.72637 31.0303 3.42976 28.6323 0.43495 21.1204L0.322435 20.8304L0.348486 20.5378L0.417107 19.9294C0.445041 19.7135 0.478196 19.4848 0.517062 19.2444C0.740058 17.8648 1.10112 16.3911 1.63076 14.8869C3.13846 10.605 5.68144 6.94378 9.50227 4.38247C16.7559 -1.03811 27.0124 -1.1733 33.9718 2.56553Z" fill="currentColor"></path></svg>