<svg xmlns="http://www.w3.org/2000/svg" width="77.158" height="30.653" viewBox="0 0 77.158 30.653"><path id="Path_356" data-name="Path 356" d="M65.392,154.3c-6.059.365-8.894,3.48-10.32,8.046-2.5,7.978-4.015,13.142-5.469,16.439-2.825-8.463-3.845-23.921-12.032-23.921l-16.387-.01c-7.064,0-16.8,13.222-21.185,30.1H7.524c6.208-.318,9.085-3.521,10.531-8.147,1.125-3.59,2.075-6.7,2.885-9.236,1.95-2.736,2.458-5.1,4.275-7.015h1.549c2.78,8.5,3.853,23.725,11.985,23.725l15.345,0c6.273,0,12.6-11.265,23.064-29.977Z" transform="translate(0 -154.299)" fill="#32478a"></path></svg>