<svg width="38" height="44" viewBox="0 0 38 44" fill="none" xmlns="http://www.w3.org/2000/svg"><path d="M28.4388 8.0501C26.2428 6.67233 24.1359 6.13107 22.0388 4.7533C20.7529 3.88727 18.9427 1.80094 17.4391 0C17.1721 2.88347 16.3016 4.05457 15.263 4.87139C13.156 6.5444 11.8206 7.05614 9.97088 8.0501C8.40798 8.86692 0 14.624 0 25.3509C0 36.0975 9.08062 44 19.1702 44C29.2301 44 37.9843 36.7175 37.9843 25.6954C37.9843 14.6437 29.7742 8.86692 28.4388 8.0501ZM28.6861 40.093C26.6978 42.0711 19.7736 42.9175 17.1424 40.5064C16.6676 40.034 17.1721 39.3254 17.7854 39.3254C17.7854 39.3254 19.467 40.6343 22.8796 40.6343C25.5504 40.6343 27.4298 39.8765 28.2706 39.2565C28.874 38.8038 29.1015 39.6797 28.6861 40.093ZM23.2951 34.9166C24.1556 34.5623 26.1637 34.5426 26.9352 35.0445C27.3408 35.3201 28.5278 36.8947 27.5485 37.3769C26.7176 37.7902 27.4298 35.8318 24.9272 35.8318C23.4731 35.8318 22.9983 36.3435 22.2861 36.9143C21.5937 37.5048 21.3167 37.7016 21.0793 37.3769C20.4858 36.5699 22.6521 35.1823 23.2951 34.9166ZM32.4449 36.6191C30.9414 36.5207 27.9442 31.8166 26.0153 31.7477C22.9587 31.6591 15.718 39.6896 10.0599 35.881C6.22191 33.2633 8.61571 25.5674 15.1838 25.5281C20.0802 25.4789 23.4731 30.3503 25.9164 30.3011C28.0233 30.2715 32.0295 26.1874 34.0078 26.1874C38.8251 26.1874 36.3126 36.9439 32.4449 36.6191Z" fill="#32478a"></path></svg>