<svg width="40" height="44" viewBox="0 0 40 44" fill="none" xmlns="http://www.w3.org/2000/svg"><g><path d="M33.935 33.429L34.2944 33.5851L34.375 33.5266V39.4275L34.2265 39.633L26.6784 44H26.1317L26.1291 35.8188L33.935 33.429ZM5.5 33.8099L12.9294 35.9891L13.7445 35.9879L13.7432 44H13.196L5.5 40.1803V33.8099ZM24.75 35.9879V44H15.125V35.9879H24.75ZM39.0308 30.2431L39.0308 34.2662L35.836 39.6204V32.9271L35.8624 32.9192L37.1759 31.5507L39.0308 30.2431ZM4.125 4.125V10.6512L13.1268 8.01145H25.3732L33.9923 10.6512L34.1215 10.6097L38.3613 13.6063L38.5 13.8735L37.1609 14.0183V15.0885L33.9923 13.4239L25.3732 11.4499H13.1268L4.125 13.4239V19.9345L13.1268 19.5938H25.3732L33.9923 19.9345L34.054 19.9042L38.209 20.2871L38.5 20.3508L37.1609 20.3699V22.2736L38.5 22.2926L38.2159 22.4298L34.1886 22.7726L33.9923 22.6834L25.3732 23.0312H13.1268V23.0229L4.125 22.6875V29.2035L13.1268 31.1767L25.3732 31.1744L34.0178 29.2118L34.1215 28.9978L36.9854 27.4719L37.1609 27.5412V28.6239L38.5 28.7699L38.3167 29.0641L34.1327 32.0164L34.0178 31.9666L25.3732 34.6141H13.1268L4.125 31.9744V38.5L0 33.2799V28.7223L0.0560957 28.764L1.33908 28.6239V27.5191L0 26.8074V22.27L0.213856 22.2902L1.33908 22.2736V20.3699L0.0348906 20.3508L0 20.3544V15.8188L1.33908 15.1105V14.0183L0.0348906 13.8777L0 13.9027V9.34434L4.125 4.125ZM5.5 24.1147L11.7508 24.3471L11.7518 24.4062L13.7459 24.4049V29.799L13.2688 29.8004L5.5 28.0968V24.1147ZM24.75 24.4049V29.7976L15.125 29.799V24.4049H24.75ZM33.7205 24.0708L33.947 24.1731L34.375 24.1354V27.3034L33.0797 27.9949L33.0674 28.017L26.1291 29.5914L26.1278 24.3746L33.7205 24.0708ZM39.0308 23.562V27.4423L38.5358 27.39L38.5359 26.6057L36.8994 25.9598L35.8353 26.5251V24.0116L38.5854 23.7783L39.0308 23.562ZM35.8353 15.9459L38.5359 17.3641L38.5358 15.9541L39.0308 16.3343L39.0308 19.0589L38.5033 18.9439L38.3352 18.9179L35.8353 18.6876V15.9459ZM26.1264 13.0309L33.5074 14.7235L34.375 15.1786V18.5529L33.7946 18.4994L33.6985 18.546L26.1278 18.2463L26.1264 13.0309ZM13.7486 12.8233L13.7473 18.2188L13.1268 18.2188L5.5 18.5061V14.5296L13.2701 12.8246L13.7486 12.8233ZM24.75 12.8233V18.2188H15.125V12.8233H24.75ZM35.836 4.362L39.0308 9.7167L39.0308 12.3956L35.8353 10.1365L35.836 4.362ZM26.6784 0L34.2265 4.36338L34.375 4.56988V9.10525L34.3547 9.09079L33.9818 9.20975L26.1264 6.8035L26.125 0H26.6784ZM13.75 0L13.7486 6.63575L12.9294 6.63645L5.5 8.81375V3.81425L13.196 0H13.75ZM24.75 0V6.63575H15.125V0H24.75Z" fill="currentColor"></path></g></svg>