<svg width="31" height="46" viewBox="0 0 31 46" fill="none" xmlns="http://www.w3.org/2000/svg"><g><path d="M24.9702 12.8187C25.5123 12.2755 26.2914 12.5889 26.4142 13.3465L30.3456 37.5584L16.58 45.2352C15.7145 45.7176 14.6611 45.7174 13.7961 45.2345L0.155096 37.6109L24.9702 12.8187ZM15.9627 8.81171L16.0366 8.93414L19.8588 16.2125L15.8599 20.561L0.531859 35.8319L0.114771 36.0013L0 36.1168L12.2303 12.7459L14.4327 8.86256C14.7694 8.21407 15.5654 8.23624 15.9627 8.81171ZM5.23293 0.821682C5.37765 -0.098752 6.48921 -0.30837 6.92706 0.513876L12.1929 10.4728L0.340972 32.9637L0.149489 33.3372L5.23293 0.821682Z" fill="#32478a"></path></g></svg>