<svg width="48" height="39" viewBox="0 0 48 39" fill="none" xmlns="http://www.w3.org/2000/svg"><path d="M9.82935 6.34299C16.6813 -1.4203 28.5325 -2.15861 36.2957 4.69336L36.284 4.79092L36.3682 4.70745C38.9921 7.03444 40.9083 10.0469 41.908 13.4013L42.0332 13.8407C46.9821 17.1882 49.1548 23.3844 47.3844 29.0917C45.6101 34.797 40.3092 38.6696 34.3343 38.6233H23.9115L23.853 38.5649L13.4746 38.5649C10.6498 38.5765 7.89675 37.7027 5.60105 36.0704L5.29088 35.8431L5.30498 35.7829L5.29289 35.7968C0.792367 32.3361 -1.0648 26.4449 0.607696 21.044L0.710156 20.7269C1.69709 17.7951 3.62111 15.3712 6.08245 13.7444L5.96625 13.7766L5.78979 13.8407C6.54218 11.0645 7.92424 8.49957 9.82935 6.34299ZM30.4838 10.636C26.1988 7.1678 19.9524 7.64257 16.2408 11.7183C16.2042 11.711 16.162 11.7243 16.1169 11.7517L16.4078 11.8103C19.5095 12.4872 22.31 14.2414 24.2776 16.8121L18.2324 22.8573C17.7093 21.7026 16.7839 20.7772 15.6292 20.2541C13.0059 19.0692 9.91988 20.234 8.73497 22.8573C7.55006 25.4806 8.71485 28.5666 11.3382 29.7515C12.0052 30.0649 12.7359 30.2223 13.4746 30.2223H23.8974L23.897 30.2919L23.9115 30.2786H34.3343C37.2111 30.2786 39.5447 27.947 39.5447 25.0682C39.5447 22.1914 37.2131 19.8578 34.3343 19.8578V18.8178C34.3946 15.6251 32.9864 12.5814 30.514 10.5616L30.602 10.6359L30.4838 10.636Z" fill="#32478a"></path></svg>