<svg width="54" height="39" viewBox="0 0 54 39" fill="none" xmlns="http://www.w3.org/2000/svg"><path d="M39.1672 2.25499C42.5405 -0.828112 47.8028 -0.739007 51.0652 2.45645C54.2455 5.58839 57.856 14.2149 44.1184 24.2762C40.1525 27.1822 38.7619 32.9821 38.6746 38.031C38.6677 38.4646 38.3068 38.8125 37.8639 38.8125H34.2035C33.7943 38.8125 33.4494 38.514 33.399 38.1165C33.0371 35.3979 30.6713 33.364 27.871 33.364C25.0706 33.364 22.7048 35.3979 22.3429 38.1165C22.2925 38.514 21.9476 38.8125 21.5385 38.8125H17.8344C17.4239 38.8125 17.077 38.5149 17.0237 38.1165C16.673 35.3905 14.3051 33.3459 11.4987 33.3459C8.69235 33.3459 6.32448 35.3905 5.97378 38.1165C5.92343 38.514 5.57846 38.8125 5.16936 38.8125H1.36549C0.976708 38.8084 0.643862 38.5386 0.567302 38.1654C-1.52171 27.3288 2.36946 18.7877 8.77991 14.3554L12.1161 20.0026C12.9241 21.3527 14.4027 22.1822 16.001 22.1821C16.7615 22.1852 17.5095 21.9937 18.1711 21.6266L19.7363 20.7718H19.7862C21.627 19.6653 23.3652 18.4028 24.9806 16.9989C25.1556 16.8426 25.2533 16.6202 25.2488 16.3884C25.2474 16.1499 25.1349 15.925 24.9432 15.7778L24.8415 15.7042C24.5242 15.5079 24.1068 15.5324 23.8145 15.7778C22.2807 17.1143 20.6326 18.3194 18.8882 19.3799L17.323 20.2407L17.3916 20.1919L17.3043 20.2407C15.9698 20.9688 14.2855 20.5151 13.5192 19.2211L9.98967 13.2442C9.60272 12.5792 9.51737 11.7861 9.75425 11.0567C9.99112 10.3274 10.5287 9.72819 11.2368 9.40409C31.8276 -0.187066 40.9007 18.458 47.6978 11.8034C49.1068 10.43 49.5288 8.35925 48.7659 6.56163C48.003 4.76401 46.2065 3.5957 44.2182 3.60422C43.1585 3.60111 42.127 3.93776 41.2811 4.56272C40.9564 4.80098 40.5023 4.76978 40.2148 4.48946L39.1485 3.40886C38.9937 3.25371 38.9065 3.04576 38.9053 2.82887C38.911 2.61106 39.0053 2.4045 39.1672 2.25499ZM37.5818 15.7212C37.263 15.0272 36.4918 14.6461 35.7321 14.8071C34.9724 14.9681 34.4313 15.6274 34.4342 16.3884L37.0532 17.6765C37.6803 17.233 37.9007 16.4152 37.5818 15.7212Z" fill="#32478a"></path></svg>