<svg width="43" height="58" viewBox="0 0 43 58" fill="none" xmlns="http://www.w3.org/2000/svg"><g class="mix-blend-mode-luminosity"><path d="M13.608 44.312s-2.187 1.273 1.56 1.7c3.951.557 7.971.388 11.862-.5a20.705 20.705 0 0 0 3.156 1.539c-11.212 4.808-25.388-.279-16.578-2.739Zm-1.37-6.272s-2.456 1.816 1.295 2.206a46.316 46.316 0 0 0 15.31-.735 6.758 6.758 0 0 0 2.357 1.437c-13.562 3.967-28.666.312-18.962-2.908ZM23.794 27.399c2.765 3.183-.725 6.047-.725 6.047s7.019-3.622 3.794-8.16c-3.009-4.231-5.318-6.332 7.179-13.578 0-.009-19.616 4.89-10.248 15.69Z" fill="#32478a" class="mix-blend-mode-luminosity"></path><path d="M38.63 48.954s1.619 1.335-1.785 2.367c-6.474 1.961-26.948 2.553-32.637.079-2.042-.891 1.791-2.124 3-2.384a7.787 7.787 0 0 1 1.975-.222c-2.274-1.6-14.695 3.145-6.309 4.506 22.87 3.707 41.69-1.669 35.758-4.346h-.002ZM14.663 31.539s-10.414 2.475-3.687 3.373a78.1 78.1 0 0 0 13.776-.15c4.31-.36 8.636-1.135 8.636-1.135-.909.395-1.784.863-2.618 1.4C20.192 37.81-.236 36.512 5.647 33.67a19.678 19.678 0 0 1 9.017-2.132l-.001.002Zm18.683 10.442c10.75-5.585 5.78-10.954 2.31-10.23-.419.078-.83.188-1.231.331a1.96 1.96 0 0 1 .919-.708c6.864-2.412 12.142 7.116-2.214 10.89a.94.94 0 0 0 .215-.282h.001ZM26.866 0s5.953 5.956-5.647 15.112c-9.3 7.348-2.121 11.537 0 16.323-5.432-4.9-9.415-9.213-6.743-13.226 3.923-5.893 14.795-8.75 12.392-18.21L26.866 0Z" fill="#32478a" class="mix-blend-mode-luminosity"></path><path d="M15.72 57.125c10.318.66 26.166-.366 26.541-5.25 0 0-.722 1.85-8.528 3.32a84.772 84.772 0 0 1-26.115.4s1.32 1.089 8.103 1.53Z" fill="#32478a" class="mix-blend-mode-luminosity"></path></g></svg>