<svg width="40" height="54" viewBox="0 0 40 54" fill="none" xmlns="http://www.w3.org/2000/svg"><path d="M27.8689 1.8184C29.0301 2.68933 30.8788 4.53806 31.5359 5.88264C32.2943 7.40618 32.6997 9.37385 32.8173 11.4649C32.9942 11.6334 33.1681 11.8046 33.3389 11.979C36.8682 15.5848 39.0532 20.581 39.0532 26.0969C39.0532 29.8 38.0628 33.2746 36.3385 36.2503C36.7734 36.4378 37.1383 36.7742 37.3877 37.3116C37.8004 38.1824 38.2739 39.634 38.4725 40.5354C38.7628 41.7884 38.1516 44.4469 36.8529 44.8593C35.707 45.2261 34.3778 45.2109 33.0027 44.9358C32.8346 44.7983 32.6666 44.569 32.5291 44.3245C31.5513 44.294 30.6192 44.3706 29.8551 44.7831C29.9315 45.5164 29.4426 45.6234 28.969 45.7763C28.6328 47.136 29.6565 48.9083 29.4121 50.1306C29.244 51.0168 28.1592 51.1543 27.3648 51.3071C27.3341 51.7961 27.3952 52.2086 27.4564 52.6212C27.2731 53.2935 26.4632 53.6753 25.684 53.7671C23.1325 54.0726 19.2669 54.2101 16.8223 53.3239C16.1346 51.6434 15.5999 49.6112 15.0345 47.7014C12.651 47.961 10.7106 46.6775 8.8924 45.822C8.266 45.5318 7.39507 45.3636 7.15054 44.8595C6.92141 44.3706 7.01303 43.4385 6.9519 42.5676C6.9257 42.1397 6.89951 41.7145 6.87025 41.2908C6.46989 40.9438 6.08463 40.5792 5.71434 40.1993C2.18503 36.5935 0 31.5973 0 26.0969C0 20.5964 2.18503 15.6001 5.71434 11.979C6.16134 11.5223 6.63016 11.0875 7.11906 10.6762C7.18494 8.72796 7.7213 7.12074 9.09104 6.50905C9.73269 3.95754 12.0244 3.11725 14.179 1.84904C14.9888 1.37539 15.8749 1.06988 16.7916 0.733583C20.0765 -0.473342 25.134 -0.244214 27.8689 1.8184ZM14.8359 39.6188C15.3402 44.2177 16.0582 48.0679 17.3874 52.1475C20.3363 53.0489 23.881 53.1253 26.4938 52.3155C26.0202 50.0238 26.2188 47.2277 25.9438 44.7677C25.7298 42.919 25.8368 41.0702 25.5465 39.1909C22.3837 38.534 17.9223 39.0381 14.8359 39.6188ZM26.6313 46.097C26.5854 47.243 26.7382 49.0612 26.7993 50.2681C27.5634 50.2681 27.8841 50.1001 28.4496 49.9167C28.5107 48.511 28.0064 47.2123 27.8537 45.9289C27.548 45.822 26.998 46.1123 26.6313 46.097ZM11.9023 25.8217C9.50357 26.7691 7.25756 28.404 5.25593 29.9623C7.16579 34.0724 7.9451 39.0992 8.0826 43.9426C10.2676 44.9663 12.1926 46.4484 15.172 46.6012C14.8206 44.1719 14.5151 41.9869 14.3165 39.695C13.5678 39.3743 12.4982 39.7104 11.7955 39.6034C11.7955 38.7631 12.8649 39.2367 12.9565 38.6715C13.0178 38.2435 12.3606 38.2131 12.5746 37.5408C13.1246 37.7394 13.4149 38.1824 13.9956 38.3506C14.5304 37.1894 13.9956 35.1268 14.072 34.1488C14.0874 33.9656 14.1636 33.1404 14.5761 33.2779C14.9429 33.4002 14.5609 35.4934 14.5915 36.4101C14.622 37.2658 14.4845 38.0756 14.8359 38.6103C17.7084 38.2131 20.6267 37.9685 23.7435 37.8769C23.056 37.5867 22.2462 37.3116 21.36 36.8073C20.8711 36.5323 19.3585 35.9671 19.221 35.5086C18.9917 34.7752 19.8015 34.3933 19.939 33.7668C18.4876 34.5613 18.2126 33.003 17.8612 31.9181C17.5555 30.9249 17.3723 30.1763 17.2959 29.6109C16.0277 28.9693 14.6831 28.3734 13.6135 27.6094C13.4149 27.4719 12.0857 25.7453 11.9023 25.8217ZM27.8384 39.0381C27.3036 39.0535 26.8298 39.0381 26.2952 39.2213C26.2645 41.1925 26.3868 43.1481 26.5397 45.1191C27.3035 45.0122 27.8078 44.9358 28.5107 44.7677C28.2814 42.8731 28.3121 40.7188 27.8384 39.0381ZM34.7139 37.1587C33.6596 37.831 31.8109 38.0297 31.047 38.8395C31.4288 40.1229 31.5511 41.8648 31.7039 43.4842C33.018 43.5608 34.6222 43.1178 35.7224 43.5913C34.9583 43.8358 33.9805 43.8358 33.3235 44.2024C33.8735 44.4622 35.1265 44.4165 35.9515 44.2178C37.0822 43.9426 37.785 42.5676 37.4641 41.1466C37.2502 40.1993 36.8836 38.3965 36.4709 37.7851C36.1806 37.3421 35.3708 36.7462 34.7139 37.1587ZM29.0148 38.9006C29.1828 40.505 29.5649 42.2773 29.7024 43.9733C30.2372 43.9885 30.5274 43.7288 30.9706 43.6524C31.0011 42.1703 30.8483 40.1229 30.1301 38.9006C29.7635 38.8242 29.351 38.9006 29.0148 38.9006ZM35.9515 41.7884C34.9278 41.8037 33.6596 41.7884 32.6818 41.7119C33.2623 41.0855 35.2945 41.4828 35.9515 41.7884ZM35.6306 40.2757C34.7139 40.3674 33.6444 40.5202 32.7277 40.4438C33.1707 39.7715 34.8514 40.0159 35.6306 40.2757ZM35.1417 38.534C34.0264 38.7631 33.2471 39.8479 32.147 39.7715C32.7582 38.9311 33.7971 38.5644 35.1417 38.534ZM7.219 12.1584L7.53217 11.8737C7.19557 12.1716 6.8695 12.482 6.55462 12.8041C3.2392 16.2113 1.17644 20.9021 1.17644 26.0969C1.17644 31.2916 3.2392 35.9823 6.55462 39.3895L6.72556 39.5605C6.6006 38.342 6.41537 37.1195 6.09637 35.86C5.8366 34.8211 5.36294 33.9197 5.04204 32.9266C4.73654 32.0098 4.217 30.8639 4.07949 29.9471C3.88085 28.5874 5.16431 28.5109 5.97411 27.9149C7.24232 26.9983 8.23536 26.494 9.61043 25.6689C10.0231 25.4246 11.2453 24.8134 11.3828 24.523C11.658 23.9579 10.9093 23.1633 10.7106 22.7201C10.3897 22.0174 10.2216 21.4214 10.1759 20.7338C9.02991 20.5505 8.14374 19.863 7.62435 19.0991C6.75326 17.8156 6.1421 15.4473 6.90617 13.6597C6.9673 13.5222 7.25756 13.2318 7.30345 13.0179C7.35804 12.763 7.28786 12.4592 7.219 12.1584ZM29.4883 24.7675C29.1676 25.2718 28.4342 25.6078 28.1592 26.0205C30.1608 25.0579 30.5274 29.6416 29.7329 31.1237C29.8551 31.5667 30.2677 31.7348 30.4358 32.1319C29.3203 34.1336 28.0829 35.9975 26.9368 37.9685C27.7773 37.4338 28.9996 37.8769 29.9926 37.4796C30.3594 37.3421 30.6192 36.5018 30.8942 35.8295C31.658 33.9961 32.4525 31.6735 32.8041 29.932C32.8804 29.5347 33.1096 28.6636 33.0484 28.3122C32.9568 27.6706 32.1011 27.1969 31.658 26.8149C30.8483 26.0815 30.344 25.4552 29.4883 24.7675ZM22.781 32.071C21.635 32.8347 20.3822 33.5683 20.0461 34.9586C21.6961 35.8907 23.6062 36.7921 25.4701 37.3574C24.6756 35.4934 23.9576 33.5683 22.781 32.071ZM27.4259 31.5972C27.3494 33.4613 27.1355 35.9059 26.6466 37.3574C27.823 35.8448 28.7857 34.1029 29.7788 32.3917C29.351 31.7042 28.4648 31.1083 27.4259 31.5972ZM32.8512 13.1765L32.8412 13.5883C32.775 15.6892 32.4517 17.8059 31.9331 19.6339C31.765 20.2144 31.5359 21.0547 31.1997 21.7576C30.9706 22.2465 30.2524 23.209 30.3288 23.6368C30.4206 24.08 31.979 25.2564 32.3152 25.5773C32.9111 26.1578 34.0569 26.9219 34.1485 27.6553C34.2555 28.4345 33.8125 29.5041 33.5834 30.2527C32.8498 32.7585 32.1165 35.0656 31.2761 37.3116C32.2816 36.8133 33.7824 36.1197 35.0856 36.0557L34.9843 36.2216C36.8125 33.2993 37.8766 29.8281 37.8766 26.0969C37.8766 21.0887 35.9597 16.5492 32.8512 13.1765ZM25.2104 30.818V30.8181C24.7672 30.7721 24.3853 31.3375 23.8046 31.093C23.6671 31.2458 23.5449 31.3987 23.4074 31.5514C24.6908 33.1097 25.2867 35.3102 26.2799 37.1282C26.8147 35.3713 26.7536 33.4613 26.8759 31.5514C26.1424 31.5819 25.7299 30.8639 25.2104 30.818ZM25.9131 33.8127C26.1424 33.8127 26.3104 33.9808 26.3104 34.2099C26.3104 34.424 26.1272 34.6072 25.9131 34.6072C25.6993 34.6072 25.5159 34.424 25.5159 34.2099C25.5159 33.9959 25.6993 33.8127 25.9131 33.8127ZM17.9528 30.0236C17.9987 30.9096 18.4571 31.8417 18.6557 32.4376C18.7474 32.7126 18.7778 33.0029 19.0071 33.064C19.4197 33.1558 20.7947 32.621 21.1768 32.407C22.0018 31.9639 22.6435 31.2459 23.3464 30.7569L23.3769 30.0541C22.9491 29.84 22.4755 29.7027 21.8489 29.6722C22.2616 29.4582 22.888 29.4582 23.2699 29.2138C23.2699 29.122 23.2699 29.0304 23.2853 28.9386C22.5823 28.8622 22.3226 28.5567 21.8489 28.297C21.1002 27.8843 19.9697 27.4413 18.9917 27.258C17.7848 27.0288 17.9069 28.9081 17.9528 30.0236ZM25.5159 31.9639C25.7452 31.9639 25.9131 32.1472 25.9131 32.3612C25.9131 32.5751 25.7299 32.7585 25.5159 32.7585C25.302 32.7585 25.1186 32.5751 25.1186 32.3612C25.1186 32.1472 25.302 31.9639 25.5159 31.9639ZM18.9214 27.6131C19.7969 27.7774 20.8883 28.183 21.6669 28.612L22.0589 28.8656L22.2541 28.9869L22.4352 29.0827L22.4092 29.0902C22.0553 29.1696 21.8768 29.2213 21.6803 29.3195L20.3955 29.9619L21.8301 30.0334L22.1265 30.0595C22.3193 30.0841 22.5035 30.1232 22.6838 30.1768L22.9888 30.2819L22.9767 30.5398L22.7813 30.6879L22.2292 31.1442L22.0961 31.2572C21.6306 31.6505 21.331 31.8747 20.9937 32.062C20.5159 32.3194 19.503 32.6736 19.1737 32.6884L19.1139 32.684C19.1198 32.6799 19.1203 32.6767 19.12 32.6723L19.0135 32.3032L18.7012 31.4778C18.5321 31.0252 18.4247 30.6681 18.3678 30.3288L18.3432 30.1548L18.3217 29.8046C18.31 29.526 18.304 29.3328 18.3032 29.1501L18.3036 29.0138C18.3087 28.4917 18.3627 28.1024 18.4742 27.8556C18.5738 27.6349 18.6871 27.5687 18.9214 27.6131ZM25.5465 28.3429C25.6229 28.5567 25.7452 28.7247 25.7604 28.9998C26.1731 28.8929 26.6618 28.9693 27.0132 29.1373C26.6007 29.1831 26.1577 29.1831 25.8827 29.3818C25.7909 29.672 25.9131 30.0541 25.8368 30.4514C26.7993 30.7264 27.9148 30.8639 29.1371 30.9096C29.3662 30.6041 29.4579 30.0234 29.4274 29.4277C29.3969 28.7247 29.2133 27.2733 28.7703 27.0135C27.8537 26.4787 26.2341 28.0983 25.5465 28.3429ZM28.5844 27.3569C28.7808 27.4721 29.011 28.5266 29.0506 29.4589L29.0557 29.6865C29.0532 29.9836 29.0145 30.2527 28.9485 30.4557L28.914 30.5383L28.6399 30.5278C27.8077 30.482 27.0381 30.3754 26.3461 30.2102L26.2304 30.1793L26.2142 29.7014L26.2153 29.6438L26.293 29.6219C26.3496 29.6077 26.4181 29.5954 26.5032 29.5839L27.0548 29.5275L28.3663 29.3821L27.176 28.8125L26.9749 28.729C26.6972 28.6299 26.3852 28.5801 26.0888 28.59L26.0509 28.5924L26.0298 28.5366L26.2488 28.4017L26.8892 27.9715L27.22 27.7587C27.3216 27.6961 27.4162 27.641 27.5081 27.591C28.02 27.3127 28.3778 27.2398 28.5844 27.3569ZM23.7894 28.9386C23.7435 29.4734 23.8658 29.6416 23.9726 30.2527C25.7145 30.8027 25.4242 27.8538 23.7894 28.9386ZM24.8051 29.4561L24.81 29.574C24.8012 29.8356 24.65 29.9993 24.3624 29.9894L24.3024 29.9806L24.1857 29.4655L24.1633 29.3086L24.1563 29.1643L24.242 29.1244C24.585 28.9835 24.769 29.1315 24.8051 29.4561ZM14.6679 26.9983C14.0415 27.6399 16.4248 28.4956 17.1736 28.5415C17.1736 28.1442 17.4028 27.7623 17.3569 27.4719C16.4555 27.3192 15.279 27.426 14.6679 26.9983ZM26.2188 26.9676C25.027 27.0747 23.5296 27.8081 22.3684 27.2885C22.3686 27.3497 22.2921 27.3344 22.2768 27.3803C23.0866 28.0067 23.6824 28.1441 24.7672 28.0831C25.2563 27.7317 25.6993 27.3039 26.2188 26.9676ZM18.671 1.74202C16.7457 2.70457 14.1485 4.29353 13.2622 6.29532C14.0872 8.23551 13.0178 10.0079 12.9413 11.9789C12.9108 13.0332 13.4303 13.9348 13.476 15.0807C13.1858 15.5544 12.3301 15.6001 11.7343 15.5696C11.5357 14.561 11.1843 13.4305 10.1452 13.3082C8.67852 13.1402 7.59371 14.3625 7.53257 15.6307C7.4562 17.1281 8.67852 19.6032 10.4202 19.4352C11.0925 19.3741 11.2607 18.7018 11.9939 18.7018C12.3912 19.4963 11.3829 19.7407 11.2759 20.306C11.2453 20.4589 11.3523 21.0242 11.4287 21.2992C11.7496 22.5979 12.4524 24.2939 13.1399 25.2871C14.0261 26.5551 15.7527 26.7385 17.6167 26.8608C17.9528 26.1426 19.1751 26.2037 19.9695 26.3871C19.0071 26.0052 18.121 25.0884 17.3875 24.2786C16.5471 23.3465 15.6916 22.3535 15.6457 21.1312C17.25 23.3465 18.564 25.2871 21.467 26.265C23.6671 26.9983 26.234 25.9287 27.93 24.737C28.6328 24.248 29.0453 23.4536 29.5496 22.7506C31.4136 20.0616 32.2845 16.2417 32.1011 12.529C32.0248 11.0012 32.0248 9.47324 31.5052 8.44955C30.9706 7.37998 29.1523 6.40218 28.0828 7.37998C27.8841 6.32581 28.969 5.68401 30.237 6.06604C29.3357 4.8896 28.3884 3.49913 27.0896 2.76571C24.8437 1.49765 21.0545 0.550342 18.671 1.74202ZM21.3143 20.6116C22.1698 22.7506 25.0881 22.5063 27.548 22.4451C27.4411 22.7201 27.2118 23.0563 26.9063 23.1632C26.1118 23.4841 23.9422 23.7286 22.8421 23.1479C22.1546 22.7813 21.6961 21.9408 21.3143 21.4519C21.1461 21.2228 20.2295 20.6269 21.3143 20.6116ZM21.5434 19.4198C22.7657 20.0616 25.027 20.138 26.7077 20.0921C26.7993 20.4589 26.7993 20.9172 26.7993 21.3603C24.6451 21.4519 22.1087 20.9172 21.5434 19.4198ZM30.7719 18.61C30.1149 19.863 29.1828 21.2381 27.2577 21.2839C27.2118 20.8867 27.1814 20.2603 27.2577 20.0157C28.7398 19.863 29.6565 19.1143 30.7719 18.61ZM26.4479 11.2915C27.0132 12.6054 28.4343 14.3014 29.4579 15.4321C29.7176 15.7071 30.1301 15.9821 30.176 16.1655C30.2998 16.633 29.9162 17.1995 29.8828 17.5644L29.8858 17.6779C28.4801 18.5795 26.9062 19.5727 24.584 19.3434C24.0951 18.9157 23.8964 17.953 24.3853 17.3267C24.6297 17.7545 24.4769 18.549 25.1799 18.6711C26.4938 18.9004 28.0216 17.8613 28.969 17.5101C29.5495 16.5169 28.9232 16.1655 28.3884 15.5237C27.3036 14.225 25.8674 12.6054 25.9131 10.6651C26.3563 10.3442 26.3868 11.154 26.4479 11.2915ZM11.303 16.579L11.2758 16.7308C10.8328 16.471 10.7259 15.371 10.2063 15.3403C9.45768 15.2946 9.59519 16.7767 9.59519 17.6475C9.09104 17.1892 8.99927 15.7528 9.36606 15.0196C8.93829 14.8055 8.75474 15.2487 8.51037 15.4015C8.8243 13.2343 11.6385 14.3276 11.303 16.579ZM12.6051 6.58558C11.1232 6.70769 9.91609 7.30361 9.04516 8.28156C8.09785 9.33573 8.29649 11.2915 8.40351 12.697C10.13 11.6124 12.4066 12.7888 12.3912 14.6223C13.2163 14.6069 12.6969 13.5986 12.5441 12.9416C12.0551 10.8178 13.3692 8.52593 12.6051 6.58558ZM21.6504 9.82478C22.0782 10.6039 22.2155 11.4137 22.8115 11.9944C23.0866 12.254 23.606 12.5749 23.3464 13.3082C23.2853 13.4763 22.8421 13.8584 22.5823 13.9348C21.6504 14.2098 19.4654 13.9959 20.1988 12.8193C20.978 12.8499 22.0171 13.3236 22.5977 12.7582C22.1546 12.0554 21.36 10.6497 21.6504 9.82478ZM30.3288 9.79398C30.7719 10.7108 31.1538 11.6888 31.7193 12.5138C31.3374 13.4 28.8773 14.1639 28.9078 12.6054C29.4426 12.3763 30.3594 12.5595 30.8331 12.254C30.5581 11.5054 30.176 10.8636 30.2372 9.79414V9.79398H30.3288ZM19.8627 6.41743C20.3516 6.47856 21.0239 6.93697 20.6572 7.56338C18.6862 7.10497 17.7084 8.38842 17.1125 9.71761C16.5777 9.5955 16.7916 8.86207 16.9293 8.49544C17.2805 7.53289 18.7016 6.23404 19.8627 6.41743ZM15.8596 2.18519C13.7053 2.79635 10.9398 4.37006 10.0536 6.31041C10.7411 6.20355 11.2148 5.8674 11.8871 5.82151C12.1469 5.80627 12.483 5.92853 12.7733 5.85216C13.3538 5.6994 13.8581 4.38531 14.3011 3.89641C14.729 3.42275 15.2484 3.20887 15.5999 2.7811C15.8291 2.67409 16.1651 2.67409 16.1805 2.33794C16.0888 2.23092 15.9818 2.1547 15.8596 2.18519Z" fill="currentColor"></path></svg>