<svg xmlns="http://www.w3.org/2000/svg" width="53.438" height="53.438" viewBox="0 0 53.438 53.438"><g id="Group_4006" data-name="Group 4006" transform="translate(0.541 0.512)" fill="#32478a"><path id="Path_212" data-name="Path 212" d="M25.486,36.178A10.693,10.693,0,1,0,14.793,25.486,10.693,10.693,0,0,0,25.486,36.178Z" transform="translate(0.706 0.704)"></path><path id="Path_213" data-name="Path 213" d="M48.013,8.045A3.673,3.673,0,0,0,41.928,5.27a26.209,26.209,0,1,0,5.182,5.181,3.654,3.654,0,0,0,.9-2.409ZM26.19,51.5A25.308,25.308,0,1,1,41.334,5.928a3.674,3.674,0,0,0,5.122,5.122A25.3,25.3,0,0,1,26.19,51.5Z" transform="translate(0 0)" stroke="#32478a" stroke-width="1"></path></g></svg>