<svg id="Group_3870" data-name="Group 3870" xmlns="http://www.w3.org/2000/svg" width="42.306" height="33.123" viewBox="0 0 42.306 33.123"><g id="Group_3869" data-name="Group 3869"><path id="Path_4591" data-name="Path 4591" d="M215.1,70.578q-1.608.08-3.216.16-3.191.155-6.382.306c-1.755.081-3.51.183-5.267.227-5.852.146-11.7.028-17.557.063-.035,0-.07-.005-.129-.01a.529.529,0,0,1,.34-.179c1.1-.336,2.235-.551,3.363-.782,2.343-.479,4.7-.906,7.052-1.322q3.847-.681,7.7-1.351c.515-.091,1.028-.189,1.567-.289a4.875,4.875,0,0,0-.541-.681q-4.091-4.875-8.189-9.744c-.48-.571-.954-1.146-1.439-1.712a.312.312,0,0,1-.059-.358q2.074-5.691,4.139-11.385.522-1.436,1.045-2.872c.033-.091.071-.181.107-.273.123.028.14.139.185.216q1.982,3.4,3.956,6.807,3.438,5.94,6.87,11.883,3.213,5.563,6.422,11.128c.018.03.031.063.047.095a.048.048,0,0,1-.009.074" transform="translate(-172.818 -38.223)" fill="#32478a"></path><path id="Path_4592" data-name="Path 4592" d="M23.4.034c-.116.255-.231.511-.349.765Q19.735,7.9,16.417,15.009,13.146,22.02,9.883,29.035a.409.409,0,0,1-.438.277c-2.993,0-5.986,0-8.979,0-.157,0-.418.027-.45-.042-.069-.148.107-.293.189-.434q2.635-4.576,5.276-9.148,2.586-4.48,5.169-8.962a1.9,1.9,0,0,1,.476-.492q3.508-2.945,7.02-5.884L23.209.114,23.35,0,23.4.034" transform="translate(0)" fill="#32478a"></path></g></svg>