<svg data-name="Group 988" xmlns="http://www.w3.org/2000/svg" width="20" height="42.39" viewBox="0 0 12.964 27.484"><g data-name="Group 987"><path data-name="Path 964" d="M10.907 5.959C9.747 3.829 8.039 2.1 6.662.134 6.508-.086 6.421 0 6.3.159c-.462.614-.91 1.241-1.4 1.83a23.153 23.153 0 0 0-3.771 5.88 13.079 13.079 0 0 0-1 6.995 14.7 14.7 0 0 0 5.346 9.182.819.819 0 0 1 .316.632c.051.8.156 1.6.21 2.395.025.375.224.4.528.411.335.012.436-.128.459-.429.061-.8.153-1.6.208-2.4a.754.754 0 0 1 .291-.6A15.179 15.179 0 0 0 10.2 21.2a13.279 13.279 0 0 0 2.769-8.047 14.8 14.8 0 0 0-2.057-7.19M6.485 23.944c-.253.007-.674-.568-.659-.9q.248-5.3.5-10.6c.022-.483.054-.966.083-1.449a.1.1 0 0 1 .168 0l.437 9.451c.041.866.094 1.732.14 2.6.017.323-.4.89-.665.9" fill="#32478a"></path></g></svg>