<svg width="85" height="44" viewBox="0 0 85 44" fill="none" xmlns="http://www.w3.org/2000/svg"><g><path d="M34.8887 30.7862C34.9102 30.7862 34.8887 40.6231 34.8887 40.6661C34.9102 43.0986 31.8799 43.6108 30.493 43.6533H21.7016V41.7757L21.9569 41.7763C23.4003 41.7795 30.4741 41.7946 30.493 41.7757C32.2855 41.6049 32.0722 40.7087 32.0722 40.4098V39.6843H26.1613C23.4085 39.6417 21.6585 38.4465 21.6375 37.0596C21.6375 36.9319 21.7016 30.8713 21.6375 30.8073H24.4114V36.8678C24.3903 37.2093 24.518 37.9773 26.0547 37.9984C26.8228 38.0199 32.0507 37.9984 32.0932 37.9984V30.7862H34.8887ZM60.7516 26.9448C61.0074 26.9448 61.2423 26.9448 61.5197 26.9879C63.8454 27.3078 65.0406 28.3323 65.0406 30.0181V36.6329C65.0406 37.9984 64.5284 38.7239 63.3758 39.1936L66.1286 41.669H62.8851L60.666 39.6843L58.4253 39.8124H55.4596C54.9474 39.8124 54.4137 39.7483 53.8163 39.5776C52.0453 39.1084 51.1916 38.1691 51.1916 36.6329V30.0181C51.1916 28.3323 52.3653 27.3078 54.7126 26.9879C54.9474 26.9448 55.2248 26.9448 55.4596 26.9448H60.7516ZM18.0099 26.9238C18.836 27.1858 19.2624 27.6572 19.3073 28.6076L19.3112 28.7804V39.7699H16.5373V28.7589L12.2267 38.3614C11.715 39.5135 11.032 39.9191 9.66613 39.9191C8.36276 39.9191 7.68124 39.5495 7.17648 38.5139L7.10552 38.3614L2.79543 28.7589V39.7699H0V28.7804C0 27.7134 0.426609 27.2012 1.32287 26.9238C3.36493 26.2844 4.78892 26.8012 5.44061 28.128L5.50526 28.2682L9.60252 37.7215L13.8275 28.2682C14.4674 26.8382 15.8974 26.2623 18.0099 26.9238ZM49.5273 26.9023V28.7589H41.568C41.4824 28.7589 41.3758 28.7804 41.2907 28.7804C40.3088 28.8655 40.0103 29.0363 39.8822 29.6126C39.8678 29.6693 39.863 29.7167 39.8615 29.7674L39.8607 29.8474V31.1062C39.8607 31.1913 39.8607 31.2769 39.8822 31.362C40.0032 32.0676 40.4856 32.4114 41.4917 32.4474L41.6747 32.4506H45.046C45.8781 32.4506 46.7318 32.5787 47.4358 32.8561C48.6691 33.321 49.347 34.0348 49.4149 34.7801L49.4206 34.9045V36.9529C49.4206 37.9348 48.8228 38.6813 47.6281 39.2361C46.9751 39.5435 46.1664 39.7299 45.3268 39.7641L45.046 39.7699H37.0442V37.9133H44.726C44.8327 37.9133 44.9183 37.8917 45.0249 37.8917C45.5582 37.8492 45.9637 37.7215 46.1986 37.5077C46.4413 37.321 46.5694 37.1018 46.5976 36.9211L46.6037 36.8463V35.2245C46.6037 35.0327 46.5396 34.883 46.3903 34.7123C46.113 34.3923 45.75 34.2431 44.8542 34.1575C44.7686 34.1364 44.6619 34.1364 44.5553 34.1364H41.6747C41.3973 34.1364 41.141 34.1149 40.8636 34.1149C38.5742 33.8676 37.1616 32.8623 37.07 31.658L37.0652 31.5328V29.911C37.0652 28.4815 37.7907 27.6708 39.4551 27.1371C39.9507 26.9985 40.4826 26.9148 41.4617 26.9036L41.6957 26.9023H49.5273ZM69.5645 26.9023V36.5263C69.5645 37.4684 70.1348 37.8799 71.6339 37.9113L71.8262 37.9133H79.124V39.7699H71.8687C71.6129 39.7699 71.3355 39.7483 71.0796 39.7268C68.2859 39.52 66.8768 38.5104 66.794 36.6985L66.7901 36.5263V26.9023H69.5645ZM81.3646 37.9133V38.2332H80.8098V39.7699H80.4043V38.2332H79.8495V37.9133H81.3646ZM82.346 37.9133L82.8372 39.1936L83.3279 37.9133H83.8827V39.7699H83.5197V38.3614H83.4986L82.9649 39.7699H82.6875L82.1542 38.3614V39.7699H81.7702V37.9133H82.346ZM60.4527 28.8014H56.2277C54.99 28.8014 54.2003 29.3352 54.2003 30.1673V36.4622C54.2003 36.5689 54.2219 36.6545 54.2429 36.7611C54.4137 37.5292 55.1392 37.9558 56.2277 37.9558H58.7668L56.441 35.8649H59.6846L61.7114 37.6784C62.0744 37.4866 62.3303 37.1877 62.4159 36.8037C62.437 36.697 62.437 36.6114 62.437 36.5263V30.1673C62.437 30.1033 62.437 30.0181 62.4159 29.9325C62.2452 29.207 61.5197 28.8014 60.4527 28.8014ZM58.0628 1.33873C58.3827 1.53051 58.7242 1.93607 59.0442 2.06425C59.5779 2.10681 60.1112 2.12786 60.6449 2.1709C61.6478 2.40573 62.5867 2.59751 63.3758 3.04564C67.0675 5.20068 69.4363 7.39877 71.6554 11.0264C72.1036 11.7945 72.3599 12.6266 72.7224 13.4588C73.2557 14.6966 73.8535 15.9769 74.4724 17.172C74.7708 17.7268 74.9631 18.3457 75.3471 18.8149C75.5179 19.0286 75.9445 19.0923 76.1793 19.1989C76.9048 19.5619 77.737 19.8393 78.42 20.2874C79.6362 21.0555 80.8313 21.9733 81.9194 22.9121C82.2851 23.2048 82.5256 23.6384 82.8288 23.9982L82.9864 24.1709V24.3632L81.962 24.6616C81.2154 24.8539 80.5535 24.8113 79.8284 25.0031C79.4013 25.1102 78.8466 25.2805 78.3769 25.3446C78.3769 25.3661 78.3984 25.3661 78.42 25.3871C78.6973 26.1557 80.191 26.8171 80.8524 27.2868C81.5921 27.8177 82.2982 28.45 82.8806 29.1533L83.093 29.4203L83.7334 30.0607C83.8356 30.2313 83.8833 30.443 83.9749 30.6193L84.0534 30.7436V30.7862C83.776 30.6796 83.6053 30.4232 83.392 30.2525C82.9223 29.911 82.4527 29.5269 81.962 29.2285C81.1723 28.7163 80.2335 28.4389 79.3803 27.9267C78.9107 27.6278 78.4625 27.2868 78.0359 26.9448C77.6303 26.6464 77.1822 26.0701 76.9048 25.6435C76.7767 25.4086 76.7341 25.1313 76.5633 24.9605C76.6274 24.5549 77.1181 24.5549 77.4381 24.4273C78.5692 23.9366 79.871 23.7869 81.5779 23.8294C81.5354 23.3813 80.4684 22.848 80.1269 22.6132C79.4229 22.1225 78.7184 21.5893 77.9718 21.1622C77.5878 20.9273 76.9259 20.7356 76.5208 20.5648C75.9445 20.33 74.6642 20.0952 74.3227 19.647C73.7038 18.8149 73.2557 17.7909 72.8291 16.7665C72.381 15.7636 71.8047 14.6966 71.357 13.6511C71.1432 13.1389 71.0366 12.6907 70.7807 12.2C69.2015 9.19129 66.9183 6.67325 64.1018 4.90225C63.184 4.30442 62.1596 3.77116 61.029 3.42968C60.48 3.26489 59.8373 3.32005 59.2348 3.24491L58.9375 3.19486H58.5109C58.1269 3.0882 57.8064 2.68312 57.4865 2.46934C56.825 2.0212 56.1636 1.72277 55.395 1.38129C55.0966 1.27464 54.307 0.975726 54.0296 1.18903C53.8589 1.25312 53.7948 1.3172 53.7307 1.48794C53.5815 1.74381 53.7307 2.12786 53.8373 2.36268C54.1578 3.04564 54.6059 3.4512 55.011 4.02703C55.374 4.5182 55.8006 5.09403 56.078 5.67034C56.6333 6.86503 56.8676 8.18838 57.3798 9.38307C57.5931 9.83121 57.8705 10.3434 58.1694 10.7275C58.4043 11.0479 58.8093 11.3038 58.9375 11.7093C59.2149 12.1359 58.5535 13.5444 58.4043 13.9926C57.849 15.742 57.9772 18.1749 58.596 19.6901C58.8524 20.2874 59.0872 20.9914 59.7697 21.1622C59.8123 21.1196 59.7912 21.1411 59.8763 21.0981C60.0045 19.9459 60.0686 18.8149 60.4527 17.8976C60.7085 17.3213 61.1567 16.9157 61.4766 16.425C61.7114 16.5747 61.7114 16.9587 61.8186 17.2146C62.0955 17.876 62.3944 18.6016 62.7359 19.263C63.4614 20.6289 64.251 21.9518 65.1257 23.1469C65.4457 23.5736 65.8728 24.0432 66.2568 24.4273C66.3762 24.5466 66.5231 24.625 66.6427 24.75L66.7265 24.8539H66.7901V24.8964C66.1286 24.6831 65.7231 24.0217 65.2324 23.6376C64.251 22.9121 63.0989 21.8026 62.4585 20.7566C62.2592 20.3727 62.0601 19.9886 61.8674 19.5982L61.5837 19.0071V18.9646C61.4556 19.1353 61.4981 19.306 61.434 19.5404C61.1567 20.6289 61.37 21.8236 60.4101 22.2292C59.3005 22.6773 58.5109 21.5036 58.1694 20.9704C57.0599 19.1779 56.7825 16.2117 57.529 13.8003C57.6998 13.267 57.7213 12.6266 58.0202 12.2C57.9772 11.816 57.6572 11.7093 57.4865 11.4745C57.1876 11.0689 56.9317 10.5993 56.6969 10.1516C56.2487 9.27642 55.9503 8.23094 55.5873 7.2706C55.4381 6.88655 55.4166 6.52403 55.2458 6.16103C54.99 5.60625 54.5418 5.05147 54.1788 4.56077C53.6671 3.85629 52.2371 2.49086 52.8134 1.1039C53.7097 -1.11523 56.8466 0.570161 58.0628 1.33873ZM59.8123 5.28629C60.0045 5.45703 60.2604 5.56368 60.4101 5.77699C60.5167 5.92621 60.5378 6.0759 60.6449 6.2036C60.6449 6.68396 60.5411 7.0086 60.3024 7.20853L60.2178 7.2706L60.1537 7.33468C60.0045 6.99321 59.8338 6.65173 59.6846 6.31025C59.5139 6.0715 59.2885 5.87346 59.1177 5.62896L59.0016 5.43551H58.9375V5.39294C59.2149 5.32886 59.4713 5.28629 59.8123 5.28629Z" fill="#32478a"></path></g></svg>