<svg width="68" height="44" viewBox="0 0 68 44" fill="none" xmlns="http://www.w3.org/2000/svg"><path d="M45.7184 7.84113e-05C45.6544 0.000120822 45.5916 0.0168163 45.5361 0.0485208C45.481 0.0808052 45.4352 0.126907 45.4033 0.182283C45.3713 0.237659 45.3544 0.3004 45.3541 0.364325V9.65481C45.3541 9.74595 45.3117 9.82764 45.2328 9.87339C45.1941 9.89594 45.1501 9.90782 45.1053 9.90782C45.0605 9.90782 45.0165 9.89594 44.9778 9.87339L43.4603 8.99906C43.3496 8.93499 43.224 8.90125 43.0961 8.90125C42.9682 8.90125 42.8426 8.93499 42.7319 8.99906L36.6742 12.4965C36.4478 12.6273 36.3101 12.8787 36.3101 13.1403V20.1354C36.3101 20.3967 36.4479 20.636 36.6742 20.7669L42.7319 24.2645C42.8426 24.3287 42.9682 24.3626 43.0961 24.3626C43.224 24.3626 43.3497 24.3287 43.4603 24.2645L49.518 20.7669C49.6289 20.703 49.721 20.611 49.785 20.5001C49.849 20.3892 49.8825 20.2634 49.8823 20.1354V2.69614C49.8821 2.56513 49.8472 2.43651 49.7811 2.32341C49.715 2.21031 49.6201 2.11678 49.5061 2.05238L45.9004 0.036368C45.8439 0.0048045 45.7811 -0.000765533 45.7184 7.84113e-05ZM6.74967 8.73187C6.63426 8.73642 6.5256 8.75668 6.42201 8.81677L0.364111 12.3144C0.253143 12.3782 0.161012 12.4702 0.097065 12.5811C0.0331183 12.692 -0.000368168 12.8178 3.05315e-06 12.9459L0.0121512 22.3337C0.0121512 22.4642 0.0794724 22.5856 0.194205 22.6494C0.249211 22.6824 0.312173 22.6999 0.376344 22.6999C0.440515 22.6999 0.503476 22.6824 0.558482 22.6494L4.15181 20.5849C4.37942 20.4495 4.52807 20.2142 4.52807 19.9533V15.5692C4.52807 15.3075 4.66558 15.0675 4.89235 14.9376L6.42184 14.0511C6.53242 13.9868 6.6582 13.9532 6.78611 13.9539C6.91097 13.9539 7.0392 13.9851 7.15022 14.0511L8.67988 14.9376C8.79095 15.0013 8.88317 15.0933 8.94716 15.2042C9.01114 15.3152 9.04461 15.4411 9.04416 15.5692V19.9531C9.04416 20.2141 9.19432 20.451 9.42041 20.5847L13.0137 22.6494C13.0688 22.6824 13.1317 22.6999 13.1959 22.6999C13.2601 22.6999 13.323 22.6824 13.378 22.6494C13.4334 22.6173 13.4794 22.5713 13.5113 22.5158C13.5433 22.4604 13.5602 22.3975 13.5602 22.3336L13.5721 12.9459C13.5728 12.8178 13.5394 12.6918 13.4755 12.5808C13.4115 12.4699 13.3192 12.3779 13.2079 12.3144L7.15022 8.81677C7.04781 8.75668 6.93881 8.73659 6.82256 8.73187H6.74967ZM61.1843 8.81677C61.0578 8.81677 60.9338 8.84884 60.8202 8.91399L54.7625 12.4116C54.6516 12.4755 54.5595 12.5675 54.4955 12.6784C54.4315 12.7892 54.398 12.9151 54.3982 13.0431V20.0382C54.3982 20.3013 54.5464 20.5397 54.7745 20.6698L60.7838 24.0945C61.0057 24.2211 61.2766 24.2307 61.5 24.1063L65.142 22.0783C65.2575 22.0142 65.3356 21.8944 65.3362 21.7627C65.3368 21.6986 65.3202 21.6355 65.2882 21.58C65.2562 21.5244 65.2099 21.4785 65.1541 21.4469L59.0599 17.9493C58.9459 17.8841 58.8657 17.7523 58.8657 17.6213V15.4355C58.8657 15.3047 58.9467 15.1848 59.0599 15.1197L60.9537 14.0266C61.009 13.9946 61.0719 13.9777 61.1358 13.9777C61.1998 13.9777 61.2626 13.9946 61.318 14.0266L63.2116 15.1197C63.267 15.1516 63.3131 15.1976 63.3451 15.253C63.3771 15.3084 63.3939 15.3713 63.3938 15.4353V17.1598C63.3936 17.2238 63.4104 17.2867 63.4423 17.3422C63.4743 17.3976 63.5204 17.4436 63.5758 17.4755C63.6894 17.5411 63.8267 17.5413 63.9399 17.4755L67.5699 15.3627C67.6806 15.2986 67.7726 15.2066 67.8365 15.0957C67.9005 14.9848 67.9341 14.8591 67.9342 14.7311V13.0432C67.9342 12.7825 67.7958 12.5426 67.5699 12.4116L61.5486 8.91399C61.4379 8.84994 61.3122 8.81644 61.1843 8.81694V8.81677ZM43.0717 14.0389C43.1035 14.0389 43.1406 14.0467 43.1689 14.0631L45.2449 15.2653C45.3013 15.2979 45.3421 15.3582 45.3421 15.4232V17.8277C45.3421 17.8931 45.3016 17.9531 45.2449 17.9857L43.1689 19.188C43.1412 19.2038 43.1098 19.2122 43.0779 19.2122C43.046 19.2122 43.0146 19.2038 42.9869 19.188L40.911 17.9857C40.8545 17.953 40.8139 17.8931 40.8139 17.8277V15.4232C40.8139 15.358 40.8547 15.2983 40.911 15.2653L42.9869 14.0632C43.0124 14.0474 43.0419 14.039 43.0719 14.0391V14.0389H43.0717Z" fill="currentColor"></path><path d="M24.9468 8.78034C24.8205 8.78034 24.6957 8.81241 24.5826 8.87756L18.5249 12.363C18.2983 12.4935 18.1606 12.7454 18.1606 13.0066V20.0018C18.1606 20.2634 18.2985 20.5024 18.5249 20.6334L24.5826 24.1308C24.6933 24.1951 24.8189 24.229 24.9468 24.229C25.0748 24.229 25.2004 24.1951 25.311 24.1308L31.3688 20.6334C31.4797 20.5695 31.5717 20.4774 31.6357 20.3665C31.6996 20.2556 31.7331 20.1298 31.7329 20.0018V13.0066C31.7329 12.745 31.5952 12.4935 31.3688 12.363L25.311 8.87756C25.2003 8.81358 25.0746 8.78004 24.9468 8.78034ZM61.1718 15.0227C61.1477 15.0227 61.1208 15.0227 61.0991 15.0348L59.9337 15.7149C59.912 15.7269 59.8938 15.7445 59.881 15.7659C59.8682 15.7872 59.8612 15.8115 59.8608 15.8364V17.1722C59.8608 17.2225 59.8898 17.2686 59.9337 17.2937L61.0991 17.9616C61.1428 17.9869 61.1893 17.9869 61.2325 17.9616L62.3979 17.2935C62.4196 17.2814 62.4377 17.2638 62.4505 17.2425C62.4632 17.2212 62.4702 17.197 62.4708 17.1722V15.8362C62.4702 15.8114 62.4632 15.7871 62.4505 15.7659C62.4377 15.7446 62.4196 15.727 62.3979 15.7149L61.2325 15.0346C61.2109 15.022 61.1961 15.0228 61.1718 15.0228V15.0227Z" fill="currentColor"></path><path d="M33.9138 28.4185C33.7039 28.4185 33.4997 28.4618 33.319 28.5641L27.6013 31.8673C27.2313 32.0807 27.0063 32.4834 27.0063 32.912V39.5064C27.0063 39.9346 27.2313 40.3368 27.6013 40.5507L29.0945 41.413C29.82 41.7707 30.0874 41.7651 30.4176 41.7651C31.4917 41.7651 32.105 41.1131 32.105 39.98V33.4705C32.105 33.3785 32.0254 33.3127 31.9351 33.3127H31.2189C31.1271 33.3127 31.049 33.3785 31.049 33.4705V39.98C31.049 40.4821 30.526 40.9873 29.6773 40.5628L28.1233 39.652C28.0683 39.6222 28.0261 39.5693 28.0261 39.5064V32.9118C28.0261 32.8493 28.0678 32.7857 28.1233 32.754L33.8289 29.4631C33.8547 29.448 33.884 29.4401 33.9139 29.4401C33.9437 29.4401 33.973 29.448 33.9988 29.4631L39.7046 32.7541C39.7589 32.7869 39.8018 32.8475 39.8018 32.9121V39.5065C39.8018 39.5695 39.7701 39.634 39.7167 39.6643L33.9988 42.9554C33.9499 42.9846 33.8824 42.9846 33.8289 42.9554L32.36 42.0811C32.3376 42.0689 32.3126 42.0626 32.2872 42.0626C32.2618 42.0626 32.2367 42.0689 32.2144 42.0811C31.8089 42.311 31.7327 42.3376 31.3524 42.4696C31.2587 42.5024 31.1165 42.5532 31.401 42.7127L33.319 43.8419C33.4999 43.9462 33.7052 44.0008 33.9139 43.9999C34.1227 44.0012 34.328 43.9467 34.5087 43.842L40.2266 40.5508C40.5966 40.3356 40.8214 39.9347 40.8214 39.5065V32.912C40.8214 32.4836 40.5966 32.0815 40.2266 31.8677L34.5087 28.5645C34.3295 28.462 34.124 28.4186 33.9139 28.4186L33.9138 28.4185Z" fill="currentColor"></path><path d="M35.4437 33.1306C33.8155 33.1306 32.8458 33.8238 32.8458 34.9767C32.8458 36.227 33.8082 36.5707 35.3709 36.7253C37.2404 36.9084 37.386 37.1831 37.386 37.5512C37.386 38.1897 36.8772 38.462 35.6745 38.462C34.1632 38.462 33.8312 38.0846 33.72 37.3326C33.7068 37.2519 33.6446 37.1868 33.562 37.1868H32.8215C32.7304 37.1868 32.6516 37.2654 32.6516 37.3569C32.6516 38.3195 33.175 39.4578 35.6745 39.4578C37.4837 39.4578 38.5273 38.7474 38.5273 37.5026C38.5273 36.2687 37.6843 35.9374 35.9293 35.7053C34.156 35.4705 33.9869 35.3556 33.9869 34.9402C33.9869 34.5972 34.1303 34.1385 35.4437 34.1385C36.617 34.1385 37.0506 34.3916 37.2283 35.1831C37.2438 35.2574 37.3093 35.3166 37.386 35.3166H38.1267C38.1723 35.3166 38.2165 35.2886 38.248 35.2558C38.2791 35.2209 38.301 35.1816 38.2966 35.1345C38.1819 33.7717 37.2735 33.1306 35.4437 33.1306Z" fill="currentColor"></path></svg>