<svg data-name="Group 2122" xmlns="http://www.w3.org/2000/svg" width="36" height="36" viewBox="0 0 37.16 27.312"><g data-name="Group 2121" fill="#32478a"><path data-name="Path 2433" d="M33.701 18.555a4.182 4.182 0 0 1 3.458 3.475 1.928 1.928 0 0 0 0 1.215 4.86 4.86 0 0 1-4.68 4.007 4.07 4.07 0 0 1-4.223-3.255 4.688 4.688 0 0 0 .021-1.966 4.516 4.516 0 0 1 3.7-3.471 3.413 3.413 0 0 0 1.719-.005"></path><path data-name="Path 2434" d="M19.507 27.216c-2.795-.744-3.642-3.882-1.711-6.337 1.575-2 4.256-2.383 5.868-.831a4.175 4.175 0 0 1-.516 6.064 3.728 3.728 0 0 1-2.176 1.089 2.674 2.674 0 0 0-1.465.015"></path><path data-name="Path 2435" d="M34.196 8.837a3.115 3.115 0 0 1 2.736 2.637 3.66 3.66 0 0 1-1.794 3.794 4.4 4.4 0 0 1-1.7.7 11.694 11.694 0 0 0-2.206 0 3.069 3.069 0 0 1-2.466-2.771 3.793 3.793 0 0 1 1.789-3.594 3.4 3.4 0 0 1 1.923-.772 3.682 3.682 0 0 0 1.714 0"></path><path data-name="Path 2436" d="M25.738 12.783a4.573 4.573 0 0 1-4.443 4.171 2.985 2.985 0 0 1-3.009-2.995 4.512 4.512 0 0 1 4.408-4.191 2.87 2.87 0 0 1 3.044 3.015"></path><path data-name="Path 2437" d="M10.033 27.201a3.185 3.185 0 0 1-1.916-3.92 4.56 4.56 0 0 1 3.045-3.327 2.813 2.813 0 0 1 3.829 2.486 4.6 4.6 0 0 1-3.5 4.773 2.694 2.694 0 0 0-1.466-.012"></path><path data-name="Path 2438" d="M36.918 3.29a4.445 4.445 0 0 1-5.223 3.061 2.7 2.7 0 0 1-1.672-4.419A3.937 3.937 0 0 1 32.98.098a5.01 5.01 0 0 0 1.962.014 2.537 2.537 0 0 1 1.976 1.956 1.79 1.79 0 0 0 0 1.22"></path><path data-name="Path 2439" d="M.078 23.522a4.243 4.243 0 0 1 2.814-3.042 2.36 2.36 0 0 1 3.31 2.318 4.628 4.628 0 0 1-2.235 3.924C2.009 27.91.558 27.266.08 24.99a2.607 2.607 0 0 0 0-1.467"></path><path data-name="Path 2440" d="M26.425 4.782a4.253 4.253 0 0 1-3.513 2.958 2.559 2.559 0 0 1-2.847-3.822 4.244 4.244 0 0 1 3.192-2.309 1.842 1.842 0 0 0 1.217-.01 2.239 2.239 0 0 1 1.944 1.484 4.383 4.383 0 0 0 .01 1.7"></path><path data-name="Path 2441" d="M12.52 17.492a2.467 2.467 0 0 1-2.392-3.066 4.3 4.3 0 0 1 3.218-3.3 2.452 2.452 0 0 1 3.134 2.533 4.41 4.41 0 0 1-3.963 3.83"></path><path data-name="Path 2442" d="M17.936 6.027a4.166 4.166 0 0 1-3.583 3.032c-1.96.242-3.083-1.135-2.571-3.031a4.489 4.489 0 0 1 3.778-2.99 2.088 2.088 0 0 1 2.385 1.533 3.125 3.125 0 0 0-.01 1.457"></path><path data-name="Path 2443" d="M8.522 14.176a4.44 4.44 0 0 1-3.195 3.848c-2 .411-3.318-1.018-2.7-3.025a4.327 4.327 0 0 1 3.009-3.042 2.152 2.152 0 0 1 2.889 2.219"></path><path data-name="Path 2444" d="M4.74 8.095a3.791 3.791 0 0 1 4.075-3.53 1.879 1.879 0 0 1 1.361 2.3 4.172 4.172 0 0 1-3.113 3.084 1.81 1.81 0 0 1-2.322-1.857"></path><path data-name="Path 2445" d="M31.237 15.973a2.771 2.771 0 0 1 2.206 0 3.645 3.645 0 0 1-2.206 0"></path><path data-name="Path 2446" d="M34.942.115A2.112 2.112 0 0 1 32.983.1a4.567 4.567 0 0 1 1.962.014"></path><path data-name="Path 2447" d="M28.278 22.031a2.082 2.082 0 0 1-.021 1.966 4.313 4.313 0 0 1 .021-1.966"></path><path data-name="Path 2448" d="M26.426 4.782a1.771 1.771 0 0 1-.01-1.7 2.966 2.966 0 0 1 .01 1.7"></path><path data-name="Path 2449" d="M34.197 8.838a1.682 1.682 0 0 1-1.714 0 4.2 4.2 0 0 1 1.714 0"></path><path data-name="Path 2450" d="M33.701 18.555a1.637 1.637 0 0 1-1.719.005 4.1 4.1 0 0 1 1.719-.005"></path><path data-name="Path 2451" d="M17.936 6.027a1.3 1.3 0 0 1 .01-1.457 2.734 2.734 0 0 1-.01 1.457"></path><path data-name="Path 2452" d="M.078 23.523a1.228 1.228 0 0 1 0 1.467 3.458 3.458 0 0 1 0-1.467"></path><path data-name="Path 2453" d="M10.033 27.201a1.24 1.24 0 0 1 1.466.013 2.615 2.615 0 0 1-1.466-.013"></path><path data-name="Path 2454" d="M19.507 27.216a1.237 1.237 0 0 1 1.465-.015 3.189 3.189 0 0 1-1.465.015"></path><path data-name="Path 2455" d="M24.471 1.594a.912.912 0 0 1-1.217.01l1.217-.01"></path><path data-name="Path 2456" d="M36.918 3.291a.906.906 0 0 1 0-1.22 2.284 2.284 0 0 1 0 1.22"></path><path data-name="Path 2457" d="M37.159 23.244a.923.923 0 0 1 0-1.214v1.214"></path></g></svg>