<svg xmlns="http://www.w3.org/2000/svg" width="48.722" height="48.721" viewBox="0 0 48.722 48.721"><path id="Path_13368" data-name="Path 13368" d="M24.044,48.221A24.428,24.428,0,0,1,0,24.238,23.762,23.762,0,0,1,6.942,7.282,24.163,24.163,0,0,1,24.107,0,23.826,23.826,0,0,1,41.02,7.024a23.868,23.868,0,0,1,7.2,16.862A24.222,24.222,0,0,1,24.24,48.221Zm.075-46.963A22.9,22.9,0,0,0,7.857,8.173a22.512,22.512,0,0,0-6.6,16.055A23.14,23.14,0,0,0,24.037,46.946H24.2A22.965,22.965,0,0,0,46.958,23.893,22.6,22.6,0,0,0,40.129,7.919a22.492,22.492,0,0,0-16.01-6.662ZM5.41,31.163V17.077H8.836v1.258H7.019V29.926H8.835v1.258Zm11.629-7.182c0,2.561-1.559,4.033-3.676,4.033s-3.522-1.644-3.522-3.9c0-2.353,1.477-4.013,3.634-4.013a3.606,3.606,0,0,1,3.56,3.88Zm-5.717.113c0,1.559.783,2.788,2.128,2.788s2.114-1.258,2.114-2.853c0-1.445-.713-2.805-2.114-2.805s-2.147,1.327-2.147,2.9Zm6.911-3.728a11.707,11.707,0,0,1,2.031-.17,3.627,3.627,0,0,1,2.2.484,1.616,1.616,0,0,1,.8,1.432A1.779,1.779,0,0,1,22,23.771a1.935,1.935,0,0,1,1.548,1.893,1.988,1.988,0,0,1-.738,1.578,4.241,4.241,0,0,1-2.84.713,13.477,13.477,0,0,1-1.716-.1Zm1.389,3.023h.713c.967,0,1.508-.455,1.508-1.1S21.3,21.23,20.412,21.23a3.8,3.8,0,0,0-.8.056Zm0,3.522a6.054,6.054,0,0,0,.738.032c.9,0,1.692-.34,1.692-1.257s-.774-1.258-1.735-1.258h-.694Zm6.668-6.646h1.394v4.972c0,2.115-1.022,2.821-2.524,2.821a3.721,3.721,0,0,1-1.18-.2l.17-1.13a3.063,3.063,0,0,0,.864.138c.8,0,1.258-.367,1.258-1.692Zm5.365,4.146v.967h-2.9v-.967Zm6.771,3.28a4.836,4.836,0,0,1-1.975.341,3.61,3.61,0,0,1-3.907-3.842,3.85,3.85,0,0,1,3.642-4.047,3.686,3.686,0,0,1,.447,0,4.431,4.431,0,0,1,1.893.341l-.3,1.11a3.724,3.724,0,0,0-1.5-.3,2.551,2.551,0,0,0-2.682,2.821,2.515,2.515,0,0,0,2.67,2.765,3.882,3.882,0,0,0,1.522-.281Zm4.379-10.652V31.162H39.378V29.9H41.2v-11.6H39.378V17.051Z" transform="translate(0.251 0.25)" fill="currentColor" stroke="currentColor" stroke-width="0.5"></path></svg>