<svg width="128" height="16" viewBox="0 0 128 16" fill="none" xmlns="http://www.w3.org/2000/svg"><path d="M92.655 0.00289357H95.3761V13.3857H107.173L105.44 16H92.655V0.00289357ZM71.289 16L61.2247 0.755222C60.606 -0.234379 58.9565 -0.234379 58.255 0.795009L48.2735 16H51.5733L54.5845 11.4065H61.019L62.7107 8.79284H56.2762L59.7824 3.52726L67.9908 16H71.289ZM77.4131 0.00795732C72.815 0.00795732 69.788 3.58658 69.788 8.00145C69.788 12.4156 72.8157 15.9957 77.4131 15.9957L88.5942 15.9826L90.3439 13.3914H77.4952C74.3959 13.3914 72.5821 10.9782 72.5821 8.00145C72.5821 5.02469 74.3951 2.61145 77.4952 2.61145H88.9408L90.6302 0L77.4131 0.00795732ZM7.62587 2.61145H19.4218C22.5227 2.61145 24.3357 5.02469 24.3357 8.00145C24.3357 10.9782 22.5234 13.3914 19.4218 13.3914H7.62587C4.52503 13.3914 2.71276 10.9782 2.71276 8.00145C2.71276 5.02469 4.52503 2.61145 7.62587 2.61145ZM7.62587 0.00795732C3.02699 0.00795732 0 3.58658 0 8.00145C0 12.4156 3.02699 15.9957 7.62587 15.9957H19.4218C24.0207 15.9957 27.0477 12.4156 27.0477 8.00145C27.0477 3.58658 24.0207 0.00795732 19.4218 0.00795732H7.62587ZM110.081 9.26883C110.524 11.6343 112.219 13.3914 114.866 13.3914H127.714L125.963 15.9826L114.784 15.9957C110.184 15.9957 107.158 12.4156 107.158 8.00145C107.158 3.58658 110.185 0.00795732 114.784 0.00795732L128 0.000723393L126.312 2.61217H114.866C112.257 2.61217 110.554 4.33963 110.081 6.65594H126.23L124.498 9.26955H110.081V9.26883ZM42.4373 9.50032C45.1342 9.45511 47.2958 7.34347 47.2958 4.75414C47.2958 2.1648 45.1342 0.0531605 42.4373 0.00795732L28.5578 0.00217018V15.9993H31.6104V2.61217H42.4373C43.6696 2.61217 44.6686 3.57116 44.6686 4.75414C44.6686 5.93711 43.6696 6.8961 42.4373 6.8961H33.755L43.5496 15.9812H47.4898L40.4781 9.5061L42.4373 9.50032Z" fill="currentColor"></path></svg>