<svg xmlns="http://www.w3.org/2000/svg" width="66.317" height="35.922" viewBox="0 0 66.317 35.922"><g id="PHP" transform="translate(0.159 -120.229)"><g id="Group_1178" data-name="Group 1178" transform="translate(0 121.19)"><g id="g3442" transform="translate(0 0)"><g id="g3448"><path id="icons8-php-logo" d="M34.159,12c-8.97,0-17.1,1.878-23.11,5.014S1,24.667,1,29.961s4.042,9.812,10.049,12.947,14.14,5.014,23.11,5.014,17.1-1.878,23.11-5.014,10.049-7.653,10.049-12.947-4.042-9.812-10.049-12.947S43.128,12,34.159,12Zm0,2.763c8.581,0,16.336,1.83,21.831,4.7s8.565,6.633,8.565,10.5-3.071,7.631-8.565,10.5-13.249,4.7-21.831,4.7-16.336-1.83-21.831-4.7-8.565-6.633-8.565-10.5,3.071-7.631,8.565-10.5S25.578,14.763,34.159,14.763Zm-3.443,2.763L27.251,34.106h3.627l1.749-8.29h2.9a2.571,2.571,0,0,1,1.824.459A2.045,2.045,0,0,1,37.526,28l-1.322,6.1h3.681l1.436-6.6c.308-1.581.076-2.742-.691-3.449-.783-.718-2.159-1-4.21-1H33.187l1.15-5.526Zm-15.9,5.526-2.8,15.2h3.654l.729-4.145h2.278c4.76,0,7.351-1.1,8.317-5.186.831-3.513-1.3-5.866-4.809-5.866Zm29.014,0-2.8,15.2h3.654l.729-4.145h2.278c4.76,0,7.351-1.1,8.317-5.186.831-3.513-1.3-5.866-4.809-5.866ZM17.957,25.816H20.8c2.364,0,2.86,1.063,2.736,2.245-.318,3.049-2.218,3.281-4.258,3.281H16.91Zm29.014,0h2.844c2.364,0,2.86,1.063,2.736,2.245-.318,3.049-2.218,3.281-4.258,3.281H45.924Z" transform="translate(-1.159 -12.961)" fill="currentColor"></path></g></g></g></g></svg>