<svg width="48" height="50" viewBox="0 0 48 50" fill="none" xmlns="http://www.w3.org/2000/svg"><path d="M34.4477 0.000502936L34.8187 0.00141521C39.7171 0.0598678 43.7773 1.9702 46.5603 5.52622C47.6119 6.86968 48.5118 9.83986 46.8278 16.3597C45.7864 20.3918 43.9773 24.6752 41.7526 28.4313C42.342 28.4148 43.1496 28.3293 44.2382 28.1047C44.8628 27.9759 45.3905 27.9466 45.8514 28.0154C46.8287 28.1615 47.5845 28.77 47.873 29.6438C48.7146 32.1917 45.14 34.0789 44.0245 34.5965C42.6128 35.2523 40.3142 35.6509 38.4343 35.5652L38.3473 35.5594L38.0095 35.5297L37.9795 35.7857C37.965 35.9103 37.9499 36.0411 37.9336 36.1781C37.8075 41.0221 37.1106 44.0964 35.6769 46.1376C34.1605 48.2968 32.0643 48.8993 30.2186 49.295C29.7008 49.4059 29.1105 49.487 28.4917 49.487C27.258 49.487 25.911 49.1647 24.7974 48.1135C23.7219 47.0988 23.2992 45.803 23.0464 45.0291C23.007 44.9074 22.9696 44.7928 22.9417 44.7176C22.435 43.3501 22.264 41.3956 22.1631 38.882C22.1482 38.5102 22.1369 38.1127 22.1257 37.7073C22.1189 37.4573 22.1108 37.1678 22.1003 36.8649C20.3969 37.6118 18.4003 37.745 16.2687 37.2122C15.6773 37.0643 15.085 36.8147 14.6007 36.5093C14.2193 36.2685 13.932 36.0093 13.7166 35.7484C12.0173 37.1637 10.4017 36.9562 9.5125 36.66C7.92601 36.1307 6.51281 34.657 5.19208 32.1545C4.26079 30.3896 3.3605 28.0925 2.51623 25.3262C1.04721 20.5136 0.114227 15.4389 0.0307766 13.771C-0.231978 8.51782 1.18874 4.75656 4.25346 2.59175C6.7844 0.803775 10.2446 0.254584 14.5377 0.959398C16.3631 1.25899 17.9438 1.72849 18.9286 2.06154C20.7076 1.00582 22.7895 0.492154 25.1458 0.529744C26.4028 0.550042 27.6008 0.659805 28.715 0.856401C29.9117 0.485387 32.2056 -0.0305363 34.8187 0.00141521L34.4477 0.000502936ZM34.4338 1.31649L34.1313 1.32089C31.3259 1.38513 29.0302 2.08476 28.5599 2.2914C27.4988 2.02752 26.3419 1.86551 25.0825 1.84483C22.773 1.80743 20.7765 2.36038 19.1237 3.48752C18.4057 3.22025 16.5503 2.58329 14.2812 2.21773C10.3583 1.58621 7.24093 2.06473 5.01635 3.6407C2.36192 5.52133 1.13649 8.88301 1.37387 13.6321C1.45375 15.2299 2.36418 20.1452 3.80087 24.8524C5.69203 31.048 7.74783 34.5553 9.91076 35.2769C10.1639 35.3613 10.4558 35.4203 10.7778 35.4203C11.5668 35.4203 12.5342 35.0647 13.5406 33.8547C14.7683 32.382 16.0381 30.9451 17.3487 29.5457C18.199 30.002 19.1331 30.2569 20.0885 30.2825C20.0903 30.3075 20.0928 30.3325 20.095 30.3573C19.9306 30.5534 19.7696 30.7523 19.612 30.954C18.95 31.7943 18.8123 31.9693 16.6815 32.408C16.0753 32.5332 14.4656 32.8649 14.4419 33.9934C14.4163 35.2263 16.3449 35.7441 16.5646 35.799C17.3303 35.9907 18.068 36.0853 18.7715 36.0853C20.4824 36.0853 21.9881 35.5229 23.1913 34.4349C23.1543 38.8303 23.3376 43.1614 23.8653 44.481C24.2976 45.5613 25.3535 48.2013 28.6889 48.2013C29.1783 48.2013 29.717 48.1443 30.3096 48.0173C33.7906 47.2711 35.3023 45.7326 35.887 42.3406C36.1999 40.5278 36.7369 36.1991 36.9895 33.8772C37.5225 34.0435 38.2088 34.1197 38.9506 34.1195C40.4978 34.1195 42.2831 33.7908 43.4028 33.2711C44.6605 32.6869 46.9302 31.2536 46.5186 30.0083C46.3055 29.3638 45.6194 29.1565 44.4797 29.3918C41.0957 30.0902 39.8838 29.6064 39.4859 29.3134C42.1162 25.3063 44.2801 20.4624 45.4475 15.9432C46.0004 13.8024 46.3058 11.8143 46.3308 10.1938C46.3585 8.4152 46.0555 7.10819 45.4307 6.30978C42.9118 3.09113 39.2149 1.36462 34.7398 1.31726L34.4338 1.31649ZM24.7245 3.229L25.0596 3.22984C30.1605 3.31329 33.4316 5.93106 35.2777 8.1126C36.8685 9.99229 37.7299 11.8859 38.0736 12.9072C35.4884 12.6443 33.7301 13.1546 32.8388 14.4289C30.8997 17.2008 33.8996 22.5806 35.3414 25.1663C35.6058 25.6401 35.834 26.0496 35.9058 26.2237C36.3753 27.3615 36.9831 28.1212 37.4269 28.6757C37.563 28.8456 37.6949 29.0104 37.7953 29.1544C37.0123 29.3801 35.6058 29.9017 35.734 32.5087C35.6306 33.8169 34.8956 39.9414 34.5221 42.1053C34.0291 44.964 32.9772 46.0288 30.0194 46.6629C26.9528 47.32 25.867 45.7553 25.1515 43.9666C24.6897 42.8118 24.4626 37.6045 24.6237 31.8537C24.6258 31.7772 24.6149 31.7034 24.5938 31.6338C24.575 31.4965 24.5463 31.3607 24.5081 31.2275C24.2687 30.3907 23.6851 29.6908 22.985 29.4006C22.7068 29.2854 22.1963 29.0739 21.5829 29.2309C21.7137 28.6918 21.9405 28.0831 22.1866 27.4239L22.2897 27.1467L22.415 26.8301C22.504 26.6161 22.6031 26.396 22.7059 26.1675C23.539 24.3166 24.6801 21.7813 23.4417 16.0539C22.9778 13.9086 21.4287 12.861 19.0805 13.1044C17.6727 13.25 16.3847 13.818 15.7423 14.1437C15.6042 14.2137 15.4779 14.2813 15.3598 14.3471C15.5391 12.1857 16.2165 8.14624 18.7504 5.59049C20.346 3.98164 22.4707 3.18699 25.0596 3.22984L24.7245 3.229ZM21.5119 30.8459C21.902 30.4509 22.1057 30.5355 22.4548 30.6804C22.7594 30.8063 23.0562 31.1882 23.1765 31.6085C23.2334 31.8069 23.2973 32.1836 23.0881 32.4768C21.3222 34.9495 18.7488 34.9177 16.9006 34.4552C16.5198 34.3601 16.1774 34.1948 15.9765 34.0578C16.1443 33.9789 16.443 33.8714 16.961 33.7646C19.4677 33.2487 19.8548 32.8845 20.7002 31.8111C20.8553 31.6141 21.0269 31.3962 21.2451 31.1429L21.4184 30.9457L21.5119 30.8459ZM5.81476 4.77253C9.46175 2.18634 15.4577 3.7343 17.8671 4.51937C17.8325 4.55357 17.7964 4.58552 17.7622 4.62029C13.8085 8.61311 13.9023 15.435 13.912 15.852C13.9117 16.0129 13.9252 16.2407 13.9436 16.554C14.0117 17.7015 14.1383 19.8369 13.8 22.2553C13.4858 24.5026 14.1786 26.7022 15.7004 28.2902C15.8566 28.4529 16.0207 28.6077 16.1923 28.7541C15.5149 29.4795 14.0427 31.0839 12.4755 32.969C11.3666 34.3024 10.6009 34.0467 10.3491 33.9629C8.70826 33.4156 6.80432 29.9475 5.12573 24.4481C3.67325 19.6896 2.82447 14.9046 2.75718 13.5628C2.54518 9.31924 3.57383 6.36184 5.81476 4.77253ZM38.5753 30.3672C38.6341 30.4152 38.6986 30.4627 38.7692 30.5093C39.8992 31.2551 41.9146 31.3356 44.7599 30.7482L44.7911 30.742L44.6678 30.8532C44.2733 31.1966 43.6575 31.6256 42.8195 32.0148C42.0189 32.3864 40.679 32.6651 39.4062 32.7251C38.0003 32.7909 37.2846 32.5676 37.1162 32.4302C37.0373 30.8055 37.6419 30.6358 38.2819 30.4561C38.3824 30.4279 38.4805 30.4003 38.5753 30.3672ZM15.3025 16.0426C15.8801 15.5304 18.5567 14.0964 20.4655 14.5337C21.3365 14.7332 21.8672 15.3263 22.0879 16.3465C23.2299 21.6285 22.239 23.8299 21.4428 25.5991C21.2788 25.9636 21.1237 26.3081 20.9914 26.6644L20.8888 26.94L20.7357 27.3522C20.536 27.8943 20.3573 28.4072 20.2375 28.8992C18.9335 28.8954 17.665 28.3383 16.7005 27.3318C15.4739 26.0519 14.9168 24.2716 15.1719 22.447C15.529 19.8924 15.3972 17.6674 15.3264 16.4721C15.3164 16.3048 15.3076 16.1582 15.3025 16.0426ZM34.5206 2.70125L34.9127 2.70527C38.9224 2.79379 42.0942 4.29383 44.3399 7.16345C46.0623 9.36454 44.1656 19.3798 38.6751 28.0201C38.6198 27.9499 38.5643 27.8799 38.5085 27.8102L38.439 27.7233L38.6012 27.4423C39.8357 25.1951 39.5705 22.9796 39.3334 21.0064C39.232 20.1628 39.1361 19.3661 39.1605 18.6177C39.1857 17.8246 39.2906 17.1442 39.3921 16.4864C39.5167 15.6757 39.6436 14.8369 39.6086 13.8481C39.6347 13.7443 39.6453 13.6218 39.6315 13.4763C39.5423 12.5281 38.4597 9.69026 36.2531 7.12173C35.0461 5.7168 33.286 4.14459 30.8826 3.08418C31.9164 2.86991 33.3299 2.67012 34.9127 2.70527L34.5206 2.70125ZM33.9737 15.2228C34.4031 14.6093 35.4931 13.9785 38.2289 14.3182C38.2174 15.0036 38.1231 15.6259 38.0231 16.2755C37.9154 16.9741 37.8041 17.6964 37.7761 18.5732C37.7485 19.4265 37.855 20.3136 37.958 21.1716C38.1663 22.9045 38.38 24.6885 37.5528 26.4488C37.4154 26.2054 37.293 25.9538 37.1863 25.6954C37.0835 25.4461 36.8602 25.0458 36.551 24.4917C35.3483 22.3348 32.5319 17.2838 33.9737 15.2228ZM20.0912 15.2357C19.6548 15.1998 19.2715 15.2683 19.0664 15.4237C18.9367 15.522 18.8965 15.6359 18.8856 15.7143C18.8566 15.9219 19.0021 16.1516 19.0916 16.27C19.3446 16.6053 19.7141 16.8358 20.0798 16.8865C20.1328 16.894 20.1856 16.8974 20.2381 16.8974C20.848 16.8974 21.4026 16.4224 21.4515 16.0719C21.5126 15.6329 20.8752 15.3402 20.2571 15.2541L20.0912 15.2357ZM36.944 15.2681C36.8959 14.9239 36.2836 14.8258 35.7024 14.9066C35.122 14.9874 34.5593 15.2495 34.6063 15.5943C34.6439 15.8625 35.1282 16.3204 35.7015 16.3204C35.75 16.3204 35.7989 16.3172 35.8481 16.3102C36.2308 16.2572 36.5116 16.0142 36.645 15.8742C36.848 15.6607 36.9656 15.4227 36.944 15.2681Z" fill="currentColor"></path></svg>