<svg id="rails-seeklogo.com" xmlns="http://www.w3.org/2000/svg" width="70.99" height="24.947" viewBox="0 0 70.99 24.947"><path id="Path_343" data-name="Path 343" d="M172.582,96.437s3.134-.269,3.134-4.316a4.278,4.278,0,0,0-3.8-4.424h-6.841v12.769h3.439v-3.08l2.973,3.08h5.086Zm-1.325-2.615h-2.74V90.9h2.758a1.439,1.439,0,0,1,.77,1.451A1.478,1.478,0,0,1,171.257,93.823ZM184.2,87.787h-3.492a3.354,3.354,0,0,0-3.331,3.331v9.348h3.492V98.228h3.277v2.239h3.385V91.118A3.3,3.3,0,0,0,184.2,87.787Zm-.054,6.823h-3.3v-3.1s0-.7,1.092-.7h1.2c.967,0,.985.7.985.7v3.1Zm4.979-6.823h3.635v12.679H189.13Zm8.739,9.4v-9.4h-3.618v12.679h8.507V97.189Zm6.089.036v3.241h5.856a3.349,3.349,0,0,0,3.331-3.331V95.882a3.308,3.308,0,0,0-3.331-3.331H206.9v-1.5h5.784V87.787h-5.552a3.408,3.408,0,0,0-3.349,3.385V92.3a3.348,3.348,0,0,0,3.349,3.331c4.03.018-.967,0,2.758,0v1.576Z" transform="translate(-142.155 -75.52)" fill="#32478a"></path><path fill="#32478a" id="Path_344" data-name="Path 344" d="M1.254,24.929H15.4S12.7,12.59,21.652,7.593C23.6,6.644,29.818,3.1,39.99,10.62c.322-.269.627-.484.627-.484S31.3.842,20.935,1.88C15.724,2.346,9.313,7.092,5.552,13.36A30.977,30.977,0,0,0,1.254,24.929ZM30.732,2.883l.072-1.2a8.76,8.76,0,0,0-1.737-.627l-.072,1.182C29.585,2.436,30.158,2.651,30.732,2.883Zm-1.7,3.8-.072,1.128a9.988,9.988,0,0,1,1.773.215l.072-1.11A12.681,12.681,0,0,0,29.03,6.68ZM22.4,1.092h.179L22.225,0a14.286,14.286,0,0,0-1.719.107l.34,1.057A15.119,15.119,0,0,1,22.4,1.092Zm.86,6.59.412,1.236a11.331,11.331,0,0,1,1.558-.627L24.84,7.11A13,13,0,0,0,23.263,7.683Zm-8.131-4.71-.806-1.236c-.448.233-.913.484-1.4.77l.824,1.254C14.22,3.474,14.667,3.206,15.133,2.973ZM18.8,11.032l.86,1.289A9.942,9.942,0,0,1,20.72,11.05l-.806-1.218A9.9,9.9,0,0,0,18.8,11.032Zm-2.6,5.767,1.451,1.146a14.3,14.3,0,0,1,.376-2.1l-1.289-1.021A17.05,17.05,0,0,0,16.207,16.8ZM8.363,8.292,7.092,7.181c-.466.448-.913.9-1.325,1.343L7.146,9.707A18.136,18.136,0,0,1,8.363,8.292ZM2.955,16.3.9,15.545c-.34.77-.716,1.666-.9,2.149l2.06.752C2.292,17.837,2.668,16.96,2.955,16.3Zm12.984,5.05a18.222,18.222,0,0,0,.215,2.257l2.149.77a23.661,23.661,0,0,1-.43-2.328Z"></path></svg>