<svg xmlns="http://www.w3.org/2000/svg" width="58.365" height="51.9" viewBox="0 0 28.583 25.452"><path d="M28.583 12.729c0-1.894-2.371-3.687-6.007-4.8.839-3.705.466-6.653-1.177-7.6a2.552 2.552 0 0 0-1.3-.326v1.3a1.354 1.354 0 0 1 .662.153c.792.455 1.136 2.185.868 4.41a17.112 17.112 0 0 1-.3 1.713 28.2 28.2 0 0 0-3.7-.635 28.405 28.405 0 0 0-2.423-2.911c1.9-1.765 3.68-2.733 4.892-2.733V0c-1.6 0-3.7 1.142-5.819 3.122-2.121-1.969-4.218-3.1-5.82-3.1v1.3c1.206 0 2.994.961 4.893 2.715a27.471 27.471 0 0 0-2.406 2.907 27.212 27.212 0 0 0-3.7.64C7.106 7 7.006 6.437 6.938 5.9c-.274-2.23.068-3.96.851-4.42a1.3 1.3 0 0 1 .67-.153V.028a2.6 2.6 0 0 0-1.317.326C5.506 1.3 5.138 4.24 5.983 7.933 2.359 9.053 0 10.84 0 12.728s2.371 3.687 6.006 4.8c-.839 3.7-.466 6.653 1.176 7.6a2.561 2.561 0 0 0 1.311.326c1.6 0 3.7-1.142 5.82-3.122 2.121 1.969 4.218 3.1 5.82 3.1a2.6 2.6 0 0 0 1.316-.326c1.637-.944 2-3.885 1.16-7.579 3.612-1.113 5.971-2.907 5.971-4.794Zm-7.585-3.886a26.41 26.41 0 0 1-.786 2.3c-.239-.466-.49-.932-.764-1.4s-.554-.92-.839-1.363c.827.123 1.625.274 2.388.458Zm-2.668 6.2c-.454.786-.92 1.532-1.4 2.225a30.158 30.158 0 0 1-5.255.007 30.711 30.711 0 0 1-2.621-4.533c.361-.78.769-1.561 1.206-2.324.454-.786.92-1.532 1.4-2.225a30.158 30.158 0 0 1 5.255-.006q.725 1.04 1.41 2.213c.443.764.844 1.538 1.212 2.319-.368.781-.77 1.565-1.207 2.329Zm1.883-.757c.315.78.582 1.561.8 2.319a26.23 26.23 0 0 1-2.4.466c.286-.448.571-.909.839-1.38s.523-.935.761-1.401Zm-5.907 6.22a24.087 24.087 0 0 1-1.619-1.864c.524.023 1.06.041 1.6.041s1.089-.012 1.619-.041a22.742 22.742 0 0 1-1.6 1.864Zm-4.334-3.431a27.024 27.024 0 0 1-2.388-.458c.215-.751.483-1.527.786-2.3.239.466.489.932.764 1.4s.551.918.837 1.361Zm4.3-12.123a24 24 0 0 1 1.62 1.864c-.524-.023-1.06-.041-1.6-.041s-1.089.012-1.619.041a22.682 22.682 0 0 1 1.6-1.864ZM9.966 8.383a32.884 32.884 0 0 0-1.596 2.781 23.48 23.48 0 0 1-.8-2.319c.764-.18 1.567-.337 2.4-.458Zm-5.274 7.3c-2.062-.88-3.4-2.034-3.4-2.948s1.334-2.074 3.4-2.948c.5-.216 1.049-.407 1.614-.588a28.063 28.063 0 0 0 1.311 3.548 27.561 27.561 0 0 0-1.293 3.53 17.704 17.704 0 0 1-1.629-.594ZM7.826 24c-.792-.454-1.136-2.184-.865-4.41.064-.548.169-1.124.3-1.713a28.2 28.2 0 0 0 3.7.635 28.384 28.384 0 0 0 2.424 2.913c-1.9 1.765-3.682 2.732-4.894 2.732A1.386 1.386 0 0 1 7.829 24Zm13.818-4.439c.274 2.226-.064 3.956-.851 4.416a1.3 1.3 0 0 1-.67.153c-1.206 0-2.994-.961-4.893-2.715a27.473 27.473 0 0 0 2.406-2.907 27.211 27.211 0 0 0 3.705-.64 16.332 16.332 0 0 1 .3 1.692Zm2.243-3.885c-.5.215-1.049.407-1.614.588a27.979 27.979 0 0 0-1.311-3.547 27.616 27.616 0 0 0 1.293-3.53c.577.18 1.124.378 1.637.594 2.062.88 3.4 2.033 3.4 2.948s-1.342 2.071-3.404 2.949Z" fill="#32478a"></path><path d="M14.287 15.391a2.662 2.662 0 1 0-2.662-2.662 2.662 2.662 0 0 0 2.662 2.662Z" fill="#32478a"></path></svg>