<svg width="48" height="39" viewBox="0 0 48 39" fill="none" xmlns="http://www.w3.org/2000/svg"><path d="M48 22.5728C47.9988 22.5742 47.9994 22.5744 48 22.5746L47.9989 27.3577C47.9992 27.8374 47.4232 28.3635 46.1194 29.043C43.5577 30.3782 30.288 35.8343 27.4629 37.3071C24.6379 38.7801 23.0685 38.7658 20.8367 37.6989C18.6051 36.6321 4.48369 30.9279 1.93988 29.712C0.668625 29.1045 0 28.5915 0 28.107V23.2553L0.00297914 23.3197C0.0514458 23.7929 0.699645 24.2958 1.94044 24.8889C4.48406 26.1041 18.6049 31.8092 20.8367 32.8753C23.0683 33.9422 24.6377 33.9566 27.4626 32.4834C30.2876 31.0108 43.557 25.5546 46.1184 24.2199C47.3881 23.5582 48.0049 23.0393 48 22.5728ZM48 14.7223C47.9988 14.7234 47.9994 14.7236 48 14.7238L47.9989 19.5075C47.9992 19.9869 47.4232 20.5131 46.1194 21.1926C43.5577 22.5279 30.288 27.9838 27.4629 29.4572C24.6379 30.9296 23.0685 30.9154 20.8367 29.8485C18.6049 28.7822 4.48369 23.0775 1.93988 21.8616C0.668625 21.2541 0 20.7418 0 20.2571V15.4048L0.00297914 15.4695C0.0514458 15.9427 0.699645 16.4455 1.94044 17.0385C4.48406 18.2539 18.6049 23.9587 20.8367 25.0249C23.0683 26.0918 24.6377 26.1062 27.4626 24.6336C30.2876 23.1604 43.557 17.7045 46.1184 16.3695C47.3881 15.7077 48.0049 15.1888 48 14.7223ZM48 6.58184C47.9988 6.5823 47.9994 6.58253 48 6.58275L47.9989 11.3663C47.9992 11.8453 47.4232 12.3714 46.1194 13.0511C43.5577 14.3861 30.288 19.8424 27.4629 21.3158C24.6379 22.7884 23.0685 22.7739 20.8367 21.7071C18.6049 20.6407 4.48369 14.9359 1.93988 13.7205C0.668625 13.1124 0 12.6 0 12.1159V7.26337L0.00307289 7.32794C0.0515396 7.80113 0.699741 8.30401 1.94062 8.89688C4.48406 10.1124 18.6051 15.8169 20.8367 16.8838C23.0683 17.9501 24.6377 17.9646 27.4626 16.4919C30.2876 15.0193 43.557 9.56306 46.1184 8.22806C47.3872 7.56679 48.004 7.04808 48 6.58184ZM27.9028 9.40425L24.5685 14.2928L16.8666 11.0983L27.9028 9.40425ZM34.7428 4.11581L41.2746 6.69694L34.7484 9.27563L34.0399 9.55275L27.5166 6.97425L34.7428 4.11581ZM13.8904 4.74375C17.1482 4.74375 19.7891 5.7675 19.7891 7.03013C19.7891 8.29313 17.1482 9.31669 13.8904 9.31669C10.6326 9.31669 7.99162 8.29294 7.99162 7.03013C7.99162 5.7675 10.6326 4.74375 13.8904 4.74375ZM21.0463 0L24.3754 1.302L27.5138 0.2745L26.6655 2.30981L29.8656 3.50813L25.7387 3.93656L24.8149 6.15956L23.3228 3.67894L18.5574 3.25069L22.1132 1.96837L21.0463 0Z" fill="#32478a"></path></svg>