<svg width="40" height="40" viewBox="0 0 40 40" fill="none" xmlns="http://www.w3.org/2000/svg"><path d="M0.199108 0.0233876C0.117743 0.046574 0.0516035 0.124469 0.0225098 0.231011C-0.0215186 0.39274 0.00524757 39.7715 0.0495669 39.8515C0.0702235 39.8888 0.112797 39.9361 0.144218 39.9564C0.237027 40.0164 38.4332 40.0136 38.523 39.9534C38.5558 39.9316 38.5988 39.8843 38.6187 39.8485C38.6725 39.7514 38.6864 6.00316 38.6327 5.86241C38.5862 5.74054 38.4474 5.67041 38.3246 5.70682C38.2387 5.7322 38.2758 5.6912 28.0569 17.0216C25.3499 20.023 25.5275 19.8514 25.2449 19.7393C25.165 19.7076 18.7811 13.238 18.689 13.0953C18.6426 13.0233 18.6349 12.8349 18.6753 12.7595C18.7373 12.6442 20.8271 9.96668 20.8954 9.91533C20.9921 9.84241 21.1298 9.82651 21.255 9.87365C21.3382 9.90507 21.5621 10.1436 23.1886 11.9331C24.2206 13.0685 25.0575 13.9721 25.095 13.9911C25.1818 14.0355 25.3405 14.0345 25.4375 13.9891C25.5018 13.9589 35.0713 1.13422 35.5366 0.454634C35.6572 0.278437 35.6186 0.101282 35.4441 0.0291363C35.3598 -0.00564318 0.320623 -0.0113918 0.199108 0.0233876ZM12.0052 18.6245C13.7664 18.8481 15.3031 19.4585 16.6454 20.4676C16.9639 20.707 17.0335 20.8345 16.956 21.0357C16.9335 21.0941 15.4549 23.0379 15.3417 23.1579C15.1334 23.3787 15.0022 23.3583 14.563 23.0372C12.4488 21.4907 9.1074 21.1695 8.16554 22.4221C7.80158 22.9063 7.78063 23.5378 8.11521 23.9399C8.49459 24.3959 9.20215 24.6591 11.4943 25.197C14.0181 25.7892 15.284 26.3316 16.2176 27.2206C17.0802 28.042 17.4534 28.9867 17.4531 30.3492C17.4526 33.8794 14.5661 35.8752 9.83726 35.6149C7.70528 35.4975 5.60471 34.6613 4.06411 33.3166C3.85618 33.1352 3.80537 32.9651 3.90787 32.7935C4.02755 32.5931 5.48659 30.6031 5.53848 30.5695C5.70994 30.4585 5.87907 30.5054 6.15342 30.7403C7.90476 32.239 10.443 32.8994 12.3546 32.3537C13.8708 31.921 14.3983 30.508 13.3382 29.7188C12.849 29.3548 12.2991 29.1679 10.2834 28.6811C8.99675 28.3704 8.69892 28.2897 8.09523 28.0885C5.48116 27.2172 4.2921 25.8197 4.28658 23.6119C4.27969 20.8662 6.56287 18.8308 9.91164 18.5975C10.323 18.5688 11.7072 18.5866 12.0052 18.6245ZM25.9866 22.7513C29.2668 22.9613 31.5071 25.3525 31.7383 28.8906C31.8039 29.894 31.7826 30.0803 31.5915 30.1761L31.4971 30.2233H27.0643C23.0489 30.2233 22.6288 30.2264 22.6035 30.2564C22.5401 30.3318 22.6877 30.8506 22.8815 31.2335C23.2718 32.0052 23.9479 32.5871 24.7896 32.8762C25.9951 33.2901 27.8463 32.9538 29.0844 32.0958C29.2631 31.9719 29.402 31.9522 29.5257 32.0332C29.6042 32.0844 30.6362 33.5409 30.7249 33.7255C30.8374 33.9598 30.7163 34.0975 30.0483 34.4948C28.6134 35.3481 26.9766 35.7132 25.0268 35.6147C22.2261 35.4732 19.8253 33.4306 19.24 30.6912C19.057 29.8349 19.0558 28.5976 19.2371 27.7228C19.7845 25.0829 22.0654 23.0315 24.7399 22.7738C24.8685 22.7613 25.0023 22.748 25.0374 22.744C25.175 22.7284 25.6904 22.7324 25.9866 22.7513ZM25.186 25.3338C23.8852 25.4416 22.7671 26.4614 22.5486 27.739C22.4943 28.0568 22.0953 28.0195 25.5519 28.0195C27.6717 28.0195 28.526 28.0129 28.5574 27.9963C28.6703 27.9367 28.5089 27.2626 28.2779 26.8292C27.6911 25.7279 26.629 25.2143 25.186 25.3338Z" fill="currentColor"></path></svg>