<svg xmlns="http://www.w3.org/2000/svg" width="39.102" height="44" viewBox="0 0 39.102 44"><g id="Shopify" transform="translate(0 0.001)"><path id="Subtraction_1" data-name="Subtraction 1" d="M-6713.722-449h0L-6741-453.683c.006-.053.155-1.2.382-2.945.865-6.654,2.891-22.237,2.99-22.926.158-1.159.2-1.2,1.443-1.59l4.225-1.3a17.055,17.055,0,0,1,2.412-6.212c1.736-2.736,3.874-4.276,6.02-4.336.068,0,.138-.006.206-.006a3.491,3.491,0,0,1,1.307.253,3.507,3.507,0,0,1,1.261.868c.035.037.066.074.1.11l.053.061a2.25,2.25,0,0,1,.36-.02,4.449,4.449,0,0,1,3.967,2.724,8.973,8.973,0,0,1,.634,1.546l1.327-.408a1.085,1.085,0,0,1,.372-.066,1.053,1.053,0,0,1,.135.009,1.079,1.079,0,0,1,.477.179c.223.236,2.431,2.367,2.872,2.791l.012.012c.022,0,3.15.061,3.314.061a.428.428,0,0,1,.257.113.427.427,0,0,1,.132.245c.021.218,4.8,32.282,4.847,32.6L-6713.722-449Zm-19.092-13.8h0l-.918,3.889a8.853,8.853,0,0,0,6.092,2.292c.208,0,.425-.007.646-.02a6.09,6.09,0,0,0,4.391-2.163,7.2,7.2,0,0,0,1.476-5.144c-.208-3.232-2.483-4.681-4.312-5.846-1.16-.739-2.162-1.377-2.219-2.278-.029-.487.076-2.087,2.665-2.252.12-.005.241-.008.361-.008a7.822,7.822,0,0,1,2.985.589l1.374-5.1a6.858,6.858,0,0,0-2.769-.464c-.239,0-.485.008-.733.024a9.224,9.224,0,0,0-6.559,2.9,7.863,7.863,0,0,0-1.894,5.771c.167,2.749,1.791,3.894,3.223,4.9,1.129.8,2.1,1.484,2.186,2.787a1.636,1.636,0,0,1-.092.672,1.714,1.714,0,0,1-.354.584,1.735,1.735,0,0,1-.555.4,1.711,1.711,0,0,1-.668.147c-.054,0-.111,0-.167,0-1.843,0-4.066-1.619-4.16-1.688Zm9.445-28.763-.114,0c-3.29.082-6.189,5.163-6.937,8.643l3.739-1.15a12.432,12.432,0,0,1,2.824-5.882,6.122,6.122,0,0,1,1.664-1.274A2.2,2.2,0,0,0-6723.369-491.565Zm2.1,1.468h0a4.57,4.57,0,0,0-1.546,1.117,10.764,10.764,0,0,0-2.3,4.432l4.561-1.389.007-.012a10.482,10.482,0,0,0-.721-4.148Zm1.482-.169h0a11.419,11.419,0,0,1,.66,3.888l2.117-.651-.007-.014C-6717.353-488.117-6718.162-489.963-6719.784-490.266Z" transform="translate(6741 493)" fill="#32478a"></path></g></svg>