<svg width="56.914" height="62.957" viewBox="0 0 56.914 62.957" fill="none" xmlns="http://www.w3.org/2000/svg"><g id="sql" transform="translate(-179.591 -46.36)"><g id="Group_12132" data-name="Group 12132" transform="translate(179.591 46.36)"><path fill="#32478a" id="path10" d="M232.868,46.36c-4.924,2.206-9.8,4.456-13.563,7.69.709.276,1.506.83,2.281,1.057.037.24-.009,0,0,0a85.258,85.258,0,0,0,11.174,2.141c-.011-.009-.1-.32-.111-.325-.3-.178-1.184-.4-1.431-.566a12.467,12.467,0,0,0,4.019-1.965,27.539,27.539,0,0,0,2.008,2.741c-1.063.066-2.554-.115-3.62-.052h-.02c.161.023.074.49.232.516.04.006.218.1.258.1a32.97,32.97,0,0,0,4.221.121h0A40.158,40.158,0,0,1,232.868,46.36Zm-.477,1.755a13.013,13.013,0,0,0,1.959,4.12,37.364,37.364,0,0,1-8.564-1.126A26.011,26.011,0,0,1,232.391,48.115Zm-8.328,7.251a5.445,5.445,0,0,0-2.3-.928,3.933,3.933,0,0,1,2.152-2.249,11.329,11.329,0,0,0,2.85,2.994q-1.353.09-2.7.187a.011.011,0,0,1-.006,0Zm5.935.7a15.9,15.9,0,0,1-4.976-4.335,43.775,43.775,0,0,0,9.759,1.916A18.488,18.488,0,0,1,230,56.067Z" transform="translate(-210.576 -46.36)"></path><path fill="#32478a" id="path20" d="M213.276,186.455a.036.036,0,0,1,0-.017,2.5,2.5,0,0,0-.622,0c-2.847.968-5.613,1.773-8.356,2.753-2.23.8-4.616,1.537-6.766,2.436a73.155,73.155,0,0,0-8.419,4.642,9.177,9.177,0,0,0,1.382,6.079l-9.377,2.442c.2-2.554,1.666-4.255,3.809-5.832-16.027,11.618,7.8,19.144,22.411,19.63C212.558,207.021,214.569,197.472,213.276,186.455Zm-8.762,3.962c.333,1.884-.385,4.631-.767,6.754a11.616,11.616,0,0,1-4.688-4.645c1.643-.592,3.812-1.517,5.455-2.109Zm1.77-.862c2.695.911,4.913,2.06,6.076,3.738-2.471,1.261-5.47,3-7.943,4.263.448-2.508,1.422-5.493,1.867-8Zm-2.715,9.029c-.414,2.7-3.045,6.642-5.372,9.081a12.555,12.555,0,0,1-5.407-4.792C196.194,202.235,200.61,199.8,203.569,198.584Zm-11.3,3.4c1.531-2.781,4.45-6.205,5.981-8.983a11.306,11.306,0,0,0,4.783,4.982C200.118,199.581,195.3,201.672,192.264,201.988Zm-1.629-5.967,5.935-2.491a33.494,33.494,0,0,1-4.786,7.762A4.862,4.862,0,0,1,190.635,196.021ZM184.511,211.4c-2.407-1.063-3.41-3.154-3.459-5.941q4.65-1.056,9.3-2.109A20.738,20.738,0,0,1,184.511,211.4Zm7.035-7.668a18.984,18.984,0,0,0,5.263,4.7,70.088,70.088,0,0,1-11.1,3.545A35.965,35.965,0,0,0,191.546,203.735Zm-5.263,8.575a75.377,75.377,0,0,0,11.577-3.4c-.448,2.29-2.436,4.772-4.545,6.613A19.51,19.51,0,0,1,186.283,212.31Zm12.666-2.919c2.729,1.6,5.878,2.06,8.865,2.632a57.409,57.409,0,0,1-13.47,3.881A23.861,23.861,0,0,0,198.949,209.391Zm7.67,8.334a53.919,53.919,0,0,1-10.144-1.342,90.032,90.032,0,0,0,12.224-3.809A21.93,21.93,0,0,1,206.62,217.725Zm2.87-6.515c-3.034-.555-7.254-.836-9.618-2.732,3.763-1.6,8.055-3.338,11.819-4.933a40.547,40.547,0,0,1-2.2,7.665Zm-10.48-3.019c1.87-1.93,4.608-6.418,5.2-9.371,2.563,1.819,5.625,3.384,7.55,3.671C208.286,203.847,202.488,206.835,199.01,208.191ZM212.2,201.1a14.16,14.16,0,0,1-7.5-2.919c2.551-1.327,5.453-2.652,8-3.979A41.51,41.51,0,0,1,212.2,201.1Zm.549-9a8.233,8.233,0,0,0-4.737-2.97q2.176-.534,4.352-1.066A14.469,14.469,0,0,1,212.744,192.094Z" transform="translate(-179.591 -155.63)"></path><path fill="#32478a" id="path29" d="M258.353,98.068c-7.4-9.144-17.205-11.29-28.619-13.129h0c-1.347-.218-2.718-.431-4.108-.652l-.124-.017c-.152-.026-.3-.049-.46-.072-.325-.052-.649-.106-.977-.158-2.784-.448-5.645-.937-8.581-1.554a.009.009,0,0,1-.006,0c-.738-.155-1.485-.319-2.235-.491-.089-.02-.175-.043-.261-.063l-.029-.009a13.456,13.456,0,0,1-2.232-.753c-.046-.02-.086-.037-.115-.052a22.5,22.5,0,0,1,1.948,1.3c10.94,7.958,11.256,18.541-.954,30.3-1.054,1.017-2.2,2.235-3.3,3.407l.083-.052q1.555-.97,3.111-1.942l.014-.009a133.863,133.863,0,0,1,15.2-6.754c2.864-1.074,5.682-2.034,8.391-2.881.193-.063.382-.121.575-.178,10.342-3.2,19.041-4.786,22.638-5.01.75-.046.813-.271.04-1.224Zm-10.721-7.337A61.188,61.188,0,0,0,235.5,95.666a19.251,19.251,0,0,0,2.465-7.929A52.618,52.618,0,0,1,247.632,90.731ZM234.5,95.187a13.2,13.2,0,0,0-4.976-2.586,30.638,30.638,0,0,1,7.871-5.079A21.178,21.178,0,0,1,234.5,95.187Zm-13.232-3.468,5.073,1.431c-1.658,1.462-3.22,2.925-4.881,4.384A35.421,35.421,0,0,0,221.266,91.719Zm6.079,1.888-2.991,7.593a4.8,4.8,0,0,0-2.942-1.844Q224.377,96.481,227.345,93.607Zm-3.108,9.029c.939,1.051.971,2.815,1.146,4.312a54.034,54.034,0,0,0-8.828,3.763C218.9,108.258,221.889,105.089,224.236,102.636Zm4.091-8.6a11.228,11.228,0,0,1,4.306,2.011q-3.939,2.78-7.872,5.559,1.78-3.783,3.565-7.57Zm7.871-6.923a35.241,35.241,0,0,0-7.682,4.982q-.444-3.137-.885-6.274A34.673,34.673,0,0,1,236.2,87.114Zm-8.782,4.792q-2.835-.914-5.671-1.821c1.261-1.982,3.232-3.114,5.145-4.312Q227.154,88.84,227.416,91.906ZM214.46,83.038a9,9,0,0,1,3.1.661,12.3,12.3,0,0,1,1.594,4.243A22.661,22.661,0,0,0,214.46,83.038Zm6.113,6.472a38.315,38.315,0,0,0-1.543-5.289,28.381,28.381,0,0,1,6.892,1.2A22.472,22.472,0,0,0,220.573,89.51Zm.169,11.307a3.444,3.444,0,0,1,2.129,1.365q-1.8,1.211-3.588,2.419A12.95,12.95,0,0,0,220.743,100.817ZM219,105.224c.184.575.365,1.149.549,1.724l-4.462,3.068A25.667,25.667,0,0,0,219,105.224Zm7.2,1.436a11.832,11.832,0,0,0-1.1-4.476q4.309-2.7,8.616-5.392C231.349,99.987,228.557,103.469,226.2,106.661Zm1.531-.646c2.249-2.827,4.737-5.726,6.987-8.552a16.747,16.747,0,0,1,5.622,4.482Q234.031,103.977,227.727,106.014Zm8.446-9.868a76.811,76.811,0,0,1,12.681-4.625c-2.246,3.433-4.933,6.774-7.561,10.207A15.728,15.728,0,0,0,236.173,96.146Zm6.314,5.266a59.931,59.931,0,0,0,6.964-9.437,23.734,23.734,0,0,1,7.966,6.587A90.362,90.362,0,0,0,242.487,101.412Z" transform="translate(-201.991 -73.477)"></path></g></g></svg>