<svg xmlns="http://www.w3.org/2000/svg" width="48" height="48" viewBox="0 0 29.305 25.71"><path data-name="Path 965" d="M18.062 0c12.883 8.62 8.705 18.093 8.705 18.093s3.659 4.06 2.188 7.617c0 0-1.518-2.485-4.038-2.485-2.436 0-3.878 2.485-8.8 2.485-10.938 0-16.123-8.988-16.123-8.988 9.857 6.391 16.592 1.862 16.592 1.862C12.141 16.054 2.704 3.938 2.704 3.938c8.229 6.889 11.78 8.7 11.78 8.7-2.135-1.719-8.086-10.143-8.086-10.143 4.762 4.736 14.227 11.341 14.227 11.341 2.714-7.3-2.56-13.83-2.56-13.83Zm0 0" fill="currentColor"></path></svg>