<svg xmlns="http://www.w3.org/2000/svg" h="46" height="46" viewBox="0 0 46 46"><path id="Path_234" data-name="Path 234" d="M41.508,0H4.492A4.493,4.493,0,0,0,0,4.492V41.508A4.493,4.493,0,0,0,4.492,46H41.508A4.493,4.493,0,0,0,46,41.508V4.492A4.493,4.493,0,0,0,41.508,0ZM26.684,25.523h-5.77V41.957h-4.57V25.523H10.6V21.832H26.684Zm14.9,13.521A6.219,6.219,0,0,1,37.3,41.917a16.037,16.037,0,0,1-6.229.028,9.52,9.52,0,0,1-2.594-.843V36.6a8.628,8.628,0,0,0,2.658,1.539,8.538,8.538,0,0,0,2.9.513,4.789,4.789,0,0,0,2.566-.583,1.723,1.723,0,0,0,.851-1.454,2.428,2.428,0,0,0-1.259-1.911,17.506,17.506,0,0,0-3.114-1.5,8.832,8.832,0,0,1-3.523-2.4,5.728,5.728,0,0,1-.527-6.135,6.441,6.441,0,0,1,4.247-2.938,15.234,15.234,0,0,1,5.828-.155,11,11,0,0,1,2.242.583v4.2a6.75,6.75,0,0,0-1.1-.618,9.166,9.166,0,0,0-2.489-.7,7.251,7.251,0,0,0-2.594.064,2.752,2.752,0,0,0-1.744,1.054,1.52,1.52,0,0,0-.239.836,1.6,1.6,0,0,0,.267.906,4.823,4.823,0,0,0,1.955,1.462c1.249.613,2.56,1.074,3.761,1.785a6.157,6.157,0,0,1,2.707,2.924,6.536,6.536,0,0,1-.274,4.975Z" fill="#32478a"></path></svg>