<svg id="Group_2120" data-name="Group 2120" xmlns="http://www.w3.org/2000/svg" width="36" height="36" viewBox="0 0 47.562 27.796"><g id="Group_2119" data-name="Group 2119"><path id="Path_2429" data-name="Path 2429" d="M46.99,1.981A4.1,4.1,0,0,0,43.561.087c0-.033-.022-.062-.078-.087H4.178A.151.151,0,0,1,4.2.09,4.122,4.122,0,0,0,.008,4.374c0,4.958-.022,9.915.007,14.873A4.779,4.779,0,0,0,4.26,24.033a17.848,17.848,0,0,0,2.674.186c5.311-.006,10.625.007,15.938-.015a4.19,4.19,0,0,1,2.438.7c1.181.784,2.4,1.5,3.607,2.259a4.089,4.089,0,0,0,1.447.583,1.231,1.231,0,0,0,1.46-1.864,7.382,7.382,0,0,0-.616-1.03c-.339-.492-.147-.652.374-.635.216.007.432,0,.648,0,3.183,0,6.364.035,9.545-.013,2.708-.039,5.283-.92,5.786-4.242V3.88c-.24-.616-.156-1.309-.572-1.9m-1.419,16.5c0,2.147-1.157,3.278-3.339,3.281-4.54.007-9.083,0-13.623,0-1.2,0-1.4.192-1.5,1.691-1.687-2.06-3.829-1.689-5.879-1.691-5.19,0-10.381-.048-15.569.022a3.241,3.241,0,0,1-3.581-3.561c.108-4.308.026-8.621.032-12.932A2.955,2.955,0,0,1,5.387,2.042q18.443,0,36.884,0a2.967,2.967,0,0,1,3.3,3.319q.011,6.559,0,13.118" transform="translate(0)" fill="#32478a"></path><path id="Path_2430" data-name="Path 2430" d="M39.162,16.309a.921.921,0,0,0-1.323.176,5.746,5.746,0,0,0-.918,1.487,21.7,21.7,0,0,0-1.659,6.113c-.24,1.643-.407,3.3-.629,5.137a19.7,19.7,0,0,1-1.418-3.788c-.474-1.748-.9-3.51-1.364-5.259a1.236,1.236,0,0,0-1.029-1.054,1.253,1.253,0,0,0-1.261.75,10.424,10.424,0,0,0-.533.969c-1.118,2.36-2.224,4.725-3.345,7.083-.137.287-.173.661-.587.814-.441-3.523-.887-7.018-1.311-10.515-.089-.733-.414-1.2-1.185-1.065s-.889.694-.8,1.4c.307,2.317.557,4.641.856,6.959.267,2.073.474,4.155.926,6.2.126.569.387,1.06,1.045,1.141a1.212,1.212,0,0,0,1.238-.792c.321-.594.634-1.194.923-1.8,1.178-2.5,2.346-5,3.582-7.634.113.41.188.672.257.935A30.026,30.026,0,0,0,33,30.425a5.364,5.364,0,0,0,1.983,2.262,1.007,1.007,0,0,0,1.639-.85c.04-.4.022-.8.049-1.2.3-4.5.371-9.051,2.806-13.1a.888.888,0,0,0-.32-1.225" transform="translate(-17.721 -13.105)" fill="#32478a"></path><path id="Path_2431" data-name="Path 2431" d="M120.333,33.336a7.932,7.932,0,0,0-1.127,1.218,10.674,10.674,0,0,0-2.041,5.906,7.412,7.412,0,0,0,.715,3.419,3.477,3.477,0,0,0,4.945,1.542,5.264,5.264,0,0,0,1.341-.97,9.741,9.741,0,0,0,2.738-8.977c-.683-3.458-3.93-4.475-6.57-2.138m2.838,9.267a3.914,3.914,0,0,1-1.358,1.086,1.464,1.464,0,0,1-2.11-.667,3.9,3.9,0,0,1-.5-1.847,8.225,8.225,0,0,1,2.05-5.941c.615-.7,1.358-1.384,2.384-1.1s1.22,1.289,1.4,2.2a8.37,8.37,0,0,1,.089.965,8.734,8.734,0,0,1-1.955,5.3" transform="translate(-95.345 -26.099)" fill="#32478a"></path><path id="Path_2432" data-name="Path 2432" d="M185,32.714a5.272,5.272,0,0,0-1.086.855,9.86,9.86,0,0,0-2.689,8.826c.417,2.356,2.138,3.723,4.17,3.43a5.133,5.133,0,0,0,3.218-2.013,10.532,10.532,0,0,0,2.374-6.338,7.494,7.494,0,0,0-.534-3A3.525,3.525,0,0,0,185,32.714m2.077,9.811a4.312,4.312,0,0,1-1.179,1.024,1.552,1.552,0,0,1-2.436-.737,4.225,4.225,0,0,1-.406-1.693,8.255,8.255,0,0,1,2.073-5.933c.618-.691,1.358-1.373,2.389-1.069,1,.294,1.184,1.248,1.369,2.129a8.5,8.5,0,0,1,.1.954,8.768,8.768,0,0,1-1.911,5.326" transform="translate(-147.333 -26.072)" fill="#32478a"></path></g></svg>