<svg xmlns="http://www.w3.org/2000/svg" width="44.684" height="44.867" viewBox="0 0 44.684 44.867">
  <g id="Group_5455" data-name="Group 5455" transform="translate(0 2.096)">
    <path id="Path_5460" data-name="Path 5460" d="M34.8,291.6a4.8,4.8,0,1,0-4.8-4.8A4.806,4.806,0,0,0,34.8,291.6Zm0-7.855a3.055,3.055,0,1,1-3.055,3.055A3.058,3.058,0,0,1,34.8,283.745Z" transform="translate(-27.382 -259.302)" fill="#32478a"/>
    <path id="Path_5461" data-name="Path 5461" d="M.873,411.6H13.964a.873.873,0,0,0,.873-.873v-1.309a7.418,7.418,0,0,0-14.837,0v1.309A.873.873,0,0,0,.873,411.6Zm.873-2.182a5.673,5.673,0,0,1,11.346,0v.436H1.745Z" transform="translate(0 -368.829)" fill="#32478a"/>
    <path id="Path_5462" data-name="Path 5462" d="M376.8,282a4.8,4.8,0,1,0,4.8,4.8A4.806,4.806,0,0,0,376.8,282Zm0,7.855a3.055,3.055,0,1,1,3.055-3.055A3.058,3.058,0,0,1,376.8,289.855Z" transform="translate(-339.534 -259.302)" fill="#32478a"/>
    <path id="Path_5463" data-name="Path 5463" d="M349.418,402A7.415,7.415,0,0,0,342,409.418v1.309a.873.873,0,0,0,.873.873h13.091a.873.873,0,0,0,.873-.873v-1.309A7.427,7.427,0,0,0,349.418,402Zm5.673,7.855H343.745v-.436a5.673,5.673,0,0,1,11.346,0Z" transform="translate(-312.152 -368.829)" fill="#32478a"/>
    <path id="Path_5464" data-name="Path 5464" d="M96,60.873a.873.873,0,0,0,.873.873h26.182a.873.873,0,0,0,0-1.745H96.873A.873.873,0,0,0,96,60.873Z" transform="translate(-87.622 -56.677)" fill="#32478a"/>
    <path id="Path_5465" data-name="Path 5465" d="M123.055,120H96.873a.873.873,0,1,0,0,1.745h26.182a.873.873,0,0,0,0-1.745Z" transform="translate(-87.622 -111.44)" fill="#32478a"/>
    <circle id="Ellipse_182" data-name="Ellipse 182" cx="0.873" cy="0.873" r="0.873" transform="translate(21.287 -1.695) rotate(-13.3)" fill="#32478a"/>
    <path id="Path_5466" data-name="Path 5466" d="M51.273,0H38.618A2.621,2.621,0,0,0,36,2.618V14.837a2.621,2.621,0,0,0,2.618,2.618h5.236v4.364a.873.873,0,0,0,1.49.617l4.981-4.981h9.75l4.981,4.981a.873.873,0,0,0,1.49-.617V17.455h5.236A2.621,2.621,0,0,0,74.4,14.836V2.618A2.621,2.621,0,0,0,71.782,0H59.128a.873.873,0,1,0,0,1.745H71.782a.874.874,0,0,1,.873.873V14.837a.874.874,0,0,1-.873.873H65.673a.873.873,0,0,0-.873.873v3.129l-3.747-3.747a.873.873,0,0,0-.617-.256H49.964a.873.873,0,0,0-.617.256L45.6,19.712V16.582a.873.873,0,0,0-.873-.873H38.618a.874.874,0,0,1-.873-.873V2.618a.874.874,0,0,1,.873-.873H51.273a.873.873,0,0,0,0-1.745Z" transform="translate(-32.858 -1.913)" fill="#32478a"/>
  </g>
</svg>
