<svg xmlns="http://www.w3.org/2000/svg" width="47.054" height="47.071" viewBox="0 0 47.054 47.071">
  <g id="Group_5453" data-name="Group 5453" transform="translate(0.001 0.02)">
    <g id="Page-1" transform="translate(-0.001 -0.02)">
      <g id="_039---Positive-Interactions" data-name="039---Positive-Interactions">
        <path id="Shape" d="M33.074,26.232l-5.719,5.719-1.014-1.014a.784.784,0,0,0-1.109,1.109L26.8,33.615a.784.784,0,0,0,1.109,0l6.274-6.274a.784.784,0,0,0-1.109-1.109Z" transform="translate(-6.181 -6.382)" fill="#32478a"/>
        <path id="Shape-2" data-name="Shape" d="M37.072,26.09h-.109A12.469,12.469,0,0,0,22.957,12.083v-.109a10.979,10.979,0,1,0-17.81,8.579c.013.013.031.02.044.033a10.963,10.963,0,0,0,3.329,1.8c.016.007.032.012.049.018a10.928,10.928,0,0,0,3.41.545h.109A12.469,12.469,0,0,0,26.094,36.959v.109a10.959,10.959,0,0,0,4.147,8.579c.013.013.031.02.044.033a10.963,10.963,0,0,0,3.329,1.8c.016.007.032.012.049.018a10.869,10.869,0,0,0,6.822,0c.016-.006.033-.011.049-.018a10.95,10.95,0,0,0,3.328-1.8c.014-.013.032-.02.045-.033A10.968,10.968,0,0,0,37.072,26.09Zm0,12.547a3.9,3.9,0,0,1-3.686-5.245,12.581,12.581,0,0,0,1.62-2,3.861,3.861,0,0,1,2.066-.6,3.921,3.921,0,0,1,0,7.842ZM2.568,11.974a9.41,9.41,0,1,1,18.821,0c0,.147,0,.282-.01.416a12.491,12.491,0,0,0-4.555,2.251,5.362,5.362,0,0,0-1.389-.757,5.489,5.489,0,1,0-6.909,0,5.5,5.5,0,0,0-3.541,4.364A9.363,9.363,0,0,1,2.568,11.974ZM8.057,9.622a3.921,3.921,0,1,1,3.921,3.921A3.921,3.921,0,0,1,8.057,9.622Zm3.921,11.763a9.352,9.352,0,0,1-2.353-.31V19.032a.784.784,0,1,0-1.568,0v1.49a9.41,9.41,0,0,1-1.568-.916v-.574a3.926,3.926,0,0,1,3.921-3.921h3.137a3.861,3.861,0,0,1,2.063.6,12.537,12.537,0,0,0-3.215,5.668c-.135.005-.271.01-.416.01Zm1.568,3.137A10.979,10.979,0,1,1,24.525,35.5,10.979,10.979,0,0,1,13.547,24.521ZM27.662,37.068c0-.147,0-.282.01-.416a12.462,12.462,0,0,0,3.921-1.772,5.48,5.48,0,0,0,2.029,4.1,5.5,5.5,0,0,0-3.545,4.365A9.363,9.363,0,0,1,27.662,37.068Zm7.058,9.1V44.126a.784.784,0,0,0-1.568,0v1.49a9.411,9.411,0,0,1-1.568-.916v-.574A3.926,3.926,0,0,1,35.5,40.2h3.137a3.926,3.926,0,0,1,3.921,3.921v.57a9.41,9.41,0,0,1-1.568.92v-1.49a.784.784,0,0,0-1.568,0v2.039a9.089,9.089,0,0,1-4.705,0Zm9.348-2.823a5.5,5.5,0,0,0-3.545-4.365,5.489,5.489,0,0,0-3.45-9.751,5.406,5.406,0,0,0-.957.093,12.517,12.517,0,0,0,.542-1.651c.134-.005.27-.01.416-.01a9.395,9.395,0,0,1,6.995,15.684Z" transform="translate(-0.999 -0.98)" fill="#32478a"/>
        <path id="Shape-3" data-name="Shape" d="M35.691,2.23a.784.784,0,0,0-1.109,0L32.23,4.582a.784.784,0,0,0,0,1.109l2.353,2.353a.784.784,0,0,0,1.109-1.109l-.976-.976A18.842,18.842,0,0,1,52.389,24.741a.784.784,0,0,0,1.568,0A20.414,20.414,0,0,0,34.648,4.382l1.043-1.043a.784.784,0,0,0,0-1.109Z" transform="translate(-7.69 -1.2)" fill="#32478a"/>
        <path id="Shape-4" data-name="Shape" d="M3.568,30.784a.784.784,0,0,0-1.568,0,20.414,20.414,0,0,0,19.309,20.36l-1.043,1.043A.784.784,0,1,0,21.375,53.3l2.353-2.353a.784.784,0,0,0,0-1.109l-2.353-2.353a.784.784,0,0,0-1.109,1.109l.976.976A18.842,18.842,0,0,1,3.568,30.784Z" transform="translate(-1.215 -7.243)" fill="#32478a"/>
      </g>
    </g>
  </g>
</svg>
