<svg xmlns="http://www.w3.org/2000/svg" width="49.209" height="46.903" viewBox="0 0 49.209 46.903">
  <g id="Group_5454" data-name="Group 5454" transform="translate(0 -11.996)">
    <path id="Path_5451" data-name="Path 5451" d="M62.984,55.271a3.25,3.25,0,1,0,3.254,3.25A3.255,3.255,0,0,0,62.984,55.271Zm0,4.562A1.312,1.312,0,1,1,64.3,58.521,1.314,1.314,0,0,1,62.984,59.833Z" transform="translate(-53.992 -39.116)" fill="#32478a"/>
    <path id="Path_5452" data-name="Path 5452" d="M277.952,55.271h-8.6a3.25,3.25,0,1,0,0,6.5h8.6a3.25,3.25,0,1,0,0-6.5Zm0,4.562h-8.6a1.312,1.312,0,1,1,0-2.624h8.6a1.312,1.312,0,1,1,0,2.624Z" transform="translate(-240.529 -39.116)" fill="#32478a"/>
    <path id="Path_5453" data-name="Path 5453" d="M150.656,55.271a3.25,3.25,0,1,0,3.254,3.25A3.255,3.255,0,0,0,150.656,55.271Zm0,4.562a1.312,1.312,0,1,1,1.316-1.312A1.314,1.314,0,0,1,150.656,59.833Z" transform="translate(-133.238 -39.116)" fill="#32478a"/>
    <path id="Path_5454" data-name="Path 5454" d="M135.473,222.191a.969.969,0,0,0-1.168.717l-1.923,8.046a.969.969,0,1,0,1.885.451l1.923-8.046A.969.969,0,0,0,135.473,222.191Z" transform="translate(-119.635 -189.969)" fill="#32478a"/>
    <path id="Path_5455" data-name="Path 5455" d="M198.762,238.015a.969.969,0,0,0,1.369-.079l2.718-3.051a1.345,1.345,0,0,0,0-1.777l-2.721-3.054a.969.969,0,0,0-1.448,1.289l2.362,2.652-2.362,2.652A.969.969,0,0,0,198.762,238.015Z" transform="translate(-179.365 -196.806)" fill="#32478a"/>
    <path id="Path_5456" data-name="Path 5456" d="M61.478,229.976a.969.969,0,0,0-1.368.079l-2.718,3.051a1.344,1.344,0,0,0,0,1.777l2.721,3.054a.969.969,0,0,0,1.448-1.289L59.2,234l2.362-2.652a.969.969,0,0,0-.079-1.369Z" transform="translate(-51.571 -196.807)" fill="#32478a"/>
    <path id="Path_5457" data-name="Path 5457" d="M47.036,43.476h-.36a10.205,10.205,0,0,0-.731-1.763l.257-.258a2.172,2.172,0,0,0,0-3.072l-.5-.5V17.239c0-2.891-2.04-5.243-4.548-5.243H4.548C2.04,12,0,14.348,0,17.239V44.328c0,2.891,2.04,5.243,4.548,5.243h5.687a.969.969,0,1,0,0-1.938H4.548c-1.414,0-2.609-1.513-2.609-3.3V26.744H43.766v9.794a2.2,2.2,0,0,0-.336-.028h0a2.149,2.149,0,0,0-1.529.634l-.262.261a10.232,10.232,0,0,0-1.791-.74V36.32a2.175,2.175,0,0,0-2.173-2.172H35.916a2.174,2.174,0,0,0-2.17,2.172v.369a10.288,10.288,0,0,0-1.75.733l-.251-.25a2.152,2.152,0,0,0-1.533-.637h0a2.158,2.158,0,0,0-1.536.635l-1.239,1.239a2.171,2.171,0,0,0,0,3.068l.268.268a10.235,10.235,0,0,0-.714,1.731h-.368a2.172,2.172,0,0,0-2.17,2.17V47.4a2.184,2.184,0,0,0,.012.231H18.821a.969.969,0,1,0,0,1.938H26.99a10.175,10.175,0,0,0,.725,1.745l-.262.261a2.175,2.175,0,0,0,0,3.068l1.24,1.239a2.152,2.152,0,0,0,1.533.637h0a2.158,2.158,0,0,0,1.536-.635l.26-.259a10.241,10.241,0,0,0,1.752.726v.375a2.174,2.174,0,0,0,2.17,2.172h1.757a2.174,2.174,0,0,0,2.17-2.172v-.373a10.214,10.214,0,0,0,1.759-.728l.258.257a2.151,2.151,0,0,0,1.533.637h0a2.159,2.159,0,0,0,1.537-.636L46.2,54.646a2.171,2.171,0,0,0,0-3.072l-.259-.259a10.234,10.234,0,0,0,.724-1.745h.366a2.174,2.174,0,0,0,2.173-2.17V45.645a2.173,2.173,0,0,0-2.173-2.169Zm-45.1-18.67V17.239c0-1.791,1.195-3.3,2.609-3.3H41.156c1.414,0,2.609,1.513,2.609,3.3v7.567H1.939ZM47.271,47.4a.239.239,0,0,1-.235.231H45.928a.969.969,0,0,0-.945.753,8.32,8.32,0,0,1-1.069,2.575.969.969,0,0,0,.136,1.2l.784.784a.232.232,0,0,1,.067.165.225.225,0,0,1-.068.163l-1.238,1.241a.233.233,0,0,1-.166.067h0a.226.226,0,0,1-.164-.069l-.787-.784a.969.969,0,0,0-1.2-.134,8.3,8.3,0,0,1-2.586,1.07.969.969,0,0,0-.754.945v1.116a.239.239,0,0,1-.232.234H35.949a.239.239,0,0,1-.232-.234V55.608a.969.969,0,0,0-.755-.945,8.316,8.316,0,0,1-2.581-1.068.969.969,0,0,0-1.2.136l-.784.784a.233.233,0,0,1-.166.067h0a.225.225,0,0,1-.163-.067l-1.242-1.241a.239.239,0,0,1,0-.326l.787-.784a.969.969,0,0,0,.136-1.2,8.261,8.261,0,0,1-1.07-2.573.969.969,0,0,0-.945-.753H26.619a.235.235,0,0,1-.232-.231V45.646a.235.235,0,0,1,.232-.231H27.73a.969.969,0,0,0,.945-.754A8.314,8.314,0,0,1,29.731,42.1a.969.969,0,0,0-.136-1.2l-.793-.8a.222.222,0,0,1-.065-.16.232.232,0,0,1,.067-.165l1.239-1.238a.233.233,0,0,1,.166-.067h0a.226.226,0,0,1,.164.069l.782.779a.969.969,0,0,0,1.2.132,8.361,8.361,0,0,1,2.578-1.081.969.969,0,0,0,.748-.944V36.32a.236.236,0,0,1,.232-.234H37.67a.237.237,0,0,1,.235.234v1.091a.969.969,0,0,0,.759.946,8.31,8.31,0,0,1,2.615,1.078.97.97,0,0,0,1.2-.134l.79-.787a.223.223,0,0,1,.161-.065h0a.233.233,0,0,1,.166.067l1.239,1.238a.232.232,0,0,1,.067.165.225.225,0,0,1-.068.164l-.784.787a.969.969,0,0,0-.133,1.2,8.3,8.3,0,0,1,1.073,2.589.969.969,0,0,0,.945.754h1.1a.239.239,0,0,1,.235.231Z" transform="translate(0 0)" fill="#32478a"/>
    <path id="Path_5458" data-name="Path 5458" d="M327.482,309.652a5.919,5.919,0,1,0,5.92,5.921A5.929,5.929,0,0,0,327.482,309.652Zm0,9.9a3.981,3.981,0,1,1,3.982-3.979A3.987,3.987,0,0,1,327.482,319.552Z" transform="translate(-290.653 -269.048)" fill="#32478a"/>
    <path id="Path_5459" data-name="Path 5459" d="M142.16,382.778h-.019a.969.969,0,0,0,0,1.938h.019a.969.969,0,0,0,0-1.938Z" transform="translate(-127.604 -335.145)" fill="#32478a"/>
  </g>
</svg>
