<svg xmlns="http://www.w3.org/2000/svg" width="47.31" height="47.61" viewBox="0 0 47.31 47.61">
  <g id="Group_5452" data-name="Group 5452" transform="translate(0 0.303)">
    <g id="Group_5434" data-name="Group 5434" transform="translate(0 7.882)">
      <g id="Group_5433" data-name="Group 5433" transform="translate(0 0)">
        <path id="Path_5449" data-name="Path 5449" d="M44.813,91.322a6.308,6.308,0,1,0-7.97-.283H32.655L27.366,85.75a.788.788,0,0,0-1.115,0L23.1,88.9a.788.788,0,0,0,0,1.115l7.1,7.1a.785.785,0,0,0,.557.231h6.308v5.519H23.551L27.465,97l-1.312-.874-4.5,6.745H19.712V98.924a.788.788,0,0,0-.788-.788H12.616V94.981a3.943,3.943,0,0,0-2.5-3.659,6.308,6.308,0,1,0-7.623,0A3.943,3.943,0,0,0,0,94.981V106.02a3.947,3.947,0,0,0,3.942,3.942v9.462H5.519v-9.462h5.519v8.673a.788.788,0,0,0,.788.789h5.519a.788.788,0,0,0,.788-.789V106.809a3.921,3.921,0,0,0-.79-2.365h5.521v13.4H19.712v1.577H27.6v-1.577H24.443v-13.4h5.54a3.9,3.9,0,0,0-.809,2.365v11.827a.788.788,0,0,0,.788.789h5.519a.788.788,0,0,0,.788-.789v-8.673H41.79v9.462h1.577v-9.462a3.947,3.947,0,0,0,3.942-3.942V94.981A3.943,3.943,0,0,0,44.813,91.322ZM1.577,86.308a4.731,4.731,0,1,1,4.731,4.731A4.736,4.736,0,0,1,1.577,86.308Zm16.558,16.558H7.885V96.558H6.308v7.1a.788.788,0,0,0,.788.789h7.1a2.368,2.368,0,0,1,2.365,2.365v11.039H12.616v-8.673a.788.788,0,0,0-.788-.788H3.942a2.368,2.368,0,0,1-2.365-2.365V94.981a2.368,2.368,0,0,1,2.365-2.365H8.673a2.368,2.368,0,0,1,2.365,2.365v3.942a.788.788,0,0,0,.788.788h6.308ZM36.271,86.308A4.731,4.731,0,1,1,41,91.039,4.736,4.736,0,0,1,36.271,86.308Zm9.462,19.712a2.368,2.368,0,0,1-2.365,2.365H35.482a.788.788,0,0,0-.788.788v8.673H30.751V106.809a2.368,2.368,0,0,1,2.365-2.365h4.731a.788.788,0,0,0,.788-.789v-7.1a.788.788,0,0,0-.788-.788h-6.77L24.77,89.462l2.039-2.039,4.962,4.962a.785.785,0,0,0,.557.231H43.367a2.368,2.368,0,0,1,2.365,2.365Z" transform="translate(0 -80)" fill="#fe4e4e"/>
      </g>
    </g>
    <g id="Group_5436" data-name="Group 5436" transform="translate(13.404 -0.303)">
      <g id="Group_5435" data-name="Group 5435">
        <path id="Path_5450" data-name="Path 5450" d="M154.135,0h-15.77A2.368,2.368,0,0,0,136,2.365V8.673a2.368,2.368,0,0,0,2.365,2.365h.788V15.77a.788.788,0,0,0,.487.729.779.779,0,0,0,.3.06.789.789,0,0,0,.557-.231l5.288-5.288h8.347A2.368,2.368,0,0,0,156.5,8.673V2.365A2.368,2.368,0,0,0,154.135,0Zm.789,8.673a.789.789,0,0,1-.789.788h-8.673a.785.785,0,0,0-.557.231l-4.173,4.173V10.25a.788.788,0,0,0-.789-.788h-1.577a.789.789,0,0,1-.788-.788V2.365a.789.789,0,0,1,.788-.788h15.77a.789.789,0,0,1,.789.788Z" transform="translate(-136)" fill="#fe4e4e"/>
      </g>
    </g>
    <g id="Group_5438" data-name="Group 5438" transform="translate(16.819 3.153)">
      <g id="Group_5437" data-name="Group 5437" transform="translate(0 0)">
        <rect id="Rectangle_2039" data-name="Rectangle 2039" width="4.35" height="1.864" fill="#fe4e4e"/>
      </g>
    </g>
    <g id="Group_5440" data-name="Group 5440" transform="translate(16.819 6.26)">
      <g id="Group_5439" data-name="Group 5439" transform="translate(0 0)">
        <rect id="Rectangle_2040" data-name="Rectangle 2040" width="13.673" height="1.864" fill="#fe4e4e"/>
      </g>
    </g>
    <g id="Group_5442" data-name="Group 5442" transform="translate(23.033 3.153)">
      <g id="Group_5441" data-name="Group 5441" transform="translate(0 0)">
        <rect id="Rectangle_2041" data-name="Rectangle 2041" width="7.458" height="1.864" fill="#fe4e4e"/>
      </g>
    </g>
  </g>
</svg>
