<svg xmlns="http://www.w3.org/2000/svg" width="512" height="512" viewBox="0 0 446 446.344" style="enable-background:new 0 0 512 512" xml:space="preserve"><g fill="#fe4e4e"><path xmlns="http://www.w3.org/2000/svg" d="M216.668 419.926c-108.523 0-196.824-88.297-196.824-196.824 0-78.977 47.578-149.79 118.5-180.598L121.73 69.543a9.85 9.85 0 0 0 3.536 13.008 9.846 9.846 0 0 0 13.203-2.711l31.156-50.785a9.846 9.846 0 0 0-6.215-14.77L101.145.195C95.902-.867 90.77 2.453 89.585 7.668c-1.179 5.219 2.017 10.426 7.208 11.727l29.902 6.824A218.596 218.596 0 0 0 45.13 91.016c-50.328 65.37-59.137 153.66-22.711 227.683 36.426 74.024 111.75 120.914 194.25 120.922 5.437 0 9.848-4.41 9.848-9.848s-4.41-9.847-9.848-9.847zM369.766 70.082A215.114 215.114 0 0 0 216.668 6.664c-5.438 0-9.844 4.41-9.844 9.848s4.406 9.843 9.844 9.843c108.523 0 196.824 88.301 196.824 196.829 0 78.964-47.574 149.777-118.488 180.586l16.601-27.028a9.847 9.847 0 0 0-3.246-13.543c-4.632-2.844-10.699-1.39-13.543 3.242l-31.152 50.79a9.836 9.836 0 0 0-.691 8.98 9.844 9.844 0 0 0 6.906 5.789l62.316 14.148c5.243 1.063 10.371-2.257 11.555-7.472 1.184-5.219-2.016-10.426-7.203-11.727l-29.883-6.883a218.628 218.628 0 0 0 81.543-64.796c66.387-86.204 58.496-208.282-18.441-285.215zm0 0" data-original="#000000"/><path xmlns="http://www.w3.org/2000/svg" d="M112.535 240.57c9.934-6.355 16.707-12.07 20.324-17.152s5.426-11.492 5.426-19.238c0-9.426-3.172-17.125-9.512-23.102-6.343-5.973-14.546-8.957-24.617-8.95-10.785 0-19.242 3.243-25.375 9.727-6.129 6.489-9.031 15.258-8.703 26.313H89.77c-.184-5.91 1.007-10.598 3.566-14.07a12.6 12.6 0 0 1 10.71-5.172 13.609 13.609 0 0 1 10.36 4.125c2.625 2.754 3.938 6.39 3.938 10.922a19.157 19.157 0 0 1-3.64 11.293c-2.384 3.386-6.49 7.109-12.321 11.164-13.016 9.136-21.875 17.043-26.582 23.71s-7.063 14.673-7.063 24.005h69.555V256.52H93.641l.07-.137c3.36-4.715 9.637-9.985 18.824-15.813zM143.422 243.012v8.683h40.371v22.461h19.691v-22.46h11.48v-15.962h-11.429V172.13h-22.39l-37.723 62.207zm15.625-8.676L183.8 193.25v42.484h-25.598zM306.898 274.156h20.63a143.238 143.238 0 0 1 11.753-45.344 141.237 141.237 0 0 1 25.324-39.472v-15.184h-72.12v17.637h50.511a146.857 146.857 0 0 0-23.633 36.953 142.97 142.97 0 0 0-12.465 45.41zM288.16 114.035c-5.195-1.605-10.71 1.305-12.316 6.5l-61.586 199.406c-1.602 5.192 1.304 10.7 6.496 12.305.957.3 1.953.453 2.953.445a9.846 9.846 0 0 0 9.414-6.941l61.59-199.406a9.842 9.842 0 0 0-.723-7.512 9.843 9.843 0 0 0-5.828-4.797zm0 0" data-original="#000000"/></g></svg>