<svg xmlns="http://www.w3.org/2000/svg" width="512" height="512" viewBox="0 0 511.991 511.991" style="enable-background:new 0 0 512 512" xml:space="preserve"><g xmlns="http://www.w3.org/2000/svg"><path d="M34.108 248.505c-10.361 0-20.057-6.522-23.583-16.861l-9.179-26.897C-.8 198.454-.369 191.703 2.56 185.735c2.931-5.971 8.01-10.441 14.302-12.588l265.525-90.625a7.5 7.5 0 0 1 9.52 4.676 7.5 7.5 0 0 1-4.675 9.52L21.705 187.343a9.814 9.814 0 0 0-5.68 5 9.841 9.841 0 0 0-.483 7.561l9.179 26.897c1.762 5.166 7.397 7.937 12.56 6.174l383.668-130.953a7.501 7.501 0 0 1 9.52 4.674l5.5 16.099c1.016 2.977 3.48 5.002 6.594 5.419 3.108.414 6.017-.888 7.777-3.488l45.237-66.818a8.026 8.026 0 0 0 .962-7.157 8.019 8.019 0 0 0-5.13-5.072l-76.66-25.22c-2.981-.98-6.082-.232-8.293 2.003-2.207 2.232-2.92 5.339-1.906 8.31l5.5 16.097a7.498 7.498 0 0 1-4.674 9.522L320.25 85.448a7.499 7.499 0 0 1-9.52-4.675 7.5 7.5 0 0 1 4.675-9.52l78.026-26.635-3.075-9.001c-2.848-8.349-.767-17.43 5.435-23.702 6.204-6.274 15.263-8.46 23.643-5.706l76.657 25.219c6.941 2.278 12.28 7.555 14.642 14.477 2.363 6.922 1.364 14.363-2.738 20.415l-45.234 66.812c-4.943 7.304-13.443 11.116-22.187 9.947-8.746-1.17-15.949-7.086-18.8-15.439l-3.076-9.002L42.125 247.17a24.805 24.805 0 0 1-8.017 1.335zM83.104 506.952H34.069c-18.784 0-34.065-15.281-34.065-34.065v-86.98c0-18.783 15.281-34.065 34.065-34.065h49.035c18.783 0 34.065 15.281 34.065 34.065v86.98c0 18.784-15.281 34.065-34.065 34.065zM34.069 366.841c-10.513 0-19.066 8.553-19.066 19.065v86.98c0 10.513 8.553 19.066 19.066 19.066h49.035c10.513 0 19.065-8.553 19.065-19.066v-86.98c0-10.513-8.553-19.065-19.065-19.065zM214.703 506.949h-49.027c-18.786 0-34.069-15.279-34.069-34.058V341.777c0-10.454 4.697-20.18 12.886-26.682a7.5 7.5 0 0 1 9.328 11.746 18.97 18.97 0 0 0-7.214 14.936V472.89c0 10.509 8.554 19.059 19.069 19.059h49.027c10.515 0 19.069-8.55 19.069-19.059V341.777c0-10.515-8.554-19.069-19.069-19.069h-31.528a7.5 7.5 0 0 1 0-15h31.528c18.785 0 34.068 15.283 34.068 34.068v131.113c0 18.782-15.283 34.06-34.068 34.06zM346.31 506.952h-49.035c-18.783 0-34.065-15.281-34.065-34.065V274.63c0-18.783 15.281-34.065 34.065-34.065h49.035c18.784 0 34.066 15.281 34.066 34.065v198.256c-.001 18.785-15.282 34.066-34.066 34.066zm-49.035-251.387c-10.513 0-19.065 8.553-19.065 19.065v198.256c0 10.513 8.552 19.066 19.065 19.066h49.035c10.513 0 19.066-8.553 19.066-19.066V274.63c0-10.513-8.553-19.065-19.066-19.065zM477.909 506.949h-49.027c-18.785 0-34.069-15.279-34.069-34.058v-31.768c0-4.142 3.357-7.5 7.5-7.5s7.5 3.358 7.5 7.5v31.768c0 10.509 8.554 19.059 19.069 19.059h49.027c10.515 0 19.069-8.55 19.069-19.059V196.825c0-10.515-8.554-19.069-19.069-19.069h-49.027c-10.515 0-19.069 8.554-19.069 19.069v209.299c0 4.142-3.357 7.5-7.5 7.5s-7.5-3.358-7.5-7.5V196.825c0-18.786 15.283-34.069 34.069-34.069h49.027c18.785 0 34.069 15.283 34.069 34.069v276.066c0 18.78-15.283 34.058-34.069 34.058z" fill="#fe4e4e" data-original="#000000"/></g></svg>