<svg xmlns="http://www.w3.org/2000/svg" width="512" height="512"><g xmlns="http://www.w3.org/2000/svg"><path fill="#32478a" d="M502 475.563h-20.299v-26.104c0-28.849-18.579-53.439-44.4-62.435 15.585-12.974 25.522-32.514 25.522-54.331 0-38.97-31.705-70.675-70.675-70.675-19.316 0-36.847 7.789-49.617 20.392-4.579-43.7-41.639-77.875-86.531-77.875s-81.952 34.175-86.531 77.875c-12.77-12.603-30.301-20.392-49.617-20.392-38.97 0-70.675 31.705-70.675 70.675 0 21.817 9.937 41.356 25.522 54.331-25.821 8.996-44.401 33.587-44.401 62.435v26.104H10c-5.523 0-10 4.477-10 10s4.477 10 10 10h200.793c5.523 0 10-4.477 10-10s-4.477-10-10-10h-45.761V439.74c0-33.741 27.45-61.19 61.19-61.19h59.555c33.74 0 61.19 27.45 61.19 61.19v35.823h-45.762c-5.522 0-10 4.477-10 10s4.478 10 10 10H502c5.522 0 10-4.477 10-10s-4.478-10-10-10zM392.148 282.018c27.942 0 50.675 22.732 50.675 50.675s-22.732 50.675-50.675 50.675-50.675-22.732-50.675-50.675 22.733-50.675 50.675-50.675zM256 224.535c36.948 0 67.008 30.06 67.008 67.007S292.948 358.55 256 358.55s-67.007-30.06-67.007-67.007 30.059-67.008 67.007-67.008zM69.177 332.693c0-27.942 22.732-50.675 50.675-50.675s50.675 22.732 50.675 50.675-22.732 50.675-50.675 50.675-50.675-22.733-50.675-50.675zM50.298 449.459c0-25.415 20.677-46.091 46.092-46.091h46.923c3.499 0 6.561.365 9.725 1.229-5.13 10.64-8.007 22.562-8.007 35.144v35.823H50.298zm124.825-72.768c6.783-8.503 11.648-18.6 13.935-29.629a87.757 87.757 0 0 0 15.313 14.474 81.048 81.048 0 0 0-29.248 15.155zm132.506-15.155a87.757 87.757 0 0 0 15.313-14.474c2.287 11.029 7.153 21.126 13.935 29.629a81.055 81.055 0 0 0-29.248-15.155zm59.339 114.027V439.74c0-12.581-2.877-24.504-8.007-35.143 3.164-.864 6.226-1.229 9.725-1.229h46.924c25.415 0 46.091 20.676 46.091 46.091v26.104z" data-original="#000000"/><path d="M261.37 477.25c-3.456-2.306-8.102-2.196-11.458.246-3.358 2.443-4.852 6.877-3.692 10.858 1.151 3.949 4.71 6.846 8.81 7.173 4.217.337 8.28-2.116 9.96-5.996 1.885-4.349.37-9.669-3.62-12.281zM143.984 213.135c-2.095 0-4.207-.42-6.222-1.274l-23.049-9.765-23.049 9.765c-5.175 2.193-10.979 1.529-15.525-1.774-4.546-3.304-6.97-8.618-6.484-14.217l2.164-24.938-16.41-18.903c-3.684-4.245-4.846-9.97-3.109-15.314s6.042-9.292 11.518-10.559l24.385-5.648 12.908-21.448c2.898-4.815 7.983-7.689 13.603-7.689 5.619 0 10.705 2.875 13.602 7.689l12.908 21.448 24.387 5.648c5.474 1.268 9.78 5.215 11.517 10.56s.574 11.069-3.11 15.313l-16.409 18.903 2.164 24.938c.486 5.599-1.938 10.914-6.485 14.217-2.777 2.015-6.02 3.048-9.304 3.048zm-68.979-69.043 14.694 16.928a10 10 0 0 1 2.411 7.42l-1.938 22.332 20.64-8.744a9.994 9.994 0 0 1 7.802 0l20.64 8.744-1.938-22.332a10 10 0 0 1 2.411-7.42l14.694-16.928-21.838-5.058a10 10 0 0 1-6.312-4.586l-11.559-19.206-11.558 19.206a10 10 0 0 1-6.312 4.586zM426.559 213.135a15.93 15.93 0 0 1-6.222-1.274l-23.05-9.765-23.048 9.765c-5.176 2.191-10.979 1.53-15.525-1.774-4.547-3.303-6.971-8.617-6.485-14.216l2.164-24.938-16.409-18.903c-3.685-4.246-4.846-9.971-3.108-15.315 1.737-5.344 6.043-9.291 11.518-10.558l24.385-5.648 12.907-21.448c2.897-4.815 7.982-7.689 13.603-7.689s10.705 2.875 13.603 7.69l12.908 21.447 24.386 5.648c5.475 1.268 9.78 5.215 11.517 10.56s.574 11.069-3.109 15.313l-16.409 18.903 2.164 24.938c.485 5.599-1.938 10.914-6.485 14.217-2.778 2.014-6.022 3.047-9.305 3.047zm-68.98-69.043 14.694 16.928a10 10 0 0 1 2.411 7.42l-1.938 22.332 20.64-8.744a10.001 10.001 0 0 1 7.803 0l20.64 8.744-1.938-22.331a10.005 10.005 0 0 1 2.411-7.42l14.694-16.928-21.837-5.058a10.005 10.005 0 0 1-6.313-4.585l-11.559-19.206-11.558 19.206a10 10 0 0 1-6.312 4.586zM219.813 162.256c-3.57 0-7.098-1.123-10.116-3.316-4.944-3.592-7.581-9.372-7.052-15.46l2.762-31.831-20.945-24.128c-4.006-4.614-5.27-10.839-3.382-16.652 1.888-5.812 6.57-10.106 12.524-11.485l31.127-7.208L241.208 24.8c3.151-5.236 8.682-8.363 14.792-8.363h.001c6.111 0 11.641 3.127 14.792 8.363l16.475 27.375 31.126 7.208c5.955 1.379 10.637 5.673 12.525 11.486 1.888 5.812.623 12.038-3.384 16.652l-20.943 24.127 2.763 31.831c.528 6.088-2.108 11.868-7.053 15.46-4.945 3.591-11.258 4.313-16.883 1.929L256 148.406l-29.419 12.464a17.327 17.327 0 0 1-6.768 1.386zM256 127.546c1.327 0 2.654.264 3.9.792l29.136 12.343-2.736-31.523a10.005 10.005 0 0 1 2.411-7.42l20.742-23.895-30.825-7.139a10.003 10.003 0 0 1-6.313-4.586L256 39.006l-16.316 27.111a9.998 9.998 0 0 1-6.312 4.586l-30.826 7.139 20.743 23.895a10 10 0 0 1 2.411 7.42l-2.736 31.523 29.135-12.343a10.02 10.02 0 0 1 3.901-.791z" fill="#32478a" data-original="#32478a"/></g></svg>