<svg xmlns="http://www.w3.org/2000/svg" width="512" height="512" style="enable-background:new 0 0 512 512" xml:space="preserve"><path xmlns="http://www.w3.org/2000/svg" d="M302 120h68.785l-94.39 94.395 21.21 21.21L392 141.215V210h30V90H302zM452 0v30h30v30h30V0zM482 390h-30v30h60v-60h-30zM482 90h30v60h-30zM482 180h30v60h-30zM482 270h30v60h-30zM122 30h30V0H92v60h30zM92 90h30v60H92zM92 180h30v60H92zM182 0h60v30h-60zM272 0h60v30h-60zM362 0h60v30h-60zM272 390h60v30h-60zM362 390h60v30h-60zM0 512h240V272H0zm30-210h180v180H30zm0 0" fill="#fe4e4e" data-original="#fe4e4e"/></svg>