<svg xmlns="http://www.w3.org/2000/svg" width="512" height="512" viewBox="0 0 512.07 512.07" style="enable-background:new 0 0 512 512" xml:space="preserve"><g fill="#fe4e4e" xmlns="http://www.w3.org/2000/svg"><path d="M76.834 367.003h-51.2c-14.132.015-25.585 11.468-25.6 25.6v110.933a8.533 8.533 0 0 0 8.533 8.533H93.9a8.533 8.533 0 0 0 8.533-8.533V392.603c-.015-14.132-11.467-25.584-25.599-25.6zm8.533 128H17.1v-102.4a8.544 8.544 0 0 1 8.533-8.533h51.2a8.544 8.544 0 0 1 8.533 8.533v102.4zM213.367 247.537h-51.2c-14.132.015-25.585 11.468-25.6 25.6v230.4a8.533 8.533 0 0 0 8.533 8.533h85.333a8.533 8.533 0 0 0 8.533-8.533v-230.4c-.015-14.133-11.467-25.585-25.599-25.6zm8.533 247.466h-68.267V273.137a8.544 8.544 0 0 1 8.533-8.533h51.2a8.544 8.544 0 0 1 8.533 8.533v221.866zM349.9 298.737h-51.2c-14.132.015-25.585 11.468-25.6 25.6v179.2a8.533 8.533 0 0 0 8.533 8.533h85.333a8.533 8.533 0 0 0 8.533-8.533v-179.2c-.014-14.133-11.467-25.585-25.599-25.6zm8.534 196.266h-68.267V324.337a8.544 8.544 0 0 1 8.533-8.533h51.2a8.544 8.544 0 0 1 8.533 8.533v170.666zM486.434 230.47h-51.2c-14.132.015-25.585 11.468-25.6 25.6v247.467a8.533 8.533 0 0 0 8.533 8.533H503.5a8.533 8.533 0 0 0 8.533-8.533V256.07c-.015-14.132-11.467-25.585-25.599-25.6zm8.533 264.533H426.7V256.07a8.544 8.544 0 0 1 8.533-8.533h51.2a8.544 8.544 0 0 1 8.533 8.533v238.933zM422.613 102.288c15.633 17.596 41.254 22.258 62.083 11.296s31.493-34.72 25.84-57.569c-5.653-22.849-26.165-38.893-49.702-38.879a51.158 51.158 0 0 0-47.318 70.706l-50.994 31.875a50.964 50.964 0 0 0-73.432-3.124l-55.852-41.889c11.808-22.839 4.844-50.893-16.274-65.559-21.118-14.666-49.838-11.394-67.115 7.647-17.277 19.041-17.751 47.943-1.108 67.54L77.199 169.35c-22.94-13.498-52.397-7.167-67.766 14.564s-11.525 51.614 8.845 68.747c20.37 17.133 50.469 15.801 69.246-3.064 18.777-18.865 19.967-48.971 2.738-69.26l71.542-85.018c19.643 11.685 44.669 8.831 61.177-6.977l55.852 41.889c-10.87 21.055-5.868 46.819 12.091 62.277s44.181 16.568 63.383 2.684c19.202-13.884 26.365-39.132 17.314-61.031l50.992-31.873zm38.221-68.085c18.851 0 34.133 15.282 34.133 34.133-.022 18.842-15.291 34.112-34.133 34.133-18.851 0-34.133-15.282-34.133-34.133s15.281-34.133 34.133-34.133zm-409.6 213.334c-18.851 0-34.133-15.282-34.133-34.133 0-18.851 15.282-34.133 34.133-34.133s34.133 15.282 34.133 34.133c-.022 18.842-15.291 34.111-34.133 34.133zM187.767 85.403c-18.851 0-34.133-15.282-34.133-34.133s15.282-34.133 34.133-34.133S221.9 32.419 221.9 51.27c-.021 18.842-15.291 34.112-34.133 34.133zm136.533 102.4c-18.851 0-34.133-15.282-34.133-34.133s15.282-34.133 34.133-34.133c18.851 0 34.133 15.282 34.133 34.133-.021 18.842-15.29 34.112-34.133 34.133z" data-original="#000000"/></g></svg>